<?xml version="1.0" encoding="utf-8"?>
<!-- Generator: Adobe Illustrator 16.0.0, SVG Export Plug-In . SVG Version: 6.00 Build 0)  -->
<!DOCTYPE svg PUBLIC "-//W3C//DTD SVG 1.1//EN" "http://www.w3.org/Graphics/SVG/1.1/DTD/svg11.dtd">
<svg version="1.1" id="Capa_1" xmlns="http://www.w3.org/2000/svg" xmlns:xlink="http://www.w3.org/1999/xlink" x="0px" y="0px"
	 width="50px" height="50px" viewBox="0 0 50 50" enable-background="new 0 0 50 50" xml:space="preserve">
<g>
	<path fill="#FFA700" d="M49.485,20.255L44.229,5.159c-0.471-1.347-1.742-2.25-3.166-2.25c-0.379,0-0.75,0.062-1.105,0.187
		L24.862,8.351c-0.846,0.296-1.526,0.902-1.916,1.708c-0.392,0.808-0.441,1.718-0.146,2.563l5.256,15.096
		c0.471,1.346,1.743,2.252,3.168,2.252c0.375,0,0.748-0.062,1.104-0.188l15.094-5.258c0.846-0.294,1.527-0.9,1.917-1.707
		C49.729,22.013,49.78,21.101,49.485,20.255z M29.882,14.962c-1.027,0.357-2.152-0.186-2.513-1.215
		c-0.356-1.029,0.187-2.153,1.216-2.514c1.027-0.357,2.154,0.187,2.512,1.215C31.455,13.479,30.91,14.603,29.882,14.962z
		 M33.45,25.213c-1.028,0.358-2.152-0.187-2.512-1.216c-0.357-1.029,0.185-2.153,1.213-2.512c1.031-0.357,2.156,0.186,2.514,1.215
		C35.024,23.729,34.479,24.854,33.45,25.213z M40.132,11.392c-1.029,0.357-2.152-0.186-2.514-1.214
		c-0.355-1.029,0.186-2.154,1.215-2.513s2.154,0.186,2.514,1.215C41.704,9.909,41.16,11.034,40.132,11.392z M43.701,21.642
		c-1.028,0.359-2.153-0.186-2.513-1.214c-0.358-1.028,0.185-2.153,1.215-2.513c1.027-0.358,2.154,0.186,2.512,1.216
		C45.274,20.159,44.729,21.284,43.701,21.642z"/>
	<path fill="#FFA700" d="M19.339,19.034H3.354C1.505,19.034,0,20.538,0,22.389v15.983c0,1.85,1.505,3.354,3.354,3.354h15.984
		c1.85,0,3.354-1.505,3.354-3.354V22.39C22.692,20.538,21.188,19.034,19.339,19.034z M5.92,37.78c-1.091,0-1.974-0.883-1.974-1.972
		c0-1.091,0.883-1.976,1.974-1.976s1.974,0.885,1.974,1.976C7.894,36.897,7.011,37.78,5.92,37.78z M5.92,26.927
		c-1.091,0-1.974-0.885-1.974-1.975c0-1.088,0.883-1.973,1.974-1.973s1.974,0.883,1.974,1.973S7.011,26.927,5.92,26.927z
		 M11.347,32.685c-1.089,0-1.973-0.885-1.973-1.974c0-1.091,0.883-1.976,1.973-1.976s1.975,0.885,1.975,1.976
		C13.319,31.8,12.437,32.685,11.347,32.685z M16.772,37.78c-1.09,0-1.973-0.883-1.973-1.972c0-1.091,0.883-1.976,1.973-1.976
		c1.092,0,1.975,0.885,1.975,1.976C18.747,36.897,17.864,37.78,16.772,37.78z M16.772,26.927c-1.09,0-1.973-0.885-1.973-1.975
		c0-1.088,0.883-1.973,1.973-1.973c1.092,0,1.975,0.883,1.975,1.973S17.864,26.927,16.772,26.927z"/>
</g>
</svg>
