<?xml version="1.0" encoding="utf-8"?>
<!-- Generator: Adobe Illustrator 16.0.0, SVG Export Plug-In . SVG Version: 6.00 Build 0)  -->
<!DOCTYPE svg PUBLIC "-//W3C//DTD SVG 1.1//EN" "http://www.w3.org/Graphics/SVG/1.1/DTD/svg11.dtd">
<svg version="1.1" id="Layer_1" xmlns="http://www.w3.org/2000/svg" xmlns:xlink="http://www.w3.org/1999/xlink" x="0px" y="0px"
	 width="50px" height="50px" viewBox="0 0 50 50" enable-background="new 0 0 50 50" xml:space="preserve">
<path fill="#FFA700" d="M42.315,26.237l-2.153-6.189C39.97,12.106,33.575,5.707,25.636,5.505c-0.381-1.469-1.714-2.558-3.301-2.558
	c-1.883,0-3.416,1.532-3.416,3.415v0.546c-5.072,2.381-8.587,7.532-8.587,13.508c0,4.781,2.252,9.034,5.75,11.766v5.738
	l15.419,8.918v-9.252h4.337c1.88,0,3.416-1.536,3.416-3.415v-5.06l2.011-0.699C42.151,28.103,42.624,27.124,42.315,26.237z
	 M22.334,4.654c0.942,0,1.707,0.765,1.707,1.707v0.554v11.713c2.015,0.705,3.459,2.617,3.459,4.872c0,0.454-0.063,0.892-0.174,1.312
	l6.688,6.688c0.532,0.533,0.532,1.398,0,1.933c-0.268,0.268-0.617,0.399-0.967,0.399c-0.351,0-0.699-0.134-0.967-0.399l-6.189-6.19
	c-0.927,0.882-2.179,1.427-3.559,1.427c-2.854,0-5.168-2.312-5.168-5.167c0-2.255,1.447-4.166,3.46-4.873V7.597V6.361
	C20.627,5.419,21.392,4.654,22.334,4.654z"/>
</svg>
