<?xml version="1.0" encoding="utf-8"?>
<!-- Generator: Adobe Illustrator 16.0.0, SVG Export Plug-In . SVG Version: 6.00 Build 0)  -->
<!DOCTYPE svg PUBLIC "-//W3C//DTD SVG 1.1//EN" "http://www.w3.org/Graphics/SVG/1.1/DTD/svg11.dtd">
<svg version="1.1" id="Layer_1" xmlns="http://www.w3.org/2000/svg" xmlns:xlink="http://www.w3.org/1999/xlink" x="0px" y="0px"
	 width="50px" height="50px" viewBox="0 0 50 50" enable-background="new 0 0 50 50" xml:space="preserve">
<polygon fill="#FFA700" points="5.414,31.184 10.208,31.404 10.834,30.004 5.247,29.781 "/>
<path fill="#FFA700" d="M46.91,22.853l-4.336-7.385c0,0,1.078,0.187,1.178,0.263c0.127,0.097,2.201-0.193,2.568-0.276
	c0.363-0.083,0.549-0.71,0.59-0.995c0.041-0.298,0.035-0.875-0.072-1.204c-0.113-0.345-1.254-0.958-1.752-1.092
	c-0.393-0.104-0.898-0.111-1.615-0.111c-0.715,0-0.725,0.927-0.725,0.927v1.48H42.26c0,0-3.221-8.34-4.6-8.445
	c-2.881-0.408-9.42-0.812-12.569-0.812c-3.149,0-9.688,0.404-12.569,0.812c-1.379,0.105-4.601,8.444-4.601,8.444H7.436v-1.479
	c0,0-0.01-0.927-0.725-0.927s-1.225,0.005-1.613,0.11c-0.5,0.134-1.643,0.747-1.754,1.093c-0.107,0.33-0.113,0.905-0.07,1.203
	c0.041,0.286,0.226,0.913,0.59,0.996c0.363,0.083,2.439,0.373,2.566,0.276c0.1-0.076,1.178-0.263,1.178-0.263l-4.334,7.386
	c0,0-0.533,12.406-0.478,13.551c0.058,1.143-0.299,5.219,1.664,5.256c1.965,0.035,4.508,0,4.508,0s0.785,0.043,0.841-2.264
	c0.008-0.287,0.014-0.465,0.018-0.67c2.035,0.051,28.492,0.051,30.529,0c0.004,0.205,0.01,0.383,0.016,0.67
	c0.057,2.307,0.842,2.264,0.842,2.264s2.545,0.035,4.508,0c1.965-0.037,1.609-4.113,1.664-5.256
	C47.441,35.26,46.91,22.853,46.91,22.853z M43.809,19.861c0.146,0,0.369-0.074,0.48-0.258c0.109-0.186,0.828,0.885,0.793,1.328
	c-0.037,0.441-0.188,0.166-0.26,0.773c-0.072,0.609,0.072,1.383-1.051,1.513c-1.125,0.129-7.809,0.352-7.809,0.352v-0.295
	c0,0-0.379-0.557-0.305-1.302c0.072-0.746,1.143-1.152,1.143-1.152l0.26-0.553C37.059,20.268,43.66,19.861,43.809,19.861z
	 M12.165,6.657c0,0,9.693-0.388,12.927-0.388c3.233,0,12.928,0.388,12.928,0.388s3.133,7.817,3.207,9.184
	c-1.088-0.332-12.559-1.014-16.135-0.958c-3.577-0.056-15.048,0.626-16.135,0.958C9.03,14.475,12.165,6.657,12.165,6.657z
	 M35.326,20.268l-0.758,2.765c0,0-0.35,1.033-1.584,1.033c-1.236,0-14.55,0-15.786,0s-1.587-1.033-1.587-1.033l-0.754-2.765H35.326z
	 M5.895,19.604c0.11,0.184,0.332,0.258,0.479,0.258s6.749,0.406,6.749,0.406l0.258,0.553c0,0,1.07,0.406,1.145,1.15
	c0.074,0.746-0.305,1.303-0.305,1.303v0.296c0,0-6.685-0.223-7.81-0.353c-1.125-0.129-0.978-0.902-1.052-1.512
	c-0.072-0.609-0.219-0.332-0.258-0.775C5.063,20.488,5.785,19.417,5.895,19.604z M9.602,32.475C8.79,32.512,6.54,32.383,6.54,32.383
	s-0.922,0-1.087-0.939C5.287,30.502,5.1,28.455,5.1,28.455s-0.199-1.162,1.146-1.088l4.979,0.275c0,0,1.512,0.02,1.291,0.701
	c-0.222,0.684-1.643,3.412-1.643,3.412S10.412,32.438,9.602,32.475z M38.848,37.361h-2.729c0,0,0.264-1.344,0.201-1.787
	c-0.105-0.781-1.18-2.916-1.18-2.916s-0.203-0.607-1.271-0.607c-1.07,0-16.487,0-17.556,0c-1.068,0-1.271,0.607-1.271,0.607
	s-1.074,2.135-1.18,2.916c-0.062,0.443,0.201,1.787,0.201,1.787h-2.729c0,0-0.27-1.354-0.223-1.807
	c0.099-0.916,0.72-2.066,1.425-3.395c0.704-1.328,1.683-1.254,1.683-1.254h21.744c0,0,0.979-0.072,1.682,1.254
	c0.705,1.328,1.326,2.479,1.426,3.395C39.117,36.006,38.848,37.361,38.848,37.361z M45.082,28.453c0,0-0.188,2.049-0.352,2.99
	c-0.166,0.938-1.088,0.938-1.088,0.938s-2.25,0.129-3.062,0.092c-0.812-0.035-1.271-0.719-1.271-0.719s-1.42-2.729-1.643-3.41
	c-0.221-0.684,1.291-0.701,1.291-0.701l4.979-0.277C45.283,27.291,45.082,28.453,45.082,28.453z"/>
<path fill="#FFA700" d="M11.341,23.198h1.347c0.474,0,0.856-0.383,0.856-0.856c0-0.473-0.384-0.856-0.856-0.856h-1.347
	c-0.474,0-0.858,0.384-0.858,0.856C10.483,22.815,10.868,23.198,11.341,23.198z"/>
<circle fill="#FFA700" cx="40.215" cy="20.605" r="1.005"/>
<path fill="#FFA700" d="M35.637,21.341c0,0.474,0.385,0.856,0.857,0.856h1.346c0.475,0,0.857-0.383,0.857-0.856
	c0-0.473-0.385-0.856-0.857-0.856h-1.346C36.02,20.483,35.637,20.868,35.637,21.341z"/>
<circle fill="#FFA700" cx="8.967" cy="21.605" r="1.005"/>
<polygon fill="#FFA700" points="38.975,30.404 43.77,30.184 43.936,28.781 38.348,29.004 "/>
</svg>
