<?xml version="1.0" encoding="utf-8"?>
<!-- Generator: Adobe Illustrator 21.0.0, SVG Export Plug-In . SVG Version: 6.00 Build 0)  -->
<svg version="1.1" id="Слой_1" xmlns="http://www.w3.org/2000/svg" xmlns:xlink="http://www.w3.org/1999/xlink" x="0px" y="0px"
	 width="70px" height="70px" viewBox="0 0 70 70" style="enable-background:new 0 0 70 70;" xml:space="preserve">
<style type="text/css">
	.st0{fill:#283CFA;}
</style>
<g>
	<g>
		<path class="st0" d="M50.8,43.5H36.7v-3.8c0.6,0.1,1.2,0.2,1.8,0.2c2.7,0,5.4-1.1,7.4-3.1c2.6-2.6,3.6-6.2,2.8-9.8
			c-0.1-0.6-0.6-1.1-1.2-1.2C44,25,40.3,26,37.7,28.6c-0.4,0.4-0.7,0.8-1,1.2v-5.6c5.4-0.5,9.9-4.5,10.8-9.9
			c0.1-0.6-0.3-1.1-0.8-1.2c-0.6-0.1-1.1,0.3-1.2,0.8c-0.9,4.8-5,8.3-9.9,8.3c-5.6,0-10.1-4.5-10.1-10.1S30,2.1,35.6,2.1
			c4.6,0,8.6,3.1,9.7,7.5c0.1,0.5,0.7,0.9,1.3,0.7c0.5-0.1,0.9-0.7,0.7-1.3c-1.4-5.3-6.2-9-11.7-9c-6.7,0-12.1,5.4-12.1,12.1
			c0,6.4,4.9,11.6,11.2,12.1v5.7c-0.3-0.5-0.7-0.9-1.1-1.3C31,26,27.3,25,23.8,25.8c-0.6,0.1-1.1,0.6-1.2,1.2
			c-0.8,3.5,0.2,7.2,2.8,9.8c2,2,4.6,3.1,7.4,3.1c0.6,0,1.2-0.1,1.9-0.2v3.8H20.4c-1,0-1.9,0.8-1.9,1.9v3.4c0,1,0.8,1.9,1.9,1.9h1.7
			v15.1c0,2.4,1.9,4.3,4.3,4.3h6.9c0.6,0,1-0.5,1-1s-0.5-1-1-1h-6.9c-1.2,0-2.2-1-2.2-2.2V50.6H47v15.1c0,1.2-1,2.2-2.2,2.2h-6.7
			c-0.6,0-1,0.5-1,1s0.5,1,1,1h6.7c2.4,0,4.3-1.9,4.3-4.3V50.6h1.7c1,0,1.9-0.8,1.9-1.9v-3.4C52.7,44.3,51.9,43.5,50.8,43.5z
			 M39.2,30c2-2,4.8-2.9,7.6-2.3c0.5,2.8-0.3,5.6-2.3,7.6s-4.8,2.9-7.6,2.3C36.3,34.8,37.2,32,39.2,30z M34.4,37.6
			c-2.8,0.5-5.6-0.3-7.6-2.3s-2.9-4.8-2.3-7.6c2.8-0.5,5.6,0.3,7.6,2.3C34.1,32,34.9,34.8,34.4,37.6z M50.7,48.6
			c-2.2,0-29.3,0-30.1,0v-3.1h30.1V48.6z"/>
	</g>
</g>
<g>
	<g>
		<path class="st0" d="M35.6,3.5c-4.7,0-8.6,3.8-8.6,8.6s3.9,8.6,8.6,8.6s8.6-3.9,8.6-8.6S40.3,3.5,35.6,3.5z M35.6,18.7
			c-3.6,0-6.5-2.9-6.5-6.5s2.9-6.5,6.5-6.5s6.5,2.9,6.5,6.5S39.2,18.7,35.6,18.7z"/>
	</g>
</g>
<g>
	<g>
		<path class="st0" d="M36.1,11.3V9.1c0.5,0,0.7,0.1,1.2,0.4c0.3,0.1,0.6,0.1,0.8-0.3c0.2-0.3,0.3-0.7-0.1-1
			c-0.5-0.4-1.3-0.5-1.9-0.5V7.4c0-0.2-0.2-0.3-0.4-0.3c-0.2,0-0.4,0.1-0.4,0.3v0.4c-1.5,0.2-2.5,1-2.5,2.5c0,1.6,1.1,2,2.5,2.5v2.5
			c-1.3-0.2-1.6-1.3-2.3-0.9c-0.3,0.2-0.4,0.6-0.4,0.8c0,0.7,1.2,1.6,2.7,1.6v0.4c0,0.2,0.2,0.3,0.4,0.3c0.2,0,0.4-0.1,0.4-0.3v-0.4
			c1.3-0.2,2.4-1,2.4-2.7C38.5,12.5,37.6,11.8,36.1,11.3z M35.4,11c-0.8-0.3-1-0.6-1-1c0-0.6,0.5-0.8,1-0.9V11z M36.7,14.9
			c-0.2,0.2-0.4,0.3-0.7,0.3V13c0.3,0.1,0.5,0.3,0.7,0.4c0.2,0.2,0.3,0.4,0.3,0.7C37,14.5,36.9,14.7,36.7,14.9z"/>
	</g>
</g>
</svg>
