<?xml version="1.0" encoding="utf-8"?>
<!-- Generator: Adobe Illustrator 16.0.0, SVG Export Plug-In . SVG Version: 6.00 Build 0)  -->
<!DOCTYPE svg PUBLIC "-//W3C//DTD SVG 1.1//EN" "http://www.w3.org/Graphics/SVG/1.1/DTD/svg11.dtd">
<svg version="1.1" id="Layer_1" xmlns="http://www.w3.org/2000/svg" xmlns:xlink="http://www.w3.org/1999/xlink" x="0px" y="0px"
	 width="50px" height="50px" viewBox="0 0 50 50" enable-background="new 0 0 50 50" xml:space="preserve">
<g>
	<path fill="#FFA700" d="M25.234,10.32c2.162,0,3.92-1.76,3.92-3.922s-1.758-3.92-3.92-3.92s-3.92,1.76-3.92,3.92
		C21.314,8.561,23.072,10.32,25.234,10.32z"/>
	<path fill="#FFA700" d="M19.025,22.348h12.362c0.806,0,1.458-0.652,1.458-1.458V15.5c0-1.492-0.96-2.815-2.378-3.279l-0.006-0.002
		l-2.074-0.344c-0.177-0.055-0.364,0.039-0.428,0.213l-2.354,6.457c-0.135,0.373-0.662,0.373-0.798,0l-2.353-6.457
		c-0.051-0.141-0.184-0.229-0.326-0.229c-0.034,0-0.068,0.005-0.104,0.015l-2.074,0.344c-1.43,0.477-2.385,1.802-2.385,3.3v5.372
		C17.568,21.695,18.22,22.348,19.025,22.348z"/>
	<path fill="#FFA700" d="M10.061,32.923c2.162,0,3.922-1.761,3.922-3.921c0-2.162-1.76-3.922-3.922-3.922S6.14,26.84,6.14,29.002
		C6.14,31.162,7.898,32.923,10.061,32.923z"/>
	<path fill="#FFA700" d="M15.287,34.822h-0.006l-2.074-0.345c-0.176-0.055-0.365,0.038-0.428,0.213l-2.354,6.457
		c-0.136,0.373-0.663,0.373-0.798,0L7.273,34.69c-0.051-0.141-0.184-0.229-0.326-0.229c-0.033,0-0.067,0.005-0.102,0.016
		L4.771,34.82c-1.43,0.477-2.385,1.801-2.385,3.301v5.371c0,0.806,0.652,1.459,1.458,1.459h12.362c0.806,0,1.458-0.653,1.458-1.459
		v-5.391C17.664,36.611,16.706,35.287,15.287,34.822L15.287,34.822z"/>
	<path fill="#FFA700" d="M40.197,32.923c2.162,0,3.92-1.761,3.92-3.921c0-2.162-1.758-3.922-3.92-3.922s-3.922,1.76-3.922,3.922
		C36.277,31.162,38.035,32.923,40.197,32.923L40.197,32.923z"/>
	<path fill="#FFA700" d="M45.459,34.822h-0.006l-2.074-0.345c-0.178-0.055-0.365,0.038-0.43,0.213l-2.353,6.457
		c-0.136,0.373-0.661,0.373-0.799,0l-2.353-6.457c-0.053-0.141-0.186-0.229-0.328-0.229c-0.032,0-0.066,0.005-0.102,0.016
		l-2.074,0.343c-1.431,0.477-2.384,1.801-2.384,3.301v5.371c0,0.806,0.651,1.459,1.456,1.459h12.362
		c0.805,0,1.458-0.653,1.458-1.459v-5.391C47.836,36.611,46.877,35.287,45.459,34.822L45.459,34.822z"/>
	<path fill="#FFA700" d="M26.527,23.451h-2.588v5.896l-6.091,6.091c0.552,0.756,0.868,1.682,0.868,2.665v0.127l6.516-6.518
		l6.267,6.267c0.032-0.998,0.387-1.93,0.981-2.679l-5.953-5.953V23.451L26.527,23.451z"/>
	<path fill="#FFA700" d="M26.17,11.854c-0.102-0.11-0.25-0.167-0.4-0.167h-1.125c-0.15,0-0.3,0.057-0.402,0.167
		c-0.156,0.173-0.18,0.42-0.067,0.614l0.603,0.906l-0.283,2.373l0.556,1.475c0.054,0.148,0.265,0.148,0.317,0l0.554-1.475
		l-0.281-2.373l0.601-0.906C26.351,12.274,26.328,12.027,26.17,11.854z"/>
	<path fill="#FFA700" d="M10.988,34.462c-0.102-0.11-0.25-0.169-0.4-0.169H9.463c-0.15,0-0.3,0.058-0.4,0.169
		c-0.158,0.172-0.182,0.42-0.07,0.614l0.602,0.905l-0.281,2.374l0.555,1.473c0.054,0.148,0.264,0.148,0.318,0l0.553-1.473
		l-0.28-2.374l0.601-0.905C11.17,34.882,11.146,34.634,10.988,34.462z"/>
	<path fill="#FFA700" d="M41.162,34.462c-0.104-0.11-0.252-0.169-0.403-0.169h-1.124c-0.15,0-0.299,0.058-0.4,0.169
		c-0.158,0.172-0.182,0.42-0.068,0.614l0.601,0.905l-0.28,2.374l0.554,1.473c0.055,0.148,0.264,0.148,0.317,0l0.555-1.473
		l-0.281-2.374l0.602-0.905C41.342,34.882,41.318,34.634,41.162,34.462L41.162,34.462z"/>
</g>
</svg>
