<?xml version="1.0" encoding="utf-8"?>
<!-- Generator: Adobe Illustrator 16.0.0, SVG Export Plug-In . SVG Version: 6.00 Build 0)  -->
<!DOCTYPE svg PUBLIC "-//W3C//DTD SVG 1.1//EN" "http://www.w3.org/Graphics/SVG/1.1/DTD/svg11.dtd">
<svg version="1.1" id="Capa_1" xmlns="http://www.w3.org/2000/svg" xmlns:xlink="http://www.w3.org/1999/xlink" x="0px" y="0px"
	 width="50px" height="50px" viewBox="0 0 50 50" enable-background="new 0 0 50 50" xml:space="preserve">
<g>
	<g>
		<g>
			<path fill="#FFA700" d="M42.488,3.475h-7.645l0.516,2.387c0.064,0.296,0.062,0.594,0.027,0.886h5.465v38.567H10.591V6.747h5.466
				c-0.034-0.294-0.035-0.592,0.027-0.89l0.517-2.383H8.955c-0.902,0-1.633,0.732-1.633,1.637v41.841
				c0,0.901,0.73,1.636,1.633,1.636h33.533c0.901,0,1.635-0.734,1.635-1.636V5.111C44.123,4.208,43.391,3.475,42.488,3.475z"/>
			<path fill="#FFA700" d="M37,15.301H25.824c-0.906,0-1.638,0.733-1.638,1.635c0,0.904,0.731,1.637,1.638,1.637H37
				c0.904,0,1.635-0.732,1.635-1.637C38.635,16.034,37.904,15.301,37,15.301z"/>
			<path fill="#FFA700" d="M37,25.335H25.824c-0.906,0-1.638,0.733-1.638,1.636s0.731,1.637,1.638,1.637H37
				c0.904,0,1.635-0.734,1.635-1.637S37.904,25.335,37,25.335z"/>
			<path fill="#FFA700" d="M13.389,15.686c-0.689,0.582-0.779,1.614-0.195,2.306l2.385,2.829c0.312,0.369,0.77,0.58,1.25,0.58
				c0.041,0,0.08-0.002,0.121-0.004c0.522-0.039,0.996-0.326,1.271-0.772l4.293-6.95c0.475-0.77,0.236-1.775-0.532-2.25
				c-0.769-0.479-1.774-0.238-2.25,0.531l-3.108,5.029l-0.93-1.103C15.111,15.189,14.08,15.102,13.389,15.686z"/>
			<path fill="#FFA700" d="M17.307,24.52c-1.355,0-2.455,1.098-2.455,2.453c0,1.354,1.1,2.452,2.455,2.452s2.453-1.099,2.453-2.452
				C19.76,25.618,18.662,24.52,17.307,24.52z"/>
			<path fill="#FFA700" d="M37,35.148H25.824c-0.906,0-1.638,0.731-1.638,1.638c0,0.901,0.731,1.635,1.638,1.635H37
				c0.904,0,1.635-0.731,1.635-1.635C38.635,35.881,37.904,35.148,37,35.148z"/>
			<path fill="#FFA700" d="M17.307,34.333c-1.355,0-2.455,1.099-2.455,2.453s1.1,2.453,2.455,2.453s2.453-1.099,2.453-2.453
				S18.662,34.333,17.307,34.333z"/>
			<path fill="#FFA700" d="M18.781,7.564H32.66c0.34,0,0.662-0.152,0.875-0.418c0.213-0.264,0.297-0.611,0.223-0.943l-1.148-5.317
				C32.498,0.368,32.041,0,31.512,0h-11.58c-0.527,0-0.986,0.369-1.098,0.886l-1.15,5.317c-0.07,0.333,0.014,0.68,0.225,0.943
				C18.121,7.412,18.443,7.564,18.781,7.564z"/>
		</g>
	</g>
</g>
</svg>
