<?xml version="1.0" encoding="utf-8"?>
<!-- Generator: Adobe Illustrator 16.0.0, SVG Export Plug-In . SVG Version: 6.00 Build 0)  -->
<!DOCTYPE svg PUBLIC "-//W3C//DTD SVG 1.1//EN" "http://www.w3.org/Graphics/SVG/1.1/DTD/svg11.dtd">
<svg version="1.1" id="Layer_1" xmlns="http://www.w3.org/2000/svg" xmlns:xlink="http://www.w3.org/1999/xlink" x="0px" y="0px"
	 width="50px" height="50px" viewBox="0 0 50 50" enable-background="new 0 0 50 50" xml:space="preserve">
<g>
	<g>
		<circle fill="#FFA700" cx="37.199" cy="5.512" r="3.598"/>
		<path fill="#FFA700" d="M17.81,9.906h23.678c2.71,0,5.181,2.411,5.181,5.168v11.54c0,2.283-3.22,2.298-3.22,0.014V15.186h-1.531
			l0.004,29.168c0,1.186-0.961,2.146-2.145,2.146c-1.189,0-2.15-0.962-2.15-2.146V27.923h-1.781l0.008,16.431
			c0,1.184-0.961,2.146-2.146,2.146s-2.146-0.963-2.146-2.146l-0.008-30.889h-13.74C15.508,13.474,15.508,9.906,17.81,9.906z"/>
	</g>
</g>
<g>
	<path fill="#FFA700" d="M3.942,15.068v23.708h24.283V15.068H3.942z M16.072,36.136c-5.003,0-9.056-4.056-9.056-9.061
		c0-5.002,4.053-9.06,9.056-9.06c5.006,0,9.062,4.057,9.062,9.06C25.134,32.08,21.078,36.136,16.072,36.136z"/>
	<path fill="#FFA700" d="M21.733,31.598h-1.871c0-1.886-1.699-3.422-3.787-3.422s-3.786,1.535-3.786,3.422h-1.871
		c0-2.918,2.538-5.293,5.657-5.293S21.733,28.68,21.733,31.598L21.733,31.598z"/>
	<g>
		<polygon fill="#FFA700" points="14.308,25.166 11.623,23.015 12.739,21.623 15.423,23.775 		"/>
		<polygon fill="#FFA700" points="17.909,25.166 16.793,23.775 19.478,21.623 20.593,23.015 		"/>
	</g>
</g>
</svg>
