<?xml version="1.0" encoding="utf-8"?>
<!-- Generator: Adobe Illustrator 16.0.0, SVG Export Plug-In . SVG Version: 6.00 Build 0)  -->
<!DOCTYPE svg PUBLIC "-//W3C//DTD SVG 1.1//EN" "http://www.w3.org/Graphics/SVG/1.1/DTD/svg11.dtd">
<svg version="1.1" id="Layer_1" xmlns="http://www.w3.org/2000/svg" xmlns:xlink="http://www.w3.org/1999/xlink" x="0px" y="0px"
	 width="50px" height="50px" viewBox="0 0 50 50" enable-background="new 0 0 50 50" xml:space="preserve">
<g>
	<path fill="#FFA700" d="M44.777,14.238h-10.35V7.189c0-1.256-0.966-2.285-2.223-2.285H18.109c-1.256,0-2.348,1.027-2.348,2.285
		v7.049H5.348c-1.263,0-2.35,1.022-2.35,2.285v23.811c0,1.264,1.087,2.286,2.35,2.286h39.43c1.263,0,2.223-1.022,2.223-2.286V16.523
		C47,15.262,46.04,14.238,44.777,14.238L44.777,14.238z M18.809,7.953h12.572v6.286H18.809V7.953z M32.904,31.57h-4.762v4.764
		h-6.287V31.57h-4.762v-6.284h4.762v-4.763h6.287v4.763h4.762V31.57z"/>
</g>
</svg>
