<?xml version="1.0" encoding="utf-8"?>
<!-- Generator: Adobe Illustrator 21.0.0, SVG Export Plug-In . SVG Version: 6.00 Build 0)  -->
<svg version="1.1" id="Слой_1" xmlns="http://www.w3.org/2000/svg" xmlns:xlink="http://www.w3.org/1999/xlink" x="0px" y="0px"
	 width="70px" height="70px" viewBox="0 0 70 70" style="enable-background:new 0 0 70 70;" xml:space="preserve">
<style type="text/css">
	.st0{fill:#283CFA;}
</style>
<g>
	<g>
		<path class="st0" d="M45.4,34.3l-1.6-1.6c-0.3-0.3-0.8-0.3-1.2,0s-0.3,0.8,0,1.2l0.2,0.2h-4.2c-0.1-1-0.9-1.8-1.9-1.9v-6.7
			l0.2,0.2c0.3,0.3,0.8,0.3,1.2,0s0.3-0.8,0-1.2l-1.6-1.6c-0.3-0.3-0.8-0.3-1.2,0l-1.6,1.6c-0.3,0.3-0.3,0.8,0,1.2s0.8,0.3,1.2,0
			l0.2-0.2v6.7c-1.1,0.1-1.9,1-1.9,2.1v1.2c0,1.2,1,2.1,2.1,2.1h1.2c1.1,0,2-0.8,2.1-1.9h4.1l-0.2,0.2c-0.3,0.3-0.3,0.8,0,1.2
			s0.8,0.3,1.2,0l1.6-1.6C45.8,35.2,45.8,34.6,45.4,34.3z M37.1,35.5c0,0.3-0.2,0.5-0.5,0.5h-1.2c-0.3,0-0.5-0.2-0.5-0.5v-1.2
			c0-0.3,0.2-0.5,0.5-0.5h1.2c0.3,0,0.5,0.2,0.5,0.5V35.5z"/>
	</g>
</g>
<g>
	<g>
		<path class="st0" d="M53.9,34.7C53.9,34.7,53.9,34.7,53.9,34.7C53.6,25,45.6,17.4,36,17.4c-9.9,0-17.9,8-17.9,17.9
			s8,17.9,17.9,17.9C46.1,53.2,54.2,44.8,53.9,34.7z M36.8,19L36.8,19c8.2,0.4,14.9,7,15.4,15.3H51c-0.5-7.6-6.6-13.7-14.2-14.1V19z
			 M50.5,42.6l-1.3-0.8c-0.4-0.2-0.9-0.1-1.1,0.3c-0.2,0.4-0.1,0.9,0.3,1.1l1.3,0.8c-1.2,2-2.9,3.6-4.8,4.9l-0.8-1.3
			c-0.2-0.4-0.7-0.5-1.1-0.3c-0.4,0.2-0.5,0.7-0.3,1.1l0.8,1.4c-2,1-4.3,1.7-6.7,1.8v-1.6c0-0.5-0.4-0.8-0.8-0.8s-0.8,0.4-0.8,0.8
			v1.6c-2.4-0.1-4.6-0.8-6.7-1.8l0.8-1.4c0.2-0.4,0.1-0.9-0.3-1.1c-0.4-0.2-0.9-0.1-1.1,0.3l-0.8,1.3c-1.9-1.3-3.6-2.9-4.8-4.9
			l1.3-0.8c0.4-0.2,0.5-0.7,0.3-1.1c-0.2-0.4-0.7-0.5-1.1-0.3l-1.3,0.8c-1-2-1.6-4.2-1.7-6.6h1.4c0.5,0,0.8-0.4,0.8-0.8
			s-0.4-0.8-0.8-0.8h-1.4c0.1-2.4,0.8-4.6,1.8-6.5l1.2,0.7c0.4,0.2,0.9,0.1,1.1-0.3c0.2-0.4,0.1-0.9-0.3-1.1l-1.2-0.7
			c1.3-1.9,2.9-3.5,4.8-4.7l0.6,1.1c0.2,0.4,0.7,0.5,1.1,0.3c0.4-0.2,0.5-0.7,0.3-1.1l-0.6-1.1c2-1,4.2-1.6,6.5-1.7c0,0.5,0,1.8,0,2
			c0,0.5,0.4,0.8,0.8,0.8c7.3,0,13.4,6,13.4,13.3c0,0.5,0.4,0.8,0.8,0.8c0.8,0,1.3,0,2,0C52.1,38.3,51.5,40.6,50.5,42.6z"/>
	</g>
</g>
<g>
	<g>
		<path class="st0" d="M63.2,35.9c-0.5,0-0.8,0.4-0.8,0.8v1.9c0,0,0,0,0,0h-3.8c-0.4,0-0.7,0.3-0.8,0.7c-0.6,2.9-1.7,5.6-3.4,8.1
			c-0.2,0.3-0.2,0.8,0.1,1l2.7,2.7c0,0,0,0,0,0l-5,5c0,0,0,0,0,0l-2.7-2.7c-0.3-0.3-0.7-0.3-1-0.1c-2.5,1.7-5.2,2.8-8.1,3.4
			c-0.4,0.1-0.7,0.4-0.7,0.8v3.8c0,0,0,0,0,0H38c-0.5,0-0.8,0.4-0.8,0.8S37.5,63,38,63h1.6c0.9,0,1.7-0.7,1.7-1.7v-3.2
			c2.7-0.6,5.2-1.6,7.5-3.1l2.2,2.2c0.6,0.6,1.7,0.6,2.3,0l5-5c0.6-0.6,0.6-1.7,0-2.3l-2.2-2.2c1.5-2.3,2.5-4.8,3.1-7.5h3.2
			c0.9,0,1.7-0.7,1.7-1.7v-1.9C64,36.2,63.6,35.9,63.2,35.9z"/>
	</g>
</g>
<g>
	<g>
		<path class="st0" d="M62.3,29.8h-3.2c-0.6-2.7-1.6-5.2-3.1-7.5l2.2-2.2c0.3-0.3,0.5-0.7,0.5-1.2c0-0.4-0.2-0.9-0.5-1.2l-5-5
			c-0.6-0.6-1.7-0.6-2.3,0l-2.2,2.2c-2.3-1.5-4.8-2.5-7.5-3.1V8.7c0-0.9-0.7-1.7-1.7-1.7h-7.1c-0.9,0-1.7,0.7-1.7,1.7v3.2
			c-2.7,0.6-5.2,1.6-7.5,3.1l-2.2-2.2c-0.6-0.6-1.7-0.6-2.3,0l-5,5c-0.6,0.6-0.6,1.7,0,2.3l2.2,2.2c-1.5,2.3-2.5,4.8-3.1,7.5H9.7
			c-0.9,0-1.7,0.7-1.7,1.7v7.1c0,0.9,0.7,1.7,1.7,1.7h3.2c0.6,2.7,1.6,5.2,3.1,7.5l-2.2,2.2c-0.6,0.6-0.6,1.7,0,2.3l5,5
			c0.6,0.6,1.7,0.6,2.3,0l2.2-2.2c2.3,1.5,4.8,2.5,7.5,3.1v3.2c0,0.9,0.7,1.7,1.7,1.7h1.7c0.5,0,0.8-0.4,0.8-0.8s-0.4-0.8-0.8-0.8
			h-1.7c0,0,0,0,0,0v-3.8c0-0.4-0.3-0.7-0.7-0.8c-2.9-0.6-5.6-1.7-8.1-3.4c-0.3-0.2-0.8-0.2-1,0.1l-2.7,2.7c0,0,0,0,0,0l-5-5
			c0,0,0,0,0,0l2.7-2.7c0.3-0.3,0.3-0.7,0.1-1c-1.7-2.5-2.8-5.2-3.4-8.1c-0.1-0.4-0.4-0.7-0.8-0.7H9.7c0,0,0,0,0,0v-7.1c0,0,0,0,0,0
			h3.8c0.4,0,0.7-0.3,0.8-0.7c0.6-2.9,1.7-5.6,3.4-8.1c0.2-0.3,0.2-0.8-0.1-1l-2.7-2.7c0,0,0,0,0,0l5-5c0,0,0,0,0,0l2.7,2.7
			c0.3,0.3,0.7,0.3,1,0.1c2.5-1.7,5.2-2.8,8.1-3.4c0.4-0.1,0.7-0.4,0.7-0.8V8.7c0,0,0,0,0,0h7.1c0,0,0,0,0,0v3.8
			c0,0.4,0.3,0.7,0.7,0.8c2.9,0.6,5.6,1.7,8.1,3.4c0.3,0.2,0.8,0.2,1-0.1l2.7-2.7c0,0,0,0,0,0l5,5c0,0,0,0,0,0l-2.7,2.7
			c-0.3,0.3-0.3,0.7-0.1,1c1.7,2.5,2.8,5.2,3.4,8.1c0.1,0.4,0.4,0.7,0.8,0.7h3.8c0,0,0,0,0,0v1.4c0,0.5,0.4,0.8,0.8,0.8
			s0.8-0.4,0.8-0.8v-1.4C64,30.5,63.3,29.8,62.3,29.8z"/>
	</g>
</g>
</svg>
