<?xml version="1.0" encoding="utf-8"?>
<!-- Generator: Adobe Illustrator 16.0.0, SVG Export Plug-In . SVG Version: 6.00 Build 0)  -->
<!DOCTYPE svg PUBLIC "-//W3C//DTD SVG 1.1//EN" "http://www.w3.org/Graphics/SVG/1.1/DTD/svg11.dtd">
<svg version="1.1" id="Layer_1" xmlns="http://www.w3.org/2000/svg" xmlns:xlink="http://www.w3.org/1999/xlink" x="0px" y="0px"
	 width="50px" height="50px" viewBox="0 0 50 50" enable-background="new 0 0 50 50" xml:space="preserve">
<g>
	<g>
		<path fill="#FFA700" d="M37.504,19.404c-0.352-0.422-0.771-0.771-1.262-0.981c-0.422-0.21-0.982-0.351-1.475-0.42
			c-0.488-0.071-0.979,0.07-1.4,0.14l-1.191,0.631c-1.613,1.613-1.895,3.575-0.842,5.118c1.121,1.613,3.084,2.175,4.908,1.332
			c1.611-0.771,2.523-2.733,1.963-4.486C38.064,20.314,37.785,19.825,37.504,19.404z M36.031,20.945
			c0.49,0.842,0.141,1.895-0.631,2.313c-0.842,0.491-1.895,0.142-2.312-0.701c-0.422-0.771-0.143-1.823,0.701-2.313
			C34.561,19.895,35.541,20.175,36.031,20.945z"/>
		<path fill="#FFA700" d="M15.629,31.673c-0.35-0.421-0.771-0.771-1.262-0.98c-0.422-0.21-0.982-0.352-1.473-0.42
			c-0.492-0.071-0.981,0.068-1.402,0.139L10.3,31.113c-1.612,1.611-1.893,3.576-0.841,5.118c1.121,1.611,3.085,2.173,4.908,1.332
			c1.613-0.771,2.523-2.735,1.963-4.487C16.189,32.585,15.909,32.094,15.629,31.673z M14.157,33.286
			c0.489,0.841,0.14,1.892-0.632,2.312c-0.842,0.491-1.894,0.14-2.313-0.7c-0.421-0.771-0.141-1.823,0.701-2.313
			C12.686,32.164,13.736,32.444,14.157,33.286z"/>
		<path fill="#FFA700" d="M41.922,16.391h-0.143l-3.014,1.682c2.594,3.225,1.121,7.01-1.191,8.413
			c-1.402,0.842-2.875,1.122-4.486,0.632c-1.965-0.562-3.227-1.823-3.857-3.716l-12.198,6.871c2.524,3.015,1.262,7.011-1.333,8.553
			c-2.594,1.542-6.94,0.701-8.203-3.155l-1.963,1.053h-0.07c-0.141,0.069-0.279,0.14-0.35,0.21
			c-1.053,0.701-1.684,1.684-1.053,3.226c0.28,0.771,0.701,1.473,1.123,2.104l0.42-0.279c0.491-0.28,1.123-0.142,1.402,0.279
			l0.28,0.42l-1.122,0.632c0.842,0.701,1.822,1.264,2.945,1.473l0,0c0.49,0.141,0.98,0.21,1.543,0.21
			c2.453,0.141,4.697-0.35,6.939-1.052c0.28-0.069,0.631-0.141,0.912-0.141c5.188,0.772,10.096,0.07,14.793-1.963
			c4.137-1.822,7.994-4.275,11.639-7.012c1.473-1.121,1.684-3.084,1.965-4.907c0.279-1.962,0.561-4.137-0.422-6.029
			c-0.141-0.279-0.141-0.631-0.07-0.91C46.688,20.734,44.443,16.529,41.922,16.391z M32.387,31.042
			c0.209,0.421,0.068,0.981-0.352,1.191l-3.506,1.964c-0.42,0.279-0.98,0.14-1.262-0.28c-0.211-0.421-0.072-0.982,0.352-1.192
			l3.504-1.963C31.615,30.481,32.176,30.621,32.387,31.042z M36.102,37.633c0.631,0.911-0.561,1.331-0.561,1.331
			c-3.295,1.823-7.922,2.665-7.922,2.665c-5.119,0.701-7.643-0.491-7.643-0.491c-1.192-0.279-0.632-0.7-0.632-0.7l13.181-6.66
			c0.562-0.28,1.193,0.351,1.193,0.351L36.102,37.633z M44.443,28.097c0,0.143-0.068,0.772-0.068,0.772
			c-0.141,2.032-2.033,4.417-2.033,4.417c-1.123,1.332-3.646,3.574-3.646,3.574c-0.562,0.632-1.121,0.07-1.121,0.07l-2.525-3.786
			c-0.35-0.561,0.281-0.911,0.281-0.911l7.781-4.275C44.375,27.256,44.443,27.958,44.443,28.097z"/>
	</g>
	<path fill="#FFA700" d="M21.799,15.688c-0.14-0.631-0.42-1.191-0.631-1.822c0-0.07,0-0.141-0.07-0.21
		c-0.07-0.491-0.141-0.981-0.141-1.472c-0.068-0.703-0.21-1.403-0.49-2.035v-0.069c0-0.07-0.07-0.07-0.07-0.14
		c-0.141-0.353-0.351-0.633-0.489-0.912l-0.142-0.211l0,0c-0.351-0.561-0.42-1.191-0.279-1.752c0-0.141,0.07-0.281,0.14-0.42
		l0.281-0.771h-0.491h-0.07c-0.07,0-0.07,0-0.14,0h-0.071c-0.63,0.141-1.121,0.421-1.472,0.98c-0.142,0.211-0.211,0.422-0.28,0.701
		c-0.07,0.281-0.141,0.562-0.141,0.912c0,0.07,0,0.21,0,0.28c0,0.14,0,0.351,0,0.562c0.141,1.051-0.842,1.683-1.684,1.121
		c-0.841-0.561-1.473-1.541-1.963-2.453c-0.421-0.631-0.561-1.473-0.771-2.244v-0.07c-0.07-0.561-0.07-1.122,0.069-1.684
		c0.142-0.701,0.211-1.401,0.492-2.104c0-0.141-0.141-0.21-0.211-0.21c-0.14,0.069-0.279,0.142-0.35,0.21
		c-0.421,0.211-0.771,0.491-1.053,0.771c-0.91,0.771-1.541,1.752-2.032,2.733C9.46,5.801,9.32,6.223,9.32,6.643
		c-0.07,0.491-0.07,1.051,0,1.543c0,0.209,0.07,0.351,0.07,0.561c0.209,1.262,0.49,2.523,0.351,3.855c0,0.07,0,0.07,0,0.142
		c0,0.141,0,0.21-0.071,0.35c0,0.07,0,0.14-0.07,0.21l0,0c-0.069,0.281-0.069,0.491-0.209,0.771c0,0,0,0.07-0.07,0.07
		c0,0.141-0.07,0.279-0.141,0.42c0,0,0,0.07-0.07,0.07c0,0,0,0.07-0.07,0.07c-0.071,0.141-0.21,0.281-0.281,0.352
		c0,0-0.07,0-0.07,0.069c-1.051,0.351-0.49-2.033-0.42-2.524c0.07-0.701,0.211-1.472,0.211-2.242c0-0.352,0-0.772,0-1.192
		c0-1.263-1.192-2.944-1.192-2.594c0,0.631-0.142,1.122-0.28,1.612c-0.07,0.28-0.211,0.561-0.421,0.84
		c0,0.07-0.069,0.141-0.069,0.211c-0.701,1.123-1.684,2.174-2.313,3.365c-0.353,0.701-0.562,1.474-0.632,2.244
		c-0.141,1.191,0.281,2.244,0.632,3.295c0.421,1.123,0.421,2.385,0.7,3.576c0.281,1.332,1.053,2.383,2.104,3.154
		c0.632,0.421,1.263,0.771,2.033,1.052c0.069,0,0.069,0,0.14,0.07l0,0c-0.701-0.701-0.701-2.243-0.631-3.016
		c0.07-1.612,0.491-3.294,1.542-4.557c0.701-0.841,1.612-1.542,2.454-2.313c0.21-0.211,0.491-0.42,0.701-0.701l0.07-0.07
		c0.631-0.701,1.19-1.542,1.401-2.664c0.07-0.49,0.981,1.613,0.771,3.016c-0.21,1.26-0.632,2.453-1.052,3.645
		c-0.142,0.421-1.334,2.945-0.07,2.805c0.211,0,0.42-0.211,0.561-0.352c0.422-0.42,0.771-0.911,0.912-1.473
		c0.21-0.561,0.912-0.701,1.262-0.209c0.982,1.191,1.474,2.874,1.053,4.416c-0.069,0.352-0.211,0.701-0.352,1.052
		c0.211-0.14,0.422-0.209,0.631-0.279c0.142-0.07,0.352-0.211,0.491-0.28c0.701-0.421,1.332-0.98,1.894-1.683
		c1.052-1.402,1.404-3.015,1.332-4.698C22.148,17.581,22.079,16.6,21.799,15.688z"/>
</g>
</svg>
