<?xml version="1.0" encoding="utf-8"?>
<!-- Generator: Adobe Illustrator 16.0.0, SVG Export Plug-In . SVG Version: 6.00 Build 0)  -->
<!DOCTYPE svg PUBLIC "-//W3C//DTD SVG 1.1//EN" "http://www.w3.org/Graphics/SVG/1.1/DTD/svg11.dtd">
<svg version="1.1" id="Capa_1" xmlns="http://www.w3.org/2000/svg" xmlns:xlink="http://www.w3.org/1999/xlink" x="0px" y="0px"
	 width="50px" height="50px" viewBox="0 0 50 50" enable-background="new 0 0 50 50" xml:space="preserve">
<g>
	<g>
		<g>
			<g>
				<path fill="#FFA700" d="M4.33,39.984c-1.63,1.631-1.63,4.271,0,5.9c0.815,0.814,1.884,1.223,2.952,1.223
					s2.137-0.406,2.951-1.223l13.701-13.703l-5.903-5.896L4.33,39.984z"/>
				<polygon fill="#FFA700" points="38.57,14.591 44.539,11.506 47.662,5.467 44.75,2.556 38.715,5.683 35.623,11.644 28.365,18.91 
					31.309,21.859 				"/>
				<path fill="#FFA700" d="M39.879,30.43l-0.562-0.057c-1.018,0-1.982,0.211-2.883,0.543l-17.128-17.13
					c0.332-0.9,0.543-1.866,0.543-2.884l-0.057-0.562c-0.295-4.343-3.873-7.783-8.29-7.783c-1.285,0-2.489,0.314-3.577,0.836
					l5.545,5.543c0.291,0.293,0.491,0.638,0.625,1c0.364,0.985,0.168,2.139-0.625,2.933c-0.543,0.543-1.256,0.815-1.968,0.815
					c-0.328,0-0.653-0.072-0.965-0.188c-0.364-0.14-0.709-0.334-1.001-0.629L3.992,7.325c-0.521,1.087-0.834,2.292-0.834,3.577
					c0,4.416,3.44,7.994,7.782,8.289l0.562,0.057c1.018,0,1.984-0.208,2.885-0.541l17.125,17.127
					c-0.328,0.902-0.537,1.867-0.537,2.885l0.059,0.562c0.289,4.348,3.869,7.785,8.287,7.785c1.285,0,2.492-0.311,3.576-0.834
					l-5.545-5.545c-0.289-0.289-0.492-0.637-0.629-1c-0.365-0.984-0.168-2.139,0.629-2.934c0.539-0.543,1.256-0.814,1.969-0.814
					c0.328,0,0.65,0.068,0.969,0.188c0.363,0.137,0.711,0.332,0.998,0.627l5.545,5.543c0.521-1.09,0.834-2.291,0.834-3.578
					C47.662,34.303,44.221,30.727,39.879,30.43z"/>
			</g>
		</g>
	</g>
</g>
</svg>
