<?xml version="1.0" encoding="utf-8"?>
<!-- Generator: Adobe Illustrator 16.0.0, SVG Export Plug-In . SVG Version: 6.00 Build 0)  -->
<!DOCTYPE svg PUBLIC "-//W3C//DTD SVG 1.1//EN" "http://www.w3.org/Graphics/SVG/1.1/DTD/svg11.dtd">
<svg version="1.1" id="Capa_1" xmlns="http://www.w3.org/2000/svg" xmlns:xlink="http://www.w3.org/1999/xlink" x="0px" y="0px"
	 width="50px" height="50px" viewBox="0 0 50 50" enable-background="new 0 0 50 50" xml:space="preserve">
<g>
	<g>
		<path fill="#FFA700" d="M48.107,36.708l-2.154-3.075c-0.346-0.494-0.533-1.115-0.533-1.761v-2.901v-1.854v-5.365l0,0V6.887
			c0-2.717-1.897-4.928-4.229-4.928H25.369l0,0H7.205c-2.332,0-4.229,2.211-4.229,4.928v20.23v1.082v3.626
			c0,0.646-0.188,1.256-0.534,1.752l-2.184,3.12C0.09,36.926,0,37.227,0,37.525v1.428c0,1.843,1.285,3.339,2.867,3.339H45.49
			c1.58,0,2.865-1.496,2.865-3.339v-1.428C48.363,37.236,48.275,36.938,48.107,36.708z M28.777,37.434
			c0,0.933-0.652,1.705-1.463,1.705h-6.246c-0.801,0-1.463-0.762-1.463-1.705v-0.367h9.161v0.367H28.777z M41.199,28.982v3.166
			H7.184v-3.729v-1.302V6.875l0.01-0.012h20.081l0,0H41.18c0.01,0,0.01,0.012,0.01,0.012v20.242v1.302v0.333l0,0v0.23H41.199
			L41.199,28.982z"/>
		<path fill="#FFA700" d="M30.201,13.38H19.547c-0.305,0-0.592,0.104-0.85,0.276l-0.544-2.223c-0.089-0.356-0.375-0.609-0.692-0.609
			l0,0h-0.828h-1.582c-0.307,0-0.543,0.287-0.543,0.634v0.067c0,0.357,0.246,0.635,0.543,0.635h2.074l1.059,4.354l1.453,6.01
			c-0.83,0.242-1.443,1.115-1.443,2.152c0,1.176,0.791,2.143,1.779,2.21c-0.079,0.276-0.119,0.575-0.1,0.898
			c0.069,1.06,0.811,1.911,1.729,1.991c1.087,0.094,1.997-0.922,1.997-2.164c0-0.254-0.041-0.494-0.109-0.715h2.174
			c-0.088,0.301-0.129,0.623-0.088,0.969c0.098,1.023,0.829,1.842,1.719,1.91c1.088,0.094,1.996-0.909,1.996-2.164
			c0-1.207-0.859-2.176-1.896-2.176H20.11c-0.354,0-0.653-0.322-0.671-0.736c-0.01-0.438,0.286-0.795,0.652-0.795h1.097h5.92h1.67
			c0.74,0,1.384-0.588,1.562-1.428l1.443-6.793c0.118-0.576,0.01-1.175-0.316-1.635C31.168,13.622,30.694,13.38,30.201,13.38z
			 M27.422,26.896c0.336,0,0.613,0.324,0.613,0.715c0,0.393-0.277,0.714-0.613,0.714c-0.334,0-0.611-0.321-0.611-0.714
			C26.811,27.221,27.088,26.896,27.422,26.896z M21.73,26.896c0.336,0,0.613,0.324,0.613,0.715c0,0.393-0.277,0.714-0.613,0.714
			s-0.611-0.321-0.611-0.714C21.119,27.221,21.385,26.896,21.73,26.896z M19.478,16.523l-0.276-1.151
			c-0.039-0.172,0.02-0.312,0.059-0.368c0.041-0.059,0.13-0.173,0.287-0.173h1.166l0.316,1.683h-1.552V16.523z M19.823,17.975h1.474
			l0.297,1.566h-1.395L19.823,17.975z M21.188,22.465c-0.159,0-0.307-0.126-0.346-0.311l-0.286-1.176h1.313l0.276,1.476h-0.958
			V22.465L21.188,22.465z M24.31,22.465h-0.879l-0.276-1.474h1.156L24.31,22.465L24.31,22.465z M24.31,19.541h-1.433l-0.297-1.566
			h1.729V19.541z M24.31,16.523h-1.995l-0.316-1.682h2.322v1.682H24.31z M26.543,22.465h-0.988v-1.474h1.256L26.543,22.465z
			 M27.078,19.541h-1.513v-1.566h1.798L27.078,19.541z M25.555,16.523v-1.682h2.373l-0.307,1.682H25.555z M29.133,22.143
			c-0.041,0.185-0.188,0.322-0.355,0.322h-0.959l0.268-1.474h1.295L29.133,22.143z M29.687,19.541h-1.334l0.286-1.566h1.383
			L29.687,19.541z M30.576,15.361l-0.246,1.162h-1.434l0.307-1.682h1.027c0.158,0,0.247,0.104,0.286,0.162
			C30.556,15.05,30.615,15.188,30.576,15.361z"/>
	</g>
</g>
</svg>
