<?xml version="1.0" encoding="utf-8"?>
<!-- Generator: Adobe Illustrator 16.0.0, SVG Export Plug-In . SVG Version: 6.00 Build 0)  -->
<!DOCTYPE svg PUBLIC "-//W3C//DTD SVG 1.1//EN" "http://www.w3.org/Graphics/SVG/1.1/DTD/svg11.dtd">
<svg version="1.1" id="Layer_1" xmlns="http://www.w3.org/2000/svg" xmlns:xlink="http://www.w3.org/1999/xlink" x="0px" y="0px"
	 width="50px" height="50px" viewBox="0 0 50 50" enable-background="new 0 0 50 50" xml:space="preserve">
<g>
	<g>
		<path fill="#FFA700" d="M46.978,32.069c-0.354-0.283-0.707-0.495-0.989-0.777c-0.563-0.425-1.06-0.849-1.625-1.201l-4.804-3.674
			l-0.919-0.706c-1.482-1.131-2.896-2.262-4.38-3.32c-0.283-0.213-0.494-0.354-0.776-0.424l0,0c-0.07,0-0.143-0.07-0.213-0.07
			s-0.07,0-0.141,0c-0.071,0-0.143,0-0.143,0c-0.069,0-0.142,0-0.142,0c-0.069,0-0.069,0-0.142,0c-0.07,0-0.141,0.07-0.213,0.07l0,0
			c-0.282,0.071-0.493,0.211-0.776,0.424c-1.767,1.342-3.531,2.754-5.298,4.098v-1.484c0-0.353-0.282-0.636-0.637-0.636h-2.474
			c-0.353,0-0.635,0.283-0.635,0.636c0,1.484,0,2.755,0,4.027c0,0.212-0.142,0.494-0.282,0.706c-0.777,0.564-1.484,1.13-2.262,1.766
			c-0.354,0.283-0.637,0.495-0.99,0.778c-0.423,0.353-0.777,0.775-0.706,1.271c0,0.282,0.071,0.564,0.212,0.776
			c0.354,0.564,1.2,0.848,1.907,0.636c0.142-0.07,0.353-0.141,0.494-0.212v9.891c0,0.071,0,0.071,0,0.142h-1.271v1.838h26.422
			v-1.838h-1.062c0-0.069,0-0.069,0-0.142v-9.891c0.142,0.071,0.284,0.142,0.495,0.212c0.707,0.212,1.555-0.07,1.908-0.636
			c0.141-0.212,0.211-0.494,0.211-0.776C47.754,32.846,47.401,32.422,46.978,32.069z M30.869,44.573c0.07,0,0.07-0.07,0.07-0.212
			c0-1.201,0-2.332,0-3.531c0-1.062,0-2.12,0-3.25c0-0.213,0-0.425-0.07-0.637c-0.282-1.556-1.907-2.686-3.461-2.261
			c-1.344,0.354-2.262,1.555-2.262,2.967v6.712c0,0.142,0,0.212,0.071,0.212h-2.332c0-0.07,0-0.07,0-0.142V36.59l0,0v-3.533
			c0-0.07,0-0.141,0-0.141c3.108-2.402,6.216-4.733,9.324-7.136l0.354-0.212c0.141-0.07,0.211-0.142,0.354-0.142
			c0.141,0,0.212,0.071,0.354,0.142l0.354,0.212c3.107,2.402,6.217,4.733,9.324,7.136c0,0.069,0,0.141,0,0.141v3.533l0,0v7.771
			c0,0.07,0,0.07,0,0.142L30.869,44.573L30.869,44.573z"/>
		<path fill="#FFA700" d="M33.554,29.596c0,1.344,0,2.687,0,4.027c0.778,0,1.556,0,2.263,0c0-1.342,0-2.685,0-4.027
			C35.037,29.596,34.332,29.596,33.554,29.596z"/>
		<path fill="#FFA700" d="M30.092,29.596c0,1.344,0,2.687,0,4.027c0.777,0,1.557,0,2.262,0c0-1.342,0-2.685,0-4.027
			C31.576,29.596,30.869,29.596,30.092,29.596z"/>
		<polyline fill="#FFA700" points="44.363,30.091 39.56,26.417 38.641,25.711 		"/>
	</g>
	<path fill="#FFA700" d="M27.338,13.982c-1.626,0.496-3.32,0.918-4.945,1.343c-0.354,0.069-0.777,0.142-1.203,0.069
		c-0.777-0.141-1.482-0.353-2.189-0.635c-0.424-0.142-0.848-0.354-1.201-0.564c-0.141-0.143-2.048-0.777-2.189-0.777
		c-0.213-0.07-0.425-0.141-0.707-0.212c-0.07,0-0.142-0.07-0.211-0.07c-0.07,0-0.142,0-0.213-0.069
		c-0.142,0-0.281-0.071-0.354-0.071l0,0c0,0,0,0,0,0.071c-0.354,2.26-0.848,4.379-1.695,6.429c0,0-0.354-2.474-0.495-3.603
		c-0.069-0.354-0.069-0.565-0.069-0.565c0.069-0.142,0.069-0.212,0.141-0.354l0,0c0-0.07,0.07-0.141,0.07-0.211c0,0,0,0,0-0.07l0,0
		c0.07-0.07,0.07-0.142,0.07-0.282c0-0.07,0-0.07,0-0.142c0-0.07-0.07-0.142-0.07-0.213l0,0l0,0l0,0
		c-0.07-0.07-0.142-0.07-0.142-0.141h-0.069h-0.071c-0.071,0-0.354,0-0.636,0c-0.354,0-0.564,0-0.637,0h-0.07h-0.07
		c0,0-0.071,0-0.141,0.07l-0.071,0.07l0,0l0,0c0,0,0,0.07-0.071,0.07c0,0,0,0,0,0.07l0,0c0,0.072-0.07,0.143-0.07,0.213
		c0,0.141,0.07,0.212,0.07,0.283c0,0,0,0.07,0.071,0.07c0,0.07,0.071,0.141,0.071,0.211c0,0,0,0,0,0.07
		c0.069,0.071,0.069,0.212,0.141,0.354c0,0-0.141,0.99-0.283,1.979c-0.141,0.989-0.281,2.049-0.281,2.189
		c-0.212-0.424-0.354-0.918-0.496-1.342l-0.635-2.332c-0.212-0.848-0.354-1.767-0.494-2.685c-0.354,0-0.777,0.071-1.201,0.071
		c-0.07,0-0.142,0.07-0.211,0.07c-0.565,0.143-1.131,0.354-1.697,0.494c-0.424,0.143-0.776,0.354-1.131,0.85
		c-0.069,0.07-0.141,0.141-0.141,0.281c-0.07,0.213-0.07,0.496-0.141,0.707c-0.07,1.625-0.424,3.25-0.495,4.945
		c-0.142,1.908,0.282,3.745,0.636,5.581c0,0.071,0,0.142,0,0.212c0.141,0.778,0.495,1.342,1.061,1.696
		c0.211,0.141,0.354,0.213,0.635,0.283l-0.07,0.069h0.07c0,0.07,0,0.143,0,0.212c0,0.565,0.142,2.896,0.354,5.651l0,0
		c0,0.071,0,0.142,0,0.212c0,0.144,0,0.212,0,0.354c0.213,3.037,0.495,6.499,0.707,8.549c0,0.142,0,0.282,0.071,0.424
		c0,0.988,0.283,1.695,0.776,2.119l0,0c0.283,0.212,0.636,0.424,0.99,0.424c0.353,0.071,0.776,0,1.271-0.141
		c0.495-0.144,0.989-0.495,1.483-0.777c0.494,0.282,0.988,0.635,1.483,0.777c0.494,0.141,0.918,0.212,1.271,0.141
		c0.425-0.07,0.777-0.212,1.061-0.424l0,0c0.495-0.424,0.777-1.202,0.777-2.119c0-0.142,0-0.282,0.07-0.424
		c0.213-2.05,0.707-8.619,0.707-8.619c0-0.354,0-0.707,0-0.989l0,0c0.07-1.413,0.07-2.827,0.142-4.31
		c0.071-3.392,0.212-6.782,0.282-10.174c0-0.141,0-0.282,0.07-0.424c0.071-0.211,0.071-0.353,0.071-0.353
		c0.282,0.142,0.494,0.211,0.776,0.282c0.918,0.354,1.837,0.636,2.756,0.777c0.07,0,0.07,0,0.141,0
		c0.354,0.07,0.707,0.142,1.061,0.07c0.565-0.141,1.201-0.283,1.765-0.424c1.272-0.283,2.544-0.637,3.746-0.919
		c0.424-0.07,0.848-0.282,1.2-0.425c1.131-0.422,1.695-1.553,1.343-2.685C29.669,14.195,28.537,13.629,27.338,13.982z"/>
	<path fill="#FFA700" d="M14.551,5.646c-0.143-1.201-0.707-2.119-1.837-2.614C12.22,2.82,11.654,2.75,11.089,2.75
		s-1.06,0.07-1.625,0.282c-1.13,0.495-1.696,1.413-1.837,2.614c0,0.213,0,0.354,0,0.564c0,1.271,0.283,2.473,0.777,3.674
		c0.282,0.565,0.635,1.061,1.06,1.555c0.424,0.494,0.989,0.707,1.625,0.636c0.565,0,1.13-0.212,1.625-0.636
		c0.424-0.424,0.776-0.918,1.06-1.555c0.495-1.13,0.777-2.4,0.777-3.674C14.551,6,14.551,5.859,14.551,5.646z"/>
</g>
</svg>
