<?xml version="1.0" encoding="utf-8"?>
<!-- Generator: Adobe Illustrator 16.0.0, SVG Export Plug-In . SVG Version: 6.00 Build 0)  -->
<!DOCTYPE svg PUBLIC "-//W3C//DTD SVG 1.1//EN" "http://www.w3.org/Graphics/SVG/1.1/DTD/svg11.dtd">
<svg version="1.1" id="Capa_1" xmlns="http://www.w3.org/2000/svg" xmlns:xlink="http://www.w3.org/1999/xlink" x="0px" y="0px"
	 width="50px" height="50px" viewBox="0 0 50 50" enable-background="new 0 0 50 50" xml:space="preserve">
<g>
	<g>
		<path fill="#FFA700" d="M46.175,4.767L19.661,4.78c-1.52-0.002-2.756,1.236-2.754,2.758v1.265
			C16.344,8.56,15.645,8.39,14.755,8.39c-1.115,0-2.039,0.25-2.141,0.283c-0.215,0.061-0.412,0.165-0.58,0.312L1.929,17.839
			c-0.331,0.293-0.516,0.716-0.505,1.157l0.087,14.575c0.02,0.775,0.912,1.41,1.689,1.443c0.041,0,3.81,0.157,7.14,0.157
			c2.03,0,3.463-0.053,4.377-0.168c2.664-0.335,3.829-1.121,4.312-1.622c0.5-0.365,0.946-0.727,1.412-1.087
			c-0.388,1.423,0.26,2.974,1.622,3.661c0.441,0.227,0.937,0.346,1.427,0.346c0.875,0,1.674-0.363,2.261-0.964
			c0.288,0.392,0.653,0.731,1.116,0.97c0.441,0.217,0.936,0.338,1.429,0.338c1.196,0,2.278-0.668,2.819-1.735l2.096-4.126
			c0.383-0.756,0.463-1.615,0.197-2.416c-0.084-0.262-0.22-0.503-0.371-0.729l13.119,0.006c1.52,0,2.758-1.235,2.76-2.754
			l0.012-17.336C48.929,6.03,47.694,4.767,46.175,4.767z M26.643,29.534l-2.091,4.131c-0.283,0.57-1.02,0.814-1.593,0.525
			c-0.583-0.297-0.816-1.014-0.523-1.595l1.72-3.389c0,0,0.563-1.375,1.463-1.39c0.176,0.006,0.345,0.041,0.506,0.125
			c0.279,0.146,0.49,0.383,0.588,0.688C26.813,28.933,26.793,29.251,26.643,29.534z M23.347,25.899l-1.891,1.732h0.018
			c-1.186,1.027-2.595,2.167-4.33,3.447c-0.129,0.097-0.14,0.086-0.232,0.217c-0.004,0.005-0.577,0.516-2.557,0.761
			c-0.541,0.067-1.672,0.058-4.013,0.058c-2.036,0-4.569,0.031-5.955-0.018l0.022-12.484l9.3-8.149
			c0.25-0.047,0.631-0.103,1.045-0.103c0.604,0,1.022,0.107,1.249,0.33v10.307c0,0.523,0.275,1.004,0.727,1.273
			c0.053,0.029,0.113,0.024,0.168,0.051v0.109l0.137-0.07c0.384,0.129,0.797,0.146,1.162-0.057c2.312-1.253,6.69-3.242,8.599-3.242
			c0.086,0,0.157,0,0.208,0.01c0.007,0.018,0.015,0.026,0.025,0.043C27.069,20.313,27.258,22.03,23.347,25.899z M31.442,29.88
			l-2.091,4.13c-0.284,0.572-1.024,0.812-1.595,0.524c-0.581-0.293-0.812-1.012-0.52-1.594l2.094-4.131
			c0.203-0.399,0.605-0.654,1.057-0.654c0.188,0,0.368,0.049,0.539,0.134c0.285,0.146,0.493,0.389,0.588,0.684
			C31.614,29.278,31.592,29.596,31.442,29.88z M47.084,24.884c-0.003,0.514-0.413,0.919-0.919,0.919l-18.719-0.005
			c1.528-1.889,2.407-3.58,2.554-5.048c0.106-1.162-0.235-1.903-0.488-2.271c-0.312-0.593-1.049-1.396-2.717-1.396
			c-2.181,0-5.581,1.428-7.822,2.495v-4.114l28.113-0.008L47.084,24.884z M47.086,10.009L18.743,9.996V7.532
			c0-0.508,0.41-0.918,0.916-0.918l26.517-0.021c0.501,0,0.919,0.446,0.919,0.951L47.086,10.009z"/>
		<polygon fill="#FFA700" points="44.999,24.101 44.979,21.608 37.719,21.604 37.741,24.101 		"/>
	</g>
</g>
</svg>
