<?xml version="1.0" encoding="utf-8"?>
<!-- Generator: Adobe Illustrator 21.0.0, SVG Export Plug-In . SVG Version: 6.00 Build 0)  -->
<svg version="1.1" id="Слой_1" xmlns="http://www.w3.org/2000/svg" xmlns:xlink="http://www.w3.org/1999/xlink" x="0px" y="0px"
	 width="70px" height="70px" viewBox="0 0 70 70" style="enable-background:new 0 0 70 70;" xml:space="preserve">
<style type="text/css">
	.st0{fill:#283CFA;}
</style>
<g>
	<g>
		<path class="st0" d="M50,0c-2.3,0-4.1,1.9-4.1,4.1c0,0.9,0.3,1.8,0.9,2.5L36.6,19.5c-0.6-0.3-1.2-0.4-1.9-0.4
			c-1,0-1.9,0.4-2.6,0.9l-5.8-4.6c0.3-0.6,0.5-1.2,0.5-1.9c0-2.3-1.9-4.1-4.1-4.1s-4.1,1.9-4.1,4.1c0,0.8,0.2,1.5,0.6,2.1l-6.3,5.7
			c-0.6-0.4-1.4-0.7-2.2-0.7c-2.3,0-4.1,1.9-4.1,4.1S8.2,29,10.4,29s4.1-1.9,4.1-4.1c0-0.7-0.2-1.4-0.5-2l6.4-5.8
			c0.6,0.4,1.3,0.6,2.1,0.6c0.9,0,1.7-0.3,2.3-0.7l6,4.7c-0.2,0.5-0.3,1-0.3,1.6c0,2.3,1.9,4.1,4.1,4.1s4.1-1.9,4.1-4.1
			c0-0.9-0.3-1.7-0.7-2.3l10.2-13c0.5,0.2,1.1,0.4,1.7,0.4c2.3,0,4.1-1.9,4.1-4.1C54.1,1.9,52.3,0,50,0z M10.4,26.9
			c-1.2,0-2.1-0.9-2.1-2.1s0.9-2.1,2.1-2.1s2.1,0.9,2.1,2.1S11.6,26.9,10.4,26.9z M22.6,15.6c-1.2,0-2.1-0.9-2.1-2.1
			s0.9-2.1,2.1-2.1s2.1,0.9,2.1,2.1S23.7,15.6,22.6,15.6z M34.7,25.3c-1.2,0-2.1-0.9-2.1-2.1s0.9-2.1,2.1-2.1c1.2,0,2.1,0.9,2.1,2.1
			C36.8,24.4,35.9,25.3,34.7,25.3z M50,6.2c-1.2,0-2.1-0.9-2.1-2.1S48.8,2,50,2s2.1,0.9,2.1,2.1S51.1,6.2,50,6.2z"/>
	</g>
</g>
<g>
	<g>
		<path class="st0" d="M63.9,36c-1.6-0.9-3.9-0.8-5.5,1.4l-3.9,5.1V31.4c0-0.6-0.5-1-1-1s-1,0.5-1,1v14.1c0,1,1.2,1.4,1.8,0.6
			l5.7-7.5c0,0,0,0,0,0c0.9-1.3,2.1-1.3,2.9-0.8c0.8,0.4,1.4,1.4,0.8,2.6c0,0,0,0,0,0l-5.9,13.5c-1,2.1-2.2,3.1-3.9,4.7
			c-1.5,1.5-1.5,4-1.5,6c0,1,0,2.2-0.5,2.8c-0.3,0.3-0.7,0.4-1.3,0.4h-4.9c-0.6,0-1,0.5-1,1s0.5,1,1,1h4.9c1.2,0,2.1-0.3,2.8-1
			c1.1-1.1,1.1-2.8,1-4.2c0-1.3,0-3.6,0.9-4.5c1.7-1.6,3.2-2.9,4.3-5.3c0,0,0,0,0,0l5.9-13.5C66.6,39,65.5,37,63.9,36z"/>
	</g>
</g>
<g>
	<g>
		<path class="st0" d="M50.5,12C50.5,12,50.5,12,50.5,12c-2.2,0-4,1.8-4,4c0,2,0,1.4,0,14.9c-0.6-0.3-1.3-0.5-2-0.5
			c-1.4,0-2.6,0.7-3.4,1.8c-0.7-0.6-1.6-1-2.6-1c-1.3,0-2.5,0.7-3.3,1.7c-0.7-0.7-1.7-1.1-2.7-1.1c-2.2,0-4,1.8-4,4
			c0,8.5,0,16,0,17.4c0,5.8,4.3,5.7,4.3,9.4l0,3.4c0,2.2,1.2,3.7,3.3,3.9c0,0,0.1,0,0.1,0H41c0.6,0,1-0.5,1-1s-0.5-1-1-1h-4.8
			c-1-0.1-1.4-0.7-1.4-1.9l0-3.4c0-4.9-4.3-4.5-4.3-9.4c0-15.7,0-11.8,0-17.4c0-1.1,0.9-2,2-2c1.1,0,2,0.9,2,2v5.9c0,0.6,0.5,1,1,1
			s1-0.5,1-1v-5.9v-0.6c0-1.1,0.9-2,2-2s2,0.9,2,2v6.5c0,0.6,0.5,1,1,1s1-0.5,1-1c0-0.7,0-6.3,0-7.3c0-1.1,0.9-2,2-2s2,0.9,2,2
			c0,5,0,2.8,0,7.3c0,0.6,0.5,1,1,1s1-0.5,1-1c0-24.8,0-23.2,0-25.7c0-1.1,0.9-2,2-2h0c1.1,0,2,0.9,2,2v10.6c0,0.6,0.5,1,1,1
			s1-0.5,1-1V16C54.5,13.8,52.7,12,50.5,12z"/>
	</g>
</g>
</svg>
