<?xml version="1.0" encoding="utf-8"?>
<!-- Generator: Adobe Illustrator 16.0.0, SVG Export Plug-In . SVG Version: 6.00 Build 0)  -->
<!DOCTYPE svg PUBLIC "-//W3C//DTD SVG 1.1//EN" "http://www.w3.org/Graphics/SVG/1.1/DTD/svg11.dtd">
<svg version="1.1" id="Layer_1" xmlns="http://www.w3.org/2000/svg" xmlns:xlink="http://www.w3.org/1999/xlink" x="0px" y="0px"
	 width="208px" height="120px" viewBox="0 0 208 120" enable-background="new 0 0 208 120" xml:space="preserve">
<path fill="none" d="M207.729,26.062c0,0.667,0,1.333,0,2"/>
<path fill="none" d="M29.256,56.507c0-0.615,0.093-1.326-0.11-1.882"/>
<g enable-background="new    ">
	<path fill="#303141" d="M62.363,42.331c-2.87,0-3.971,3.003-3.971,8.639c0,5.265,1.668,7.898,4.572,7.898
		c2.303,0,4.138-1.335,5.673-2.559c1.034,0.779,2.202,2.41,2.436,3.819c-1.902,2.076-5.406,3.93-9.077,3.93
		c-7.041,0-9.21-6.748-9.21-13.125c0-9.344,4.438-13.348,9.745-13.348c5.172,0,8.576,3.374,8.576,7.712c0,2.336-1.135,3.3-3.037,3.3
		c-0.801,0-1.402-0.148-2.036-0.333C66.101,45.186,65.299,42.331,62.363,42.331z"/>
	<path fill="#303141" d="M88.122,58.868c0,1.446,0.2,2.743,0.834,3.671c-0.768,0.741-1.969,1.261-3.271,1.261
		c-2.103,0-2.803-1.261-2.803-3.597v-7.898c0-1.668-0.3-2.447-1.401-2.447c-0.701,0-1.635,0.371-2.503,1.261v12.384
		c-0.734,0.148-1.635,0.223-2.57,0.223c-0.834,0-1.735-0.074-2.502-0.223v-27.03l0.233-0.26h2.002c2.069,0,2.836,0.89,2.836,3.485
		v7.008c1.268-1.149,2.703-2.039,4.472-2.039c3.037,0,4.672,2.744,4.672,6.6V58.868z"/>
	<path fill="#303141" d="M104.57,63.8c-1.702-0.037-2.87-0.89-3.604-1.966c-1.168,1.225-2.703,2.225-4.872,2.225
		c-3.438,0-5.073-2.966-5.073-5.635c0-4.45,3.17-6.415,6.607-6.415c0.601,0,1.502,0,2.37,0.074v-0.705
		c0-1.557-0.667-2.336-2.169-2.336c-1.435,0-3.17,0.593-4.905,1.187c-0.734-0.964-1.135-2.595-1.268-4.042
		c2.236-1.001,5.473-1.631,7.642-1.631c2.903,0,5.94,1.631,5.94,6.34v7.527c0,1.075,0.267,1.891,0.934,2.41
		C105.973,61.834,105.238,63.243,104.57,63.8z M99.999,58.72v-2.966c-0.667-0.037-1.335-0.074-1.802-0.074
		c-1.501,0-2.102,0.964-2.102,2.373c0,1.001,0.601,1.743,1.535,1.743C98.397,59.795,99.231,59.424,99.999,58.72z"/>
	<path fill="#303141" d="M118.852,46.966c0,0.742-0.067,1.446-0.201,2.113l-3.971-0.074v8.528c0,1.112,0.434,1.743,1.469,1.743
		h1.868c0.267,0.816,0.435,1.854,0.435,2.744c0,0.445-0.033,0.928-0.134,1.298c-1.235,0.186-3.003,0.371-4.306,0.371
		c-3.036,0-4.438-1.632-4.438-5.154v-9.492l-2.604,0.037c-0.166-0.667-0.233-1.372-0.233-2.113c0-0.63,0.067-1.298,0.233-2.002
		l2.604,0.074v-2.15c0-2.559,0.801-3.485,2.836-3.485h2.036l0.233,0.259v5.376l3.971-0.074
		C118.784,45.668,118.852,46.335,118.852,46.966z"/>
</g>
<g enable-background="new    ">
	<path fill="#303141" d="M63.1,66.453c4.639,0,7.809,2.076,7.809,6.748c0,2.225-1.268,4.264-2.97,5.08
		c2.236,0.815,4.038,3.484,4.038,6.451c0,5.191-3.27,7.49-8.376,7.49c-2.569,0-5.339-0.074-8.209-0.148l-0.234-0.26V66.86
		l0.234-0.259C58.061,66.527,60.697,66.453,63.1,66.453z M60.43,76.612h2.37c2.269,0,2.903-1.558,2.903-3.003
		c0-1.447-0.634-2.93-2.87-2.93c-0.601,0-1.568,0-2.403-0.037V76.612z M60.43,80.84v7.23c1.068-0.037,2.103-0.037,2.803-0.037
		c2.737,0,3.371-2.003,3.371-3.561c0-1.631-0.734-3.633-3.404-3.633H60.43z"/>
	<path fill="#303141" d="M75.51,73.201c2.136,0.186,3.504,1.408,4.271,3.374c0.734-1.929,2.002-3.337,4.171-3.337
		c1.001,0,1.535,0.148,2.203,0.297c0,1.371-0.434,3.818-1.301,5.413c-0.567-0.223-1.135-0.297-1.702-0.37
		c-1.201,0-2.036,0.667-2.736,1.891V92c-0.734,0.148-1.702,0.223-2.603,0.223c-0.868,0-1.835-0.074-2.603-0.223V80.023
		c0-2.188-0.734-3.411-1.268-3.855C74.142,75.166,74.876,73.758,75.51,73.201z"/>
	<path fill="#303141" d="M100.403,92.297c-1.702-0.037-2.87-0.891-3.604-1.965c-1.168,1.223-2.703,2.225-4.872,2.225
		c-3.438,0-5.073-2.967-5.073-5.637c0-4.449,3.17-6.414,6.607-6.414c0.601,0,1.502,0,2.37,0.074v-0.705
		c0-1.557-0.667-2.336-2.169-2.336c-1.435,0-3.17,0.594-4.905,1.187c-0.734-0.964-1.135-2.595-1.268-4.042
		c2.236-1,5.473-1.631,7.642-1.631c2.903,0,5.94,1.631,5.94,6.34v7.527c0,1.076,0.267,1.891,0.934,2.41
		C101.804,90.332,101.07,91.74,100.403,92.297z M95.831,87.217V84.25c-0.667-0.037-1.335-0.074-1.802-0.074
		c-1.501,0-2.102,0.965-2.102,2.373c0,1.002,0.601,1.743,1.535,1.743C94.229,88.292,95.063,87.922,95.831,87.217z"/>
	<path fill="#303141" d="M119.32,87.365c0,1.445,0.201,2.744,0.802,3.671c-0.768,0.741-1.936,1.261-3.237,1.261
		c-2.102,0-2.803-1.261-2.803-3.597v-7.897c0-1.669-0.301-2.447-1.436-2.447c-0.667,0-1.602,0.37-2.469,1.26V92
		c-0.734,0.148-1.702,0.223-2.604,0.223c-0.867,0-1.869-0.074-2.603-0.223V73.498l0.233-0.26h1.969c1.402,0,2.303,0.815,2.736,2.225
		c1.302-1.298,2.803-2.299,4.738-2.299c3.037,0,4.672,2.744,4.672,6.6V87.365z"/>
	<path fill="#303141" d="M128.963,73.127c1.168,0,2.168,0.334,3.104,0.815V64.97l0.199-0.26h2.036c2.069,0,2.837,0.89,2.837,3.485
		V86.66c0,1.188,0.367,2.225,0.934,2.67c-0.199,1.002-0.934,2.41-1.602,2.967c-1.668-0.037-2.836-0.816-3.57-2.076
		c-1.168,1.371-2.77,2.336-4.605,2.336c-4.071,0-6.007-3.968-6.007-9.604C122.288,76.575,125.324,73.127,128.963,73.127z
		 M132.066,86.438v-8.119c-0.802-0.52-1.535-0.891-2.17-0.891c-1.602,0-2.27,2.15-2.27,5.562c0,3.447,0.835,4.895,2.003,4.895
		C130.297,87.885,131.231,87.588,132.066,86.438z"/>
</g>
<path fill="#00A79B" stroke="#00A79A" stroke-miterlimit="10" d="M165.883,42.374c0,12.375-10.029,22.405-22.404,22.405
	c-4.41,0-8.045-0.795-11.513-2.995c-1.137-0.722-6.704,3.032-7.692,2.124c-0.998-0.92,2.11-6.985,1.293-8.072
	c-2.82-3.748-4.491-8.409-4.492-13.462c0-12.373,10.031-22.404,22.404-22.404C155.854,19.97,165.883,30.001,165.883,42.374z"/>
<path fill="#FFFFFF" d="M159.088,42.135c0,8.622-6.988,15.61-15.609,15.61c-3.072,0-5.604-0.554-8.021-2.088
	c-0.793-0.504-4.673,2.114-5.36,1.48c-0.695-0.641,1.471-4.867,0.9-5.624c-1.965-2.611-3.13-5.858-3.13-9.379
	c0-8.621,6.989-15.61,15.61-15.61S159.088,33.514,159.088,42.135z"/>
<g enable-background="new    ">
</g>
<g enable-background="new    ">
	<path fill="#303141" d="M150.139,50.76c-0.246,1.744-1.262,2.53-2.924,2.53h-9.171c-0.616-0.65-1.662-2.12-1.662-3.249
		c0-2.086,1.601-4.172,3.539-6.086l3.324-3.352c0.923-0.889,1.631-1.915,1.631-3.249c0-1.368-0.8-2.428-2.123-2.428
		c-1.478,0-2.37,1.539-2.739,3.009c-1.139,0-2.801-0.582-3.417-1.573c0.801-3.18,3.171-5.779,6.648-5.779
		c3.908,0,6.494,2.736,6.494,6.908c0,2.94-1.662,4.924-3.663,6.805l-2.216,2.052c-0.861,0.82-2.062,1.915-2.493,2.77
		c1.662-0.239,3.386-0.376,4.679-0.376h4.216C150.262,49.255,150.231,50.178,150.139,50.76z"/>
</g>
<g enable-background="new    ">
</g>
</svg>
