<?xml version="1.0" encoding="utf-8"?>
<!-- Generator: Adobe Illustrator 16.0.0, SVG Export Plug-In . SVG Version: 6.00 Build 0)  -->
<!DOCTYPE svg PUBLIC "-//W3C//DTD SVG 1.1//EN" "http://www.w3.org/Graphics/SVG/1.1/DTD/svg11.dtd">
<svg version="1.1" id="Layer_1" xmlns="http://www.w3.org/2000/svg" xmlns:xlink="http://www.w3.org/1999/xlink" x="0px" y="0px"
	 width="99.9px" height="99.9px" viewBox="20.048 -34.49 99.9 99.9" enable-background="new 20.048 -34.49 99.9 99.9"
	 xml:space="preserve">
<circle fill="#00A89D" cx="69.998" cy="15.46" r="49.95"/>
<g>
	<g>
		<g>
			<path fill="#FFFFFF" d="M114.562,6.075c-3.119-3.659-5.98-10.574-6.363-15.365l-0.291-3.64c-0.382-4.79-4.613-9.025-9.408-9.406
				l-3.64-0.291c-4.789-0.382-11.703-3.245-15.36-6.364l-2.78-2.368c-3.659-3.118-9.646-3.118-13.305,0l-2.779,2.368
				c-3.659,3.119-10.571,5.981-15.364,6.364l-3.638,0.291c-4.793,0.381-9.024,4.617-9.408,9.406l-0.291,3.64
				c-0.383,4.792-3.247,11.707-6.364,15.365l-2.367,2.778c-3.12,3.66-3.12,9.644,0,13.304l2.367,2.778
				c3.118,3.66,5.981,10.57,6.364,15.362l0.291,3.639c0.382,4.796,4.615,9.026,9.408,9.411l3.638,0.289
				C50.065,54.02,56.979,56.883,60.636,60l2.779,2.37c3.659,3.115,9.646,3.115,13.305,0L79.5,60
				c3.657-3.117,10.571-5.98,15.36-6.364l3.64-0.289c4.795-0.385,9.026-4.616,9.408-9.411l0.291-3.639
				c0.383-4.792,3.244-11.702,6.363-15.362l2.368-2.778c3.12-3.661,3.12-9.644,0-13.304L114.562,6.075z M70.067,55.724
				c-22.212,0-40.22-18.006-40.22-40.22c0-22.213,18.007-40.219,40.22-40.219s40.219,18.007,40.219,40.219
				S92.279,55.724,70.067,55.724z"/>
		</g>
	</g>
</g>
<g>
	<path fill="#FFFFFF" d="M92.525,7.691c0.241,0,0.431,0.074,0.571,0.222c0.14,0.147,0.21,0.34,0.21,0.582v1.445h-7.4V9.137
		c0-0.155,0.028-0.321,0.087-0.498c0.057-0.177,0.159-0.337,0.303-0.481l3.037-3.396c0.258-0.289,0.484-0.565,0.678-0.827
		c0.192-0.263,0.352-0.521,0.477-0.775c0.125-0.254,0.22-0.509,0.283-0.762c0.062-0.254,0.094-0.523,0.094-0.807
		c0-0.465-0.102-0.823-0.301-1.072c-0.199-0.25-0.504-0.373-0.914-0.373c-0.332,0-0.612,0.098-0.841,0.293
		c-0.229,0.195-0.388,0.437-0.474,0.726c-0.102,0.294-0.234,0.49-0.398,0.586c-0.164,0.096-0.397,0.118-0.701,0.064l-1.186-0.232
		C86.127,1,86.274,0.49,86.495,0.057c0.22-0.434,0.491-0.795,0.816-1.084c0.324-0.289,0.697-0.504,1.117-0.646
		c0.418-0.143,0.869-0.213,1.35-0.213c0.521,0,0.99,0.084,1.406,0.253s0.771,0.402,1.066,0.702c0.292,0.3,0.518,0.658,0.674,1.072
		c0.156,0.415,0.235,0.871,0.235,1.37c0,0.427-0.055,0.824-0.163,1.187c-0.107,0.364-0.256,0.711-0.444,1.04
		c-0.188,0.33-0.405,0.648-0.654,0.955C91.65,5,91.387,5.311,91.108,5.627l-2.06,2.345c0.266-0.091,0.526-0.161,0.787-0.209
		c0.261-0.048,0.501-0.072,0.723-0.072L92.525,7.691L92.525,7.691z"/>
</g>
<g>
	<path fill="#FFFFFF" d="M45.335,18.118c0.918,0,1.7,0.095,2.345,0.284c0.645,0.188,1.171,0.455,1.578,0.801
		c0.408,0.345,0.704,0.763,0.889,1.258c0.186,0.492,0.279,1.043,0.279,1.65c0,0.332-0.043,0.651-0.128,0.958
		c-0.085,0.308-0.22,0.595-0.401,0.862c-0.182,0.267-0.417,0.513-0.703,0.735c-0.286,0.223-0.629,0.416-1.031,0.578
		c0.875,0.237,1.523,0.619,1.943,1.146c0.419,0.525,0.629,1.208,0.629,2.046c0,0.628-0.109,1.213-0.328,1.754
		c-0.219,0.541-0.54,1.013-0.963,1.415c-0.423,0.401-0.945,0.717-1.564,0.942c-0.62,0.228-1.33,0.339-2.126,0.339h-5.31V18.118
		H45.335z M43.528,20.683v3.648h1.605c0.341,0,0.648-0.025,0.922-0.081c0.274-0.054,0.506-0.148,0.698-0.284
		c0.192-0.134,0.337-0.321,0.438-0.557c0.101-0.237,0.151-0.534,0.151-0.893c0-0.351-0.04-0.644-0.119-0.877
		c-0.08-0.233-0.201-0.42-0.365-0.562c-0.164-0.142-0.373-0.244-0.625-0.304c-0.252-0.062-0.552-0.091-0.898-0.091H43.528z
		 M45.7,30.303c0.407,0,0.741-0.057,0.999-0.171c0.259-0.115,0.46-0.264,0.607-0.446c0.146-0.184,0.246-0.389,0.301-0.619
		c0.055-0.23,0.082-0.463,0.082-0.7c0-0.27-0.032-0.512-0.096-0.728c-0.064-0.217-0.173-0.399-0.328-0.548
		c-0.155-0.148-0.361-0.263-0.616-0.345c-0.255-0.08-0.578-0.123-0.968-0.123h-2.153v3.68H45.7L45.7,30.303z"/>
	<path fill="#FFFFFF" d="M54.678,23.998c0.292-0.568,0.628-1.014,1.008-1.338s0.816-0.487,1.31-0.487
		c0.425,0,0.772,0.112,1.039,0.335l-0.182,2.312c-0.03,0.148-0.081,0.249-0.15,0.304c-0.07,0.054-0.166,0.082-0.287,0.082
		c-0.049,0-0.113-0.004-0.192-0.011c-0.08-0.006-0.161-0.014-0.247-0.023c-0.084-0.011-0.172-0.022-0.26-0.032
		c-0.088-0.011-0.168-0.016-0.242-0.016c-0.414,0-0.743,0.122-0.989,0.366c-0.247,0.243-0.456,0.581-0.625,1.013v6.387h-2.829
		V22.375h1.679c0.14,0,0.257,0.014,0.351,0.042c0.095,0.026,0.173,0.069,0.237,0.126c0.063,0.057,0.112,0.134,0.146,0.229
		c0.034,0.094,0.062,0.209,0.086,0.345L54.678,23.998z"/>
	<path fill="#FFFFFF" d="M58.546,23.836c0.572-0.562,1.206-0.979,1.903-1.252c0.696-0.273,1.443-0.412,2.24-0.412
		c0.571,0,1.087,0.104,1.546,0.31c0.459,0.207,0.849,0.493,1.168,0.861c0.318,0.369,0.564,0.806,0.734,1.313
		c0.17,0.505,0.255,1.061,0.255,1.662v6.569h-1.296c-0.267,0-0.47-0.04-0.606-0.121c-0.137-0.081-0.251-0.25-0.342-0.507
		l-0.201-0.579c-0.237,0.223-0.465,0.419-0.684,0.589c-0.22,0.168-0.446,0.312-0.68,0.43c-0.234,0.119-0.483,0.206-0.749,0.264
		c-0.265,0.057-0.558,0.086-0.88,0.086c-0.432,0-0.824-0.062-1.177-0.188c-0.354-0.126-0.653-0.311-0.899-0.553
		c-0.247-0.244-0.436-0.545-0.57-0.907c-0.134-0.361-0.201-0.779-0.201-1.252c0-0.378,0.085-0.761,0.255-1.151
		c0.171-0.39,0.466-0.743,0.885-1.064c0.42-0.32,0.985-0.589,1.697-0.807c0.712-0.216,1.608-0.337,2.692-0.365v-0.445
		c0-0.615-0.115-1.06-0.343-1.333c-0.228-0.274-0.552-0.41-0.971-0.41c-0.335,0-0.608,0.039-0.821,0.121
		c-0.213,0.081-0.403,0.173-0.571,0.274c-0.167,0.103-0.331,0.193-0.488,0.274c-0.159,0.08-0.346,0.122-0.566,0.122
		c-0.194,0-0.358-0.054-0.493-0.161c-0.134-0.108-0.243-0.237-0.329-0.387L58.546,23.836z M63.638,28.61
		c-0.566,0.028-1.032,0.081-1.396,0.162c-0.365,0.081-0.654,0.183-0.867,0.304c-0.213,0.122-0.361,0.261-0.443,0.416
		c-0.082,0.156-0.123,0.325-0.123,0.507c0,0.359,0.087,0.61,0.264,0.755c0.177,0.146,0.435,0.218,0.776,0.218
		c0.365,0,0.685-0.071,0.958-0.212c0.274-0.143,0.55-0.372,0.831-0.69V28.61z"/>
	<path fill="#FFFFFF" d="M70.662,23.512c0.183-0.19,0.371-0.365,0.566-0.527c0.195-0.163,0.403-0.299,0.625-0.411
		c0.221-0.112,0.461-0.2,0.721-0.264c0.258-0.065,0.54-0.097,0.845-0.097c0.516,0,0.975,0.1,1.372,0.3
		c0.399,0.198,0.735,0.475,1.01,0.831c0.274,0.354,0.48,0.778,0.62,1.268c0.139,0.49,0.209,1.021,0.209,1.598v6.679h-2.829v-6.679
		c0-0.514-0.105-0.915-0.318-1.202c-0.213-0.287-0.527-0.431-0.94-0.431c-0.311,0-0.601,0.072-0.871,0.216
		c-0.272,0.146-0.535,0.345-0.79,0.594v7.501h-2.828V22.375h1.751c0.353,0,0.583,0.176,0.694,0.528L70.662,23.512z"/>
	<path fill="#FFFFFF" d="M86.875,16.768v16.121h-1.752c-0.353,0-0.584-0.175-0.693-0.527l-0.219-0.801
		c-0.189,0.223-0.387,0.426-0.593,0.607c-0.208,0.184-0.433,0.339-0.671,0.472c-0.24,0.13-0.5,0.233-0.777,0.304
		c-0.277,0.071-0.575,0.107-0.897,0.107c-0.493,0-0.95-0.122-1.369-0.365c-0.42-0.243-0.783-0.595-1.086-1.054
		c-0.305-0.46-0.543-1.022-0.716-1.688c-0.173-0.666-0.261-1.425-0.261-2.276c0-0.783,0.099-1.512,0.293-2.184
		c0.195-0.673,0.469-1.255,0.825-1.744c0.356-0.49,0.783-0.875,1.282-1.152c0.498-0.277,1.05-0.416,1.651-0.416
		c0.492,0,0.906,0.079,1.24,0.234c0.334,0.155,0.639,0.365,0.913,0.627v-5.509L86.875,16.768z M84.047,25.193
		c-0.213-0.262-0.445-0.447-0.693-0.553c-0.249-0.104-0.511-0.157-0.785-0.157c-0.262,0-0.502,0.058-0.721,0.173
		s-0.409,0.299-0.57,0.552c-0.16,0.254-0.287,0.584-0.379,0.989c-0.091,0.406-0.137,0.896-0.137,1.471
		c0,0.554,0.038,1.021,0.111,1.399c0.072,0.378,0.174,0.684,0.306,0.917c0.13,0.234,0.287,0.4,0.47,0.502
		c0.183,0.1,0.387,0.152,0.61,0.152c0.208,0,0.395-0.021,0.562-0.067c0.166-0.042,0.32-0.105,0.46-0.188
		c0.14-0.081,0.273-0.183,0.396-0.308c0.126-0.125,0.248-0.27,0.37-0.431V25.193L84.047,25.193z"/>
</g>
<g>
	<path fill="#FFFFFF" d="M47.934,12.13c0.073,0,0.146,0.015,0.219,0.045c0.072,0.031,0.142,0.083,0.209,0.157l1.224,1.429
		c-0.536,0.777-1.206,1.364-2.012,1.759c-0.807,0.395-1.759,0.593-2.86,0.593c-1.01,0-1.915-0.191-2.715-0.573
		c-0.8-0.381-1.478-0.909-2.035-1.581c-0.556-0.673-0.983-1.47-1.282-2.393c-0.298-0.921-0.447-1.923-0.447-3.005
		c0-1.102,0.161-2.114,0.484-3.037c0.322-0.923,0.776-1.718,1.359-2.387c0.584-0.669,1.283-1.189,2.099-1.561
		c0.815-0.372,1.712-0.558,2.691-0.558c0.499,0,0.969,0.049,1.41,0.147c0.441,0.098,0.853,0.233,1.236,0.406
		c0.383,0.172,0.736,0.38,1.058,0.624c0.322,0.243,0.608,0.507,0.857,0.791l-1.04,1.551c-0.067,0.095-0.146,0.181-0.238,0.258
		c-0.091,0.078-0.219,0.117-0.383,0.117c-0.109,0-0.212-0.027-0.31-0.081c-0.097-0.055-0.201-0.12-0.31-0.198
		c-0.11-0.078-0.23-0.162-0.361-0.253c-0.131-0.092-0.286-0.176-0.465-0.254c-0.18-0.078-0.39-0.144-0.63-0.198
		s-0.521-0.081-0.844-0.081c-0.512,0-0.979,0.104-1.401,0.314c-0.423,0.209-0.788,0.516-1.095,0.917
		c-0.308,0.402-0.544,0.895-0.711,1.48c-0.167,0.584-0.251,1.252-0.251,2.002c0,0.757,0.093,1.429,0.278,2.018
		c0.186,0.588,0.438,1.083,0.757,1.485c0.319,0.402,0.692,0.708,1.118,0.918c0.425,0.209,0.881,0.313,1.368,0.313
		c0.28,0,0.536-0.015,0.766-0.045c0.231-0.03,0.447-0.081,0.648-0.152c0.201-0.071,0.389-0.166,0.565-0.284
		c0.176-0.118,0.356-0.269,0.538-0.451c0.073-0.067,0.152-0.123,0.238-0.167C47.754,12.152,47.843,12.13,47.934,12.13z"/>
	<path fill="#FFFFFF" d="M53.435,6.362c0.341-0.324,0.71-0.586,1.108-0.785c0.399-0.199,0.875-0.299,1.428-0.299
		c0.517,0,0.975,0.1,1.374,0.299c0.398,0.199,0.734,0.476,1.008,0.832c0.273,0.354,0.479,0.777,0.62,1.267
		c0.14,0.49,0.209,1.022,0.209,1.597v6.681h-2.829V9.272c0-0.514-0.106-0.915-0.319-1.202c-0.212-0.287-0.525-0.431-0.939-0.431
		c-0.31,0-0.601,0.073-0.872,0.218C53.954,8.002,53.691,8.2,53.435,8.45v7.502h-2.828V0.776h2.828V6.362z"/>
	<path fill="#FFFFFF" d="M60.798,6.899c0.572-0.56,1.206-0.978,1.902-1.252c0.697-0.273,1.443-0.41,2.24-0.41
		c0.572,0,1.087,0.103,1.546,0.309c0.46,0.207,0.849,0.493,1.169,0.862c0.318,0.368,0.563,0.805,0.733,1.312
		c0.171,0.507,0.257,1.06,0.257,1.663v6.569h-1.296c-0.268,0-0.47-0.041-0.607-0.122c-0.137-0.081-0.25-0.25-0.342-0.507
		l-0.201-0.578c-0.237,0.224-0.465,0.419-0.684,0.588c-0.219,0.169-0.445,0.312-0.68,0.431s-0.484,0.206-0.749,0.264
		s-0.558,0.086-0.88,0.086c-0.432,0-0.825-0.062-1.177-0.188c-0.353-0.125-0.652-0.309-0.898-0.552
		c-0.247-0.243-0.437-0.546-0.571-0.908c-0.134-0.361-0.201-0.779-0.201-1.252c0-0.378,0.085-0.762,0.255-1.15
		C60.785,11.675,61.08,11.32,61.5,11c0.42-0.321,0.985-0.589,1.697-0.807c0.711-0.216,1.608-0.337,2.691-0.365V9.383
		c0-0.616-0.113-1.06-0.342-1.334c-0.228-0.273-0.552-0.41-0.972-0.41c-0.334,0-0.608,0.04-0.821,0.121
		c-0.213,0.081-0.403,0.173-0.57,0.273c-0.168,0.102-0.33,0.193-0.488,0.274C62.537,8.389,62.348,8.43,62.13,8.43
		c-0.195,0-0.359-0.054-0.493-0.162c-0.134-0.108-0.244-0.236-0.328-0.386L60.798,6.899z M65.889,11.674
		c-0.565,0.027-1.031,0.081-1.396,0.162c-0.365,0.082-0.653,0.183-0.866,0.305c-0.213,0.122-0.36,0.26-0.442,0.416
		s-0.124,0.324-0.124,0.507c0,0.358,0.088,0.61,0.265,0.755c0.176,0.146,0.435,0.218,0.775,0.218c0.366,0,0.685-0.071,0.958-0.213
		c0.273-0.143,0.55-0.372,0.83-0.689L65.889,11.674L65.889,11.674z"/>
	<path fill="#FFFFFF" d="M73.69,16.115c-0.451,0-0.847-0.073-1.191-0.218c-0.343-0.145-0.633-0.352-0.866-0.618
		c-0.234-0.267-0.412-0.589-0.534-0.969c-0.121-0.377-0.182-0.8-0.182-1.267V7.609h-0.803c-0.146,0-0.271-0.052-0.374-0.157
		c-0.104-0.104-0.155-0.258-0.155-0.461V5.764L71.09,5.44l0.557-2.565c0.073-0.324,0.28-0.486,0.622-0.486h1.477V5.46h2.344v2.149
		h-2.344v5.221c0,0.243,0.054,0.444,0.159,0.603c0.107,0.159,0.261,0.238,0.462,0.238c0.102,0,0.189-0.011,0.259-0.036
		c0.07-0.023,0.13-0.05,0.182-0.081c0.051-0.031,0.1-0.058,0.146-0.081c0.045-0.023,0.099-0.035,0.16-0.035
		c0.085,0,0.154,0.022,0.205,0.066c0.052,0.044,0.106,0.113,0.161,0.208l0.857,1.49c-0.366,0.304-0.776,0.532-1.232,0.685
		C74.648,16.039,74.177,16.115,73.69,16.115z"/>
</g>
<g id="XMLID_5_">
	<g>
		<path id="XMLID_6_" fill="#FFFFFF" d="M95.375-1.981c3.517,3.136,3.825,8.547,0.69,12.065c-2.484,2.784-6.442,3.637-9.849,2.121
			l-0.767-0.341l-0.8,0.263l-2.633,0.869l0.563-2.713l0.171-0.824l-0.426-0.724c-1.894-3.212-1.498-7.241,0.984-10.026
			C86.448-4.808,91.86-5.117,95.375-1.981 M98.004-4.93C92.945-9.444,85.182-9,80.668-3.938c-3.644,4.085-4.055,9.932-1.416,14.407
			l-1.522,7.336l7.114-2.349c4.748,2.111,10.508,1.037,14.152-3.049C103.51,7.346,103.066-0.416,98.004-4.93L98.004-4.93z"/>
	</g>
</g>
</svg>
