<?xml version="1.0" encoding="utf-8"?>
<!-- Generator: Adobe Illustrator 16.0.0, SVG Export Plug-In . SVG Version: 6.00 Build 0)  -->
<!DOCTYPE svg PUBLIC "-//W3C//DTD SVG 1.1//EN" "http://www.w3.org/Graphics/SVG/1.1/DTD/svg11.dtd">
<svg version="1.1" id="Layer_1" xmlns="http://www.w3.org/2000/svg" xmlns:xlink="http://www.w3.org/1999/xlink" x="0px" y="0px"
	 width="208px" height="60px" viewBox="0 0 208 60" enable-background="new 0 0 208 60" xml:space="preserve">
<g>
	<g>
		<path fill="#F16836" d="M21.682,42.102l-7.295,9.729h-0.832L6.42,42.07v16.287H2.195V35.958h4.863l7.008,9.631l7.007-9.631h4.832
			v22.397h-4.224L21.682,42.102L21.682,42.102z"/>
		<path fill="#F16836" d="M44.127,54.102h-11.71l-1.92,4.224h-4.576l10.047-22.398h4.607l10.047,22.398h-4.608L44.127,54.102z
			 M38.272,40.63l-4.16,9.535h8.319L38.272,40.63z"/>
		<path fill="#F16836" d="M64.366,41.333c-0.768-1.278-2.88-2.495-5.312-2.495c-3.136,0-4.64,1.312-4.64,2.977
			c0,1.951,2.304,2.496,4.992,2.814c4.672,0.576,9.023,1.792,9.023,7.137c0,4.99-4.416,7.135-9.407,7.135
			c-4.576,0-8.096-1.407-9.759-5.504l3.52-1.823c0.992,2.464,3.584,3.552,6.304,3.552c2.656,0,5.151-0.928,5.151-3.359
			c0-2.111-2.208-2.976-5.184-3.295c-4.576-0.545-8.799-1.761-8.799-6.783c0-4.607,4.544-6.496,8.671-6.527
			c3.488,0,7.104,0.99,8.799,4.447L64.366,41.333z"/>
		<path fill="#F16836" d="M83.867,41.333c-0.768-1.278-2.88-2.495-5.312-2.495c-3.136,0-4.64,1.312-4.64,2.977
			c0,1.951,2.304,2.496,4.992,2.814c4.672,0.576,9.023,1.792,9.023,7.137c0,4.99-4.416,7.135-9.407,7.135
			c-4.576,0-8.096-1.407-9.759-5.504l3.52-1.823c0.992,2.464,3.584,3.552,6.304,3.552c2.656,0,5.151-0.928,5.151-3.359
			c0-2.111-2.208-2.976-5.184-3.295c-4.576-0.545-8.799-1.761-8.799-6.783c0-4.607,4.544-6.496,8.671-6.527
			c3.488,0,7.104,0.99,8.799,4.447L83.867,41.333z"/>
	</g>
	<g>
		<path fill="#2D3B45" d="M110.036,55.079c-2.306,2.271-5.28,3.327-8.512,3.327c-8.32,0-11.839-5.729-11.872-11.551
			C89.621,41,93.429,35.048,101.524,35.048c3.039,0,5.919,1.152,8.223,3.425l-2.815,2.719c-1.472-1.438-3.456-2.11-5.407-2.11
			c-5.408,0-7.744,4.03-7.712,7.774c0.032,3.713,2.176,7.584,7.712,7.584c1.951,0,4.161-0.801,5.631-2.271L110.036,55.079z"/>
		<path fill="#2D3B45" d="M132.77,46.823c-0.064,5.792-3.617,11.583-11.487,11.583c-7.871,0-11.519-5.663-11.519-11.551
			c0-5.889,3.774-11.809,11.519-11.809C128.992,35.048,132.832,40.968,132.77,46.823z M113.922,46.919
			c0.096,3.681,2.08,7.616,7.359,7.616s7.264-3.969,7.326-7.646c0.064-3.777-2.047-8-7.326-8S113.826,43.145,113.922,46.919z"/>
		<path fill="#2D3B45" d="M153.742,41.672l-7.297,9.729h-0.832l-7.135-9.76v16.286h-4.225V35.527h4.864l7.007,9.632l7.008-9.632
			h4.832v22.398h-4.224L153.742,41.672L153.742,41.672z"/>
	</g>
</g>
<g>
	<g>
		<path fill="#F16836" d="M74.854,26.494L74.854,26.494c1.368,1.371,3.612,1.371,4.982,0L97.455,8.83
			c1.367-1.371,1.371-3.611,0-4.981l0,0c-1.37-1.37-3.617-1.369-4.98,0L74.854,21.515C73.49,22.88,73.485,25.124,74.854,26.494z"/>
		<path fill="#2D3B45" d="M60.43,26.494L60.43,26.494c1.37,1.371,3.614,1.371,4.981,0l14.641-14.689c1.37-1.373,1.371-3.611,0-4.98
			l0,0c-1.368-1.371-3.616-1.368-4.979,0l-14.644,14.69C59.063,22.88,59.059,25.124,60.43,26.494z"/>
		<path fill="#507692" d="M89.453,26.494L89.453,26.494c1.37,1.371,3.611,1.371,4.981,0l20.439-20.487
			c1.369-1.37,1.369-3.61,0-4.979l0,0c-1.369-1.371-3.612-1.37-4.979,0L89.453,21.515C88.089,22.88,88.083,25.124,89.453,26.494z"/>
	</g>
	<path fill="#FFFFFF" d="M84.828,7.394l-3.22,3.161c-0.084,0.082-0.146,0.139-0.185,0.175c-0.007,0.008-0.015,0.014-0.021,0.019
		c0.007-0.006,0.017-0.016,0.028-0.024c0.017-0.013,0.033-0.023,0.049-0.038c-0.017,0.018-0.03,0.034-0.043,0.053
		c-0.009,0.009-0.015,0.017-0.018,0.022c0.002-0.005,0.008-0.013,0.013-0.019c-0.752,0.903-0.539,1.894,0.549,2.278
		c0,0,1.919,0.675,2.561,1.328c1.237,1.26,1.095,3.401-0.313,4.783c-1.41,1.385-3.554,1.485-4.79,0.226
		c-0.643-0.654-1.282-2.583-1.282-2.583c-0.37-1.118-1.389-1.339-2.321-0.551c-0.006,0.006-0.011,0.009-0.017,0.012l-0.145,0.142
		l-2.596,2.548"/>
	<path fill="#2D3B45" d="M75.468,16.318c1.281-1.218,1.947-1.249,2.641-0.553c0.225,0.226,0.397,0.518,0.516,0.866
		c0.238,0.701,0.767,1.965,1.175,2.376c1.041,1.045,2.858,0.929,4.053-0.259c1.193-1.188,1.32-3.005,0.278-4.05
		c-0.407-0.411-1.669-0.946-2.368-1.189c-0.348-0.118-0.607-0.329-0.863-0.52c-0.965-0.716-0.478-1.549-0.105-2.362"/>
	<path fill="#2D3B45" d="M80.978,10.399"/>
	<path fill="#FFFFFF" d="M90.736,20.174l3.181-3.2C94,16.89,94.061,16.831,94.1,16.796c0.006-0.007,0.013-0.016,0.02-0.019
		c-0.007,0.004-0.017,0.015-0.028,0.025c-0.018,0.013-0.032,0.023-0.047,0.038c0.016-0.019,0.028-0.037,0.042-0.054
		c0.007-0.008,0.013-0.018,0.017-0.021c-0.003,0.004-0.009,0.013-0.013,0.018c0.741-0.913,0.515-1.9-0.578-2.271
		c0,0-1.926-0.651-2.576-1.296c-1.252-1.244-1.139-3.388,0.254-4.788c1.393-1.401,3.536-1.528,4.787-0.283
		c0.65,0.645,1.312,2.568,1.312,2.568c0.385,1.113,1.407,1.321,2.329,0.52c0.005-0.003,0.01-0.008,0.017-0.011l0.142-0.144
		l2.563-2.58"/>
	<path fill="#507692" d="M94.353,17.364c0.078-0.08,0.135-0.136,0.17-0.17l-0.006-0.006c0.01-0.013,0.02-0.026,0.03-0.038
		l-0.357-0.33l-0.061-0.068l0.061,0.068c1.11-1.062,1.094-1.585,0.404-2.262c-0.229-0.224-0.521-0.396-0.87-0.509
		c-0.702-0.233-1.97-0.754-2.383-1.159c-1.054-1.034-0.952-2.852,0.228-4.056c1.18-1.201,2.996-1.341,4.05-0.307
		c0.412,0.405,0.957,1.663,1.204,2.36c0.123,0.347,0.299,0.637,0.527,0.86c0.703,0.689,1.526,0.214,2.404-0.557"/>
</g>
<path fill="none" d="M207.729,26.062c0,0.667,0,1.333,0,2"/>
<path fill="none" d="M-15.771,28.979c0-0.463,0.07-0.999-0.083-1.417"/>
</svg>
