<?xml version="1.0" encoding="utf-8"?>
<!-- Generator: Adobe Illustrator 21.0.0, SVG Export Plug-In . SVG Version: 6.00 Build 0)  -->
<svg version="1.2" baseProfile="tiny" id="Layer_1" xmlns:x="&ns_extend;" xmlns:i="&ns_ai;" xmlns:graph="&ns_graphs;"
	 xmlns="http://www.w3.org/2000/svg" xmlns:xlink="http://www.w3.org/1999/xlink" x="0px" y="0px" width="220px" height="75px"
	 viewBox="0 0 220 75" overflow="scroll" xml:space="preserve">
<metadata>
	<sfw  xmlns="&ns_sfw;">
		<slices></slices>
		<sliceSourceBounds  bottomLeftOrigin="true" height="53.6" width="201.7" x="14" y="12.9"></sliceSourceBounds>
	</sfw>
</metadata>
<g transform="translate(0.000000,800.000000) scale(0.100000,-0.100000)">
	<path fill="#D28900" d="M572.7,7828.7c-2.3,2.9-2.5,2.9-5.6,6.5c-6.3,6.9-12.4,11.9-14.8,13.5c-0.4,0.3-3.9,2.2-7.7,4.9
		c-9.2,6.5-12.5,8.2-26.6,13.1c-7.7,2.7-14.7,4.1-20.5,5c-5.4,1.1-7.6,1.1-9.7,1.2c-5.1,0.1-30.8-2.5-34.4-3.8l-3.7-1.6l-7.7,8.5
		c-11.7,12.9-27.7,23.9-43.8,30.3c-7.4,3-15.5,5.2-17.9,5.7c-2.3,0.4-2.7,0.5-5.9,1c-0.9,0.2-4.5,0.9-7.9,1.2
		c-3.5,0.3-6.5,0.7-6.9,0.7c-0.9,0-1.1,0-1.4,0c-3.9,0-5.6,0-11.6-0.7c-6.1-0.3-11.3-1.6-12.1-1.8c-1.2-0.3-2.3-0.6-3.9-0.9
		c-1.3-0.3-3.4-0.6-4.9-1.2c-1.5-0.6-4.8-1.7-7.6-2.5c-4.7-1.3-16.5-7-25.7-12.5c-4.9-2.9-13.5-10.5-10.6-9.3
		c14.2,5.7,34.3,8.3,50.6,6.5c28.6-3.2,52-15,73.2-36.9l8.6-8.9l5.9,1.7c8.6,2.5,39.5,3,48.8,0.9c21.2-4.9,35.1-11.6,52-25.3
		c9.7-7.8,13.1-11.5,21.3-22.8c13.4-18.3,22.6-42.2,25.3-65.6l1.3-11.8l5.6-2.7c22.2-10.4,45-35.4,55.4-61.2
		c6.6-16.2,8.4-25.8,8.3-46.4c0-17.3-0.2-20-3-30c-1.7-5.9-4.5-14-6-17.9c-3.8-8.9-15.4-26.5-22.8-34.3c-3.2-3.2-5.3-6.3-4.6-6.5
		c1.2-0.3,6.9,3.1,9.5,4.2c3.5,2,3.7,2.1,8,4.9c8.8,4.7,22.8,16.9,30.3,26.6c2.7,3.6,4.7,6.8,4.9,7c0.9,1.4,2,3.6,4.6,7.2
		c2.5,3.7,3.9,6.2,5.1,8.8c0.9,2.6,0.7,2.1,0.9,2.6c0.2,0.6,0,0,0.3,0.8c0.3,0.9,0.3,0.8,0.6,2c1.3,3.1,5.6,15.9,7,26.3
		c1.6,11.2-0.1,38.4-0.6,43c-0.4,2.4-1.1,5.2-1.9,8.8c-1.4,4.4-1.8,6.5-2.6,8.4c-0.6,1-2,4.4-3.4,7.4c-5.5,12.5-9.6,19.4-17,28.3
		c-12.2,14.5-20.8,21.8-38.2,32c-2.8,1.7-5.1,3.6-5.1,4.4c0,5.3-4.3,28.5-4.9,30.4c-0.5,3-1.9,5.8-3,10.1c-1.1,4.4-2.7,7.3-3.4,9"/>
	<path fill="#D28900" d="M575,7826.2"/>
	<path fill="#D28900" d="M238.7,7861.4c-4.5-1.7-8.1-4.8-15.8-9c-2.5-1.3-10.5-8.5-17.9-16c-27.8-27.8-41-56.6-45.9-99.6
		c-0.9-7.9-1.3-16.1-1-18c0.6-3.1,0.1-3.8-4.8-7.5c-5.8-4.2-17.5-16.2-23.9-24.3c-4.4-5.6-9.2-13.4-10.5-16.8
		c-0.1-0.3-0.2-1.6-1.2-3.5c-3.1-6-7.4-17.8-8.3-21.3c-0.3-1-1-6-2.2-11.2c-3.4-14.1-2.3-51,1.7-61.2c0.9-2.1,2.7-7.7,4-12.3
		c2.1-7.6,6-15.9,12.6-26.8c3.1-5.5,14.1-18.7,19.9-24.3c8.8-8.4,25.4-18.8,34.4-21.5c4.6-1.3,9.1-2.8,11-3.6c2-0.4,10.1-1.3,19-1.7
		c9.1-0.4,16.7-0.9,17-1.2c0.8-0.8,0.7-16.4-0.2-24.9c-1-9.8-6.5-25.9-13.5-39.6c-5.3-10.1-5.8-12-5.7-18.1c0.1-8.2,2.5-13,8.8-17.5
		c5.8-4,10.4-3.4,21.1,2.8c11.8,6.9,26.3,17.2,28.1,18.9c0.3,0.3,4.9,5,11.1,10.1c10.2,8.5,26.5,25.9,34.1,36.4
		c4.6,6.3,18,30,18,31.6c0,1.1,2.2,1.2,10.3,0.7c5.7-0.4,10.5-1,10.7-1.2c0.7-0.7-3.1-6.5-10.4-16.2c-8.2-11-24.6-27.6-35.4-35.9
		c-9.1-6.9-12.1-10.1-7.5-7.7c1.5,0.8,3.3,2.2,4.4,2.8c3.2,1.9,4.5,2.4,9.5,5.6c4.4,2.3,8.8,5,10.1,6.1c1.2,1,6.8,4.9,12.3,8.6
		c6.1,4.1,16,12.5,25.1,21.5l15,14.8l6.7-0.6c6.6-0.7,57.1-1.6,106.8-2c19.4-0.2,25.6,0.1,32.4,1.7c4.6,1.1,9.8,2.1,11.5,2.3
		c5.8,1.9,9.6,3.7,12.1,5c3.4,1.8,3.7,1.9,7.7,4c7.7,4.8,16.1,11.7,18.6,14.1c1.4,1.6,5.4,5.8,6.8,7.4c3.6,3.8,7.3,8.3,8.3,10
		c1,1.6,1.3,2.7,3.3,5.4c3.4,5.4,4.2,6.8,6.9,12.3c12.9,25.5,16,54.5,9.1,82.7c-2.9,11.7-11.8,32.9-15.1,35.2
		c-0.3,0.3-1.5,2.1-2.5,3.9c-2.5,4.7-15.6,19.4-21.2,23.7c-7.3,5.7-19.1,13.5-23.6,15.6c-2.2,1-4,2.3-4,3c0,0.7-0.8,6.7-1.7,13.4
		c-4.4,33-19.3,61.9-42.8,82.6c-14.6,12.9-31.3,21.8-50.1,26.6c-13,3.4-36.4,3.7-50.5,0.6l-9.3-2l-4.6,5.3
		c-6.8,7.7-14.8,15.1-21.3,19.6c-23.8,16.5-48.4,23.2-76,21c-10.7-0.9-19.2-2.7-30.9-6.3 M301,7832.9c17.3-3.6,34.2-13,45.6-25.1
		c9.8-10.6,12.2-13.6,16.7-22l4.5-8.2l4.6,2.6c16.3,9.1,39.3,12.1,58,7.6c44.5-10.6,72.4-57.4,64.3-107.5l-1.5-8.5l9.9-1.8
		c11.5-2.2,26-9.2,34.6-16.5c9.6-8.3,17.9-21.1,22.7-35.2c2.7-7.8,3-10.5,3.1-23.9c0-13.7-0.2-15.9-3-24c-6.9-19.7-20.3-35.3-37-43
		c-5-2.3-11.4-4.7-14.3-5.5c-3.7-0.9-32-1.2-94.2-1.2c-90.8,0-95.7-0.2-100.7-4.2c-3.9-3.2-17.8-26.8-19.4-30.2
		c-1-2.1-20.9-29.2-28.3-36.3c-7.7-7.4-10.6-8.7-9.9-4.6c0.2,1.1,0.7,9.2,1,17.8c1.2,32.4-5.7,50.1-21.5,54.9
		c-3.2,0.9-12.2,1.9-21.2,2.2c-19.3,0.8-24.5,1.8-35.8,7.2c-29.1,14-46.8,48.4-44.8,86.4c0.8,14.1,3.4,24,9.9,37.7
		c8.3,16.9,27.4,33.4,43,37c3.2,0.8,5.8,1.8,5.8,2.2c0,0.4-0.7,4-1.6,7.9c-2.3,10.7-2.9,28.3-1.3,40.7c2.8,20.9,10.2,39.3,22.2,55.4
		c6.5,8.6,7.9,10.3,14.9,16.5C247.3,7829.2,276.8,7838,301,7832.9z"/>
</g>
<g>
	<path fill="#00A89D" d="M85,37.8l3.8,1.5c-0.6,2.7-1.6,4.6-3,5.9c-1.4,1.2-3.1,1.9-5.2,1.9c-2.6,0-4.6-1-6.2-3
		c-1.8-2.3-2.8-5.4-2.8-9.2c0-4.1,0.9-7.3,2.8-9.6c1.6-2,3.8-3,6.5-3c2.2,0,4.1,0.8,5.5,2.3c1.1,1.1,1.8,2.7,2.3,4.8l-3.9,1.1
		c-0.3-1.3-0.8-2.3-1.5-3s-1.6-1-2.6-1c-1.5,0-2.6,0.6-3.6,1.9c-0.9,1.3-1.4,3.4-1.4,6.3c0,3,0.4,5.2,1.3,6.5
		c0.9,1.3,2.1,1.9,3.5,1.9c1,0,2-0.4,2.7-1.2C84.1,40.8,84.6,39.5,85,37.8z"/>
	<path fill="#00A89D" d="M95.9,22.6v8.8c0.6-0.9,1.3-1.5,2-2c0.7-0.4,1.5-0.6,2.4-0.6c1.1,0,2.1,0.3,2.9,0.9
		c0.8,0.6,1.3,1.5,1.6,2.6c0.2,0.8,0.4,2.2,0.4,4.1v10.2h-3.8v-9.2c0-2.1-0.1-3.5-0.4-4c-0.4-0.7-1-1.1-1.9-1.1
		c-1,0-1.7,0.4-2.3,1.2c-0.5,0.8-0.8,2.2-0.8,4.4v8.7h-3.8v-24H95.9z"/>
	<path fill="#00A89D" d="M111.8,34.5l-3.4-0.8c0.4-1.8,1.1-3,2.1-3.8s2.3-1.2,4.1-1.2c1.6,0,2.8,0.2,3.7,0.7s1.4,1.1,1.8,1.8
		s0.5,2.2,0.5,4.2l0,5.4c0,1.5,0.1,2.6,0.2,3.4c0.1,0.7,0.3,1.5,0.7,2.4h-3.7l-0.5-1.9c-0.6,0.8-1.3,1.3-2.1,1.7s-1.5,0.6-2.4,0.6
		c-1.4,0-2.5-0.5-3.4-1.4c-0.9-0.9-1.3-2.2-1.3-3.7c0-1,0.2-1.8,0.5-2.6s0.9-1.3,1.5-1.8c0.7-0.4,1.7-0.8,3.1-1.2
		c1.7-0.4,3-0.8,3.7-1.1c0-1-0.1-1.6-0.2-1.9c-0.1-0.3-0.4-0.5-0.8-0.7c-0.4-0.2-0.9-0.3-1.5-0.3c-0.7,0-1.2,0.2-1.6,0.5
		S112,33.7,111.8,34.5z M116.9,38.2c-0.5,0.2-1.2,0.4-2.2,0.7c-1.2,0.3-1.9,0.6-2.3,1c-0.4,0.4-0.5,0.9-0.5,1.4
		c0,0.7,0.2,1.2,0.6,1.7c0.4,0.5,0.9,0.7,1.5,0.7c0.5,0,1.1-0.2,1.6-0.5s0.9-0.8,1.1-1.3c0.2-0.5,0.3-1.4,0.3-2.7V38.2z"/>
	<path fill="#00A89D" d="M130.8,29.2v3.7h-2.6v7c0,1.5,0,2.4,0.1,2.6c0.2,0.4,0.5,0.7,0.9,0.7c0.3,0,0.9-0.1,1.5-0.4l0.3,3.6
		c-0.9,0.5-1.9,0.7-3,0.7c-1,0-1.7-0.2-2.3-0.7s-1-1.1-1.2-2c-0.2-0.6-0.2-1.9-0.2-3.9v-7.6h-1.7v-3.7h1.7v-3.5l3.8-2.7v6.1H130.8z"
		/>
	<path fill="#00A89D" d="M145.4,42.3v4.3h-13.2c0.1-1.6,0.6-3.2,1.3-4.6c0.7-1.5,2.1-3.4,4.2-5.7c1.7-1.9,2.7-3.2,3.1-3.8
		c0.6-1,0.9-1.9,0.9-2.9c0-1-0.2-1.8-0.7-2.4s-1.1-0.8-1.9-0.8c-1.7,0-2.6,1.3-2.7,3.8l-3.8-0.5c0.2-2.4,0.9-4.2,2-5.4
		c1.1-1.1,2.6-1.7,4.5-1.7c2.1,0,3.6,0.7,4.7,2c1,1.3,1.6,2.9,1.6,4.6c0,1-0.1,1.9-0.4,2.9s-0.7,1.8-1.2,2.8
		c-0.6,0.9-1.5,2.1-2.8,3.6c-1.2,1.4-2,2.3-2.3,2.7s-0.6,0.9-0.8,1.3H145.4z"/>
	<path fill="#00A89D" d="M148.7,22.6h7.2c1.8,0,3.2,0.2,4.1,0.6s1.8,1.1,2.6,2.1c0.8,1,1.4,2.2,1.8,3.8c0.4,1.6,0.7,3.5,0.7,5.8
		c0,2.1-0.2,3.9-0.7,5.4c-0.5,1.5-1.1,2.8-1.8,3.6c-0.7,0.9-1.6,1.6-2.6,2c-1,0.5-2.3,0.7-3.9,0.7h-7.5V22.6z M152.7,26.6v15.9h3
		c1.3,0,2.2-0.1,2.8-0.4s1-0.6,1.4-1.1c0.4-0.5,0.7-1.3,0.9-2.3c0.2-1,0.4-2.4,0.4-4.1c0-1.8-0.1-3.2-0.4-4.2
		c-0.2-1-0.6-1.8-1.1-2.4c-0.5-0.6-1.1-1-1.9-1.2c-0.6-0.1-1.6-0.2-3.2-0.2H152.7z"/>
	<path fill="#00A89D" d="M176.9,41.1l3.8,0.8c-0.5,1.7-1.3,3-2.3,3.9c-1.1,0.8-2.4,1.3-3.9,1.3c-2.1,0-3.7-0.7-4.9-2.1
		c-1.4-1.6-2-3.9-2-6.9c0-2.9,0.7-5.2,2-7c1.2-1.5,2.7-2.2,4.5-2.2c2,0,3.6,0.8,4.8,2.3c1.3,1.7,2,4.3,2,7.6l0,0.5h-9.5
		c0,1.4,0.3,2.5,0.9,3.2c0.6,0.8,1.3,1.1,2.2,1.1C175.7,43.6,176.5,42.7,176.9,41.1z M177.1,36.4c0-1.4-0.3-2.4-0.9-3.1
		c-0.5-0.7-1.2-1-1.9-1c-0.8,0-1.5,0.4-2,1.1c-0.6,0.7-0.8,1.7-0.8,3H177.1z"/>
	<path fill="#00A89D" d="M182.6,41.7l3.8-0.7c0.3,1.8,1.3,2.7,3,2.7c0.9,0,1.6-0.2,2-0.5c0.4-0.3,0.7-0.8,0.7-1.4
		c0-0.4-0.1-0.7-0.3-0.9c-0.2-0.2-0.6-0.4-1.2-0.6c-3.1-0.8-5.1-1.6-5.9-2.4c-1-0.9-1.6-2.2-1.6-3.8c0-1.6,0.5-2.9,1.5-3.9
		s2.5-1.5,4.5-1.5c1.9,0,3.3,0.4,4.3,1.1c1,0.7,1.7,1.9,2,3.5l-3.6,0.8c-0.3-1.4-1.2-2.1-2.7-2.1c-0.9,0-1.6,0.1-2,0.4
		c-0.4,0.3-0.6,0.6-0.6,1c0,0.4,0.2,0.7,0.5,1c0.4,0.3,1.5,0.7,3.4,1.2c2.1,0.6,3.5,1.3,4.3,2.2c0.7,0.8,1.1,2,1.1,3.4
		c0,1.7-0.6,3.1-1.7,4.2c-1.2,1.1-2.7,1.6-4.8,1.6c-1.8,0-3.4-0.5-4.5-1.4C183.7,44.7,182.9,43.4,182.6,41.7z"/>
	<path fill="#00A89D" d="M199.1,46.6v-24h3.8v12.7l4.4-6.1h4.7l-4.9,6.4l5.2,11h-4.1l-3.6-7.8l-1.7,2.3v5.6H199.1z"/>
</g>
</svg>
