<?xml version="1.0" encoding="utf-8"?>
<!-- Generator: Adobe Illustrator 16.0.0, SVG Export Plug-In . SVG Version: 6.00 Build 0)  -->
<!DOCTYPE svg PUBLIC "-//W3C//DTD SVG 1.1//EN" "http://www.w3.org/Graphics/SVG/1.1/DTD/svg11.dtd">
<svg version="1.1" id="Layer_1" xmlns="http://www.w3.org/2000/svg" xmlns:xlink="http://www.w3.org/1999/xlink" x="0px" y="0px"
	 width="116.693px" height="75.076px" viewBox="49.262 18.703 116.693 75.076"
	 enable-background="new 49.262 18.703 116.693 75.076" xml:space="preserve">
<g>
	<path fill="#555560" d="M148.441,47.451c0.439,0,0.787,0.135,1.043,0.404s0.383,0.623,0.383,1.063v2.64H136.35v-1.467
		c0-0.283,0.053-0.586,0.158-0.909s0.291-0.616,0.555-0.88l5.545-6.204c0.476-0.528,0.889-1.032,1.24-1.511
		c0.352-0.479,0.643-0.951,0.871-1.416c0.229-0.464,0.4-0.929,0.516-1.393c0.114-0.464,0.172-0.956,0.172-1.474
		c0-0.851-0.185-1.503-0.549-1.958c-0.365-0.455-0.922-0.682-1.67-0.682c-0.606,0-1.119,0.179-1.537,0.536s-0.707,0.799-0.865,1.327
		c-0.186,0.538-0.428,0.895-0.727,1.071s-0.726,0.215-1.281,0.117l-2.164-0.425c0.141-1.065,0.41-1.995,0.812-2.787
		c0.401-0.792,0.897-1.452,1.492-1.98c0.594-0.528,1.274-0.921,2.04-1.181c0.766-0.26,1.588-0.389,2.468-0.389
		c0.95,0,1.808,0.154,2.567,0.462s1.41,0.736,1.947,1.283c0.535,0.548,0.947,1.201,1.232,1.958c0.285,0.758,0.43,1.591,0.43,2.501
		c0,0.782-0.1,1.506-0.297,2.17c-0.197,0.665-0.469,1.298-0.812,1.899c-0.344,0.602-0.741,1.183-1.194,1.745
		s-0.935,1.132-1.444,1.709l-3.763,4.283c0.483-0.166,0.963-0.293,1.438-0.381c0.475-0.088,0.914-0.132,1.319-0.132L148.441,47.451
		L148.441,47.451z"/>
</g>
<g>
	<path fill="#555560" d="M58.58,66.498c1.677,0,3.105,0.174,4.283,0.52c1.178,0.345,2.139,0.832,2.883,1.463
		c0.745,0.63,1.287,1.395,1.625,2.297c0.339,0.9,0.509,1.906,0.509,3.017c0,0.606-0.079,1.188-0.234,1.75
		c-0.155,0.563-0.401,1.087-0.733,1.575c-0.333,0.488-0.761,0.936-1.283,1.342c-0.523,0.408-1.15,0.762-1.884,1.057
		c1.6,0.434,2.784,1.131,3.551,2.095c0.766,0.961,1.149,2.209,1.149,3.739c0,1.147-0.199,2.217-0.599,3.205
		c-0.4,0.987-0.986,1.85-1.759,2.582c-0.772,0.734-1.725,1.311-2.858,1.724c-1.133,0.415-2.428,0.62-3.884,0.62h-9.701V66.498H58.58
		z M55.278,71.186v6.664h2.934c0.622,0,1.184-0.045,1.684-0.146c0.5-0.1,0.924-0.27,1.274-0.52c0.351-0.246,0.617-0.586,0.8-1.018
		s0.275-0.975,0.275-1.63c0-0.642-0.073-1.176-0.217-1.604c-0.145-0.424-0.367-0.768-0.666-1.025c-0.3-0.26-0.681-0.443-1.142-0.555
		c-0.46-0.112-1.008-0.166-1.641-0.166H55.278z M59.246,88.758c0.744,0,1.353-0.104,1.825-0.312c0.472-0.21,0.841-0.482,1.109-0.814
		c0.266-0.334,0.45-0.709,0.55-1.131c0.1-0.42,0.149-0.845,0.149-1.277c0-0.494-0.058-0.938-0.175-1.33
		c-0.117-0.397-0.316-0.729-0.6-1.002c-0.283-0.271-0.659-0.482-1.125-0.631c-0.466-0.146-1.056-0.224-1.767-0.224h-3.934v6.724
		L59.246,88.758L59.246,88.758z"/>
	<path fill="#555560" d="M75.647,77.241c0.533-1.037,1.147-1.853,1.842-2.444c0.694-0.593,1.491-0.891,2.393-0.891
		c0.777,0,1.41,0.206,1.899,0.611l-0.333,4.223c-0.055,0.271-0.147,0.456-0.274,0.555c-0.129,0.1-0.303,0.151-0.525,0.151
		c-0.089,0-0.206-0.009-0.351-0.021c-0.145-0.011-0.294-0.025-0.45-0.043c-0.155-0.021-0.314-0.039-0.475-0.059
		c-0.161-0.02-0.308-0.029-0.442-0.029c-0.756,0-1.358,0.225-1.808,0.67c-0.45,0.443-0.831,1.061-1.142,1.852v11.666h-5.167V74.275
		h3.067c0.255,0,0.469,0.027,0.641,0.076c0.173,0.049,0.317,0.127,0.434,0.23c0.116,0.104,0.205,0.245,0.267,0.418
		c0.061,0.172,0.113,0.381,0.157,0.631L75.647,77.241z"/>
	<path fill="#555560" d="M82.714,76.946c1.044-1.027,2.203-1.789,3.475-2.288c1.273-0.5,2.637-0.752,4.092-0.752
		c1.044,0,1.986,0.189,2.825,0.566c0.839,0.379,1.551,0.901,2.134,1.574c0.582,0.674,1.03,1.473,1.341,2.398
		c0.311,0.925,0.466,1.938,0.466,3.035v12.002H94.68c-0.489,0-0.858-0.073-1.108-0.221c-0.25-0.148-0.458-0.457-0.625-0.927
		l-0.367-1.057c-0.433,0.407-0.85,0.766-1.25,1.075c-0.401,0.308-0.814,0.568-1.242,0.785c-0.428,0.217-0.883,0.375-1.367,0.482
		c-0.484,0.104-1.02,0.157-1.609,0.157c-0.789,0-1.506-0.114-2.15-0.343c-0.645-0.23-1.192-0.565-1.642-1.012
		c-0.45-0.443-0.797-0.996-1.042-1.656s-0.366-1.422-0.366-2.289c0-0.688,0.155-1.389,0.466-2.1
		c0.312-0.712,0.851-1.359,1.617-1.945c0.767-0.586,1.8-1.076,3.1-1.474c1.3-0.396,2.938-0.616,4.918-0.667v-0.814
		c0-1.123-0.209-1.935-0.626-2.436c-0.417-0.5-1.008-0.749-1.775-0.749c-0.612,0-1.111,0.072-1.5,0.222s-0.736,0.315-1.042,0.5
		c-0.306,0.188-0.603,0.353-0.892,0.5s-0.633,0.224-1.033,0.224c-0.356,0-0.656-0.099-0.9-0.295C84,79.247,83.8,79.01,83.644,78.738
		L82.714,76.946z M92.016,85.667c-1.035,0.05-1.885,0.147-2.551,0.296c-0.667,0.147-1.194,0.334-1.583,0.555
		c-0.389,0.224-0.659,0.478-0.809,0.761c-0.15,0.284-0.225,0.594-0.225,0.926c0,0.655,0.16,1.115,0.483,1.38
		c0.322,0.268,0.794,0.398,1.417,0.398c0.667,0,1.25-0.129,1.75-0.389c0.5-0.261,1.006-0.68,1.518-1.261V85.667z"/>
	<path fill="#555560" d="M104.849,76.352c0.333-0.346,0.677-0.666,1.033-0.963c0.354-0.297,0.735-0.547,1.142-0.75
		c0.405-0.205,0.844-0.365,1.317-0.481c0.472-0.12,0.985-0.177,1.542-0.177c0.943,0,1.781,0.182,2.508,0.548
		c0.729,0.362,1.342,0.868,1.844,1.517c0.5,0.646,0.877,1.422,1.133,2.316c0.255,0.895,0.383,1.865,0.383,2.918V93.48h-5.167v-12.2
		c0-0.938-0.194-1.671-0.583-2.197c-0.389-0.524-0.962-0.786-1.717-0.786c-0.567,0-1.098,0.133-1.592,0.396
		c-0.496,0.264-0.976,0.628-1.442,1.085v13.704h-5.167V74.275h3.2c0.644,0,1.066,0.322,1.267,0.966L104.849,76.352z"/>
	<path fill="#555560" d="M134.467,64.032v29.45h-3.199c-0.645,0-1.068-0.319-1.268-0.963l-0.4-1.463
		c-0.343,0.406-0.705,0.777-1.082,1.109c-0.38,0.334-0.789,0.62-1.227,0.864c-0.438,0.237-0.911,0.425-1.417,0.554
		c-0.507,0.131-1.054,0.195-1.642,0.195c-0.9,0-1.734-0.223-2.5-0.667c-0.768-0.445-1.43-1.087-1.983-1.927
		c-0.558-0.84-0.993-1.867-1.31-3.084s-0.476-2.604-0.476-4.157c0-1.431,0.179-2.763,0.534-3.991s0.857-2.29,1.508-3.186
		c0.65-0.895,1.432-1.598,2.344-2.104c0.909-0.505,1.916-0.76,3.016-0.76c0.899,0,1.656,0.143,2.267,0.428
		c0.61,0.283,1.167,0.667,1.667,1.146V65.412L134.467,64.032z M129.301,79.424c-0.391-0.479-0.812-0.816-1.268-1.009
		c-0.455-0.19-0.934-0.286-1.435-0.286c-0.477,0-0.915,0.104-1.315,0.315c-0.399,0.21-0.748,0.547-1.041,1.008
		c-0.293,0.465-0.524,1.065-0.692,1.806c-0.166,0.742-0.25,1.637-0.25,2.688c0,1.012,0.067,1.865,0.2,2.555
		c0.134,0.691,0.318,1.25,0.561,1.676c0.236,0.428,0.523,0.731,0.857,0.918c0.333,0.185,0.706,0.278,1.115,0.278
		c0.379,0,0.721-0.039,1.025-0.121c0.305-0.079,0.586-0.192,0.842-0.344c0.256-0.147,0.498-0.335,0.726-0.563
		c0.228-0.228,0.453-0.492,0.676-0.787L129.301,79.424L129.301,79.424z"/>
</g>
<g>
	<path fill="#555560" d="M66.98,55.56c0.133,0,0.267,0.028,0.4,0.083c0.133,0.056,0.261,0.151,0.383,0.287l2.234,2.611
		c-0.978,1.42-2.203,2.491-3.675,3.213c-1.473,0.723-3.214,1.084-5.226,1.084c-1.845,0-3.498-0.35-4.959-1.047
		s-2.7-1.661-3.717-2.889s-1.797-2.686-2.342-4.371c-0.544-1.684-0.816-3.514-0.816-5.49c0-2.013,0.294-3.862,0.883-5.547
		c0.589-1.686,1.417-3.139,2.484-4.361c1.066-1.223,2.344-2.173,3.833-2.852c1.489-0.679,3.128-1.019,4.917-1.019
		c0.911,0,1.77,0.09,2.575,0.269c0.806,0.179,1.559,0.426,2.259,0.741c0.7,0.314,1.344,0.694,1.933,1.139
		c0.589,0.445,1.111,0.926,1.567,1.445l-1.9,2.833c-0.123,0.173-0.267,0.331-0.434,0.472c-0.167,0.142-0.4,0.213-0.7,0.213
		c-0.2,0-0.389-0.049-0.567-0.148c-0.178-0.099-0.367-0.219-0.567-0.361c-0.2-0.142-0.419-0.296-0.658-0.463
		c-0.239-0.167-0.522-0.321-0.85-0.463c-0.328-0.142-0.711-0.262-1.15-0.361s-0.953-0.148-1.542-0.148
		c-0.934,0-1.787,0.191-2.559,0.574c-0.772,0.383-1.439,0.942-2,1.676c-0.562,0.735-0.995,1.636-1.3,2.704
		c-0.305,1.068-0.458,2.287-0.458,3.658c0,1.383,0.169,2.611,0.508,3.686c0.339,1.074,0.8,1.979,1.384,2.713
		c0.583,0.735,1.264,1.293,2.042,1.676c0.778,0.383,1.611,0.574,2.5,0.574c0.511,0,0.978-0.028,1.4-0.083
		c0.422-0.055,0.817-0.148,1.184-0.278s0.711-0.302,1.033-0.519c0.322-0.216,0.65-0.491,0.983-0.824
		c0.134-0.123,0.278-0.225,0.434-0.306C66.652,55.6,66.814,55.56,66.98,55.56z"/>
	<path fill="#555560" d="M77.031,45.022c0.622-0.593,1.297-1.071,2.025-1.435c0.728-0.364,1.597-0.546,2.608-0.546
		c0.944,0,1.781,0.182,2.509,0.546c0.728,0.364,1.342,0.87,1.842,1.519c0.5,0.648,0.877,1.42,1.133,2.315
		c0.255,0.896,0.383,1.868,0.383,2.917v12.205h-5.167V50.338c0-0.938-0.194-1.67-0.583-2.195c-0.389-0.524-0.961-0.787-1.717-0.787
		c-0.566,0-1.097,0.133-1.592,0.398c-0.495,0.265-0.975,0.626-1.441,1.083v13.705h-5.167V34.818h5.167V45.022z"/>
	<path fill="#555560" d="M90.481,46.004c1.044-1.024,2.203-1.787,3.476-2.287c1.272-0.5,2.636-0.75,4.092-0.75
		c1.044,0,1.986,0.188,2.825,0.565c0.839,0.377,1.55,0.901,2.134,1.574c0.583,0.673,1.03,1.472,1.341,2.398
		c0.312,0.926,0.468,1.938,0.468,3.037v12.001h-2.368c-0.489,0-0.858-0.073-1.108-0.222s-0.458-0.457-0.625-0.926l-0.367-1.056
		c-0.434,0.408-0.85,0.765-1.25,1.074c-0.4,0.309-0.814,0.57-1.242,0.787c-0.428,0.216-0.883,0.376-1.367,0.48
		c-0.484,0.105-1.02,0.158-1.608,0.158c-0.789,0-1.506-0.113-2.15-0.343c-0.645-0.228-1.192-0.565-1.642-1.009
		c-0.45-0.444-0.797-0.997-1.042-1.658c-0.245-0.66-0.367-1.423-0.367-2.287c0-0.691,0.155-1.392,0.466-2.102
		s0.85-1.358,1.617-1.944c0.767-0.586,1.8-1.077,3.1-1.473c1.3-0.395,2.939-0.617,4.917-0.667v-0.814
		c0-1.124-0.208-1.936-0.625-2.436s-1.008-0.75-1.775-0.75c-0.611,0-1.111,0.074-1.5,0.222s-0.736,0.315-1.042,0.5
		c-0.306,0.186-0.603,0.352-0.892,0.5S93.314,48.8,92.914,48.8c-0.356,0-0.656-0.099-0.9-0.296c-0.245-0.197-0.445-0.432-0.6-0.704
		L90.481,46.004z M99.782,54.727c-1.033,0.049-1.883,0.148-2.55,0.296c-0.667,0.148-1.194,0.333-1.583,0.556
		c-0.389,0.222-0.658,0.475-0.808,0.759c-0.15,0.284-0.225,0.592-0.225,0.926c0,0.655,0.161,1.114,0.483,1.38
		c0.322,0.266,0.794,0.398,1.417,0.398c0.667,0,1.25-0.129,1.75-0.389c0.5-0.26,1.005-0.679,1.517-1.259L99.782,54.727
		L99.782,54.727z"/>
	<path fill="#555560" d="M114.033,62.84c-0.823,0-1.547-0.134-2.176-0.398c-0.627-0.266-1.156-0.643-1.582-1.129
		c-0.428-0.487-0.754-1.077-0.976-1.77c-0.222-0.691-0.333-1.463-0.333-2.315V47.3H107.5c-0.268,0-0.494-0.095-0.684-0.287
		c-0.188-0.191-0.283-0.472-0.283-0.842V43.93l2.75-0.592l1.018-4.686c0.133-0.592,0.512-0.889,1.135-0.889h2.699v5.611h4.284V47.3
		h-4.284v9.538c0,0.444,0.098,0.812,0.292,1.102c0.195,0.29,0.476,0.435,0.843,0.435c0.188,0,0.346-0.021,0.475-0.065
		c0.127-0.043,0.238-0.092,0.332-0.148c0.095-0.056,0.184-0.105,0.268-0.148c0.083-0.043,0.18-0.064,0.292-0.064
		c0.156,0,0.281,0.04,0.375,0.12c0.095,0.081,0.192,0.207,0.292,0.38l1.566,2.722c-0.668,0.557-1.418,0.973-2.25,1.25
		C115.783,62.7,114.922,62.84,114.033,62.84z"/>
</g>
<g id="XMLID_5_">
	<g>
		<path id="XMLID_6_" fill="#00A89D" d="M153.648,29.78c6.424,5.729,6.988,15.615,1.262,22.041
			c-4.537,5.086-11.768,6.645-17.99,3.875l-1.402-0.624l-1.461,0.481l-4.809,1.587l1.029-4.957l0.312-1.505l-0.779-1.322
			c-3.459-5.868-2.736-13.228,1.799-18.316C137.34,24.617,147.227,24.052,153.648,29.78 M158.453,24.394
			c-9.244-8.246-23.426-7.436-31.67,1.811c-6.658,7.464-7.409,18.143-2.588,26.32l-2.781,13.403l12.996-4.291
			c8.675,3.856,19.197,1.893,25.854-5.571C168.51,46.82,167.699,32.64,158.453,24.394L158.453,24.394z"/>
	</g>
</g>
</svg>
