<?xml version="1.0" encoding="utf-8"?>
<!-- Generator: Adobe Illustrator 21.0.0, SVG Export Plug-In . SVG Version: 6.00 Build 0)  -->
<svg version="1.1" id="Слой_1" xmlns="http://www.w3.org/2000/svg" xmlns:xlink="http://www.w3.org/1999/xlink" x="0px" y="0px"
	 width="208px" height="60px" viewBox="0 0 208 60" enable-background="new 0 0 208 60" xml:space="preserve">
<g transform="translate(0.000000,800.000000) scale(0.100000,-0.100000)">
	<path fill="#FFA700" d="M497.609,7891.604c-2.27,2.899-2.529,2.86-5.557,6.455c-6.259,6.929-12.392,11.899-14.753,13.523
		c-0.368,0.253-3.912,2.235-7.712,4.917c-9.165,6.482-12.517,8.159-26.599,13.077c-7.712,2.682-14.712,4.141-20.522,4.979
		c-5.448,1.055-7.558,1.073-9.654,1.167c-5.079,0.063-30.79-2.487-34.44-3.779l-3.671-1.585l-7.712,8.494
		c-11.735,12.853-27.717,23.917-43.811,30.288c-7.376,3.018-15.485,5.239-17.882,5.7c-2.314,0.441-2.687,0.534-5.923,1.006
		c-0.894,0.223-4.47,0.894-7.935,1.229c-3.465,0.335-6.517,0.686-6.92,0.697c-0.917,0.026-1.081,0.01-1.35,0
		c-3.897,0.014-5.566,0.014-11.615-0.667c-6.147-0.335-11.309-1.64-12.079-1.818c-1.208-0.28-2.326-0.577-3.863-0.926
		c-1.308-0.297-3.402-0.639-4.855-1.198c-1.453-0.559-4.806-1.676-7.6-2.458c-4.694-1.341-16.541-7.041-25.705-12.518
		c-4.918-2.906-13.523-10.505-10.617-9.276c14.194,5.7,34.311,8.271,50.628,6.482c28.611-3.241,51.97-14.976,73.204-36.882
		l8.606-8.941l5.923,1.677c8.606,2.458,39.452,3.018,48.84,0.894c21.235-4.917,35.093-11.624,51.969-25.258
		c9.723-7.823,13.076-11.512,21.347-22.8c13.411-18.329,22.576-42.246,25.258-65.604l1.341-11.847l5.588-2.682
		c22.241-10.394,45.04-35.429,55.434-61.246c6.594-16.206,8.382-25.817,8.27-46.381c0-17.323-0.224-20.005-3.018-29.952
		c-1.676-5.923-4.471-13.97-6.035-17.882c-3.8-8.941-15.423-26.488-22.8-34.311c-3.241-3.241-5.253-6.259-4.582-6.482
		c1.229-0.335,6.86,3.094,9.514,4.177c3.458,2.025,3.737,2.061,8.033,4.876c8.829,4.694,22.8,16.876,30.288,26.6
		c2.682,3.576,4.736,6.759,4.918,7.041c0.926,1.438,2.012,3.576,4.582,7.153c2.459,3.688,3.853,6.16,5.057,8.78
		c0.866,2.62,0.652,2.104,0.866,2.62c0.238,0.575,0.015,0.048,0.335,0.783c0.309,0.861,0.256,0.779,0.588,2.019
		c1.327,3.056,5.559,15.863,7.012,26.257c1.565,11.176-0.052,38.383-0.559,43.028c-0.384,2.444-1.121,5.225-1.903,8.801
		c-1.414,4.436-1.793,6.489-2.567,8.411c-0.559,1.006-2.012,4.359-3.353,7.376c-5.476,12.517-9.612,19.446-16.988,28.276
		c-12.182,14.529-20.788,21.793-38.223,31.964c-2.794,1.676-5.141,3.577-5.141,4.359c0,5.253-4.306,28.479-4.918,30.399
		c-0.461,2.968-1.858,5.846-2.975,10.093c-1.118,4.359-2.745,7.327-3.446,8.995"/>
	<path fill="#FFA700" d="M499.875,7889.118"/>
	<path fill="#FFA700" d="M163.573,7924.283c-4.548-1.737-8.058-4.786-15.769-9.033c-2.459-1.341-10.506-8.494-17.882-15.982
		c-27.829-27.829-41.017-56.552-45.934-99.581c-0.894-7.935-1.341-16.094-1.006-17.994c0.559-3.129,0.112-3.8-4.806-7.488
		c-5.812-4.247-17.547-16.206-23.917-24.252c-4.359-5.588-9.247-13.385-10.506-16.765c-0.117-0.314-0.224-1.564-1.229-3.464
		c-3.129-6.035-7.359-17.83-8.27-21.347c-0.252-0.974-1.006-6.035-2.235-11.176c-3.353-14.082-2.347-50.964,1.676-61.246
		c0.894-2.124,2.682-7.712,4.023-12.294c2.123-7.6,6.035-15.871,12.629-26.823c3.129-5.476,14.082-18.664,19.894-24.252
		c8.829-8.382,25.37-18.776,34.423-21.458c4.582-1.341,9.096-2.844,10.953-3.577c1.961-0.399,10.059-1.341,19-1.676
		c9.053-0.447,16.653-0.894,16.988-1.229c0.782-0.782,0.671-16.429-0.224-24.923c-1.006-9.835-6.482-25.929-13.523-39.564
		c-5.253-10.059-5.812-11.958-5.7-18.105c0.112-8.159,2.459-12.964,8.829-17.547c5.812-4.023,10.394-3.353,21.123,2.794
		c11.847,6.93,26.273,17.16,28.052,18.888c0.321,0.311,4.918,5.029,11.064,10.059c10.17,8.494,26.488,25.929,34.088,36.435
		c4.582,6.258,17.994,29.952,17.994,31.628c0,1.118,2.235,1.229,10.282,0.671c5.7-0.447,10.506-1.006,10.729-1.229
		c0.671-0.67-3.129-6.482-10.394-16.206c-8.159-10.953-24.588-27.605-35.429-35.876c-9.053-6.929-12.07-10.059-7.488-7.711
		c1.453,0.782,3.337,2.188,4.359,2.794c3.217,1.91,4.518,2.449,9.5,5.588c4.359,2.347,8.829,5.029,10.059,6.147
		c1.229,1.006,6.818,4.917,12.294,8.605c6.147,4.135,15.982,12.518,25.147,21.458l14.976,14.752l6.706-0.559
		c6.594-0.67,57.111-1.565,106.845-2.012c19.447-0.224,25.594,0.112,32.411,1.676c4.582,1.118,9.835,2.124,11.512,2.347
		c5.821,1.898,9.648,3.731,12.076,5.028c3.359,1.793,3.702,1.886,7.706,4.024c7.662,4.847,16.124,11.656,18.553,14.082
		c1.403,1.591,5.385,5.841,6.782,7.389c3.576,3.8,7.306,8.313,8.312,9.989c1.006,1.564,1.257,2.724,3.347,5.421
		c3.35,5.403,4.247,6.818,6.929,12.294c12.853,25.482,15.982,54.54,9.053,82.704c-2.906,11.735-11.847,32.858-15.088,35.205
		c-0.335,0.335-1.453,2.124-2.459,3.912c-2.459,4.694-15.647,19.446-21.235,23.693c-7.265,5.7-19.111,13.523-23.582,15.647
		c-2.235,1.006-4.023,2.347-4.023,3.018c0,0.67-0.782,6.706-1.676,13.411c-4.359,32.97-19.335,61.917-42.805,82.593
		c-14.641,12.853-31.293,21.793-50.07,26.599c-12.964,3.353-36.435,3.688-50.517,0.559l-9.276-2.012l-4.582,5.252
		c-6.818,7.712-14.753,15.088-21.347,19.559c-23.805,16.541-48.393,23.247-75.998,21.011c-10.729-0.894-19.22-2.671-30.91-6.315
		 M225.926,7895.803c17.323-3.576,34.199-12.964,45.599-25.146c9.835-10.617,12.182-13.635,16.653-22.017l4.47-8.159l4.582,2.57
		c16.317,9.053,39.34,12.07,58.005,7.6c44.481-10.618,72.422-57.446,64.263-107.516l-1.453-8.494l9.947-1.788
		c11.512-2.235,26.041-9.165,34.646-16.541c9.612-8.271,17.882-21.123,22.688-35.205c2.682-7.823,3.018-10.506,3.129-23.917
		c0-13.747-0.224-15.871-3.018-24.029c-6.929-19.67-20.341-35.317-36.993-43.028c-5.029-2.347-11.4-4.694-14.306-5.477
		c-3.688-0.894-31.964-1.229-94.216-1.229c-90.751,0-95.669-0.224-100.698-4.247c-3.912-3.241-17.792-26.775-19.447-30.176
		c-1.027-2.111-20.9-29.17-28.276-36.323c-7.712-7.376-10.617-8.718-9.947-4.583c0.224,1.118,0.671,9.165,1.006,17.771
		c1.229,32.411-5.7,50.069-21.458,54.875c-3.241,0.894-12.182,1.9-21.235,2.235c-19.335,0.782-24.476,1.788-35.764,7.153
		c-29.058,13.97-46.828,48.393-44.817,86.392c0.782,14.082,3.353,24.029,9.947,37.664c8.27,16.876,27.382,33.417,43.029,36.993
		c3.241,0.783,5.812,1.789,5.812,2.235c0,0.447-0.671,4.023-1.565,7.935c-2.347,10.729-2.906,28.276-1.341,40.682
		c2.794,20.899,10.17,39.34,22.241,55.434c6.482,8.606,7.935,10.282,14.864,16.541
		C172.168,7892.115,201.674,7900.833,225.926,7895.803z"/>
</g>
<g>
	<path fill="#00A89D" d="M77.449,31.482l3.85,1.491c-0.601,2.686-1.6,4.649-2.998,5.889c-1.398,1.239-3.118,1.858-5.16,1.858
		c-2.566,0-4.647-0.988-6.241-2.965c-1.834-2.282-2.751-5.361-2.751-9.238c0-4.095,0.923-7.3,2.771-9.615
		c1.607-2.009,3.766-3.014,6.477-3.014c2.208,0,4.055,0.754,5.542,2.261c1.06,1.07,1.836,2.659,2.329,4.767l-3.932,1.146
		c-0.251-1.299-0.752-2.296-1.501-2.989s-1.632-1.04-2.65-1.04c-1.455,0-2.642,0.633-3.561,1.9
		c-0.919,1.267-1.378,3.358-1.378,6.273c0,3.025,0.448,5.176,1.343,6.454c0.896,1.278,2.058,1.917,3.489,1.917
		c1.048,0,1.955-0.407,2.719-1.221C76.559,34.543,77.111,33.252,77.449,31.482z"/>
	<path fill="#00A89D" d="M88.44,16.298v8.813c0.6-0.874,1.264-1.526,1.99-1.958c0.726-0.431,1.515-0.647,2.367-0.647
		c1.136,0,2.085,0.301,2.85,0.902c0.764,0.601,1.311,1.454,1.638,2.558c0.24,0.809,0.36,2.186,0.36,4.131v10.214h-3.784v-9.2
		c0-2.131-0.136-3.465-0.408-4.001c-0.381-0.721-1.029-1.082-1.943-1.082c-0.969,0-1.723,0.391-2.262,1.172
		c-0.539,0.782-0.808,2.244-0.808,4.386v8.725h-3.784V16.298H88.44z"/>
	<path fill="#00A89D" d="M104.296,28.207l-3.423-0.753c0.415-1.758,1.1-3.022,2.056-3.792s2.329-1.155,4.119-1.155
		c1.595,0,2.813,0.224,3.653,0.672s1.441,1.058,1.802,1.828s0.54,2.172,0.54,4.205l-0.032,5.378c0,1.508,0.06,2.632,0.18,3.369
		c0.12,0.738,0.345,1.522,0.672,2.353h-3.734l-0.491-1.9c-0.645,0.765-1.335,1.341-2.072,1.729s-1.521,0.581-2.351,0.581
		c-1.387,0-2.522-0.467-3.407-1.402c-0.884-0.935-1.327-2.179-1.327-3.731c0-0.984,0.18-1.843,0.541-2.575s0.868-1.317,1.523-1.755
		c0.655-0.438,1.703-0.826,3.145-1.165c1.747-0.404,2.965-0.782,3.653-1.132c0-0.966-0.068-1.6-0.205-1.902
		c-0.137-0.302-0.388-0.549-0.754-0.741c-0.365-0.192-0.882-0.288-1.548-0.288c-0.677,0-1.209,0.153-1.597,0.458
		S104.537,27.366,104.296,28.207z M109.342,31.958c-0.481,0.196-1.229,0.427-2.244,0.689c-1.169,0.307-1.934,0.646-2.293,1.019
		c-0.36,0.373-0.541,0.854-0.541,1.446c0,0.668,0.199,1.229,0.598,1.684c0.398,0.455,0.898,0.682,1.499,0.682
		c0.535,0,1.064-0.183,1.589-0.55s0.887-0.803,1.089-1.307c0.202-0.503,0.304-1.418,0.304-2.743V31.958z"/>
	<path fill="#00A89D" d="M123.297,22.916v3.669h-2.571v7.022c0,1.52,0.038,2.4,0.114,2.641c0.153,0.438,0.464,0.656,0.934,0.656
		c0.35,0,0.853-0.147,1.507-0.442l0.328,3.571c-0.874,0.459-1.862,0.688-2.965,0.688c-0.961,0-1.73-0.229-2.31-0.688
		s-0.967-1.12-1.163-1.984c-0.153-0.634-0.229-1.924-0.229-3.87v-7.593h-1.736v-3.669h1.736V19.46l3.784-2.687v6.143H123.297z"/>
	<path fill="#00A89D" d="M137.875,36.036v4.275H124.64c0.143-1.614,0.576-3.15,1.303-4.607c0.726-1.456,2.138-3.368,4.234-5.736
		c1.659-1.888,2.681-3.164,3.063-3.83c0.568-0.971,0.853-1.947,0.853-2.93c0-1.047-0.235-1.838-0.705-2.373
		s-1.086-0.802-1.851-0.802c-1.671,0-2.571,1.25-2.703,3.751l-3.751-0.459c0.229-2.446,0.909-4.242,2.04-5.389
		c1.13-1.147,2.634-1.72,4.513-1.72c2.063,0,3.619,0.671,4.668,2.013c1.048,1.342,1.572,2.881,1.572,4.616
		c0,0.982-0.134,1.934-0.401,2.856s-0.68,1.849-1.236,2.782c-0.557,0.933-1.485,2.125-2.785,3.576
		c-1.212,1.363-1.979,2.264-2.301,2.7s-0.582,0.862-0.778,1.276H137.875z"/>
	<path fill="#00A89D" d="M141.233,16.298h7.249c1.832,0,3.215,0.205,4.147,0.614s1.792,1.1,2.577,2.072
		c0.786,0.972,1.402,2.233,1.85,3.784c0.447,1.551,0.671,3.478,0.671,5.782c0,2.075-0.234,3.879-0.704,5.413
		c-0.469,1.535-1.063,2.75-1.783,3.645c-0.72,0.896-1.59,1.57-2.609,2.023c-1.021,0.453-2.332,0.68-3.936,0.68h-7.462V16.298z
		 M145.197,20.361v15.888h2.98c1.278,0,2.203-0.119,2.776-0.359s1.043-0.603,1.409-1.089c0.365-0.484,0.669-1.251,0.909-2.299
		c0.24-1.047,0.36-2.427,0.36-4.14c0-1.778-0.123-3.18-0.369-4.206c-0.245-1.025-0.628-1.833-1.146-2.421
		c-0.519-0.589-1.149-0.977-1.892-1.162c-0.557-0.142-1.633-0.212-3.227-0.212H145.197z"/>
	<path fill="#00A89D" d="M169.374,34.791l3.751,0.771c-0.503,1.747-1.285,3.044-2.346,3.89c-1.061,0.847-2.351,1.27-3.87,1.27
		c-2.11,0-3.739-0.705-4.888-2.116c-1.355-1.642-2.033-3.938-2.033-6.893c0-2.91,0.682-5.24,2.047-6.99
		c1.158-1.477,2.654-2.215,4.488-2.215c2.042,0,3.642,0.755,4.8,2.264c1.332,1.728,1.998,4.276,1.998,7.646l-0.017,0.524h-9.451
		c0.021,1.382,0.331,2.45,0.929,3.206c0.597,0.757,1.316,1.135,2.16,1.135C168.158,37.281,168.969,36.451,169.374,34.791z
		 M169.57,30.123c-0.032-1.359-0.322-2.382-0.868-3.067c-0.546-0.686-1.195-1.028-1.949-1.028c-0.797,0-1.469,0.356-2.015,1.069
		c-0.557,0.724-0.83,1.732-0.819,3.026H169.57z"/>
	<path fill="#00A89D" d="M175.058,35.365l3.784-0.705c0.327,1.824,1.343,2.735,3.046,2.735c0.906,0,1.584-0.175,2.031-0.524
		c0.448-0.35,0.672-0.803,0.672-1.36c0-0.382-0.099-0.683-0.295-0.901c-0.208-0.218-0.618-0.409-1.232-0.572
		c-3.099-0.824-5.068-1.608-5.909-2.353c-1.049-0.931-1.572-2.206-1.572-3.826c0-1.62,0.513-2.917,1.539-3.891
		s2.518-1.461,4.472-1.461c1.868,0,3.287,0.363,4.259,1.089c0.973,0.727,1.655,1.897,2.048,3.514l-3.555,0.802
		c-0.316-1.397-1.212-2.096-2.686-2.096c-0.929,0-1.589,0.134-1.982,0.402c-0.394,0.269-0.59,0.616-0.59,1.042
		c0,0.383,0.18,0.701,0.54,0.952c0.36,0.263,1.479,0.66,3.356,1.19c2.106,0.597,3.536,1.316,4.292,2.158
		c0.743,0.841,1.115,1.961,1.115,3.359c0,1.683-0.576,3.07-1.728,4.163c-1.152,1.093-2.744,1.639-4.775,1.639
		c-1.846,0-3.353-0.455-4.521-1.367C176.198,38.441,175.429,37.112,175.058,35.365z"/>
	<path fill="#00A89D" d="M191.553,40.312V16.298h3.784v12.724l4.413-6.106h4.653l-4.882,6.367l5.226,11.028h-4.06l-3.618-7.829
		l-1.732,2.26v5.569H191.553z"/>
</g>
</svg>
