<svg id="chat2desk_logo" xmlns="http://www.w3.org/2000/svg" viewBox="0 0 2147.57 698.71"><defs><style>.cls-1{fill:#283cfa;}.cls-2{fill:#55dcaa;}</style></defs><title>chat2desk_logo_SVG</title><g id="chat2desk_logo-2" data-name="chat2desk_logo"><g id="chat2desk"><path class="cls-1" d="M821.87,417.24a17.2,17.2,0,0,0-12.79-5.06c-16.58,0-30.75-5.91-42.12-17.56s-17.14-26.17-17.14-43.15S755.59,320,767,308.32s25.55-17.57,42.12-17.57a17.18,17.18,0,0,0,12.79-5.06,18,18,0,0,0,5-13.08c0-5.31-1.67-9.67-5-12.94s-7.73-4.45-12.93-4.45c-26.27,0-48.69,9-66.9,27.62s-27.45,41.74-27.45,68.63,9.24,50,27.45,68.64,40.76,28.1,67,28.1a17.44,17.44,0,0,0,12.79-4.93c3.29-3.27,5-7.63,5-12.94A18,18,0,0,0,821.87,417.24Z"/><path class="cls-1" d="M955.17,397.65V368.73c0-16.29-5.54-30.18-16.47-41.28s-24.53-16.73-40.44-16.73A53.67,53.67,0,0,0,876.93,315l-.35.15v-42c0-5.33-1.67-9.71-5-13a17.46,17.46,0,0,0-12.8-5,17,17,0,0,0-12.64,5c-3.2,3.27-4.82,7.63-4.82,13V430.29c0,5.33,1.62,9.69,4.82,13s7.46,4.93,12.66,4.93a17.41,17.41,0,0,0,12.79-4.94c3.29-3.28,5-7.65,5-13V368.7a21.59,21.59,0,0,1,21.82-22,20.67,20.67,0,0,1,15.22,6.44,21.39,21.39,0,0,1,6.33,15.49v61.87c0,5.33,1.62,9.69,4.82,13s7.46,4.68,12.66,4.68,9.5-1.41,12.79-4.69,5-7.65,5-13Z"/><path class="cls-1" d="M1104.69,379.34c0-19.43-6.56-36-19.51-49.21s-29.09-19.4-48-19.4-35,6.15-47.85,19.32S970,359.71,970,379.07s6.52,35.9,19.38,49.16,29,20,47.85,20a17.2,17.2,0,0,0,12.79-5.06,18,18,0,0,0,5-13.08c0-5.31-1.67-9.66-5-12.94a17.44,17.44,0,0,0-12.79-4.93,30.39,30.39,0,0,1-22.67-9.72,32.7,32.7,0,0,1-9.33-23.4,32.24,32.24,0,0,1,9.33-23.26,30.59,30.59,0,0,1,22.67-9.59,31,31,0,0,1,22.8,9.62,32.21,32.21,0,0,1,9.47,23.36v51c0,5.36,1.62,9.75,4.83,13.05s7.46,5,12.66,5a17.38,17.38,0,0,0,12.79-5c3.29-3.29,5-7.68,5-13Z"/><path class="cls-1" d="M1233,387.57a17.66,17.66,0,0,0-5-12.81,16.87,16.87,0,0,0-12.52-5.06,17.36,17.36,0,0,0-17.75,17.87V390a22,22,0,0,1-6.16,15.73,20.37,20.37,0,0,1-15.27,6.43,20.79,20.79,0,0,1-15.4-6.43A21.73,21.73,0,0,1,1154.7,390V346.74h60.85c11.76,0,17.48-5.94,17.48-18.15,0-5.31-1.62-9.67-4.82-12.94s-7.46-4.93-12.66-4.93H1154.7V296.95a18,18,0,0,0-5-13.08A17.19,17.19,0,0,0,1137,278.8a16.75,16.75,0,0,0-12.65,5.06c-3.2,3.36-4.83,7.76-4.83,13.08V390c0,16.45,5.5,30.41,16.34,41.49s24.49,16.7,40.57,16.7c15.91,0,29.47-5.66,40.31-16.83S1233,406.28,1233,390Z"/><path class="cls-2" d="M1321.67,411.67h43.4a17.36,17.36,0,0,1,13,5.14q5,5.14,5,13.26t-5,13.12a17.6,17.6,0,0,1-13,5h-99.5q-20.38,0-20.38-15.72,0-10.57,11.12-18.16,15.34-10.3,34.67-24.66,21.44-15.71,34.4-28.45,22-21.41,22-37.4a31.53,31.53,0,0,0-9.4-23,30.7,30.7,0,0,0-22.63-9.48,30.21,30.21,0,0,0-22.49,9.52c-6.18,6.35-8.73,14.07-9.26,23.12-.33,5.65-1.68,9.88-5,13.33a17.3,17.3,0,0,1-13,5.16q-7.94,0-12.84-5.16t-4.9-13.29q0-29.31,19.45-49.25c13-13.3,28.81-19.5,47.87-19.5s35.27,6.19,48.33,19.47,19.58,29.67,19.58,49.19q0,26-20.64,50.41Q1350.78,388.1,1321.67,411.67Z"/><path class="cls-1" d="M1524.68,283.15c-18.12-18.5-40.72-27.89-67.17-27.89h-39.43a16.67,16.67,0,0,0-12.26,5.34,17.46,17.46,0,0,0-5.22,12.56V430.29c0,5.33,1.62,9.69,4.82,13s7.46,4.93,12.66,4.93a17.43,17.43,0,0,0,12.79-4.94c3.29-3.28,5-7.64,5-13v-139h21.69c16.75,0,31,5.84,42.26,17.35s17,26,17,43.09c0,16.91-5.77,31.36-17.14,43s-25.54,17.48-42.12,17.48a16.75,16.75,0,0,0-12.65,5.06c-3.2,3.36-4.83,7.76-4.83,13.08s1.62,9.68,4.82,12.95,7.46,4.93,12.66,4.93c26.45,0,49-9.38,67.17-27.88S1552,378.73,1552,351.73,1542.81,301.66,1524.68,283.15Z"/><path class="cls-1" d="M1688.29,344a17.75,17.75,0,0,0-5.23-12.27c-13.3-13.94-29.71-21-48.77-21-18.89,0-35,6.65-47.85,19.77s-19.38,29.55-19.38,48.84,6.52,35.76,19.38,49,29,19.9,47.85,19.9h23.55a16.79,16.79,0,0,0,12.65-5c3.2-3.35,4.83-7.73,4.83-13s-1.62-9.63-4.82-12.9-7.46-4.91-12.66-4.91h-23.55a30.44,30.44,0,0,1-22.67-9.68,32.51,32.51,0,0,1-9.33-23.31,32.08,32.08,0,0,1,9.32-23.17,30.62,30.62,0,0,1,22.66-9.55,31.55,31.55,0,0,1,6.93.78l.44.1L1622.36,367c-3.86,3.84-5.82,8-5.82,12.36a18,18,0,0,0,5.35,12.89,17.11,17.11,0,0,0,12.66,5.52c4.33,0,8.45-1.79,12.27-5.32l33.89-33.81C1685.74,354.78,1688.29,349.84,1688.29,344Z"/><path class="cls-1" d="M1705.11,412.08a16.73,16.73,0,0,0-12.65,5.07c-3.2,3.37-4.83,7.78-4.83,13.11s1.62,9.7,4.82,13,7.46,4.94,12.66,4.94h6.34A48.87,48.87,0,0,0,1747,432.77c9.87-10.22,15-22.86,15.15-37.58V363.7a16,16,0,0,1,4.6-11.58,18.51,18.51,0,0,1,10.61-5.13c.63-.1,8.16-.18,8.83-.24a19.24,19.24,0,0,0,12.51-5.49c3.14-3.2,4.73-7.43,4.73-12.59,0-5.33-1.67-9.7-5-13a17.49,17.49,0,0,0-12.84-5c-.73,0-8.33,0-9,0A49.49,49.49,0,0,0,1741.86,326c-9.91,10.14-14.93,22.83-14.93,37.73v31.52a16.59,16.59,0,0,1-4.7,12,15.64,15.64,0,0,1-11.1,4.82Z"/><path class="cls-1" d="M1924.14,409.78a49.11,49.11,0,0,0-1.12-7.58c-3.09-12.56-10.27-23.15-21.43-31.59l-.23-.17.21-.2A57,57,0,0,0,1919,328.4c0-5.32-1.67-9.68-5-13s-7.64-4.71-12.83-4.71c-11.76,0-17.44,5.84-17.44,18.31a21.39,21.39,0,0,1-6.42,15.56,19.91,19.91,0,0,1-14.56,6.21h-12.33v-77.4a18.08,18.08,0,0,0-5-13.12,17.15,17.15,0,0,0-12.79-5.08,16.75,16.75,0,0,0-12.65,5.06c-3.2,3.36-4.83,7.76-4.83,13.08v157c0,5.32,1.62,9.68,4.82,12.95s7.46,4.93,12.66,4.93a17.44,17.44,0,0,0,12.79-4.93c3.29-3.27,5-7.63,5-12.94V395.48h17.45a21.41,21.41,0,0,1,21.36,18,27.05,27.05,0,0,1,.61,5.92v10.94c0,5.32,1.6,9.68,4.74,12.95a16.55,16.55,0,0,0,12.44,4.93,17,17,0,0,0,12.57-4.93c3.23-3.27,4.87-7.63,4.87-12.94A195.34,195.34,0,0,0,1924.14,409.78Z"/></g><g id="cloud"><path class="cls-1" d="M461.49,246c4.74-2.37,7.89-5.81,9.35-10.22a17.48,17.48,0,0,0-1.31-13.66c-11.74-23.53-30.28-39.5-55.08-47.48s-49.56-5.94-73.59,6.07-40.53,30.61-49,55.23-6.87,49.05,4.87,72.58a17.46,17.46,0,0,0,10.13,9.25c4.39,1.48,7.73,2.06,12.47-.31s9.23-6.87,10.77-11.31a17.24,17.24,0,0,0-1.19-13.71c-7.41-14.84-8.47-30.17-3.14-45.56q.74-2.14,1.61-4.18c5.68-13.33,15.51-23.56,29.28-30.44,15.17-7.58,30.72-8.9,46.21-3.92s27.35,14.93,34.53,29.88c2.38,5,4.3,8.48,8.77,9.92S456.74,248.37,461.49,246Z"/><path class="cls-2" d="M597.12,280.11c-5.06-25.57-18.86-46.24-41-61.43s-46.41-20.61-72.06-16.1a96.93,96.93,0,0,0-20,5.73h0l-.19.09c-7.57,3.12-20.82,12.35-20.76,12.41A17.11,17.11,0,0,0,437,231.64c-.61,4.6.72,9.06,4,13.27a18,18,0,0,0,11.9,7.32,16.59,16.59,0,0,0,10.72-2.16l0,.08.49-.39a21.85,21.85,0,0,0,2-1.34A70.51,70.51,0,0,1,474.5,243a58.75,58.75,0,0,1,16.45-5.42q2.22-.39,4.43-.62c14.41-1.5,28.11,2.13,40.81,10.84,14,9.59,22.68,22.55,25.85,38.52a57,57,0,0,1-.91,27c-3.32,13.72,2.63,18.51,11.26,21.53,2,.7,16.4,5.25,22.21-7.88A90.89,90.89,0,0,0,597.12,280.11Z"/><path class="cls-1" d="M645.19,346.22c-12.85-22.67-37.15-37.58-62.56-44.31a17.21,17.21,0,0,0-21.89,12.68,18.14,18.14,0,0,0,1.62,14c2.33,4.09,11,6.84,16,8.17,16,4.24,28.23,13.58,36.25,27.75q1.11,2,2.07,4c6.25,13.08,7.42,27.22,3.49,42.1-4.34,16.4-13.62,28.95-27.6,37.29A56.71,56.71,0,0,1,565,456.11c-3.13.1-99.44,0-124.12,0-2,0-4.13.28-5.1.28-5,0-14.26,2.38-14.24,16.71,0,10.41,9.38,18.23,14.58,18.23,10.84,0,123.56.07,128.41,0,15.86-.24,31.12-3.88,45.61-12.52,22.38-13.35,37.21-33.29,44.08-59.27S658,368.89,645.19,346.22Z"/><path class="cls-2" d="M454.8,461.33a16.4,16.4,0,0,0-11.93-5.22l-5.87,0c-16.11.29-31.93,6.23-47,19.1-8.79,7.46-20.83,20.7-35.8,39.33l-.51.64-.09-33.69v-4.82c0-5,.11-9.34-3.12-12.5a22.52,22.52,0,0,0-14.32-5.73c-5.1,0-9.27,1.63-12.39,4.79S319,471.81,319,476.81v4.81l.24,86.94c0,13,4.9,19.33,14.87,19.31,6.64,0,12.42-3.6,17.19-10.63,6.57-9.87,14.51-21.14,23.62-33.48,10-13.74,19.17-24.93,27.29-33.26,13.67-14.14,25.82-19.09,36.11-19.12h4.38a16.24,16.24,0,0,0,12.13-4.79c3.06-3.17,4.61-8.09,4.59-13.08S457.88,464.4,454.8,461.33Z"/><path class="cls-1" d="M328.29,297c-.84-5.75-3.33-10.18-7.41-13.17s-9-4-14.64-3.16c-28.48,4.48-51.44,18.56-68.24,41.86s-23.18,49.86-18.94,79,17.9,52.55,40.58,69.62,46.73,22.39,77,19.39c5.68-.56,17-1.5,16.91-17.8A16.94,16.94,0,0,0,346.31,459c-4.24-2.87-14.19-2.86-19.89-2.88-21.73-.09-29.62-2.25-43.79-12.92q-2-1.48-3.79-3.07c-11.91-10.36-19.17-27.94-21.59-44.62-2.68-18.38,1.29-35.08,11.78-49.63s24.93-23.37,42.9-26.2A19.09,19.09,0,0,0,325,312C328,307.81,329.13,302.76,328.29,297Z"/></g></g></svg>