<?xml version="1.0" encoding="utf-8"?>
<!-- Generator: Adobe Illustrator 16.0.0, SVG Export Plug-In . SVG Version: 6.00 Build 0)  -->
<!DOCTYPE svg PUBLIC "-//W3C//DTD SVG 1.1//EN" "http://www.w3.org/Graphics/SVG/1.1/DTD/svg11.dtd">
<svg version="1.1" id="Layer_1" xmlns="http://www.w3.org/2000/svg" xmlns:xlink="http://www.w3.org/1999/xlink" x="0px" y="0px"
	 width="208px" height="120px" viewBox="0 -30 208 120" enable-background="new 0 -30 208 120" xml:space="preserve">
<path fill="none" d="M207.729,26.062c0,0.667,0,1.333,0,2"/>
<path fill="none" d="M-21.744,11.507c0-0.615,0.093-1.326-0.11-1.882"/>
<g>
	<path fill="#404041" d="M104.331,3.103c0.44,0,0.788,0.135,1.043,0.404c0.256,0.269,0.383,0.623,0.383,1.063v2.64H92.24V5.743
		c0-0.283,0.053-0.586,0.158-0.909c0.106-0.323,0.291-0.616,0.555-0.88l5.544-6.204c0.476-0.528,0.889-1.032,1.241-1.511
		c0.352-0.479,0.642-0.951,0.871-1.416c0.229-0.464,0.4-0.929,0.515-1.393s0.172-0.956,0.172-1.474c0-0.851-0.184-1.503-0.548-1.958
		c-0.365-0.455-0.922-0.682-1.67-0.682c-0.607,0-1.12,0.179-1.538,0.536s-0.706,0.799-0.865,1.327
		c-0.185,0.538-0.427,0.895-0.726,1.071c-0.299,0.176-0.726,0.215-1.281,0.117l-2.165-0.425c0.141-1.065,0.411-1.995,0.812-2.787
		s0.898-1.452,1.492-1.98c0.594-0.528,1.274-0.921,2.04-1.181s1.588-0.389,2.468-0.389c0.95,0,1.807,0.154,2.567,0.462
		s1.41,0.736,1.947,1.283c0.536,0.548,0.948,1.201,1.234,1.958c0.285,0.758,0.429,1.591,0.429,2.501c0,0.782-0.099,1.506-0.297,2.17
		c-0.198,0.665-0.469,1.298-0.812,1.899c-0.344,0.602-0.742,1.183-1.195,1.745c-0.453,0.562-0.935,1.132-1.445,1.709l-3.762,4.283
		c0.484-0.166,0.963-0.293,1.438-0.381s0.915-0.132,1.32-0.132H104.331z"/>
</g>
<g>
	<path fill="#333333" d="M14.47,22.15c1.677,0,3.105,0.174,4.283,0.519s2.139,0.832,2.883,1.463c0.745,0.63,1.287,1.395,1.625,2.297
		c0.339,0.9,0.509,1.906,0.509,3.017c0,0.606-0.079,1.189-0.234,1.75c-0.155,0.563-0.401,1.087-0.733,1.575
		c-0.333,0.489-0.761,0.936-1.283,1.342c-0.523,0.408-1.15,0.761-1.884,1.057c1.6,0.433,2.784,1.131,3.551,2.094
		c0.766,0.961,1.149,2.209,1.149,3.739c0,1.148-0.199,2.217-0.599,3.205s-0.986,1.85-1.759,2.583
		c-0.772,0.734-1.725,1.31-2.858,1.723c-1.133,0.415-2.428,0.62-3.884,0.62H5.535V22.15H14.47z M11.168,26.837v6.665h2.934
		c0.622,0,1.184-0.046,1.684-0.147c0.5-0.1,0.924-0.27,1.274-0.519c0.351-0.246,0.617-0.586,0.8-1.018s0.275-0.975,0.275-1.63
		c0-0.641-0.073-1.176-0.217-1.604c-0.145-0.425-0.367-0.768-0.666-1.026c-0.3-0.259-0.681-0.444-1.142-0.555
		c-0.46-0.112-1.008-0.166-1.641-0.166H11.168z M15.136,44.41c0.744,0,1.353-0.104,1.825-0.313c0.472-0.21,0.841-0.482,1.109-0.814
		c0.266-0.335,0.45-0.71,0.55-1.131c0.1-0.42,0.149-0.845,0.149-1.278c0-0.493-0.058-0.937-0.175-1.33
		c-0.117-0.397-0.316-0.729-0.6-1.002c-0.283-0.271-0.659-0.482-1.125-0.63c-0.466-0.147-1.056-0.224-1.767-0.224h-3.934v6.723
		H15.136z"/>
	<path fill="#333333" d="M31.537,32.893c0.533-1.037,1.147-1.852,1.842-2.445c0.694-0.592,1.491-0.89,2.393-0.89
		c0.777,0,1.41,0.206,1.899,0.612l-0.333,4.222c-0.055,0.272-0.147,0.456-0.274,0.555c-0.129,0.1-0.303,0.151-0.525,0.151
		c-0.089,0-0.206-0.009-0.351-0.021c-0.145-0.01-0.294-0.025-0.45-0.043c-0.155-0.021-0.314-0.039-0.475-0.058
		s-0.308-0.029-0.442-0.029c-0.756,0-1.358,0.224-1.808,0.669c-0.45,0.444-0.831,1.062-1.142,1.853v11.666h-5.167V29.928h3.067
		c0.255,0,0.469,0.026,0.641,0.075c0.173,0.049,0.317,0.128,0.434,0.231c0.116,0.104,0.205,0.245,0.267,0.418
		c0.061,0.171,0.113,0.381,0.157,0.63L31.537,32.893z"/>
	<path fill="#333333" d="M38.604,32.598c1.044-1.027,2.203-1.789,3.475-2.288c1.273-0.5,2.637-0.752,4.092-0.752
		c1.044,0,1.986,0.189,2.825,0.566c0.839,0.379,1.551,0.902,2.134,1.574c0.582,0.674,1.03,1.473,1.341,2.399
		c0.311,0.925,0.466,1.938,0.466,3.036v12.001h-2.367c-0.489,0-0.858-0.073-1.108-0.221c-0.25-0.148-0.458-0.456-0.625-0.926
		l-0.367-1.057c-0.433,0.407-0.85,0.766-1.25,1.075c-0.401,0.308-0.814,0.569-1.242,0.785c-0.428,0.218-0.883,0.376-1.367,0.483
		c-0.484,0.103-1.02,0.157-1.609,0.157c-0.789,0-1.506-0.114-2.15-0.343c-0.645-0.23-1.192-0.565-1.642-1.011
		c-0.45-0.444-0.797-0.996-1.042-1.657c-0.245-0.659-0.366-1.422-0.366-2.288c0-0.689,0.155-1.39,0.466-2.101
		c0.312-0.711,0.851-1.358,1.617-1.945c0.767-0.586,1.8-1.076,3.1-1.473c1.3-0.395,2.938-0.617,4.918-0.667v-0.814
		c0-1.123-0.209-1.935-0.626-2.436c-0.417-0.5-1.008-0.749-1.775-0.749c-0.612,0-1.111,0.072-1.5,0.221
		c-0.389,0.15-0.736,0.316-1.042,0.501c-0.306,0.187-0.603,0.352-0.892,0.5c-0.289,0.147-0.633,0.223-1.033,0.223
		c-0.356,0-0.656-0.099-0.9-0.295c-0.245-0.197-0.445-0.434-0.601-0.706L38.604,32.598z M47.906,41.319
		c-1.035,0.049-1.885,0.147-2.551,0.295c-0.667,0.148-1.194,0.335-1.583,0.556c-0.389,0.223-0.659,0.477-0.809,0.76
		c-0.15,0.285-0.225,0.594-0.225,0.926c0,0.656,0.16,1.115,0.483,1.38c0.322,0.267,0.794,0.399,1.417,0.399
		c0.667,0,1.25-0.13,1.75-0.389c0.5-0.261,1.006-0.68,1.518-1.261V41.319z"/>
	<path fill="#333333" d="M60.739,32.004c0.333-0.346,0.677-0.667,1.033-0.963c0.355-0.298,0.736-0.547,1.142-0.75
		c0.405-0.205,0.844-0.366,1.317-0.482c0.472-0.12,0.986-0.177,1.542-0.177c0.944,0,1.781,0.182,2.508,0.548
		c0.729,0.362,1.342,0.868,1.843,1.517c0.5,0.648,0.877,1.421,1.133,2.316c0.255,0.895,0.383,1.866,0.383,2.918v12.202h-5.167
		V36.932c0-0.939-0.194-1.671-0.583-2.197c-0.389-0.524-0.962-0.786-1.717-0.786c-0.567,0-1.097,0.132-1.592,0.396
		s-0.975,0.628-1.442,1.085v13.704h-5.167V29.928h3.2c0.644,0,1.066,0.322,1.267,0.965L60.739,32.004z"/>
	<path fill="#333333" d="M90.357,19.684v29.45h-3.199c-0.645,0-1.068-0.319-1.268-0.963l-0.4-1.463
		c-0.343,0.407-0.705,0.778-1.083,1.11c-0.379,0.334-0.788,0.62-1.226,0.864c-0.438,0.237-0.911,0.425-1.417,0.554
		c-0.506,0.13-1.054,0.195-1.642,0.195c-0.9,0-1.734-0.223-2.5-0.667c-0.767-0.445-1.429-1.087-1.983-1.927
		c-0.557-0.84-0.993-1.867-1.31-3.083c-0.316-1.217-0.475-2.604-0.475-4.158c0-1.431,0.178-2.762,0.534-3.991
		c0.355-1.229,0.858-2.29,1.508-3.185c0.651-0.895,1.431-1.598,2.343-2.104c0.91-0.505,1.917-0.76,3.016-0.76
		c0.9,0,1.656,0.143,2.267,0.428c0.611,0.283,1.167,0.667,1.667,1.146V21.064L90.357,19.684z M85.191,35.076
		c-0.39-0.479-0.812-0.816-1.267-1.009c-0.456-0.191-0.934-0.287-1.435-0.287c-0.477,0-0.916,0.105-1.315,0.316
		c-0.4,0.21-0.748,0.547-1.042,1.008c-0.293,0.465-0.524,1.066-0.692,1.806c-0.166,0.742-0.25,1.636-0.25,2.687
		c0,1.012,0.067,1.865,0.2,2.555c0.134,0.692,0.319,1.25,0.56,1.676c0.237,0.428,0.524,0.731,0.858,0.918
		c0.333,0.184,0.706,0.278,1.116,0.278c0.378,0,0.72-0.039,1.025-0.121c0.305-0.079,0.586-0.193,0.842-0.344
		c0.255-0.148,0.497-0.335,0.725-0.563c0.228-0.228,0.453-0.492,0.676-0.788V35.076z"/>
</g>
<g>
	<path fill="#333333" d="M22.87,11.212c0.133,0,0.267,0.028,0.4,0.083c0.133,0.056,0.261,0.151,0.383,0.287l2.234,2.611
		c-0.978,1.42-2.203,2.491-3.675,3.213c-1.473,0.722-3.214,1.083-5.226,1.083c-1.845,0-3.498-0.349-4.959-1.046
		c-1.461-0.697-2.7-1.661-3.717-2.889s-1.797-2.686-2.342-4.371C5.424,8.499,5.152,6.669,5.152,4.693
		c0-2.013,0.294-3.862,0.883-5.547c0.589-1.686,1.417-3.139,2.484-4.361c1.066-1.223,2.344-2.173,3.833-2.852
		c1.489-0.679,3.128-1.019,4.917-1.019c0.911,0,1.77,0.09,2.575,0.269c0.806,0.179,1.559,0.426,2.259,0.741
		c0.7,0.314,1.344,0.694,1.933,1.139s1.111,0.926,1.567,1.445l-1.9,2.833c-0.123,0.173-0.267,0.331-0.434,0.472
		c-0.167,0.142-0.4,0.213-0.7,0.213c-0.2,0-0.389-0.049-0.567-0.148s-0.367-0.219-0.567-0.361c-0.2-0.142-0.419-0.296-0.658-0.463
		c-0.239-0.167-0.522-0.321-0.85-0.463c-0.328-0.142-0.711-0.262-1.15-0.361c-0.439-0.099-0.953-0.148-1.542-0.148
		c-0.934,0-1.787,0.191-2.559,0.574c-0.772,0.383-1.439,0.942-2,1.676c-0.562,0.735-0.995,1.636-1.3,2.704s-0.458,2.287-0.458,3.658
		c0,1.383,0.169,2.611,0.508,3.686c0.339,1.074,0.8,1.979,1.384,2.713c0.583,0.735,1.264,1.293,2.042,1.676s1.611,0.574,2.5,0.574
		c0.511,0,0.978-0.028,1.4-0.083s0.817-0.148,1.184-0.278c0.367-0.13,0.711-0.302,1.033-0.519c0.322-0.216,0.65-0.491,0.983-0.824
		c0.134-0.123,0.278-0.225,0.434-0.306C22.542,11.252,22.704,11.212,22.87,11.212z"/>
	<path fill="#333333" d="M32.921,0.674c0.622-0.593,1.297-1.071,2.025-1.435c0.728-0.364,1.597-0.546,2.608-0.546
		c0.944,0,1.781,0.182,2.509,0.546c0.728,0.364,1.342,0.87,1.842,1.519c0.5,0.648,0.877,1.42,1.133,2.315
		c0.255,0.896,0.383,1.868,0.383,2.917v12.205h-5.167V5.99c0-0.938-0.194-1.67-0.583-2.195c-0.389-0.524-0.961-0.787-1.717-0.787
		c-0.566,0-1.097,0.133-1.592,0.398s-0.975,0.626-1.441,1.083v13.705h-5.167V-9.53h5.167V0.674z"/>
	<path fill="#333333" d="M46.371,1.656c1.044-1.024,2.203-1.787,3.476-2.287c1.272-0.5,2.636-0.75,4.092-0.75
		c1.044,0,1.986,0.188,2.825,0.565s1.55,0.901,2.134,1.574c0.583,0.673,1.03,1.472,1.341,2.398c0.311,0.926,0.467,1.938,0.467,3.037
		v12.001h-2.367c-0.489,0-0.858-0.074-1.108-0.222c-0.25-0.148-0.458-0.457-0.625-0.926l-0.367-1.056
		c-0.434,0.408-0.85,0.766-1.25,1.074c-0.4,0.309-0.814,0.571-1.242,0.787c-0.428,0.216-0.883,0.376-1.367,0.481
		s-1.02,0.158-1.608,0.158c-0.789,0-1.506-0.114-2.15-0.343c-0.645-0.228-1.192-0.565-1.642-1.009s-0.797-0.997-1.042-1.658
		c-0.245-0.66-0.367-1.423-0.367-2.287c0-0.691,0.155-1.392,0.466-2.102c0.311-0.71,0.85-1.358,1.617-1.944
		c0.767-0.586,1.8-1.077,3.1-1.473c1.3-0.395,2.939-0.617,4.917-0.667V6.193c0-1.124-0.208-1.936-0.625-2.436
		s-1.008-0.75-1.775-0.75c-0.611,0-1.111,0.074-1.5,0.222c-0.389,0.148-0.736,0.315-1.042,0.5c-0.306,0.186-0.603,0.352-0.892,0.5
		c-0.289,0.148-0.633,0.223-1.033,0.223c-0.356,0-0.656-0.099-0.9-0.296c-0.245-0.197-0.445-0.432-0.6-0.704L46.371,1.656z
		 M55.672,10.379c-1.033,0.049-1.883,0.148-2.55,0.296c-0.667,0.148-1.194,0.333-1.583,0.556c-0.389,0.222-0.658,0.475-0.808,0.759
		s-0.225,0.592-0.225,0.926c0,0.655,0.161,1.114,0.483,1.38s0.794,0.398,1.417,0.398c0.667,0,1.25-0.129,1.75-0.389
		s1.005-0.679,1.517-1.259V10.379z"/>
	<path fill="#333333" d="M69.923,18.491c-0.823,0-1.547-0.133-2.175-0.398c-0.628-0.265-1.156-0.642-1.583-1.129
		s-0.753-1.077-0.975-1.769c-0.222-0.691-0.333-1.463-0.333-2.315V2.952h-1.467c-0.267,0-0.494-0.095-0.683-0.287
		c-0.189-0.191-0.283-0.472-0.283-0.842v-2.241l2.75-0.592l1.017-4.686c0.133-0.592,0.511-0.889,1.134-0.889h2.7v5.611h4.284v3.926
		h-4.284v9.538c0,0.444,0.097,0.812,0.292,1.102s0.475,0.435,0.842,0.435c0.189,0,0.347-0.021,0.475-0.065
		c0.127-0.043,0.239-0.092,0.333-0.148c0.094-0.056,0.183-0.105,0.267-0.148c0.083-0.043,0.18-0.064,0.292-0.064
		c0.156,0,0.281,0.04,0.375,0.12c0.094,0.081,0.192,0.207,0.292,0.38l1.566,2.722c-0.667,0.556-1.417,0.973-2.25,1.25
		C71.673,18.352,70.812,18.491,69.923,18.491z"/>
</g>
<g id="XMLID_5_">
	<defs>
		<path id="XMLID_6_" d="M109.539-14.568c6.424,5.729,6.989,15.615,1.261,22.041c-4.537,5.086-11.767,6.645-17.99,3.875
			l-1.403-0.624l-1.46,0.481l-4.809,1.587l1.029-4.957l0.313-1.505L85.7,5.008C82.241-0.86,82.964-8.22,87.5-13.308
			C93.23-19.731,103.116-20.296,109.539-14.568 M114.343-19.954c-9.244-8.246-23.426-7.436-31.67,1.811
			C76.015-10.679,75.264,0,80.086,8.177L77.304,21.58l12.997-4.292c8.674,3.857,19.197,1.893,25.854-5.57
			C124.401,2.472,123.59-11.708,114.343-19.954L114.343-19.954z"/>
	</defs>
	<use xlink:href="#XMLID_6_"  overflow="visible" fill="#42AC4F"/>
	<clipPath id="XMLID_2_">
		<use xlink:href="#XMLID_6_"  overflow="visible"/>
	</clipPath>
</g>
</svg>
