<?xml version="1.0" encoding="utf-8"?>
<!-- Generator: Adobe Illustrator 21.0.0, SVG Export Plug-In . SVG Version: 6.00 Build 0)  -->
<svg version="1.1" id="Слой_1" xmlns="http://www.w3.org/2000/svg" xmlns:xlink="http://www.w3.org/1999/xlink" x="0px" y="0px"
	 width="700px" height="700px" viewBox="0 0 700 700" style="enable-background:new 0 0 700 700;" xml:space="preserve">
<g transform="translate(0.000000,700.000000) scale(0.100000,-0.100000)">
	<path d="M3245,4395c-330-60-605-298-704-610c-36-109-43-154-45-270c-3-147,28-291,90-413c33-66,33-60,9-177c-85-408-88-425-77-425
		c5,0,122,38,262,85l253,84l46-18c46-19,93-32,186-50c47-9,232-8,300,3c17,2,62,14,100,26c322,101,565,368,631,690
		c16,80,13,284-5,370c-76,355-367,639-721,706C3503,4408,3315,4408,3245,4395z"/>
</g>
<image style="overflow:visible;" width="510" height="481" xlink:href="54DD8686.jpg"  transform="matrix(0.9999 0 0 0.9999 95 109)">
</image>
</svg>
