<?xml version="1.0" encoding="utf-8"?>
<!-- Generator: Adobe Illustrator 21.0.0, SVG Export Plug-In . SVG Version: 6.00 Build 0)  -->
<svg version="1.1" id="Layer_1" xmlns="http://www.w3.org/2000/svg" xmlns:xlink="http://www.w3.org/1999/xlink" x="0px" y="0px"
	 width="80px" height="85px" viewBox="0 0 80 85" style="enable-background:new 0 0 80 85;" xml:space="preserve">
<style type="text/css">
	.st0{fill:#55DCAA;}
	.st1{fill:#39A9DB;}
	.st2{fill:none;stroke:#40BCD8;stroke-width:1.5;stroke-miterlimit:10;}
</style>
<g>
	<g>
		<path class="st0" d="M61.9,32.7H51.4v13.6c0,2-1.6,3.6-3.6,3.6H31.7v4.5c0,1.1,0.9,2,2,2h15.9l6.6,5.5c0.9,0.7,1.3,0.4,1-0.7
			L56,56.5c0,0,0,0,0,0h6c1.1,0,2-0.9,2-2V34.8C64,33.6,63.1,32.7,61.9,32.7z"/>
		<path class="st1" d="M19.6,48.3h3.1c0,0,0,0,0,0l-1.3,4.9c-0.2,0.7-0.1,1.1,0.3,1.1c0.2,0,0.5-0.1,0.8-0.4l6.6-5.5h2.5h16.2
			c1.1,0,2-0.9,2-2V32.7v-6.1c0-1.1-0.9-2-2-2H19.6c-1.1,0-2,0.9-2,2v19.6C17.6,47.4,18.5,48.3,19.6,48.3z"/>
	</g>
</g>
<circle class="st2" cx="38.7" cy="42.2" r="37.5"/>
</svg>
