<?xml version="1.0" encoding="utf-8"?>
<!-- Generator: Adobe Illustrator 16.0.0, SVG Export Plug-In . SVG Version: 6.00 Build 0)  -->
<!DOCTYPE svg PUBLIC "-//W3C//DTD SVG 1.1//EN" "http://www.w3.org/Graphics/SVG/1.1/DTD/svg11.dtd">
<svg version="1.1" id="Layer_1" xmlns="http://www.w3.org/2000/svg" xmlns:xlink="http://www.w3.org/1999/xlink" x="0px" y="0px"
	 width="310.31px" height="310.311px" viewBox="0 0 310.31 310.311" enable-background="new 0 0 310.31 310.311"
	 xml:space="preserve">
<circle fill="#FF4A53" cx="155.155" cy="155.155" r="155.155"/>
<g id="Design">
	<g>
		<circle fill="#FFD71C" cx="91.209" cy="93.962" r="9.349"/>
		<circle fill="#FFE54E" cx="91.209" cy="93.962" r="6.889"/>
	</g>
	<g>
		<circle fill="#FFD71C" cx="209.255" cy="103.121" r="9.349"/>
		<circle fill="#FFE54E" cx="209.256" cy="103.121" r="6.889"/>
	</g>
	<path fill="#EDB1AE" d="M117.981,149.311c-7.369,9.421-20.98,11.084-30.401,3.715c-9.421-7.369-3.715-30.401-3.715-30.401
		s20.98-11.084,30.401-3.715C123.687,126.278,125.351,139.89,117.981,149.311z"/>
	<path fill="#EDB1AE" d="M190.225,149.311c7.369,9.421,20.98,11.084,30.401,3.715c9.42-7.369,3.715-30.401,3.715-30.401
		s-20.979-11.084-30.401-3.715C184.519,126.278,182.856,139.89,190.225,149.311z"/>
	<path opacity="0.2" fill="#F9D8D4" d="M197.849,122.669c6.126-5.127,15.864-3.758,22.99-1.694
		c-6.373-2.777-19.86-7.571-26.899-2.065c-8.08,6.32-10.447,17.232-6.309,26.154C187.249,137.093,190.861,128.519,197.849,122.669z"
		/>
	<path opacity="0.2" fill="#F9D8D4" d="M109.36,122.669c-6.126-5.127-15.864-3.758-22.991-1.694
		c6.374-2.777,19.861-7.571,26.899-2.065c8.081,6.32,10.448,17.232,6.309,26.154C119.961,137.093,116.348,128.519,109.36,122.669z"
		/>
	<g>
		<circle opacity="0.1" fill="#EDB1AE" cx="199.632" cy="145.985" r="17.269"/>
		<circle opacity="0.1" fill="#EDB1AE" cx="108.793" cy="145.985" r="17.269"/>
	</g>
	<g>
		<path fill="#E8A9A7" d="M173.538,257.587c0,10.577,5.414,19.15,19.049,19.15c13.034,0,18.648-4.812,16.443-19.15
			c-1.608-10.454,3.008-19.149-16.443-19.149C182.065,238.438,173.538,247.01,173.538,257.587z"/>
		<path fill="#E8A9A7" d="M136.706,257.587c0,10.577-5.415,19.15-19.05,19.15c-13.034,0-18.649-4.812-16.443-19.15
			c1.608-10.454-3.008-19.149,16.443-19.149C128.177,238.438,136.706,247.01,136.706,257.587z"/>
		<path opacity="0.2" fill="#F9D8D4" d="M111.898,257.587c1.394-9.057-1.881-16.792,9.864-18.698
			c-1.323-0.293-2.695-0.451-4.106-0.451c-19.452,0-14.835,8.695-16.443,19.149c-2.206,14.338,3.409,19.15,16.443,19.15
			c1.756,0,3.373-0.145,4.862-0.415C113.676,274.894,110.055,269.567,111.898,257.587z"/>
		<path opacity="0.2" fill="#F9D8D4" d="M198.344,257.587c-1.393-9.057,1.882-16.792-9.863-18.698
			c1.322-0.293,2.695-0.451,4.105-0.451c19.451,0,14.835,8.695,16.443,19.149c2.205,14.338-3.409,19.15-16.443,19.15
			c-1.756,0-3.373-0.145-4.862-0.415C196.567,274.894,200.188,269.567,198.344,257.587z"/>
		<path fill="#E8A9A7" d="M99.027,242.094"/>
	</g>
	<path fill="#EDB1AE" d="M159.149,116.432v13.821c0,2.492-1.508,4.512-4,4.512s-4-2.02-4-4.512v-13.776
		c-40,2.51-70.978,35.232-70.978,75.238c0,41.641,33.533,75.397,75.174,75.397s75.222-33.757,75.222-75.397
		C230.567,151.468,199.149,118.589,159.149,116.432z"/>
	<path fill="#EDB1AE" d="M159.149,116.432v13.8c0,2.488-1.508,4.505-4,4.505s-4-2.017-4-4.505v-13.755
		c-40,2.506-70.978,35.179-70.978,75.125c0,41.578,33.533,75.284,75.174,75.284s75.222-33.706,75.222-75.284
		C230.567,151.416,199.149,118.586,159.149,116.432z"/>
	<circle opacity="0.2" fill="#F9D8D4" cx="155.121" cy="180.284" r="63.768"/>
	<path fill="#F9DCDC" d="M155.149,136.77c2.63,0,4-2.239,4-5.002v-15.323c-1-0.083-2.151-0.128-3.624-0.128
		c-1.727,0-3.376,0.064-4.376,0.178v15.273C151.149,134.531,152.518,136.77,155.149,136.77z"/>
	<path fill="#BF9190" d="M155.149,134.765c2.492,0,4-2.02,4-4.512v-13.821c-1-0.075-2.249-0.116-3.644-0.116
		c-1.636,0-3.356,0.058-4.356,0.161v13.776C151.149,132.745,152.657,134.765,155.149,134.765z"/>
	<g>
		<circle fill="#1A1815" cx="129.799" cy="168.053" r="4.813"/>
		<circle fill="#1A1815" cx="180.934" cy="168.053" r="4.813"/>
	</g>
	<g>
		<path fill="#B7D02D" d="M161.019,46.806c-16.528-5.103-28.341,13.883-44.869,8.781c-1.311-6.691-2.62-13.381-3.929-20.072
			c16.528,5.102,28.341-13.884,44.87-8.783C158.399,33.423,159.71,40.114,161.019,46.806z"/>
		<path fill="#99B528" d="M157.238,43.146c-13.851-1.859-24.612,12.058-38.461,10.199c-0.925-4.723-1.849-9.446-2.773-14.169
			c13.85,1.859,24.612-12.057,38.462-10.198C155.389,33.699,156.313,38.422,157.238,43.146z"/>
		<path fill="#B7D02D" d="M141.67,38.774c0.604,3.086-1.302,6.673-4.232,8.131c-2.93,1.46-5.824-0.006-6.433-3.115
			c-0.604-3.087,1.307-6.642,4.237-8.102C138.172,34.229,141.062,35.666,141.67,38.774z"/>
	</g>
	<g>
		<path fill="#B7D02D" d="M137.624,113.834c-8.293-8.017-21.043-0.285-29.336-8.302c1.237-4.375,2.476-8.749,3.714-13.124
			c8.293,8.017,21.042,0.285,29.336,8.301C140.099,105.084,138.861,109.459,137.624,113.834z"/>
		<path fill="#99B528" d="M136.477,110.517c-7.678-5.28-18.273-0.247-25.951-5.527c0.874-3.088,1.748-6.176,2.622-9.264
			c7.677,5.281,18.274,0.247,25.952,5.528C138.225,104.34,137.352,107.429,136.477,110.517z"/>
		<path fill="#B7D02D" d="M128.535,103.224c-0.571,2.018-2.786,3.576-4.968,3.561c-2.183-0.014-3.462-1.759-2.887-3.792
			c0.571-2.019,2.779-3.557,4.962-3.542C127.825,99.466,129.111,101.191,128.535,103.224z"/>
	</g>
	<g>
		<path fill="#B7D02D" d="M194.301,103.737c-8.219-15.221-29.949-9.95-38.168-25.17c3.753-5.691,7.506-11.383,11.26-17.075
			c8.219,15.22,29.95,9.949,38.169,25.169C201.808,92.354,198.055,98.046,194.301,103.737z"/>
		<path fill="#99B528" d="M194.168,98.476c-8.581-11.03-26.009-8.64-34.589-19.67c2.65-4.018,5.298-8.036,7.947-12.054
			c8.581,11.031,26.01,8.641,34.59,19.67C199.467,90.441,196.817,94.459,194.168,98.476z"/>
		<path fill="#B7D02D" d="M186.122,84.45c-1.73,2.625-5.603,3.85-8.716,2.837c-3.114-1.011-4.151-4.085-2.408-6.729
			c1.731-2.626,5.587-3.824,8.7-2.812C186.811,78.757,187.866,81.806,186.122,84.45z"/>
	</g>
	<g>
		<circle fill="#FFD71C" cx="137.244" cy="72.693" r="16.472"/>
		<circle fill="#FFE54E" cx="137.243" cy="72.693" r="12.139"/>
	</g>
	<g>
		<circle fill="#FFD71C" cx="174.007" cy="41.345" r="11.051"/>
		<circle fill="#FFE54E" cx="174.006" cy="41.345" r="8.144"/>
	</g>
	<g>
		<path fill="#FFD71C" d="M158.149,117.186c0,1.657-1.343,3-3,3l0,0c-1.657,0-3-1.343-3-3v-16c0-1.657,1.343-3,3-3l0,0
			c1.657,0,3,1.343,3,3V117.186z"/>
		<path fill="#FFE54E" d="M157.149,115.896c0,1.265-1.025,2.29-2.29,2.29h-0.421c-1.265,0-2.29-1.025-2.29-2.29v-14.42
			c0-1.265,1.025-2.29,2.29-2.29h0.421c1.265,0,2.29,1.025,2.29,2.29V115.896z"/>
	</g>
	<ellipse fill="#FFEFEE" cx="155.003" cy="201.98" rx="29.259" ry="22.388"/>
	<ellipse fill="#F9D8D4" cx="155.003" cy="202.489" rx="29.259" ry="22.388"/>
	<g>
		<circle fill="#C44E52" cx="143.089" cy="201.541" r="6.428"/>
		<circle fill="#C44E52" cx="167.228" cy="201.541" r="6.429"/>
	</g>
</g>
<g>
	<rect x="132.785" y="64.795" fill="none" width="20.606" height="25.186"/>
	<path fill="#F9BE2C" d="M134.41,65.618c2.236-0.669,4.066-1.004,5.491-1.004c1.923,0,2.877,0.67,2.863,2.008
		c-0.014,1.923-1.225,3.854-3.632,5.791c0.199,0.542,1.026,2.244,2.479,5.106c-0.737,0.684-1.85,1.688-3.338,3.013l-2.275-5.897
		l-0.021,0.004l-0.027-0.004c-0.339,1.865-0.593,3.588-0.762,5.168l-3.383,0.942c0.029-0.313,0.186-1.261,0.47-2.842L134.41,65.618z
		 M137.102,68.994c-0.128,0.484-0.242,0.969-0.342,1.453l-0.299,1.453c0.499-0.256,0.99-0.591,1.475-1.004
		c0.556-0.484,0.926-0.947,1.111-1.389c0.071-0.128,0.107-0.249,0.107-0.363c0-0.313-0.207-0.47-0.62-0.47
		C138.206,68.673,137.729,68.78,137.102,68.994z"/>
</g>
<g>
	<rect x="88.519" y="89.166" fill="none" width="20.606" height="25.185"/>
	<path fill="#F9BE2C" d="M89.425,89.625c1.248-0.374,2.27-0.561,3.065-0.561c1.073,0,1.606,0.374,1.598,1.121
		c-0.008,1.073-0.684,2.15-2.027,3.231c0.111,0.302,0.572,1.252,1.383,2.85c-0.412,0.382-1.033,0.942-1.863,1.682l-1.27-3.292
		l-0.012,0.003l-0.015-0.003c-0.189,1.042-0.331,2.003-0.426,2.885l-1.888,0.525c0.016-0.175,0.103-0.704,0.262-1.586L89.425,89.625
		z M90.928,91.509c-0.072,0.27-0.136,0.541-0.191,0.811L90.57,93.13c0.278-0.143,0.552-0.33,0.823-0.561
		c0.31-0.27,0.517-0.528,0.62-0.775c0.04-0.072,0.06-0.139,0.06-0.203c0-0.175-0.115-0.263-0.346-0.263
		C91.543,91.33,91.277,91.389,90.928,91.509z"/>
</g>
<g>
	<rect x="122.991" y="100.046" fill="none" width="20.606" height="25.185"/>
	<path fill="#99B528" d="M123.633,100.372c0.884-0.265,1.607-0.397,2.171-0.397c0.76,0,1.137,0.265,1.132,0.794
		c-0.006,0.76-0.484,1.523-1.436,2.289c0.079,0.214,0.405,0.887,0.98,2.019c-0.292,0.271-0.731,0.667-1.32,1.191l-0.899-2.331
		l-0.008,0.001l-0.011-0.001c-0.134,0.737-0.234,1.418-0.301,2.043l-1.337,0.373c0.011-0.124,0.073-0.498,0.186-1.124
		L123.633,100.372z M124.697,101.706c-0.051,0.192-0.096,0.383-0.135,0.575l-0.118,0.574c0.197-0.101,0.391-0.233,0.583-0.397
		c0.22-0.191,0.366-0.375,0.439-0.549c0.028-0.051,0.042-0.099,0.042-0.144c0-0.124-0.082-0.186-0.245-0.186
		C125.133,101.58,124.945,101.622,124.697,101.706z"/>
</g>
<g>
	<rect x="169.746" y="34.799" fill="none" width="20.606" height="25.185"/>
	<path fill="#F9BE2C" d="M171.03,35.449c1.768-0.529,3.215-0.794,4.342-0.794c1.521,0,2.275,0.529,2.264,1.588
		c-0.012,1.521-0.969,3.047-2.872,4.579c0.157,0.428,0.812,1.774,1.96,4.038c-0.583,0.541-1.463,1.334-2.64,2.382l-1.799-4.663
		l-0.017,0.004l-0.021-0.004c-0.269,1.475-0.469,2.837-0.604,4.087l-2.675,0.745c0.022-0.248,0.146-0.997,0.372-2.247L171.03,35.449
		z M173.159,38.119c-0.102,0.383-0.191,0.766-0.271,1.149l-0.237,1.148c0.395-0.203,0.783-0.467,1.166-0.794
		c0.439-0.383,0.732-0.749,0.879-1.098c0.057-0.101,0.084-0.197,0.084-0.287c0-0.248-0.163-0.372-0.49-0.372
		C174.031,37.865,173.654,37.95,173.159,38.119z"/>
</g>
<g>
	<polygon fill="none" points="227.465,122.984 205.842,122.476 205.842,97.291 227.465,97.799 	"/>
	<path fill="#F9BE2C" d="M206.975,97.864c1.56-0.467,2.837-0.701,3.83-0.701c1.342,0,2.008,0.467,1.998,1.401
		c-0.01,1.341-0.855,2.688-2.534,4.04c0.14,0.378,0.716,1.565,1.729,3.563c-0.515,0.477-1.291,1.177-2.329,2.102l-1.587-4.114
		l-0.016,0.003l-0.02-0.003c-0.236,1.302-0.413,2.503-0.531,3.606l-2.359,0.658c0.02-0.219,0.129-0.88,0.327-1.983L206.975,97.864z
		 M208.853,100.219c-0.089,0.338-0.169,0.676-0.239,1.014l-0.208,1.014c0.348-0.179,0.69-0.412,1.028-0.7
		c0.388-0.338,0.646-0.661,0.775-0.969c0.05-0.089,0.074-0.174,0.074-0.253c0-0.218-0.145-0.328-0.432-0.328
		C209.624,99.996,209.29,100.07,208.853,100.219z"/>
</g>
<g>
	<path fill="#99B528" d="M133.481,38.145c0.913-0.771,1.703-1.302,2.371-1.593c0.902-0.393,1.486-0.273,1.753,0.357
		c0.386,0.904,0.213,2.058-0.521,3.458c0.204,0.213,0.939,0.842,2.206,1.889c-0.206,0.471-0.523,1.169-0.951,2.094l-2.271-2.301
		l-0.009,0.007l-0.014,0.003c0.222,0.944,0.456,1.805,0.699,2.581l-1.395,1.133c-0.05-0.152-0.17-0.629-0.359-1.429L133.481,38.145z
		 M135.433,39.178c0.039,0.254,0.085,0.505,0.138,0.753l0.156,0.741c0.182-0.221,0.343-0.479,0.487-0.771
		c0.162-0.341,0.24-0.634,0.237-0.878c0.007-0.075-0.001-0.138-0.024-0.192c-0.063-0.147-0.192-0.178-0.387-0.094
		C135.886,38.803,135.685,38.95,135.433,39.178z"/>
</g>
<g>
	<path fill="#99B528" d="M181.167,78.504c1.173,0.225,2.083,0.504,2.73,0.841c0.872,0.454,1.148,0.982,0.826,1.587
		c-0.461,0.869-1.467,1.459-3.016,1.771c-0.037,0.293-0.064,1.26-0.081,2.902c-0.495,0.137-1.238,0.33-2.227,0.58l0.359-3.214
		l-0.011-0.003l-0.011-0.008c-0.595,0.767-1.116,1.489-1.566,2.166l-1.759-0.37c0.088-0.135,0.383-0.529,0.885-1.179L181.167,78.504
		z M181.592,80.672c-0.172,0.189-0.338,0.383-0.498,0.579l-0.479,0.588c0.288,0.002,0.59-0.034,0.907-0.108
		c0.366-0.088,0.644-0.211,0.832-0.368c0.062-0.042,0.107-0.088,0.135-0.14c0.073-0.142,0.017-0.262-0.171-0.36
		C182.168,80.787,181.926,80.723,181.592,80.672z"/>
</g>
<g>
</g>
<g>
</g>
<g>
</g>
<g>
</g>
<g>
</g>
<g>
</g>
<g>
</g>
<g>
</g>
<g>
</g>
<g>
</g>
<g>
</g>
<g>
</g>
<g>
</g>
<g>
</g>
<g>
</g>
</svg>
