<?xml version="1.0" encoding="utf-8"?>
<!-- Generator: Adobe Illustrator 21.0.0, SVG Export Plug-In . SVG Version: 6.00 Build 0)  -->
<svg version="1.1" id="Layer_1" xmlns="http://www.w3.org/2000/svg" xmlns:xlink="http://www.w3.org/1999/xlink" x="0px" y="0px"
	 width="80px" height="85px" viewBox="0 0 80 85" style="enable-background:new 0 0 80 85;" xml:space="preserve">
<style type="text/css">
	.st0{fill:none;stroke:#40BCD8;stroke-width:1.5;stroke-miterlimit:10;}
	.st1{fill:#39A9DB;}
</style>
<circle class="st0" cx="40.3" cy="41.4" r="37.5"/>
<path class="st1" d="M67,41.3L65,21c-0.2-2.2-2-4-4.3-4.1l-19.6-1.4c-1.3-0.1-2.6,0.4-3.5,1.3L11.2,42.5c-1.8,1.8-1.9,4.7,0,6.5
	l21.6,21.6c1.8,1.8,4.6,1.8,6.4,0L65.6,45C66.6,44.1,67.1,42.7,67,41.3z M51.9,47.9l-3.3,5.6l-6.5-4.4c-0.4-0.3-1,0-1,0.6l0.5,7.8
	h-6.5l0.5-7.8c0-0.5-0.5-0.8-1-0.6l-6.5,4.4L25,47.9l7.2-3.6c0.5-0.2,0.5-0.9,0-1.1L25,39.6l3.3-5.6l6.5,4.4c0.4,0.3,1,0,1-0.6
	l-0.5-7.8h6.5l-0.5,7.8c0,0.5,0.5,0.8,1,0.6l6.5-4.4l3.3,5.6l-8.3,4.2L51.9,47.9z M56.1,29.3c-1.8,0-3.2-1.4-3.2-3.2
	c0-1.8,1.4-3.2,3.2-3.2c1.8,0,3.2,1.4,3.2,3.2S57.9,29.3,56.1,29.3z"/>
</svg>
