<?xml version="1.0" encoding="utf-8"?>
<!-- Generator: Adobe Illustrator 21.0.0, SVG Export Plug-In . SVG Version: 6.00 Build 0)  -->
<svg version="1.1" id="Layer_1" xmlns="http://www.w3.org/2000/svg" xmlns:xlink="http://www.w3.org/1999/xlink" x="0px" y="0px"
	 width="80px" height="85px" viewBox="0 0 80 85" style="enable-background:new 0 0 80 85;" xml:space="preserve">
<style type="text/css">
	.st0{fill:none;stroke:#40BCD8;stroke-width:2;stroke-miterlimit:10;}
	.st1{fill:#39A9DB;}
	.st2{fill:#55DCAA;}
</style>
<circle class="st0" cx="39.3" cy="43.4" r="37.5"/>
<g>
	<g>
		<path class="st1" d="M59.6,39.8c-0.3-12.2-10.4-22-22.7-22c-12.4,0-22.5,10-22.5,22.5c0,12.4,10,22.5,22.5,22.5
			c4.2,0,8.4-1.2,11.9-3.3l5,8.7c0.6,1,2,1,2.6,0l7.9-13.9l0,0c0.8-1.5,1.2-3.2,1.2-4.9C65.6,45.1,63.1,41.5,59.6,39.8z M29.7,22.2
			c-1.6,2.2-2.7,4.9-3.4,7.5c-2.6,0.7-5.3,1.8-7.5,3.4C20.8,28.2,24.7,24.2,29.7,22.2z M25.5,33.1c-0.3,1.8-0.5,3.8-0.6,5.7h-7.2
			C18.9,36,22.6,34.1,25.5,33.1z M24.9,41.8c0.1,2,0.3,3.9,0.6,5.7c-2.9-1-6.7-2.9-7.8-5.7H24.9z M18.8,47.5
			c2.2,1.6,4.9,2.7,7.5,3.4c0.7,2.6,1.8,5.3,3.4,7.5C24.7,56.4,20.8,52.5,18.8,47.5z M35.4,59.5c-2.8-1.1-4.7-4.9-5.7-7.8
			c1.8,0.3,3.8,0.5,5.7,0.6V59.5z M35.4,49.3c-2.3-0.1-4.6-0.4-6.6-0.8c-0.5-2.1-0.7-4.3-0.8-6.6h7.5L35.4,49.3L35.4,49.3z
			 M35.4,38.8h-7.5c0.1-2.3,0.4-4.6,0.8-6.6c2.1-0.5,4.3-0.7,6.6-0.8v7.4H35.4z M35.4,28.4c-2,0.1-3.9,0.3-5.7,0.6
			c1-2.9,2.9-6.7,5.7-7.8V28.4z M55.2,33.2c-2.2-1.6-4.9-2.7-7.5-3.4c-0.8-2.6-1.9-5.3-3.5-7.5C49.2,24.2,53.2,28.2,55.2,33.2z
			 M56.3,38.8h-7.2c-0.1-2-0.3-3.9-0.6-5.7C51.3,34.1,55.1,36,56.3,38.8z M38.4,21.2c2.9,1.1,4.9,4.9,5.9,7.8
			c-1.9-0.3-3.9-0.5-5.9-0.6V21.2z M38.4,31.4c2.4,0.1,4.7,0.4,6.8,0.9c0.5,2.1,0.8,4.3,0.8,6.6h-7.7v-7.5H38.4z M46.1,41.8
			c0,0.8-0.1,1.6-0.2,2.4c-0.7,1.3-1.2,2.8-1.3,4.3c-1.9,0.4-4.1,0.6-6.2,0.7v-7.5L46.1,41.8L46.1,41.8z M38.4,59.5v-7.2
			c2-0.1,4.1-0.3,5.9-0.6C42.9,55.7,40.7,58.6,38.4,59.5z M44.2,58.4c0.8-1,1.4-2.2,2-3.5l1.1,1.9C46.3,57.5,45.3,58,44.2,58.4z
			 M61.7,52.8l-6.6,11.6l-6.4-11.3l0,0c-0.7-1.1-1-2.5-1-3.8c0-4.1,3.4-7.5,7.5-7.5s7.5,3.4,7.5,7.5C62.6,50.5,62.3,51.8,61.7,52.8z
			"/>
	</g>
</g>
<g>
	<g>
		<path class="st2" d="M55.1,44.8c-2.5,0-4.5,2-4.5,4.5s2,4.5,4.5,4.5s4.5-2,4.5-4.5S57.6,44.8,55.1,44.8z M55.1,50.8
			c-0.8,0-1.5-0.7-1.5-1.5s0.7-1.5,1.5-1.5s1.5,0.7,1.5,1.5S55.9,50.8,55.1,50.8z"/>
	</g>
</g>
</svg>
