<?xml version="1.0" encoding="utf-8"?>
<!-- Generator: Adobe Illustrator 16.0.0, SVG Export Plug-In . SVG Version: 6.00 Build 0)  -->
<!DOCTYPE svg PUBLIC "-//W3C//DTD SVG 1.1//EN" "http://www.w3.org/Graphics/SVG/1.1/DTD/svg11.dtd">
<svg version="1.1" id="Layer_1" xmlns="http://www.w3.org/2000/svg" xmlns:xlink="http://www.w3.org/1999/xlink" x="0px" y="0px"
	 width="80px" height="85px" viewBox="0 0 80 85" enable-background="new 0 0 80 85" xml:space="preserve">
<circle fill="#2980B9" cx="40.63" cy="42.122" r="38.991"/>
<g>
	<g>
		<path fill="#FFFFFF" d="M61.948,32.727H51.438v13.56c0,1.974-1.605,3.58-3.58,3.58H31.677v4.54c0,1.13,0.916,2.046,2.045,2.046
			h15.896L56.263,62c0.866,0.723,1.333,0.427,1.041-0.664l-1.298-4.851c-0.003-0.012-0.008-0.022-0.014-0.033h5.956
			c1.128,0,2.044-0.916,2.044-2.046V34.771C63.992,33.642,63.076,32.727,61.948,32.727z"/>
		<path fill="#FFFFFF" d="M19.633,48.33h3.127c-0.003,0.012-0.009,0.021-0.013,0.033l-1.297,4.851
			c-0.185,0.688-0.066,1.061,0.261,1.061c0.193,0,0.458-0.129,0.78-0.396l6.643-5.548h2.543h16.18c1.131,0,2.047-0.916,2.047-2.045
			V32.727V26.65c0-1.128-0.916-2.045-2.047-2.045H19.633c-1.129,0-2.045,0.917-2.045,2.045v19.635
			C17.588,47.414,18.503,48.33,19.633,48.33z"/>
	</g>
</g>
</svg>
