<?xml version="1.0" encoding="utf-8"?>
<!-- Generator: Adobe Illustrator 16.0.0, SVG Export Plug-In . SVG Version: 6.00 Build 0)  -->
<!DOCTYPE svg PUBLIC "-//W3C//DTD SVG 1.1//EN" "http://www.w3.org/Graphics/SVG/1.1/DTD/svg11.dtd">
<svg version="1.1" id="Layer_1" xmlns="http://www.w3.org/2000/svg" xmlns:xlink="http://www.w3.org/1999/xlink" x="0px" y="0px"
	 width="266.997px" height="279.532px" viewBox="0 0 266.997 279.532" enable-background="new 0 0 266.997 279.532"
	 xml:space="preserve">
<path fill="#4D4D4D" d="M266.997,269.504c0,5.538-4.49,10.028-10.028,10.028H10.028C4.49,279.532,0,275.042,0,269.504V10.028
	C0,4.49,4.49,0,10.028,0h246.94c5.538,0,10.028,4.49,10.028,10.028V269.504z"/>
<g>
	<path fill="#FFDD6A" d="M129.26,139.817H37.404c-1.612,0-2.932-1.318-2.932-2.932V42.503c0-1.612,1.319-2.932,2.932-2.932h91.856
		c1.611,0,2.932,1.319,2.932,2.932v94.382C132.191,138.499,130.871,139.817,129.26,139.817z"/>
	<g>
		<defs>
			<path id="SVGID_1_" d="M129.26,139.817H37.404c-1.612,0-2.932-1.318-2.932-2.932V42.503c0-1.612,1.319-2.932,2.932-2.932h91.856
				c1.611,0,2.932,1.319,2.932,2.932v94.382C132.191,138.499,130.871,139.817,129.26,139.817z"/>
		</defs>
		<clipPath id="SVGID_2_">
			<use xlink:href="#SVGID_1_"  overflow="visible"/>
		</clipPath>
		<path clip-path="url(#SVGID_2_)" fill="#CC894C" d="M100.72,69.414l60.526,59.526l-50.662,38.722l-48.767-48.768
			c0,0,3.839-15.472,5.701-15.472s15.814-0.698,15.814-0.698V68.29L100.72,69.414z"/>
	</g>
	<g>
		<path fill="#FFFFFF" d="M99.11,68.205l-17.21-11.204c-1.399-0.908-2.53-0.292-2.524,1.376l0.054,12.597l0.123,28.657
			c-2.312-1.967-5.302-3.155-8.574-3.144c-7.263,0.029-13.125,5.947-13.096,13.219c0.032,7.264,5.944,13.128,13.211,13.1
			c4.229-0.017,7.972-2.039,10.364-5.151c1.716-1.842,2.747-4.205,2.738-6.789c-0.003-0.205-0.026-0.4-0.04-0.6
			c0.012-0.229,0.032-0.451,0.032-0.674c0-0.279-0.023-0.564-0.046-0.84h0.046l-0.149-34.846l12.208,7.78
			c5.773,4.385,8.537,8.86,9.859,12.26c0.166,0.439,0.619,0.713,1.09,0.657c0.469-0.058,0.84-0.423,0.905-0.897l0.525-3.925
			C109.663,81.995,105.38,72.276,99.11,68.205z"/>
	</g>
</g>
<g>
	<path fill="#FEB279" d="M233.98,138.554h-91.855c-1.613,0-2.932-1.319-2.932-2.932V43.767c0-1.612,1.318-2.931,2.932-2.931h91.855
		c1.611,0,2.932,1.319,2.932,2.931v91.855C236.912,137.234,235.592,138.554,233.98,138.554z"/>
	<g>
		<defs>
			<path id="SVGID_3_" d="M233.98,138.554h-91.855c-1.613,0-2.932-1.319-2.932-2.932V43.767c0-1.612,1.318-2.931,2.932-2.931h91.855
				c1.611,0,2.932,1.319,2.932,2.931v91.855C236.912,137.234,235.592,138.554,233.98,138.554z"/>
		</defs>
		<clipPath id="SVGID_4_">
			<use xlink:href="#SVGID_3_"  overflow="visible"/>
		</clipPath>
		<polygon clip-path="url(#SVGID_4_)" fill-rule="evenodd" clip-rule="evenodd" fill="#E2915A" points="151.742,117.024 
			199.141,164.421 264.42,164.421 264.42,102.981 224.361,62.364 		"/>
	</g>
	<g>
		<rect x="151.742" y="62.366" fill-rule="evenodd" clip-rule="evenodd" fill="#CE6359" width="14.465" height="54.659"/>
		<rect x="209.896" y="62.366" fill-rule="evenodd" clip-rule="evenodd" fill="#CE6359" width="14.465" height="54.659"/>
		<path fill-rule="evenodd" clip-rule="evenodd" fill="#2D3F50" d="M166.209,117.024v-5.654h43.684v5.654h14.469v-54.66h-14.469
			v4.735h-43.684v-4.735h-14.467v54.66H166.209L166.209,117.024z M220.832,84.425c0,0.908-0.74,1.649-1.65,1.649
			c-1.391,0-2.785,0-4.176,0c-0.912,0-1.652-0.739-1.652-1.649c0,0,0,0-0.002,0c0-1.1,0-2.2,0-3.301c0-0.907,0.744-1.649,1.65-1.649
			c1.393,0.001,2.787,0,4.18,0c0.912,0,1.65,0.739,1.65,1.649l0,0C220.832,82.225,220.832,83.325,220.832,84.425L220.832,84.425z
			 M220.832,96.872c0,0.91-0.74,1.651-1.65,1.651c-1.391,0-2.785,0-4.176,0c-0.912,0-1.652-0.739-1.652-1.651c0,0,0,0-0.002,0
			c0-1.099,0-2.199,0-3.298c0-0.908,0.744-1.649,1.65-1.649c1.393,0,2.787,0,4.18,0c0.912,0,1.65,0.739,1.65,1.649l0,0
			C220.832,94.673,220.832,95.773,220.832,96.872L220.832,96.872z M220.832,71.976c0,0.907-0.74,1.649-1.65,1.649l-4.18,0.002
			c-0.908-0.002-1.648-0.74-1.648-1.651h-0.002v-3.3c0-0.909,0.744-1.648,1.65-1.648c1.393,0,2.787,0,4.18,0
			c0.91,0,1.65,0.738,1.65,1.648l0,0V71.976L220.832,71.976z M220.832,109.323c0,0.908-0.74,1.647-1.65,1.647l-4.18,0.003
			c-0.908-0.003-1.648-0.74-1.648-1.65h-0.002v-3.299c0-0.909,0.744-1.651,1.65-1.651c1.393,0.003,2.787,0,4.18,0
			c0.91,0,1.65,0.738,1.65,1.651l0,0V109.323L220.832,109.323z M162.68,84.425c0,0.908-0.742,1.649-1.648,1.649
			c-1.395,0-2.789,0-4.178,0c-0.914,0-1.65-0.739-1.65-1.649h-0.002c0-1.1,0-2.2,0-3.301c0-0.907,0.742-1.649,1.65-1.649
			c1.391,0.001,2.783,0,4.178,0c0.91,0,1.648,0.739,1.648,1.649c0.002,0,0.002,0,0.002,0C162.68,82.225,162.68,83.325,162.68,84.425
			L162.68,84.425z M162.68,96.872c0,0.91-0.742,1.651-1.648,1.651c-1.395,0-2.789,0-4.178,0c-0.914,0-1.65-0.739-1.65-1.651h-0.002
			c0-1.099,0-2.199,0-3.298c0-0.908,0.742-1.649,1.65-1.649c1.391,0,2.783,0,4.178,0c0.91,0,1.648,0.739,1.648,1.649
			c0.002,0,0.002,0,0.002,0C162.68,94.673,162.68,95.773,162.68,96.872L162.68,96.872z M162.678,109.323
			c0,0.906-0.74,1.647-1.648,1.647h-4.178c-0.912,0-1.65-0.737-1.65-1.647l0,0v-3.301c0-0.907,0.74-1.649,1.65-1.649
			c1.391,0.003,2.783,0,4.178,0c0.91,0,1.648,0.738,1.648,1.649l0,0V109.323L162.678,109.323z M162.678,71.976
			c0,0.907-0.74,1.649-1.648,1.649l-4.178,0.002c-0.912-0.002-1.65-0.74-1.65-1.651l0,0v-3.3c0-0.909,0.74-1.648,1.65-1.648
			c1.391,0,2.783,0,4.178,0c0.91,0,1.648,0.738,1.648,1.648l0,0V71.976z"/>
		<g>
			<path fill-rule="evenodd" clip-rule="evenodd" fill="#FFFFFF" d="M177.588,79.703c0-1.65,1.211-2.403,2.69-1.674l20.039,9.878
				c1.479,0.729,1.479,1.923,0,2.653l-20.039,9.878c-1.479,0.73-2.69-0.023-2.69-1.673V79.703z"/>
		</g>
	</g>
</g>
<path fill="#6FBEC5" d="M129.058,243.137H37.203c-1.612,0-2.932-1.318-2.932-2.932v-91.854c0-1.611,1.319-2.932,2.932-2.932h91.855
	c1.612,0,2.932,1.32,2.932,2.932v91.854C131.99,241.818,130.67,243.137,129.058,243.137z"/>
<path fill="#00D8EE" d="M129.058,243.137H37.203c-1.612,0-2.932-1.318-2.932-2.932v-91.854c0-1.611,1.319-2.932,2.932-2.932h91.855
	c1.612,0,2.932,1.32,2.932,2.932v91.854C131.99,241.818,130.67,243.137,129.058,243.137z"/>
<g>
	<circle fill="#549196" cx="83.13" cy="194.277" r="1.555"/>
</g>
<path fill-rule="evenodd" clip-rule="evenodd" fill="#00A5AD" d="M76.818,217.207l24.761,26.762l30.411-0.146v-26.756
	l-31.765-37.027c0,0,1.092-9.145-11.203-4.465C76.727,180.255,76.727,180.255,76.818,217.207z"/>
<g>
	<path fill="#FFFFFF" d="M76.66,178.467H63.809v-9.088h36.778v9.088H87.522v38.766H76.66V178.467z"/>
</g>
<g>
	<path fill="#FFFFFF" d="M100.691,210.331c-0.862,1.009-0.389,2.375,0.664,3.431c0.771,0.772,1.498,1.293,2.299,1.71l-1.233,1.824
		c-1.039-0.446-2.092-1.204-3.071-2.186c-2.461-2.468-2.443-5.304-0.169-7.571c1.843-1.84,5.021-2.727,7.542-0.199
		c2.343,2.348,1.405,5.063-0.394,6.857c-0.387,0.387-0.773,0.684-0.966,0.816L100.691,210.331z M104.892,211.449
		c0.55-0.549,1.234-1.705,0.196-2.746c-0.949-0.951-2.196-0.479-2.865,0.07L104.892,211.449z"/>
	<path fill="#FFFFFF" d="M112.685,213.643l-0.492,1.914c-0.165,0.58-0.343,1.143-0.493,1.678l0.03,0.029
		c0.58-0.192,1.129-0.385,1.679-0.547l1.812-0.533l2.447,2.453l-5.851,1.062l-1.388,6.219l-2.551-2.557l0.582-2.033
		c0.149-0.564,0.343-1.113,0.536-1.662l-0.044-0.045c-0.564,0.207-1.114,0.369-1.648,0.547l-1.99,0.622l-2.477-2.482l6.163-1.226
		l1.165-5.967L112.685,213.643z"/>
	<path fill="#FFFFFF" d="M123.457,220.277l-2.081,2.076l1.617,1.62l-1.665,1.661l-1.617-1.62l-2.631,2.625
		c-0.876,0.874-1.07,1.483-0.388,2.167c0.282,0.283,0.534,0.477,0.727,0.609l-1.695,1.721c-0.416-0.179-1.023-0.64-1.661-1.279
		c-0.727-0.728-1.082-1.589-1.066-2.316c0.016-0.847,0.506-1.752,1.533-2.775l2.973-2.966l-0.964-0.966l1.665-1.661l0.964,0.966
		l1.575-1.571L123.457,220.277z"/>
</g>
<path fill="#25E1AB" d="M234.766,242.966H142.91c-1.613,0-2.932-1.32-2.932-2.932v-91.855c0-1.613,1.318-2.932,2.932-2.932h91.855
	c1.611,0,2.932,1.318,2.932,2.932v91.855C237.697,241.646,236.377,242.966,234.766,242.966z"/>
<polyline fill="#22B282" points="215.801,242.964 189.793,218.085 197.178,162.915 238.039,201.778 238.039,242.964 "/>
<path fill="none" d="M234.766,242.966H142.91c-1.613,0-2.932-1.32-2.932-2.932v-91.855c0-1.613,1.318-2.932,2.932-2.932h91.855
	c1.611,0,2.932,1.318,2.932,2.932v91.855C237.697,241.646,236.377,242.966,234.766,242.966z"/>
<g>
	<g>
		<g>
			<path fill="#939598" d="M189.963,162.892c-12.67,0-22.936,10.266-22.936,22.936c0,12.672,22.936,32.223,22.936,32.223
				s22.934-19.551,22.934-32.223C212.896,173.157,202.631,162.892,189.963,162.892z M189.963,197.212
				c-6.287,0-11.387-5.098-11.387-11.385c0-6.286,5.1-11.383,11.387-11.383c6.289,0,11.383,5.097,11.383,11.383
				C201.346,192.114,196.252,197.212,189.963,197.212z"/>
			<path fill="#58595B" d="M189.963,162.892c-0.145,0-0.285,0.02-0.428,0.021v10.446c0.143-0.005,0.283-0.022,0.428-0.022
				c6.902,0,12.492,5.594,12.492,12.49c0,6.9-5.59,12.493-12.492,12.493c-0.145,0-0.285-0.017-0.428-0.022v19.379
				c0.266,0.236,0.428,0.373,0.428,0.373s22.934-19.551,22.934-32.223C212.896,173.157,202.631,162.892,189.963,162.892z"/>
			<circle fill="#D1ECFB" cx="189.963" cy="185.828" r="11.384"/>
			<path fill="#D1D3D4" d="M189.963,174.444c6.289,0,11.383,5.097,11.383,11.383c0,6.287-5.094,11.385-11.383,11.385"/>
		</g>
	</g>
</g>
<g>
</g>
<g>
</g>
<g>
</g>
<g>
</g>
<g>
</g>
<g>
</g>
<g>
</g>
<g>
</g>
<g>
</g>
<g>
</g>
<g>
</g>
<g>
</g>
<g>
</g>
<g>
</g>
<g>
</g>
</svg>
