<?xml version="1.0" encoding="utf-8"?>
<!-- Generator: Adobe Illustrator 21.0.0, SVG Export Plug-In . SVG Version: 6.00 Build 0)  -->
<svg version="1.1" id="Layer_1" xmlns="http://www.w3.org/2000/svg" xmlns:xlink="http://www.w3.org/1999/xlink" x="0px" y="0px"
	 width="80px" height="85px" viewBox="0 0 80 85" style="enable-background:new 0 0 80 85;" xml:space="preserve">
<style type="text/css">
	.st0{fill:#FFD71C;}
	.st1{fill:#FFE54E;}
	.st2{fill:#39A9DB;}
	.st3{opacity:0.2;fill:#F9D8D4;enable-background:new    ;}
	.st4{opacity:0.1;fill:#EDB1AE;enable-background:new    ;}
	.st5{opacity:0.2;fill:#39A9DB;enable-background:new    ;}
	.st6{fill:#00A89D;}
	.st7{fill:#EDB1AE;}
	.st8{fill:#F9DCDC;}
	.st9{fill:#1A1815;}
	.st10{fill:#B7D02D;}
	.st11{fill:#99B528;}
	.st12{fill:#FFEFEE;}
	.st13{fill:#55DCAA;}
	.st14{fill:none;stroke:#40BCD8;stroke-width:1.5;stroke-miterlimit:10;}
</style>
<g id="Design">
	<g>
		<circle class="st0" cx="24" cy="27.5" r="2.4"/>
		<circle class="st1" cx="24" cy="27.5" r="1.8"/>
	</g>
	<g>
		<circle class="st0" cx="54.6" cy="29.8" r="2.4"/>
		<circle class="st1" cx="54.6" cy="29.8" r="1.8"/>
	</g>
	<path class="st2" d="M30.9,41.8c-1.9,2.4-5.4,2.9-7.9,1c-2.4-1.9-1-7.9-1-7.9s5.4-2.9,7.9-1C32.4,35.8,32.9,39.3,30.9,41.8z"/>
	<path class="st2" d="M49.6,41.8c1.9,2.4,5.4,2.9,7.9,1c2.4-1.9,1-7.9,1-7.9s-5.4-2.9-7.9-1C48.2,35.8,47.7,39.3,49.6,41.8z"/>
	<path class="st3" d="M51.6,34.9c1.6-1.3,4.1-1,5.9-0.4c-1.6-0.7-5.1-2-7-0.5c-2.1,1.6-2.7,4.5-1.6,6.8
		C48.9,38.6,49.8,36.4,51.6,34.9z"/>
	<path class="st3" d="M28.7,34.9c-1.6-1.3-4.1-1-5.9-0.4c1.6-0.7,5.1-2,7-0.5c2.1,1.6,2.7,4.5,1.6,6.8
		C31.5,38.6,30.5,36.4,28.7,34.9z"/>
	<g>
		<circle class="st4" cx="52.1" cy="40.9" r="4.5"/>
		<circle class="st4" cx="28.6" cy="40.9" r="4.5"/>
	</g>
	<g>
		<path class="st2" d="M45.3,69.8c0,2.7,1.4,5,4.9,5c3.4,0,4.8-1.2,4.3-5c-0.4-2.7,0.8-5-4.3-5C47.5,64.8,45.3,67.1,45.3,69.8z"/>
		<path class="st2" d="M35.8,69.8c0,2.7-1.4,5-4.9,5c-3.4,0-4.8-1.2-4.3-5c0.4-2.7-0.8-5,4.3-5C33.6,64.8,35.8,67.1,35.8,69.8z"/>
		<path class="st5" d="M29.4,69.8c0.4-2.3-0.5-4.3,2.6-4.8c-0.3-0.1-0.7-0.1-1.1-0.1c-5,0-3.8,2.2-4.3,5c-0.6,3.7,0.9,5,4.3,5
			c0.5,0,0.9,0,1.3-0.1C29.8,74.3,28.9,72.9,29.4,69.8z"/>
		<path class="st5" d="M51.7,69.8c-0.4-2.3,0.5-4.3-2.6-4.8c0.3-0.1,0.7-0.1,1.1-0.1c5,0,3.8,2.2,4.3,5c0.6,3.7-0.9,5-4.3,5
			c-0.5,0-0.9,0-1.3-0.1C51.3,74.3,52.2,72.9,51.7,69.8z"/>
		<path class="st6" d="M26,65.8"/>
	</g>
	<path class="st7" d="M41.6,33.3v3.6c0,0.6-0.4,1.2-1,1.2c-0.6,0-1-0.5-1-1.2v-3.6c-10.3,0.6-18.4,9.1-18.4,19.5
		c0,10.8,8.7,19.5,19.4,19.5s19.5-8.7,19.5-19.5C60.1,42.3,51.9,33.8,41.6,33.3z"/>
	<path class="st2" d="M41.6,33.3v3.6c0,0.6-0.4,1.2-1,1.2c-0.6,0-1-0.5-1-1.2v-3.6c-10.3,0.6-18.4,9.1-18.4,19.4
		c0,10.8,8.7,19.5,19.4,19.5s19.5-8.7,19.5-19.5C60.1,42.3,51.9,33.8,41.6,33.3z"/>
	<circle class="st3" cx="40.6" cy="49.8" r="16.5"/>
	<path class="st8" d="M40.6,38.5c0.7,0,1-0.6,1-1.3v-4c-0.3,0-0.6,0-0.9,0c-0.4,0-0.9,0-1.1,0v4C39.5,38,39.9,38.5,40.6,38.5z"/>
	<path class="st2" d="M40.6,38c0.6,0,1-0.5,1-1.2v-3.6c-0.3,0-0.6,0-0.9,0c-0.4,0-0.9,0-1.1,0v3.6C39.5,37.5,39.9,38,40.6,38z"/>
	<g>
		<circle class="st9" cx="34" cy="46.6" r="1.2"/>
		<circle class="st9" cx="47.2" cy="46.6" r="1.2"/>
	</g>
	<g>
		<path class="st10" d="M42.1,15.3c-4.3-1.3-7.3,3.6-11.6,2.3c-0.3-1.7-0.7-3.5-1-5.2c4.3,1.3,7.3-3.6,11.6-2.3
			C41.4,11.8,41.7,13.5,42.1,15.3z"/>
		<path class="st11" d="M41.1,14.3c-3.6-0.5-6.4,3.1-9.9,2.6c-0.2-1.2-0.5-2.4-0.7-3.7c3.6,0.5,6.4-3.1,9.9-2.6
			C40.6,11.9,40.9,13.1,41.1,14.3z"/>
		<path class="st10" d="M37.1,13.2c0.2,0.8-0.3,1.7-1.1,2.1c-0.8,0.4-1.5,0-1.7-0.8c-0.2-0.8,0.3-1.7,1.1-2.1
			C36.2,12,36.9,12.4,37.1,13.2z"/>
	</g>
	<g>
		<path class="st10" d="M36,32.6c-2.1-2.1-5.4-0.1-7.6-2.1c0.3-1.1,0.6-2.3,1-3.4c2.1,2.1,5.4,0.1,7.6,2.1
			C36.7,30.3,36.3,31.5,36,32.6z"/>
		<path class="st11" d="M35.7,31.7c-2-1.4-4.7-0.1-6.7-1.4c0.2-0.8,0.5-1.6,0.7-2.4c2,1.4,4.7,0.1,6.7,1.4
			C36.2,30.2,36,31,35.7,31.7z"/>
		<path class="st10" d="M33.7,29.9c-0.1,0.5-0.7,0.9-1.3,0.9c-0.6,0-0.9-0.5-0.7-1c0.1-0.5,0.7-0.9,1.3-0.9
			C33.5,28.9,33.8,29.3,33.7,29.9z"/>
	</g>
	<g>
		<path class="st10" d="M50.7,30c-2.1-3.9-7.7-2.6-9.9-6.5c1-1.5,1.9-2.9,2.9-4.4c2.1,3.9,7.7,2.6,9.9,6.5
			C52.6,27.1,51.7,28.5,50.7,30z"/>
		<path class="st11" d="M50.7,28.6c-2.2-2.9-6.7-2.2-8.9-5.1c0.7-1,1.4-2.1,2.1-3.1c2.2,2.9,6.7,2.2,8.9,5.1
			C52,26.6,51.3,27.6,50.7,28.6z"/>
		<path class="st10" d="M48.6,25c-0.4,0.7-1.4,1-2.3,0.7c-0.8-0.3-1.1-1.1-0.6-1.7c0.4-0.7,1.4-1,2.3-0.7C48.8,23.5,49,24.3,48.6,25
			z"/>
	</g>
	<g>
		<circle class="st0" cx="35.9" cy="22" r="4.3"/>
		<circle class="st1" cx="35.9" cy="22" r="3.1"/>
	</g>
	<g>
		<circle class="st0" cx="45.4" cy="13.9" r="2.9"/>
		<circle class="st1" cx="45.4" cy="13.9" r="2.1"/>
	</g>
	<g>
		<path class="st0" d="M41.3,33.5c0,0.4-0.3,0.8-0.8,0.8l0,0c-0.4,0-0.8-0.3-0.8-0.8v-4.1c0-0.4,0.3-0.8,0.8-0.8l0,0
			c0.4,0,0.8,0.3,0.8,0.8V33.5z"/>
		<path class="st1" d="M41.1,33.1c0,0.3-0.3,0.6-0.6,0.6h-0.1c-0.3,0-0.6-0.3-0.6-0.6v-3.7c0-0.3,0.3-0.6,0.6-0.6h0.1
			c0.3,0,0.6,0.3,0.6,0.6V33.1z"/>
	</g>
	<ellipse class="st12" cx="40.5" cy="55.4" rx="7.6" ry="5.8"/>
	<ellipse class="st13" cx="40.5" cy="55.5" rx="7.6" ry="5.8"/>
	<g>
		<circle class="st6" cx="37.4" cy="55.3" r="1.7"/>
		<circle class="st6" cx="43.7" cy="55.3" r="1.7"/>
	</g>
</g>
<circle class="st14" cx="40.3" cy="42.4" r="37.5"/>
</svg>
