<?xml version="1.0" encoding="utf-8"?>
<!-- Generator: Adobe Illustrator 21.0.0, SVG Export Plug-In . SVG Version: 6.00 Build 0)  -->
<svg version="1.1" id="Layer_1" xmlns="http://www.w3.org/2000/svg" xmlns:xlink="http://www.w3.org/1999/xlink" x="0px" y="0px"
	 width="80px" height="85px" viewBox="0 0 80 85" style="enable-background:new 0 0 80 85;" xml:space="preserve">
<style type="text/css">
	.st0{fill:#39A9DB;}
	.st1{fill:#55DCAA;}
	.st2{fill:#FFFFFF;}
	.st3{fill:#549196;}
	.st4{fill:#D1ECFB;}
	.st5{fill:#D1D3D4;}
	.st6{fill:none;stroke:#40BCD8;stroke-width:1.5;stroke-miterlimit:10;}
</style>
<g>
	<g>
		<path class="st0" d="M64.1,48.2l-8.4-5.5c-0.7-0.4-1.2-0.1-1.2,0.7l0,6.1l0.1,13.9c-1.1-1-2.6-1.5-4.2-1.5c-3.5,0-6.4,2.9-6.4,6.4
			c0,3.5,2.9,6.4,6.4,6.4c2.1,0,3.9-1,5-2.5c0.8-0.9,1.3-2,1.3-3.3c0-0.1,0-0.2,0-0.3c0-0.1,0-0.2,0-0.3c0-0.1,0-0.3,0-0.4h0
			l-0.1-17l5.9,3.8c2.8,2.1,4.2,4.3,4.8,6c0.1,0.2,0.3,0.3,0.5,0.3s0.4-0.2,0.4-0.4l0.3-1.9C69.2,54.9,67.1,50.2,64.1,48.2z"/>
	</g>
</g>
<g>
	<g>
		<rect x="40.4" y="21.7" class="st1" width="5.3" height="20"/>
		<rect x="61.7" y="21.7" class="st1" width="5.3" height="20"/>
		<path class="st0" d="M45.7,41.7v-2.1h16v2.1H67v-20h-5.3v1.7h-16v-1.7h-5.3v20H45.7L45.7,41.7z M65.7,29.8c0,0.3-0.3,0.6-0.6,0.6
			c-0.5,0-1,0-1.5,0c-0.3,0-0.6-0.3-0.6-0.6l0,0c0-0.4,0-0.8,0-1.2c0-0.3,0.3-0.6,0.6-0.6c0.5,0,1,0,1.5,0c0.3,0,0.6,0.3,0.6,0.6
			l0,0C65.7,29,65.7,29.4,65.7,29.8L65.7,29.8z M65.7,34.3c0,0.3-0.3,0.6-0.6,0.6c-0.5,0-1,0-1.5,0c-0.3,0-0.6-0.3-0.6-0.6l0,0
			c0-0.4,0-0.8,0-1.2c0-0.3,0.3-0.6,0.6-0.6c0.5,0,1,0,1.5,0c0.3,0,0.6,0.3,0.6,0.6l0,0C65.7,33.5,65.7,33.9,65.7,34.3L65.7,34.3z
			 M65.7,25.2c0,0.3-0.3,0.6-0.6,0.6l-1.5,0c-0.3,0-0.6-0.3-0.6-0.6l0,0V24c0-0.3,0.3-0.6,0.6-0.6c0.5,0,1,0,1.5,0
			c0.3,0,0.6,0.3,0.6,0.6l0,0V25.2L65.7,25.2z M65.7,38.9c0,0.3-0.3,0.6-0.6,0.6l-1.5,0c-0.3,0-0.6-0.3-0.6-0.6l0,0v-1.2
			c0-0.3,0.3-0.6,0.6-0.6c0.5,0,1,0,1.5,0c0.3,0,0.6,0.3,0.6,0.6l0,0V38.9L65.7,38.9z M44.4,29.8c0,0.3-0.3,0.6-0.6,0.6
			c-0.5,0-1,0-1.5,0c-0.3,0-0.6-0.3-0.6-0.6l0,0c0-0.4,0-0.8,0-1.2c0-0.3,0.3-0.6,0.6-0.6c0.5,0,1,0,1.5,0c0.3,0,0.6,0.3,0.6,0.6
			l0,0C44.4,29,44.4,29.4,44.4,29.8L44.4,29.8z M44.4,34.3c0,0.3-0.3,0.6-0.6,0.6c-0.5,0-1,0-1.5,0c-0.3,0-0.6-0.3-0.6-0.6l0,0
			c0-0.4,0-0.8,0-1.2c0-0.3,0.3-0.6,0.6-0.6c0.5,0,1,0,1.5,0c0.3,0,0.6,0.3,0.6,0.6l0,0C44.4,33.5,44.4,33.9,44.4,34.3L44.4,34.3z
			 M44.4,38.9c0,0.3-0.3,0.6-0.6,0.6h-1.5c-0.3,0-0.6-0.3-0.6-0.6l0,0v-1.2c0-0.3,0.3-0.6,0.6-0.6c0.5,0,1,0,1.5,0
			c0.3,0,0.6,0.3,0.6,0.6l0,0V38.9L44.4,38.9z M44.4,25.2c0,0.3-0.3,0.6-0.6,0.6l-1.5,0c-0.3,0-0.6-0.3-0.6-0.6l0,0V24
			c0-0.3,0.3-0.6,0.6-0.6c0.5,0,1,0,1.5,0c0.3,0,0.6,0.3,0.6,0.6l0,0V25.2z"/>
		<g>
			<path class="st2" d="M49.9,28c0-0.6,0.4-0.9,1-0.6l7.3,3.6c0.5,0.3,0.5,0.7,0,1l-7.3,3.6c-0.5,0.3-1,0-1-0.6V28z"/>
		</g>
	</g>
</g>
<g>
	<circle class="st3" cx="23.1" cy="59.9" r="0.5"/>
</g>
<path class="st1" d="M20.9,67.8l8.5,9.2l10.4-0.1v-9.2L29,55c0,0,0.4-3.1-3.8-1.5C20.9,55.1,20.9,55.1,20.9,67.8z"/>
<g>
	<path class="st0" d="M20.9,54.5h-4.4v-3.1h12.6v3.1h-4.5v13.3h-3.7V54.5z"/>
</g>
<g>
	<path class="st2" d="M29.1,65.4c-0.3,0.3-0.1,0.8,0.2,1.2c0.3,0.3,0.5,0.4,0.8,0.6l-0.4,0.6c-0.4-0.2-0.7-0.4-1.1-0.8
		c-0.8-0.8-0.8-1.8-0.1-2.6c0.6-0.6,1.7-0.9,2.6-0.1c0.8,0.8,0.5,1.7-0.1,2.4c-0.1,0.1-0.3,0.2-0.3,0.3L29.1,65.4z M30.6,65.8
		c0.2-0.2,0.4-0.6,0.1-0.9c-0.3-0.3-0.8-0.2-1,0L30.6,65.8z"/>
	<path class="st2" d="M33.3,66.6l-0.2,0.7c-0.1,0.2-0.1,0.4-0.2,0.6l0,0c0.2-0.1,0.4-0.1,0.6-0.2l0.6-0.2l0.8,0.8l-2,0.4l-0.5,2.1
		l-0.9-0.9l0.2-0.7c0.1-0.2,0.1-0.4,0.2-0.6l0,0c-0.2,0.1-0.4,0.1-0.6,0.2L30.7,69l-0.9-0.9l2.1-0.4l0.4-2L33.3,66.6z"/>
	<path class="st2" d="M37,68.9l-0.7,0.7l0.6,0.6l-0.6,0.6l-0.6-0.6L34.8,71c-0.3,0.3-0.4,0.5-0.1,0.7c0.1,0.1,0.2,0.2,0.3,0.2
		l-0.6,0.6c-0.1-0.1-0.4-0.2-0.6-0.4c-0.3-0.3-0.4-0.5-0.4-0.8c0-0.3,0.2-0.6,0.5-1l1-1L34.6,69l0.6-0.6l0.3,0.3l0.5-0.5L37,68.9z"
		/>
</g>
<g>
	<g>
		<g>
			<path class="st1" d="M23.4,15.6C16.6,15.6,11,21.1,11,28c0,6.9,12.4,17.4,12.4,17.4S35.8,34.8,35.8,28S30.3,15.6,23.4,15.6z
				 M23.4,34.1c-3.4,0-6.2-2.8-6.2-6.2c0-3.4,2.8-6.2,6.2-6.2c3.4,0,6.2,2.8,6.2,6.2C29.6,31.4,26.8,34.1,23.4,34.1z"/>
			<path class="st0" d="M23,15.6C23,15.6,23,15.6,23,15.6l0,5.7c0.1,0,0.2,0,0.2,0c3.7,0,6.8,3,6.8,6.8c0,3.7-3,6.8-6.8,6.8
				c-0.1,0-0.2,0-0.2,0v10.5c0.1,0.1,0.2,0.2,0.2,0.2S35.6,34.8,35.6,28C35.6,21,30,15.4,23,15.6z"/>
			<circle class="st4" cx="23.4" cy="28" r="6.2"/>
			<path class="st5" d="M23.4,21.8c3.4,0,6.2,2.8,6.2,6.2c0,3.4-2.8,6.2-6.2,6.2"/>
		</g>
	</g>
</g>
<circle class="st6" cx="39.3" cy="43.4" r="37.5"/>
</svg>
