<?xml version="1.0" encoding="utf-8"?>
<!-- Generator: Adobe Illustrator 16.0.0, SVG Export Plug-In . SVG Version: 6.00 Build 0)  -->
<!DOCTYPE svg PUBLIC "-//W3C//DTD SVG 1.1//EN" "http://www.w3.org/Graphics/SVG/1.1/DTD/svg11.dtd">
<svg version="1.1" id="Layer_1" xmlns="http://www.w3.org/2000/svg" xmlns:xlink="http://www.w3.org/1999/xlink" x="0px" y="0px"
	 width="80px" height="85px" viewBox="0 0 80 85" enable-background="new 0 0 80 85" xml:space="preserve">
<circle fill="#FFCC00" cx="40.085" cy="41.093" r="39.7"/>
<g>
	<g>
		<path fill="#FFFFFF" d="M39.843,69.254c-15.509,0-28.126-12.617-28.126-28.126c0-15.507,12.617-28.125,28.126-28.125
			c15.51,0,28.128,12.618,28.128,28.125C67.971,56.637,55.353,69.254,39.843,69.254z M39.843,14.577
			c-14.64,0-26.551,11.912-26.551,26.551c0,14.642,11.911,26.552,26.551,26.552c14.641,0,26.553-11.91,26.553-26.552
			C66.396,26.489,54.483,14.577,39.843,14.577z"/>
	</g>
	<g>
		<g>
			<path fill="#FFFFFF" d="M75.504,33.634c-2.478-2.908-4.753-8.404-5.057-12.212l-0.231-2.893
				c-0.304-3.807-3.667-7.173-7.478-7.476l-2.892-0.231c-3.807-0.304-9.302-2.579-12.21-5.058l-2.208-1.882
				c-2.909-2.478-7.667-2.478-10.576,0l-2.208,1.882c-2.908,2.479-8.402,4.754-12.211,5.058l-2.892,0.231
				c-3.809,0.303-7.173,3.669-7.478,7.476l-0.23,2.893c-0.304,3.808-2.581,9.304-5.058,12.212l-1.882,2.208
				c-2.479,2.909-2.479,7.665,0,10.574l1.882,2.208c2.477,2.909,4.754,8.402,5.058,12.21l0.23,2.893
				c0.304,3.811,3.668,7.174,7.478,7.479l2.892,0.229c3.809,0.305,9.304,2.581,12.211,5.058l2.208,1.884
				c2.909,2.476,7.667,2.476,10.576,0l2.208-1.884c2.908-2.477,8.403-4.753,12.21-5.058l2.892-0.229
				c3.811-0.306,7.174-3.669,7.478-7.479l0.231-2.893c0.304-3.808,2.579-9.301,5.057-12.21l1.882-2.208
				c2.48-2.909,2.48-7.665,0-10.574L75.504,33.634z M40.14,73.095c-17.654,0-31.967-14.312-31.967-31.967S22.486,9.162,40.14,9.162
				c17.654,0,31.966,14.312,31.966,31.966S57.794,73.095,40.14,73.095z"/>
		</g>
	</g>
	<g>
		<g>
			<g>
				<g>
					<path fill="#FFFFFF" d="M23.76,40.943c0.074,0.057,0.233,0.108,0.478,0.154s0.465,0.069,0.659,0.069
						c0.347,0.001,0.634-0.066,0.861-0.204s0.409-0.314,0.545-0.533c0.137-0.219,0.273-0.493,0.408-0.825l-0.896-0.003l-2.633-6.715
						l-0.604-0.168l0.003-1.02l4.564,0.011l-0.003,1.02l-0.93,0.165l1.06,3.582l0.303,1.125l0.225-1.123l1.015-3.584l-0.812-0.162
						l0.003-1.02l3.386,0.008l-0.003,1.02l-0.652,0.156c-0.261,0.779-0.717,2.078-1.369,3.896c-0.652,1.818-1.002,2.788-1.048,2.907
						c-0.279,0.765-0.569,1.39-0.868,1.875c-0.3,0.485-0.65,0.853-1.051,1.102c-0.401,0.248-0.874,0.372-1.419,0.371
						c-0.227-0.001-0.46-0.017-0.701-0.047c-0.24-0.031-0.416-0.071-0.527-0.122L23.76,40.943z"/>
					<path fill="#FFFFFF" d="M37.618,32.164c0.589,0.292,1.048,0.727,1.377,1.305c0.33,0.579,0.493,1.289,0.491,2.129
						c-0.002,0.934-0.187,1.702-0.554,2.303c-0.367,0.601-0.862,1.041-1.484,1.318c-0.623,0.277-1.327,0.415-2.113,0.413
						c-0.772-0.002-1.453-0.148-2.042-0.439c-0.589-0.292-1.049-0.728-1.381-1.309c-0.332-0.581-0.496-1.289-0.494-2.126
						c0.002-0.898,0.188-1.649,0.557-2.253c0.37-0.603,0.867-1.051,1.491-1.344c0.625-0.293,1.327-0.438,2.104-0.437
						C36.346,31.726,37.029,31.873,37.618,32.164z M36.423,34.06c-0.068-0.429-0.182-0.744-0.34-0.945
						c-0.16-0.2-0.374-0.301-0.641-0.302c-0.356-0.001-0.625,0.219-0.803,0.658c-0.179,0.44-0.27,1.143-0.272,2.11
						c-0.001,0.706,0.036,1.275,0.113,1.708c0.078,0.434,0.199,0.751,0.366,0.952c0.166,0.201,0.383,0.302,0.651,0.303
						c0.352,0,0.61-0.216,0.775-0.652c0.166-0.435,0.249-1.14,0.251-2.116C36.525,35.062,36.492,34.49,36.423,34.06z"/>
					<path fill="#FFFFFF" d="M45.743,38.502c-0.125,0.197-0.31,0.384-0.552,0.56c-0.244,0.176-0.521,0.319-0.83,0.428
						c-0.311,0.109-0.619,0.164-0.923,0.163c-0.644-0.002-1.156-0.099-1.54-0.29c-0.383-0.191-0.663-0.496-0.837-0.913
						s-0.261-0.979-0.26-1.682l0.009-3.752l-0.61-0.169l0.003-1.104l3.011,0.008h0.021l0.318,0.116l-0.012,5.047
						c-0.001,0.345,0.028,0.615,0.088,0.811c0.059,0.195,0.151,0.333,0.272,0.414c0.123,0.082,0.286,0.122,0.489,0.123
						c0.254,0,0.461-0.038,0.621-0.116c0.159-0.078,0.297-0.171,0.414-0.278l0.012-4.839L44.62,32.83l0.003-1.077l3.157,0.008h0.041
						l0.361,0.117l-0.017,6.553l0.7,0.001l-0.002,1.004c-0.314,0.062-0.636,0.115-0.964,0.16c-0.33,0.043-0.692,0.064-1.091,0.063
						c-0.712-0.001-1.067-0.313-1.065-0.937V38.502z"/>
					<path fill="#FFFFFF" d="M50.426,38.525l0.013-4.871l-0.756-0.272l0.003-1.276l2.561-0.334h0.035l0.457,0.328v0.389
						l-0.053,1.213l0.056,0c0.061-0.264,0.206-0.546,0.437-0.849c0.229-0.302,0.52-0.558,0.872-0.768
						c0.352-0.209,0.731-0.314,1.138-0.313c0.139,0,0.263,0.012,0.371,0.036c0.109,0.024,0.191,0.054,0.247,0.091l-0.007,2.923
						c-0.181-0.146-0.369-0.261-0.564-0.345c-0.197-0.083-0.457-0.125-0.781-0.126c-0.277,0-0.531,0.031-0.763,0.095
						c-0.232,0.063-0.403,0.141-0.515,0.231l-0.01,3.848l1.45,0.149l-0.003,0.999l-4.96-0.012l0.003-1.005L50.426,38.525z"/>
				</g>
			</g>
			<g>
				<g>
					<path fill="#FFFFFF" d="M21.552,50.477l0.018-7.131l-0.931-0.183l0.002-1.096l2.191,0.005c0.306,0.001,0.699,0.002,1.177,0.003
						c0.357,0.001,0.669,0.002,0.938,0.003c1.003,0.002,1.78,0.088,2.332,0.256s0.932,0.405,1.141,0.711
						c0.209,0.307,0.314,0.695,0.312,1.168c-0.001,0.432-0.101,0.811-0.298,1.138c-0.198,0.328-0.464,0.587-0.799,0.777
						c-0.333,0.19-0.703,0.308-1.105,0.352c0.575,0.002,1.076,0.086,1.503,0.252c0.428,0.168,0.759,0.415,0.993,0.743
						s0.351,0.731,0.35,1.21c-0.001,0.612-0.134,1.139-0.397,1.576c-0.264,0.438-0.711,0.782-1.343,1.032
						c-0.633,0.251-1.483,0.375-2.553,0.372c-0.458-0.001-0.888-0.002-1.291-0.003c-0.071,0-0.198-0.001-0.381-0.001
						c-0.183-0.001-0.366-0.001-0.551-0.002l-2.248-0.005l0.002-1.032L21.552,50.477z M24.485,50.657
						c0.168,0.021,0.338,0.031,0.51,0.032c0.524,0.001,0.904-0.162,1.141-0.489c0.235-0.327,0.354-0.795,0.356-1.404
						c0.001-0.571-0.115-0.976-0.347-1.212c-0.232-0.236-0.594-0.355-1.085-0.357c-0.311,0-0.619-0.001-0.925-0.002l-0.008,3.351
						C24.197,50.608,24.317,50.636,24.485,50.657z M24.987,46.138c0.416,0.001,0.712-0.148,0.892-0.448
						c0.178-0.301,0.27-0.727,0.271-1.279c0.001-0.488-0.101-0.846-0.306-1.072c-0.206-0.227-0.523-0.34-0.956-0.342
						c-0.075,0-0.204,0-0.384,0c-0.181-0.001-0.298,0.005-0.353,0.018l-0.007,3.093C24.294,46.127,24.576,46.137,24.987,46.138z"/>
					<path fill="#FFFFFF" d="M30.912,50.642l0.011-4.42l-0.686-0.247l0.002-1.158l2.324-0.303h0.031l0.415,0.297l0,0.353
						l-0.048,1.102h0.051c0.055-0.239,0.187-0.495,0.396-0.77s0.472-0.507,0.792-0.697c0.318-0.19,0.664-0.285,1.033-0.284
						c0.126,0,0.238,0.012,0.337,0.033c0.099,0.021,0.173,0.048,0.223,0.082l-0.006,2.652c-0.164-0.133-0.334-0.236-0.513-0.312
						c-0.178-0.076-0.414-0.114-0.708-0.115c-0.252,0-0.482,0.028-0.692,0.086c-0.21,0.058-0.366,0.128-0.466,0.21l-0.009,3.492
						l1.315,0.135l-0.002,0.906l-4.501-0.012l0.002-0.912L30.912,50.642z"/>
					<path fill="#FFFFFF" d="M40.407,46.926c0-0.205-0.027-0.364-0.084-0.479c-0.056-0.115-0.167-0.202-0.332-0.261
						c-0.166-0.059-0.415-0.088-0.746-0.089c-0.441-0.001-0.829,0.033-1.166,0.104c-0.336,0.07-0.676,0.158-1.02,0.264h-0.006
						l-0.496-0.946c0.161-0.122,0.4-0.26,0.719-0.414c0.32-0.154,0.708-0.29,1.166-0.406c0.458-0.116,0.94-0.174,1.448-0.173
						c0.727,0.002,1.293,0.09,1.7,0.264c0.406,0.175,0.695,0.445,0.866,0.813c0.171,0.369,0.255,0.865,0.254,1.49l-0.009,3.496
						l0.63,0.002l-0.002,0.934c-0.194,0.037-0.491,0.076-0.891,0.118c-0.401,0.043-0.74,0.063-1.017,0.062
						c-0.256,0-0.448-0.024-0.576-0.072s-0.214-0.125-0.26-0.229c-0.046-0.105-0.069-0.258-0.068-0.456l0-0.235
						c-0.203,0.273-0.478,0.506-0.827,0.698c-0.348,0.193-0.762,0.289-1.241,0.288c-0.402-0.001-0.771-0.092-1.104-0.271
						c-0.333-0.18-0.598-0.438-0.794-0.776c-0.196-0.337-0.294-0.733-0.293-1.189c0.002-0.762,0.349-1.351,1.042-1.767
						c0.693-0.415,1.729-0.621,3.105-0.618L40.407,46.926z M40.404,48.021c-0.541-0.002-0.934,0.108-1.177,0.331
						c-0.244,0.222-0.367,0.498-0.368,0.83c0,0.349,0.071,0.63,0.215,0.845c0.145,0.214,0.343,0.321,0.594,0.322
						c0.122,0,0.252-0.032,0.391-0.099c0.139-0.065,0.252-0.147,0.34-0.246L40.404,48.021z"/>
					<path fill="#FFFFFF" d="M44.622,50.658l0.011-4.409l-0.685-0.239l0.003-1.19l2.6-0.309h0.031l0.377,0.304l-0.001,0.421
						l-0.014,0.293c0.295-0.284,0.664-0.52,1.106-0.704c0.444-0.185,0.926-0.276,1.446-0.275c0.499,0.001,0.899,0.09,1.201,0.263
						c0.302,0.175,0.523,0.458,0.665,0.852c0.142,0.395,0.212,0.928,0.21,1.6l-0.008,3.406l0.629,0.118l-0.002,0.938l-3.727-0.009
						l0.002-0.927l0.536-0.127l0.008-3.402c0.001-0.359-0.022-0.636-0.07-0.83c-0.048-0.193-0.127-0.332-0.238-0.415
						c-0.111-0.082-0.269-0.124-0.475-0.124c-0.349-0.001-0.697,0.163-1.047,0.492l-0.01,4.28l0.629,0.124l-0.002,0.927l-3.827-0.01
						l0.002-0.927L44.622,50.658z"/>
					<path fill="#FFFFFF" d="M53.3,46.453c0.296-0.571,0.74-1.029,1.335-1.373s1.32-0.515,2.176-0.513
						c0.139,0,0.321,0.022,0.548,0.064l0.005-1.863l-1.202-0.204l0.002-0.951l3.123-0.263h0.063l0.452,0.354l-0.021,8.914
						l0.623,0.001L60.4,51.563c-0.261,0.046-0.562,0.088-0.903,0.127s-0.639,0.058-0.891,0.058
						c-0.231-0.001-0.415-0.022-0.551-0.064c-0.137-0.042-0.238-0.118-0.305-0.228c-0.067-0.109-0.101-0.269-0.1-0.479l0.001-0.29
						c-0.194,0.324-0.482,0.582-0.864,0.771c-0.383,0.189-0.769,0.283-1.159,0.282c-0.546-0.001-1.027-0.122-1.443-0.361
						c-0.418-0.24-0.744-0.615-0.979-1.123c-0.236-0.509-0.354-1.153-0.352-1.933C52.856,47.648,53.005,47.025,53.3,46.453z
						 M57.355,45.811c-0.05-0.074-0.131-0.135-0.242-0.183s-0.234-0.072-0.368-0.072c-0.382-0.001-0.688,0.197-0.92,0.595
						c-0.232,0.397-0.35,1.069-0.352,2.015c-0.002,0.772,0.089,1.344,0.273,1.714c0.184,0.369,0.442,0.554,0.778,0.555
						c0.356,0,0.63-0.114,0.819-0.347L57.355,45.811z"/>
				</g>
			</g>
		</g>
	</g>
</g>
<g>
</g>
<g>
</g>
<g>
</g>
<g>
</g>
<g>
</g>
<g>
</g>
<g>
</g>
<g>
</g>
<g>
</g>
<g>
</g>
<g>
</g>
<g>
</g>
<g>
</g>
<g>
</g>
<g>
</g>
</svg>
