<?xml version="1.0" encoding="utf-8"?>
<!-- Generator: Adobe Illustrator 16.0.0, SVG Export Plug-In . SVG Version: 6.00 Build 0)  -->
<!DOCTYPE svg PUBLIC "-//W3C//DTD SVG 1.1//EN" "http://www.w3.org/Graphics/SVG/1.1/DTD/svg11.dtd">
<svg version="1.1" id="Layer_1" xmlns="http://www.w3.org/2000/svg" xmlns:xlink="http://www.w3.org/1999/xlink" x="0px" y="0px"
	 width="408.667px" height="460px" viewBox="0 0 408.667 460" enable-background="new 0 0 408.667 460" xml:space="preserve">
<g id="phone">
	<path fill="#F4F4F4" d="M175.575,401.85V37.081c0-8.284,6.634-16.049,14.85-17.106c18.423-2.37,51.738-5.894,86.99-5.894
		s68.567,3.523,86.99,5.894c8.217,1.057,14.851,8.822,14.851,17.106V401.85c0,5.522-4.238,12.459-9.595,13.804
		c-14.132,3.546-44.188,8.196-92.246,8.196c-48.058,0-78.114-4.65-92.246-8.196C179.813,414.309,175.575,407.372,175.575,401.85z"/>
	<g>
		
			<image overflow="visible" opacity="0.75" width="255" height="460" xlink:href="A50778E2246465CE.png"  transform="matrix(1 0 0 1 153.6665 0)">
		</image>
		<path fill="none" stroke="#FFFFFF" stroke-width="2" stroke-miterlimit="10" d="M175.575,401.85V37.081
			c0-8.284,6.634-16.049,14.85-17.106c18.423-2.37,51.738-5.894,86.99-5.894s68.567,3.523,86.99,5.894
			c8.217,1.057,14.851,8.822,14.851,17.106V401.85c0,5.522-4.238,12.459-9.595,13.804c-14.132,3.546-44.188,8.196-92.246,8.196
			c-48.058,0-78.114-4.65-92.246-8.196C179.813,414.309,175.575,407.372,175.575,401.85z"/>
	</g>
</g>
<polygon fill="#4A4A4A" points="184.416,48.998 184.416,377.665 214.764,377.665 347.124,48.998 "/>
<polygon fill="#5A5A5A" points="370.417,48.998 347.124,48.998 214.764,377.665 370.417,377.665 "/>
<circle id="Camera" fill="#7A7A7A" cx="277.15" cy="34.375" r="4.908"/>
<circle id="Mic" fill="#7A7A7A" cx="209.048" cy="34.988" r="1.943"/>
<line id="Left" fill="none" stroke="#7A7A7A" stroke-width="2" stroke-linecap="round" stroke-miterlimit="10" x1="173.667" y1="93.5" x2="173.667" y2="157.5"/>
<line id="Right" fill="none" stroke="#545454" stroke-width="2" stroke-linecap="round" stroke-miterlimit="10" x1="381.167" y1="67" x2="381.167" y2="93.5"/>
<circle fill="#9A9A9A" cx="274.417" cy="32.312" r="0.344"/>
<circle fill="#9A9A9A" cx="275.562" cy="31.458" r="0.344"/>
<circle fill="#9A9A9A" cx="276.979" cy="31.104" r="0.344"/>
<circle fill="#9A9A9A" cx="278.292" cy="31.313" r="0.344"/>
<circle fill="#9A9A9A" cx="279.395" cy="31.979" r="0.344"/>
<circle fill="#9A9A9A" cx="280.104" cy="32.958" r="0.344"/>
<circle fill="#9A9A9A" cx="280.249" cy="34.208" r="0.344"/>
<circle fill="#9A9A9A" cx="280.083" cy="35.417" r="0.344"/>
<circle fill="#9A9A9A" cx="279.583" cy="36.459" r="0.344"/>
<circle fill="#9A9A9A" cx="278.661" cy="37.303" r="0.344"/>
<circle fill="#9A9A9A" cx="277.708" cy="37.646" r="0.344"/>
<circle fill="#9A9A9A" cx="276.504" cy="37.49" r="0.344"/>
<circle fill="#9A9A9A" cx="275.473" cy="36.928" r="0.344"/>
<circle fill="#9A9A9A" cx="274.848" cy="36.162" r="0.344"/>
<circle fill="#9A9A9A" cx="274.176" cy="35.318" r="0.344"/>
<circle fill="#9A9A9A" cx="273.989" cy="34.271" r="0.344"/>
<circle fill="#9A9A9A" cx="274.083" cy="33.24" r="0.344"/>
<circle fill="#9A9A9A" cx="278.473" cy="35.928" r="0.344"/>
<circle fill="#9A9A9A" cx="277.52" cy="36.24" r="0.344"/>
<circle fill="#9A9A9A" cx="276.52" cy="35.943" r="0.344"/>
<circle fill="#9A9A9A" cx="275.692" cy="35.318" r="0.344"/>
<circle fill="#9A9A9A" cx="279.098" cy="35.068" r="0.344"/>
<circle fill="#9A9A9A" cx="279.051" cy="34.084" r="0.344"/>
<circle fill="#9A9A9A" cx="278.583" cy="33.1" r="0.344"/>
<circle fill="#9A9A9A" cx="277.598" cy="32.865" r="0.344"/>
<circle fill="#9A9A9A" cx="275.708" cy="34.318" r="0.344"/>
<circle fill="#9A9A9A" cx="276.317" cy="33.209" r="0.344"/>
<image overflow="visible" width="1440" height="2560" xlink:href="../../../../../../private/var/folders/yh/nw1_3f753z32t5htcch3040w0000gp/T/Screenshot_20161205-201534[1].png"  transform="matrix(0.1297 0 0 0.1297 184.0474 49.0093)">
</image>
<rect x="187.667" y="50" fill="#004D44" width="57" height="10"/>
<rect x="272.667" y="66" fill="#005E55" width="30" height="9"/>
<circle fill="#FFFFFF" cx="207.417" cy="76" r="9"/>
<g>
	<path fill="#555560" d="M212.682,74.372c0.056,0,0.101,0.017,0.133,0.052c0.032,0.034,0.049,0.079,0.049,0.135v0.337h-1.726v-0.188
		c0-0.036,0.006-0.075,0.02-0.116c0.014-0.041,0.037-0.079,0.071-0.112l0.708-0.792c0.061-0.068,0.113-0.132,0.158-0.193
		c0.044-0.061,0.082-0.122,0.111-0.181c0.029-0.059,0.051-0.119,0.066-0.178s0.022-0.122,0.022-0.188c0-0.108-0.023-0.191-0.07-0.25
		c-0.046-0.058-0.118-0.087-0.213-0.087c-0.077,0-0.143,0.023-0.196,0.068c-0.054,0.046-0.09,0.102-0.11,0.169
		c-0.023,0.069-0.055,0.114-0.093,0.137c-0.038,0.022-0.092,0.027-0.163,0.015l-0.276-0.054c0.018-0.137,0.052-0.255,0.104-0.356
		c0.051-0.101,0.115-0.186,0.19-0.253s0.163-0.117,0.261-0.151c0.098-0.033,0.203-0.05,0.315-0.05c0.121,0,0.23,0.02,0.328,0.059
		c0.097,0.04,0.18,0.095,0.249,0.165c0.068,0.07,0.121,0.153,0.157,0.25s0.055,0.203,0.055,0.319c0,0.101-0.013,0.193-0.038,0.277
		c-0.025,0.085-0.06,0.166-0.104,0.243s-0.095,0.151-0.152,0.223c-0.058,0.072-0.12,0.145-0.185,0.218l-0.48,0.547
		c0.062-0.021,0.123-0.037,0.184-0.048c0.061-0.012,0.117-0.017,0.169-0.017H212.682L212.682,74.372z"/>
</g>
<g>
	<path fill="#555560" d="M201.207,76.804c0.215,0,0.397,0.022,0.547,0.066s0.273,0.106,0.368,0.187
		c0.095,0.08,0.165,0.178,0.208,0.292c0.043,0.115,0.065,0.244,0.065,0.386c0,0.077-0.01,0.151-0.03,0.224
		c-0.02,0.072-0.051,0.139-0.093,0.201c-0.043,0.062-0.098,0.12-0.165,0.172c-0.066,0.052-0.146,0.097-0.241,0.134
		c0.205,0.056,0.356,0.145,0.453,0.268c0.099,0.123,0.148,0.282,0.148,0.478c0,0.147-0.026,0.283-0.077,0.409
		c-0.051,0.126-0.125,0.236-0.225,0.33c-0.099,0.093-0.22,0.167-0.365,0.22c-0.145,0.053-0.31,0.079-0.496,0.079h-1.238v-3.445
		H201.207z M200.786,77.402v0.851h0.375c0.079,0,0.151-0.005,0.215-0.019c0.063-0.013,0.118-0.035,0.162-0.066
		c0.045-0.031,0.079-0.075,0.103-0.13c0.023-0.055,0.035-0.125,0.035-0.208c0-0.082-0.01-0.15-0.028-0.205
		c-0.019-0.054-0.047-0.098-0.085-0.131c-0.038-0.034-0.087-0.057-0.146-0.071c-0.059-0.014-0.128-0.021-0.209-0.021H200.786z
		 M201.292,79.647c0.095,0,0.173-0.014,0.233-0.041c0.061-0.027,0.107-0.062,0.142-0.104s0.058-0.09,0.07-0.144
		c0.013-0.054,0.019-0.108,0.019-0.164c0-0.063-0.007-0.12-0.022-0.17c-0.015-0.051-0.041-0.093-0.077-0.128
		s-0.084-0.061-0.143-0.081c-0.06-0.018-0.135-0.029-0.226-0.029h-0.502v0.859H201.292L201.292,79.647z"/>
	<path fill="#555560" d="M203.386,78.176c0.068-0.132,0.146-0.236,0.235-0.312s0.19-0.114,0.305-0.114c0.1,0,0.18,0.026,0.243,0.079
		l-0.042,0.539c-0.007,0.034-0.019,0.058-0.035,0.07c-0.017,0.013-0.039,0.02-0.067,0.02c-0.012,0-0.027-0.001-0.045-0.002
		c-0.019-0.002-0.038-0.003-0.058-0.006c-0.02-0.002-0.041-0.005-0.061-0.007c-0.02-0.002-0.039-0.004-0.056-0.004
		c-0.097,0-0.173,0.028-0.231,0.085c-0.058,0.057-0.106,0.136-0.146,0.237v1.489h-0.66v-2.453h0.392c0.032,0,0.06,0.004,0.082,0.01
		c0.022,0.006,0.041,0.016,0.056,0.029c0.015,0.013,0.026,0.031,0.035,0.054c0.008,0.021,0.015,0.048,0.02,0.08L203.386,78.176z"/>
	<path fill="#555560" d="M204.289,78.138c0.133-0.131,0.281-0.229,0.444-0.292c0.163-0.064,0.336-0.096,0.522-0.096
		c0.133,0,0.254,0.024,0.361,0.072s0.198,0.115,0.272,0.201c0.074,0.086,0.131,0.188,0.172,0.307
		c0.039,0.118,0.059,0.247,0.059,0.388v1.532h-0.302c-0.063,0-0.11-0.009-0.142-0.028c-0.032-0.019-0.058-0.059-0.08-0.118
		l-0.047-0.135c-0.055,0.052-0.108,0.098-0.16,0.138c-0.051,0.039-0.104,0.072-0.159,0.1c-0.055,0.028-0.112,0.048-0.175,0.062
		c-0.061,0.014-0.129,0.021-0.205,0.021c-0.101,0-0.192-0.015-0.275-0.044c-0.082-0.03-0.151-0.072-0.209-0.129
		c-0.058-0.057-0.102-0.128-0.133-0.211c-0.031-0.085-0.047-0.182-0.047-0.292c0-0.089,0.02-0.178,0.06-0.269
		c0.04-0.091,0.109-0.173,0.206-0.248c0.099-0.076,0.23-0.138,0.396-0.188s0.375-0.079,0.628-0.085v-0.104
		c0-0.144-0.026-0.247-0.08-0.311c-0.053-0.064-0.128-0.095-0.227-0.095c-0.078,0-0.142,0.009-0.191,0.028s-0.094,0.041-0.133,0.063
		c-0.04,0.025-0.077,0.046-0.114,0.064c-0.037,0.019-0.081,0.028-0.132,0.028c-0.046,0-0.083-0.013-0.115-0.038
		c-0.031-0.025-0.057-0.056-0.077-0.09L204.289,78.138z M205.476,79.251c-0.132,0.006-0.24,0.019-0.325,0.038
		s-0.152,0.042-0.202,0.071c-0.05,0.029-0.084,0.061-0.104,0.097c-0.019,0.037-0.028,0.076-0.028,0.119
		c0,0.084,0.02,0.142,0.061,0.176c0.042,0.034,0.102,0.051,0.181,0.051c0.085,0,0.16-0.017,0.224-0.05
		c0.064-0.033,0.128-0.086,0.193-0.161V79.251z"/>
	<path fill="#555560" d="M207.115,78.062c0.043-0.044,0.087-0.085,0.132-0.123c0.045-0.038,0.094-0.07,0.146-0.096
		c0.052-0.026,0.107-0.047,0.169-0.062c0.06-0.016,0.125-0.023,0.196-0.023c0.121,0,0.228,0.023,0.32,0.07
		c0.093,0.046,0.171,0.111,0.235,0.193s0.112,0.181,0.145,0.296c0.033,0.114,0.049,0.238,0.049,0.373v1.558h-0.66v-1.557
		c0-0.12-0.025-0.214-0.075-0.281c-0.05-0.067-0.123-0.101-0.219-0.101c-0.073,0-0.14,0.017-0.204,0.051
		c-0.063,0.033-0.125,0.08-0.184,0.138v1.75h-0.66v-2.453h0.409c0.082,0,0.136,0.042,0.162,0.124L207.115,78.062z"/>
	<path fill="#555560" d="M210.897,76.489v3.761h-0.409c-0.082,0-0.136-0.041-0.162-0.123l-0.051-0.187
		c-0.043,0.052-0.089,0.099-0.138,0.142c-0.048,0.042-0.101,0.079-0.156,0.11c-0.056,0.031-0.116,0.054-0.181,0.071
		c-0.065,0.017-0.135,0.025-0.21,0.025c-0.115,0-0.222-0.029-0.319-0.085c-0.099-0.057-0.183-0.139-0.253-0.246
		c-0.071-0.107-0.126-0.239-0.167-0.394c-0.041-0.155-0.061-0.333-0.061-0.531c0-0.183,0.023-0.353,0.068-0.51
		c0.045-0.157,0.11-0.292,0.192-0.407c0.083-0.114,0.183-0.204,0.3-0.269c0.116-0.064,0.244-0.097,0.385-0.097
		c0.114,0,0.211,0.018,0.289,0.054c0.078,0.036,0.149,0.085,0.214,0.146v-1.285L210.897,76.489z M210.238,78.455
		c-0.05-0.062-0.104-0.105-0.162-0.129c-0.058-0.024-0.119-0.037-0.184-0.037c-0.061,0-0.116,0.014-0.167,0.041
		c-0.051,0.026-0.095,0.07-0.133,0.128c-0.038,0.059-0.067,0.137-0.089,0.231c-0.021,0.095-0.032,0.209-0.032,0.343
		c0,0.129,0.009,0.238,0.025,0.326c0.018,0.088,0.041,0.159,0.072,0.214c0.03,0.055,0.067,0.093,0.109,0.117
		c0.043,0.024,0.09,0.036,0.143,0.036c0.048,0,0.092-0.005,0.13-0.016c0.04-0.01,0.076-0.025,0.108-0.044
		c0.033-0.019,0.064-0.043,0.093-0.072c0.029-0.029,0.058-0.062,0.086-0.1V78.455L210.238,78.455z"/>
</g>
<g>
	<path fill="#555560" d="M202.279,75.407c0.017,0,0.035,0.003,0.051,0.01c0.017,0.007,0.034,0.02,0.049,0.037l0.286,0.334
		c-0.125,0.181-0.281,0.318-0.47,0.411c-0.188,0.092-0.41,0.138-0.667,0.138c-0.236,0-0.447-0.045-0.633-0.134
		c-0.187-0.089-0.345-0.212-0.475-0.369c-0.13-0.157-0.229-0.344-0.299-0.559c-0.069-0.215-0.104-0.449-0.104-0.701
		c0-0.257,0.038-0.493,0.112-0.708c0.076-0.216,0.181-0.401,0.317-0.557c0.137-0.157,0.299-0.278,0.489-0.364
		c0.19-0.087,0.4-0.13,0.629-0.13c0.116,0,0.226,0.011,0.329,0.034c0.103,0.023,0.199,0.055,0.288,0.094
		c0.09,0.041,0.172,0.089,0.247,0.146c0.076,0.057,0.142,0.119,0.2,0.185l-0.242,0.361c-0.016,0.022-0.034,0.042-0.056,0.061
		c-0.021,0.018-0.051,0.027-0.089,0.027c-0.025,0-0.05-0.006-0.072-0.019c-0.023-0.013-0.047-0.028-0.072-0.047
		c-0.026-0.018-0.054-0.038-0.084-0.059c-0.03-0.021-0.066-0.041-0.108-0.059s-0.09-0.033-0.147-0.046
		c-0.056-0.013-0.122-0.019-0.197-0.019c-0.119,0-0.228,0.025-0.327,0.073c-0.098,0.049-0.183,0.121-0.255,0.214
		s-0.127,0.208-0.166,0.345s-0.059,0.292-0.059,0.467c0,0.177,0.021,0.333,0.065,0.471c0.043,0.138,0.102,0.253,0.176,0.347
		c0.075,0.094,0.162,0.165,0.261,0.214c0.099,0.049,0.205,0.073,0.319,0.073c0.065,0,0.125-0.003,0.179-0.01
		c0.054-0.007,0.104-0.019,0.151-0.036c0.047-0.016,0.091-0.039,0.132-0.066c0.041-0.027,0.083-0.062,0.125-0.105
		c0.017-0.016,0.035-0.029,0.055-0.039S202.258,75.407,202.279,75.407z"/>
	<path fill="#555560" d="M203.562,74.062c0.08-0.076,0.166-0.137,0.259-0.183c0.093-0.047,0.204-0.07,0.333-0.07
		c0.121,0,0.227,0.023,0.32,0.07c0.093,0.046,0.171,0.111,0.235,0.194c0.064,0.083,0.111,0.181,0.145,0.296
		c0.032,0.114,0.049,0.238,0.049,0.372v1.559h-0.66V74.74c0-0.12-0.025-0.213-0.075-0.28c-0.049-0.067-0.123-0.101-0.219-0.101
		c-0.072,0-0.141,0.017-0.204,0.051c-0.063,0.033-0.125,0.08-0.185,0.139v1.75h-0.659v-3.54h0.659V74.062z"/>
	<path fill="#555560" d="M205.28,74.187c0.133-0.131,0.282-0.228,0.444-0.292c0.163-0.064,0.337-0.096,0.523-0.096
		c0.133,0,0.253,0.024,0.361,0.072c0.106,0.048,0.198,0.115,0.272,0.201c0.074,0.086,0.131,0.188,0.171,0.306
		c0.04,0.119,0.06,0.248,0.06,0.388v1.532h-0.303c-0.062,0-0.11-0.009-0.141-0.028c-0.032-0.019-0.059-0.059-0.08-0.119
		l-0.046-0.135c-0.056,0.052-0.108,0.097-0.16,0.137c-0.051,0.039-0.104,0.073-0.159,0.1c-0.055,0.028-0.113,0.048-0.174,0.062
		c-0.062,0.014-0.131,0.021-0.206,0.021c-0.101,0-0.193-0.015-0.275-0.044c-0.082-0.029-0.152-0.072-0.209-0.129
		c-0.058-0.057-0.102-0.127-0.133-0.212c-0.031-0.084-0.047-0.182-0.047-0.292c0-0.089,0.02-0.178,0.059-0.269
		c0.041-0.09,0.109-0.173,0.207-0.248c0.098-0.076,0.229-0.138,0.396-0.188c0.166-0.05,0.375-0.079,0.628-0.085v-0.104
		c0-0.144-0.027-0.247-0.08-0.311c-0.054-0.064-0.129-0.096-0.228-0.096c-0.078,0-0.142,0.009-0.191,0.028s-0.094,0.041-0.133,0.063
		c-0.04,0.024-0.077,0.046-0.114,0.064c-0.037,0.019-0.081,0.028-0.132,0.028c-0.045,0-0.083-0.013-0.115-0.038
		s-0.057-0.055-0.077-0.09L205.28,74.187z M206.468,75.301c-0.132,0.006-0.24,0.02-0.326,0.038
		c-0.085,0.019-0.152,0.042-0.202,0.071s-0.084,0.06-0.103,0.097c-0.02,0.037-0.029,0.076-0.029,0.119
		c0,0.083,0.021,0.142,0.062,0.176s0.101,0.051,0.181,0.051c0.086,0,0.16-0.017,0.224-0.05c0.063-0.033,0.128-0.086,0.193-0.161
		V75.301L206.468,75.301z"/>
	<path fill="#555560" d="M208.288,76.337c-0.105,0-0.197-0.018-0.278-0.051c-0.08-0.034-0.148-0.083-0.202-0.144
		c-0.055-0.062-0.097-0.138-0.125-0.226c-0.028-0.088-0.042-0.187-0.042-0.296v-1.268h-0.188c-0.034,0-0.063-0.012-0.087-0.036
		c-0.024-0.025-0.036-0.061-0.036-0.108v-0.286l0.351-0.076l0.13-0.598c0.017-0.075,0.065-0.114,0.145-0.114h0.345v0.717h0.546
		v0.501h-0.546v1.218c0,0.057,0.012,0.104,0.037,0.141c0.024,0.037,0.061,0.055,0.107,0.055c0.024,0,0.043-0.002,0.061-0.008
		c0.016-0.005,0.03-0.012,0.043-0.019c0.012-0.008,0.023-0.013,0.033-0.019c0.011-0.006,0.023-0.008,0.038-0.008
		c0.02,0,0.036,0.005,0.048,0.016c0.013,0.01,0.025,0.026,0.037,0.048l0.201,0.347c-0.085,0.071-0.181,0.125-0.288,0.16
		C208.511,76.319,208.401,76.337,208.288,76.337z"/>
</g>
<g id="XMLID_5_">
	<g>
		<path id="XMLID_6_" fill="#00A89D" d="M213.347,72.115c0.82,0.731,0.893,1.994,0.161,2.815c-0.58,0.649-1.502,0.849-2.297,0.495
			l-0.179-0.08l-0.187,0.062l-0.614,0.203l0.131-0.633l0.04-0.192l-0.099-0.168c-0.442-0.75-0.349-1.689,0.229-2.339
			C211.264,71.456,212.526,71.384,213.347,72.115 M213.959,71.428c-1.18-1.053-2.991-0.95-4.044,0.231
			c-0.849,0.953-0.946,2.316-0.33,3.361l-0.355,1.711l1.659-0.548c1.108,0.492,2.452,0.242,3.302-0.711
			C215.245,74.291,215.141,72.481,213.959,71.428L213.959,71.428z"/>
	</g>
</g>
<g opacity="0.4">
	<g>
		<path d="M147.67,79.014c-0.299,0-0.598-0.076-0.867-0.228c-0.536-0.303-0.867-0.865-0.867-1.472V66.949
			c0-0.608,0.331-1.169,0.867-1.473c0.537-0.304,1.197-0.304,1.733,0l9.151,5.183c0.536,0.304,0.867,0.865,0.867,1.473
			s-0.331,1.168-0.867,1.472l-9.151,5.183C148.268,78.938,147.969,79.014,147.67,79.014z"/>
	</g>
</g>
<g opacity="0.4">
	<g>
		<path d="M147.17,135.514c-0.299,0-0.598-0.076-0.867-0.228c-0.536-0.303-0.867-0.865-0.867-1.472v-10.365
			c0-0.608,0.331-1.169,0.867-1.473c0.537-0.304,1.197-0.304,1.733,0l9.151,5.183c0.535,0.304,0.866,0.865,0.866,1.473
			s-0.331,1.168-0.866,1.472l-9.151,5.183C147.768,135.438,147.469,135.514,147.17,135.514z"/>
	</g>
</g>
<g opacity="0.4">
	<g>
		<path d="M146.67,196.514c-0.3,0-0.599-0.076-0.867-0.228c-0.536-0.303-0.867-0.865-0.867-1.472v-10.365
			c0-0.608,0.331-1.169,0.867-1.473c0.537-0.304,1.197-0.304,1.733,0l9.151,5.183c0.535,0.304,0.866,0.865,0.866,1.473
			s-0.331,1.168-0.866,1.472l-9.151,5.183C147.268,196.438,146.969,196.514,146.67,196.514z"/>
	</g>
</g>
<g opacity="0.4">
	<g>
		<path d="M147.17,274.014c-0.3,0-0.599-0.076-0.867-0.228c-0.536-0.304-0.867-0.864-0.867-1.472v-10.365
			c0-0.607,0.331-1.17,0.867-1.473c0.537-0.304,1.197-0.304,1.733,0l9.151,5.182c0.535,0.305,0.866,0.865,0.866,1.473
			s-0.331,1.169-0.866,1.473l-9.151,5.183C147.768,273.938,147.469,274.014,147.17,274.014z"/>
	</g>
</g>
<rect x="16" y="66.667" fill="none" width="138.667" height="25.333"/>
<text transform="matrix(1 0 0 1 15.9995 75.8086)" fill="#4A4A4A" font-family="'SegoePrint'" font-size="11">your brand’s profile</text>
<rect x="2.667" y="78" fill="none" width="62" height="2.667"/>
<rect y="125" fill="none" width="138.667" height="25.333"/>
<text transform="matrix(1 0 0 1 0 134.1416)" fill="#4A4A4A" font-family="'SegoePrint'" font-size="11">auto-answer messages</text>
<rect x="46.333" y="182.667" fill="none" width="138.667" height="25.333"/>
<text transform="matrix(1 0 0 1 46.3325 191.8086)" fill="#4A4A4A" font-family="'SegoePrint'" font-size="11">smart menus</text>
<text transform="matrix(1 0 0 1 60.6655 270.5703)" fill="#4A4A4A" font-family="'SegoePrint'" font-size="11">smart bots</text>
</svg>
