<?xml version="1.0" encoding="utf-8"?>
<!-- Generator: Adobe Illustrator 16.0.0, SVG Export Plug-In . SVG Version: 6.00 Build 0)  -->
<!DOCTYPE svg PUBLIC "-//W3C//DTD SVG 1.1//EN" "http://www.w3.org/Graphics/SVG/1.1/DTD/svg11.dtd">
<svg version="1.1" xmlns="http://www.w3.org/2000/svg" xmlns:xlink="http://www.w3.org/1999/xlink" x="0px" y="0px" width="85px"
	 height="85px" viewBox="0 0 85 85" enable-background="new 0 0 85 85" xml:space="preserve">
<g id="Background">
</g>
<g id="Objects">
	<g>
		<path fill="none" d="M18.439,49.719c0,0.02,0.001,0.046,0.001,0.071c0.001,0.007,0.001,0.016,0.003,0.024
			C18.442,49.778,18.44,49.741,18.439,49.719z"/>
		<path fill="none" d="M18.481,49.797c-0.007,0.057-0.016,0.113-0.02,0.174c0.001,0.02,0.003,0.035,0.005,0.053
			C18.475,49.924,18.479,49.854,18.481,49.797z"/>
		
			<radialGradient id="SVGID_1_" cx="23.2104" cy="44.6426" r="23.3547" gradientTransform="matrix(4.7817 0 0 4.513 -159.9371 -152.8585)" gradientUnits="userSpaceOnUse">
			<stop  offset="0" style="stop-color:#FFFFFF"/>
			<stop  offset="0.7758" style="stop-color:#D6DCE1"/>
			<stop  offset="0.9872" style="stop-color:#B3BABF"/>
		</radialGradient>
		<path fill="url(#SVGID_1_)" d="M-11.402,3.617c0.033-0.004,0.064-0.004,0.108-0.007c-0.008-0.002-0.015-0.002-0.021-0.003
			c-0.109,0.009-0.193,0.011-0.247,0.014C-11.522,3.617-11.466,3.617-11.402,3.617z"/>
		
			<radialGradient id="SVGID_2_" cx="25.3442" cy="43.9668" r="14.9653" gradientTransform="matrix(4.7817 0 0 4.513 -159.9371 -152.8585)" gradientUnits="userSpaceOnUse">
			<stop  offset="0" style="stop-color:#FFFFFF"/>
			<stop  offset="0.7758" style="stop-color:#D6DCE1"/>
			<stop  offset="0.9872" style="stop-color:#B3BABF"/>
		</radialGradient>
		<path fill="url(#SVGID_2_)" d="M18.467,50.023c-0.002-0.018-0.004-0.033-0.005-0.053c-0.001,0.015-0.004,0.03-0.006,0.043
			c-0.005-0.083-0.009-0.145-0.011-0.199c-0.002-0.009-0.002-0.018-0.003-0.024c0.004,0.133,0.009,0.347,0.009,0.65v27.622
			c0.005,0,0.021,0,0.024,0V50.447c0-0.313,0.004-0.535,0.008-0.664c0,0.003,0,0.009-0.001,0.014
			C18.479,49.854,18.475,49.924,18.467,50.023z"/>
		
			<radialGradient id="SVGID_3_" cx="25.2607" cy="43.7402" r="14.7748" gradientTransform="matrix(4.7817 0 0 4.513 -159.9371 -152.8585)" gradientUnits="userSpaceOnUse">
			<stop  offset="0" style="stop-color:#FFFFFF"/>
			<stop  offset="0.7758" style="stop-color:#D6DCE1"/>
			<stop  offset="0.9872" style="stop-color:#B3BABF"/>
		</radialGradient>
		<path fill="url(#SVGID_3_)" d="M-11.244,3.603c-0.046-0.002-0.089-0.009-0.135-0.015c-0.018,0.002-0.034,0.005-0.052,0.005
			c0.041,0.005,0.077,0.011,0.117,0.013C-11.29,3.604-11.273,3.604-11.244,3.603z"/>
		<g>
			<path fill="#A9B8C9" d="M76.577,46.727c0,0-4.928,2.283-7.404,2.283c-4.763,0-8.626-4.079-8.626-9.11
				c0-5.029,3.863-9.109,8.626-9.109c2.477,0,7.404,2.282,7.404,2.282c2.854,1.322,5.211-0.138,5.449-3.25
				c-0.002-0.018-0.006-0.035-0.007-0.053l-0.005-0.512V3.628h-5.184V3.617H52.717c-0.384,0-0.642,0.006-0.767,0.011
				c0.05-0.002,0.12-0.007,0.212-0.011c-0.065,0-0.122,0-0.16,0.003c0.054-0.003,0.139-0.005,0.246-0.014
				c-0.039-0.002-0.074-0.008-0.114-0.013c-3.201,0.278-4.689,2.474-3.309,5.128c0,0,2.417,4.654,2.417,6.987
				c0,4.499-4.32,8.144-9.652,8.144c-5.333,0-9.65-3.645-9.65-8.144c0-2.333,2.419-6.987,2.419-6.987
				c1.384-2.667-0.12-4.871-3.355-5.131c-0.062,0.003-0.122,0.014-0.188,0.02l-0.542,0.007h-9.83l0,0H3.132l0,0h0.001v25.63
				l0.008,0.512c0.001,0.018,0.004,0.038,0.005,0.052c0.241,3.107,2.596,4.565,5.448,3.243c0,0,4.93-2.282,7.404-2.282
				c4.764,0,8.625,4.078,8.625,9.112c0,5.03-3.862,9.105-8.625,9.105c-2.474,0-7.404-2.28-7.404-2.28
				c-2.795-1.293-5.11,0.08-5.427,3.066c0.001-0.022,0.001-0.044,0.002-0.061c0,0.02-0.002,0.05-0.003,0.071
				c-0.006,0.058-0.016,0.112-0.02,0.174c-0.004-0.054-0.013-0.103-0.018-0.156c-0.002-0.036-0.004-0.07-0.005-0.096
				c0.001,0.02,0.001,0.045,0.002,0.072c0.001,0.048,0.003,0.117,0.004,0.185c0.004-0.014,0.004,0.079,0.003,0.252
				c0.001,0.068,0.001,0.129,0.001,0.213v27.623c0.022,0,3.052-0.008,4.797-0.013l22.484-0.014c0.034,0,0.244,0,0.586,0
				c0.053,0,0.095,0,0.128-0.002c-0.021,0.002-0.056,0.002-0.087,0.002c3.635,0,21.817,0,21.817,0l11.841,0.014v0.009h11.394
				c0.407,0,5.511,0.013,5.922,0.014V50.44c0-0.304-0.005-0.518-0.012-0.65C81.688,46.81,79.371,45.431,76.577,46.727z"/>
		</g>
		<path fill="#FFFFFF" stroke="#999999" stroke-width="0.25" stroke-miterlimit="10" d="M76.577,46.727c0,0-4.928,2.283-7.404,2.283
			c-4.763,0-8.626-4.079-8.626-9.11c0-5.029,3.863-9.109,8.626-9.109c2.477,0,7.404,2.282,7.404,2.282
			c2.854,1.322,5.211-0.138,5.449-3.25c-0.002-0.018-0.006-0.035-0.007-0.053l-0.005-0.512V3.628h-5.184V3.617H52.717
			c-0.384,0-0.642,0.006-0.767,0.011c0.05-0.002,0.12-0.007,0.212-0.011c-0.065,0-0.122,0-0.16,0.003
			c0.054-0.003,0.139-0.005,0.246-0.014c-0.039-0.002-0.074-0.008-0.114-0.013c-3.201,0.278-4.689,2.474-3.309,5.128
			c0,0,2.417,4.654,2.417,6.987c0,4.499-4.32,8.144-9.652,8.144c-5.333,0-9.65-3.645-9.65-8.144c0-2.333,2.419-6.987,2.419-6.987
			c1.384-2.667-0.12-4.871-3.355-5.131c-0.062,0.003-0.122,0.014-0.188,0.02l-0.542,0.007h-9.83l0,0H3.132l0,0h0.001v25.63
			l0.008,0.512c0.001,0.018,0.004,0.038,0.005,0.052c0.241,3.107,2.596,4.565,5.448,3.243c0,0,4.93-2.282,7.404-2.282
			c4.764,0,8.625,4.078,8.625,9.112c0,5.03-3.862,9.105-8.625,9.105c-2.474,0-7.404-2.28-7.404-2.28
			c-2.795-1.293-5.11,0.08-5.427,3.066c0.001-0.022,0.001-0.044,0.002-0.061c0,0.02-0.002,0.05-0.003,0.071
			c-0.006,0.058-0.016,0.112-0.02,0.174c-0.004-0.054-0.013-0.103-0.018-0.156c-0.002-0.036-0.004-0.07-0.005-0.096
			c0.001,0.02,0.001,0.045,0.002,0.072c0.001,0.048,0.003,0.117,0.004,0.185c0.004-0.014,0.004,0.079,0.003,0.252
			c0.001,0.068,0.001,0.129,0.001,0.213v27.623c0.022,0,3.052-0.008,4.797-0.013l22.484-0.014c0.034,0,0.244,0,0.586,0
			c0.053,0,0.095,0,0.128-0.002c-0.021,0.002-0.056,0.002-0.087,0.002c3.635,0,21.817,0,21.817,0l11.841,0.014v0.009h11.394
			c0.407,0,5.511,0.013,5.922,0.014V50.44c0-0.304-0.005-0.518-0.012-0.65C81.688,46.81,79.371,45.431,76.577,46.727z"/>
		<path fill="#61AABE" d="M76.093,76.727H65.922l-1.219-0.011l-11.845-0.011l-21.801-0.001l-0.094,0.001L7.93,76.716l-3.392,0.009
			c0,0-0.002-26.604-0.003-26.672h0.011l0.019-0.147c0.074-0.71,0.421-2.36,2.007-2.36c0.428,0,0.9,0.118,1.404,0.354
			c0.535,0.248,5.3,2.417,8.022,2.417c5.53,0,10.028-4.68,10.028-10.431c0-5.755-4.498-10.438-10.028-10.438
			c-2.722,0-7.488,2.171-8.022,2.418C7.471,32.1,6.998,32.22,6.569,32.22c-1.697,0-1.977-1.917-2.023-2.503l-0.002-0.038
			l-0.006-0.45V4.942L30.274,4.94l0.562-0.005c0.079-0.005,0.135-0.011,0.181-0.014c1.078,0.112,1.891,0.505,2.242,1.09
			c0.327,0.544,0.27,1.302-0.162,2.131c-0.262,0.502-2.561,5-2.561,7.567c0,5.222,4.958,9.467,11.053,9.467
			c6.097,0,11.057-4.245,11.057-9.467c0-2.567-2.3-7.065-2.564-7.569c-0.302-0.583-0.577-1.425-0.16-2.123
			C50.25,5.461,51,5.077,52,4.942v0.008c0.113-0.003,0.354-0.011,0.717-0.011h22.711l1.403,0.011h3.778v24.307l0.009,0.573
			c-0.07,0.684-0.406,2.404-2.017,2.404c-0.427,0-0.901-0.118-1.406-0.352c-0.533-0.247-5.3-2.417-8.022-2.417
			c-5.528,0-10.027,4.68-10.027,10.433c0,5.754,4.499,10.431,10.027,10.431c2.723,0,7.489-2.168,8.022-2.416
			c0.503-0.231,0.977-0.35,1.402-0.35c1.554,0,1.918,1.575,2.007,2.309c0.003,0.161,0.005,0.337,0.005,0.567v26.294
			C78.941,76.731,76.376,76.727,76.093,76.727z"/>
		
			<radialGradient id="SVGID_4_" cx="37.3125" cy="44.8965" r="0.0055" gradientTransform="matrix(4.7817 0 0 4.513 -159.9371 -152.8585)" gradientUnits="userSpaceOnUse">
			<stop  offset="0" style="stop-color:#FFFFFF"/>
			<stop  offset="0.7758" style="stop-color:#D6DCE1"/>
			<stop  offset="0.9872" style="stop-color:#B3BABF"/>
		</radialGradient>
		<path fill="url(#SVGID_4_)" d="M18.481,49.797c0.001-0.005,0.001-0.011,0.001-0.014c0.001-0.019,0.001-0.043,0.002-0.056
			C18.485,49.743,18.482,49.771,18.481,49.797z"/>
		
			<radialGradient id="SVGID_5_" cx="37.3125" cy="44.8965" r="0.0055" gradientTransform="matrix(4.7817 0 0 4.513 -159.9371 -152.8585)" gradientUnits="userSpaceOnUse">
			<stop  offset="0" style="stop-color:#FFFFFF"/>
			<stop  offset="0.7758" style="stop-color:#D6DCE1"/>
			<stop  offset="0.9872" style="stop-color:#B3BABF"/>
		</radialGradient>
		<path fill="url(#SVGID_5_)" d="M18.481,49.797c0.001-0.005,0.001-0.011,0.001-0.014c0.001-0.019,0.001-0.043,0.002-0.056
			C18.485,49.743,18.482,49.771,18.481,49.797z"/>
		
			<radialGradient id="SVGID_6_" cx="22.5601" cy="44.543" r="24.2883" gradientTransform="matrix(4.7817 0 0 4.513 -159.9371 -152.8585)" gradientUnits="userSpaceOnUse">
			<stop  offset="0" style="stop-color:#FFFFFF"/>
			<stop  offset="0.7758" style="stop-color:#D6DCE1"/>
			<stop  offset="0.9872" style="stop-color:#B3BABF"/>
		</radialGradient>
		<path fill="url(#SVGID_6_)" d="M18.462,49.971c-0.004-0.053-0.014-0.103-0.018-0.156c0.002,0.055,0.006,0.116,0.011,0.199
			C18.458,50.001,18.46,49.985,18.462,49.971z"/>
		
			<radialGradient id="SVGID_7_" cx="24.7046" cy="43.9756" r="15.7374" gradientTransform="matrix(4.7817 0 0 4.513 -159.9371 -152.8585)" gradientUnits="userSpaceOnUse">
			<stop  offset="0" style="stop-color:#FFFFFF"/>
			<stop  offset="0.7758" style="stop-color:#D6DCE1"/>
			<stop  offset="0.9872" style="stop-color:#B3BABF"/>
		</radialGradient>
		<path fill="url(#SVGID_7_)" d="M18.462,49.971c-0.004-0.053-0.014-0.103-0.018-0.156c0.002,0.055,0.006,0.116,0.011,0.199
			C18.458,50.001,18.46,49.985,18.462,49.971z"/>
	</g>
	<g>
		<g>
			<defs>
				<polyline id="SVGID_8_" points="3.779,76.677 1.49,51.027 40.429,47.551 44.038,87.978 5.099,91.453 3.779,76.677 				"/>
			</defs>
			<clipPath id="SVGID_9_">
				<use xlink:href="#SVGID_8_"  overflow="visible"/>
			</clipPath>
			<g clip-path="url(#SVGID_9_)">
				<path fill="#FCFCFC" d="M32.588,76.814c-0.157-1.336-0.974-2.497-1.996-3.235c2.427,1.199,5.871-1.653,6.18-4.129
					c0.254-2.036-1.32-3.87-2.595-4.902l0.568-0.328c0.405-2.321-3.94-4.149-5.883-3.623c-1.859,0.504-3.014,2.332-3.447,3.94
					c0.786-7.906-8.454-9.463-11.507-2.666c-0.159-2.397-3.844-3.58-5.98-3.104c-1.172,0.261-2.346,0.758-3.394,1.438L4.531,72.206
					c0.66,0.28,1.292,0.431,2.095,0.412c-1.36,1.259-1.979,2.751-2.066,4.211"/>
				<path fill="#FCFCFC" d="M33.465,76.704c0.544-1.603,0.61-3.269-0.328-4.581c-1.589-2.221-5.81-2.896-8.001-1.306
					c0,0-7.768,3.609-12.861,5.896L33.465,76.704z"/>
				<path fill="#DFE1DE" d="M4.536,63.333c1.312-3.364,5.247-5.417,9.306-1.643l-0.018-0.407c-0.585-2.071-3.908-3.062-5.895-2.62
					c-1.172,0.262-2.346,0.757-3.393,1.438V63.333z"/>
				<path fill="#DFE1DE" d="M8.152,76.776c-2.233-2.799,1.243-6.766,3.388-8.523c-2.74,1.543-5.861,0.89-7.004-1.048v4.942
					c0.631,0.252,1.331,0.385,2.09,0.367C5.633,73.207,4.955,74,4.537,74.832c-0.016,0.031-0.029,0.062-0.043,0.092
					c0.016,0.601,0.029,1.201,0.032,1.801"/>
				<path fill="#DFE1DE" d="M8.152,76.776"/>
				<path fill="#DFE1DE" d="M16.121,76.712"/>
				<path fill="#DFE1DE" d="M18.809,76.71c-0.733-0.528-1.294-1.268-1.376-2.084c-0.263,0.712-0.721,1.44-1.312,2.086"/>
				<path fill="#DFE1DE" d="M18.809,76.71"/>
				<path fill="#DFE1DE" d="M22.711,76.709"/>
				<path fill="#DFE1DE" d="M24.259,76.708c-0.596-0.384-1.091-0.951-1.427-1.729c0.143,0.757,0.081,1.325-0.121,1.73"/>
				<path fill="#DFE1DE" d="M32.586,76.71c-0.068-0.584-0.264-1.136-0.547-1.634c-0.671,0.668-1.519,1.23-2.433,1.629"/>
				<path fill="#DFE1DE" d="M20.287,85.351c0.301-0.165,0.584-0.346,0.837-0.526c0.002-0.002,0.005-0.004,0.007-0.006
					C20.859,84.997,20.57,85.171,20.287,85.351z"/>
			</g>
		</g>
		<g>
			<g opacity="0.29">
				
					<image overflow="visible" width="472" height="490" xlink:href="AA7801B59B4EF390.png"  transform="matrix(0.24 0 0 0.24 -16.3296 -11.0547)">
				</image>
			</g>
			<g>
				<path fill="#EAAB28" d="M27.201,64.847c9.303-1.687,8.491-6.567,8.491-6.567l-1.703-1.443l-0.017-0.014l-1.703-1.443
					c0,0-4.948,0-5.085,9.454l-0.016,0.02c0.006-0.001,0.011-0.002,0.016-0.003c0,0.006,0,0.011,0,0.017L27.201,64.847z"/>
				<g>
					<g id="rocket_1_">
						
							<rect x="30.978" y="54.773" transform="matrix(-0.7716 -0.6361 0.6361 -0.7716 26.3049 121.5825)" fill="#BF372D" width="8.003" height="2.591"/>
						<path fill="#284865" d="M42.661,46.392c-5.955-4.908-14.688-4.147-19.508,1.703c-1.12,1.359-1.926,2.874-2.434,4.461
							c4.819-2.652,11.025-2.229,15.597,1.54c4.57,3.769,6.171,9.783,4.489,15.021c1.458-0.801,2.792-1.883,3.911-3.241
							C49.537,60.023,48.615,51.301,42.661,46.392z"/>
						<path fill="#121D21" d="M38.774,56.721c2.627,3.622,3.361,8.25,2.03,12.396c1.458-0.801,2.792-1.883,3.911-3.241
							c4.049-4.916,4.045-11.858,0.41-16.862L38.774,56.721z"/>
						<path fill="#FCFCFC" d="M38.839,37.453c-4.113,4.993-6.802,10.449-7.938,15.462c1.508,0.614,2.954,1.464,4.28,2.557
							c1.326,1.095,2.436,2.352,3.328,3.716c4.699-2.074,9.538-5.757,13.651-10.75c6.532-7.932,9.482-17.032,8.304-23.66
							C53.738,24.888,45.373,29.521,38.839,37.453z"/>
						<path fill="#CFCFCF" d="M60.464,24.778c-0.767,0.013-25.511,30.513-25.511,30.513c0.075,0.061,0.153,0.119,0.228,0.181
							c1.326,1.095,2.436,2.352,3.328,3.716c4.699-2.074,9.538-5.757,13.651-10.75C58.692,40.506,61.643,31.405,60.464,24.778z"/>
						<path fill="#3C6075" d="M35.537,52.128c-2.717,3.298-4.488,6.633-4.796,8.734c2.003-0.702,4.937-3.079,7.654-6.378
							c2.718-3.299,4.488-6.634,4.796-8.734C41.187,46.452,38.254,48.829,35.537,52.128z"/>
						<path fill="#121D21" d="M30.76,60.762c-0.005,0.032-0.014,0.068-0.019,0.101c2.003-0.702,4.937-3.079,7.654-6.378
							c2.718-3.299,4.488-6.634,4.796-8.734c-0.03,0.011-0.064,0.026-0.096,0.036L30.76,60.762z"/>
						<path fill="#DF642E" d="M49.23,28.396c1.688,1.215,3.375,2.51,5.049,3.892c1.674,1.38,3.275,2.794,4.79,4.22
							c1.511-4.232,2.003-8.312,1.395-11.729C56.997,24.834,53.093,26.103,49.23,28.396z"/>
						<path fill="#BF372D" d="M54.441,32.422c1.614,1.338,3.163,2.706,4.628,4.084c1.511-4.232,2.003-8.312,1.395-11.729
							c-0.061,0.002-0.122,0.003-0.186,0.005L54.441,32.422z"/>
						<path fill="#EAAB28" d="M50.961,36.401l-0.041-0.035c-0.787-0.65-1.777-0.96-2.789-0.872
							c-1.011,0.088-1.918,0.563-2.557,1.336c-1.3,1.58-1.064,3.958,0.524,5.305l0.041,0.034c1.628,1.343,4.024,1.133,5.343-0.467
							C52.782,40.125,52.548,37.746,50.961,36.401z"/>
						<path fill="#447470" d="M50.339,37.071c-1.232-1.018-3.049-0.859-4.047,0.352c-0.998,1.213-0.807,3.025,0.428,4.042
							c1.232,1.017,3.048,0.859,4.045-0.354C51.764,39.901,51.571,38.087,50.339,37.071z"/>
					</g>
				</g>
			</g>
		</g>
		<g>
			<g opacity="0.29">
				
					<image overflow="visible" width="472" height="490" xlink:href="AA7801B59B4EF391.png"  transform="matrix(0.24 0 0 0.24 -15.2163 -10.791)">
				</image>
			</g>
			<g>
				<path fill="#EAAB28" d="M27.201,64.847c9.303-1.687,8.491-6.567,8.491-6.567l-1.703-1.443l-0.017-0.014l-1.703-1.443
					c0,0-4.948,0-5.085,9.454l-0.016,0.02c0.006-0.001,0.011-0.002,0.016-0.003c0,0.006,0,0.011,0,0.017L27.201,64.847z"/>
				<g>
					<g id="rocket_2_">
						
							<rect x="30.978" y="54.773" transform="matrix(-0.7716 -0.6361 0.6361 -0.7716 26.3049 121.5825)" fill="#BF372D" width="8.003" height="2.591"/>
						<path fill="#284865" d="M42.661,46.392c-5.955-4.908-14.688-4.147-19.508,1.703c-1.12,1.359-1.926,2.874-2.434,4.461
							c4.819-2.652,11.025-2.229,15.597,1.54c4.57,3.769,6.171,9.783,4.489,15.021c1.458-0.801,2.792-1.883,3.911-3.241
							C49.537,60.023,48.615,51.301,42.661,46.392z"/>
						<path fill="#121D21" d="M38.774,56.721c2.627,3.622,3.361,8.25,2.03,12.396c1.458-0.801,2.792-1.883,3.911-3.241
							c4.049-4.916,4.045-11.858,0.41-16.862L38.774,56.721z"/>
						<path fill="#FCFCFC" d="M38.839,37.453c-4.113,4.993-6.802,10.449-7.938,15.462c1.508,0.614,2.954,1.464,4.28,2.557
							c1.326,1.095,2.436,2.352,3.328,3.716c4.699-2.074,9.538-5.757,13.651-10.75c6.532-7.932,9.482-17.032,8.304-23.66
							C53.738,24.888,45.373,29.521,38.839,37.453z"/>
						<path fill="#284865" d="M49.217,28.382c-0.623,0.361-1.055,0.666-1.055,0.666c-0.028-0.004,6.139,4.009,10.412,8.775
							c0,0,0.398-0.985,0.495-1.316C58.703,33.336,53.575,28.137,49.217,28.382z"/>
						<path fill="#3C6075" d="M35.537,52.128c-2.717,3.298-4.488,6.633-4.796,8.734c2.003-0.702,4.937-3.079,7.654-6.378
							c2.718-3.299,4.488-6.634,4.796-8.734C41.187,46.452,38.254,48.829,35.537,52.128z"/>
						<path fill="#121D21" d="M30.76,60.762c-0.005,0.032-0.014,0.068-0.019,0.101c2.003-0.702,4.937-3.079,7.654-6.378
							c2.718-3.299,4.488-6.634,4.796-8.734c-0.03,0.011-0.064,0.026-0.096,0.036L30.76,60.762z"/>
						<path fill="#DF642E" d="M49.209,28.387c1.687,1.216,3.396,2.519,5.07,3.9c1.674,1.38,3.275,2.794,4.79,4.22
							c1.511-4.232,2.003-8.312,1.395-11.729C56.997,24.834,53.073,26.094,49.209,28.387z"/>
						<path fill="#BF372D" d="M54.441,32.422c1.614,1.338,3.163,2.706,4.628,4.084c1.511-4.232,2.003-8.312,1.395-11.729
							c-0.061,0.002-0.122,0.003-0.186,0.005L54.441,32.422z"/>
						<path fill="#BF372D" d="M54.012,32.089c1.614,1.337,3.593,3.042,5.058,4.422c1.512-4.232,2.003-8.312,1.395-11.729
							c-0.061,0.001-0.122,0.003-0.186,0.004L54.012,32.089z"/>
						<path fill="#EAAB28" d="M50.961,36.401l-0.041-0.035c-0.787-0.65-1.777-0.96-2.789-0.872
							c-1.011,0.088-1.918,0.563-2.557,1.336c-1.3,1.58-1.064,3.958,0.524,5.305l0.041,0.034c1.628,1.343,4.024,1.133,5.343-0.467
							C52.782,40.125,52.548,37.746,50.961,36.401z"/>
						<path fill="#284865" d="M50.339,37.071c-1.232-1.018-3.049-0.859-4.047,0.352c-0.998,1.213-0.807,3.025,0.428,4.042
							c1.232,1.017,3.048,0.859,4.045-0.354C51.764,39.901,51.571,38.087,50.339,37.071z"/>
					</g>
				</g>
			</g>
		</g>
		<path opacity="0.22" fill="#CFCFCF" d="M60.464,24.778c-0.767,0.013-25.511,30.513-25.511,30.513
			c0.075,0.061,0.153,0.119,0.228,0.181c1.326,1.095,2.436,2.352,3.328,3.716c4.699-2.074,9.538-5.757,13.651-10.75
			C58.692,40.506,61.643,31.405,60.464,24.778z"/>
		<path opacity="0.22" fill="#CFCFCF" d="M60.464,24.778c-0.767,0.013-25.511,30.513-25.511,30.513
			c0.075,0.061,0.153,0.119,0.228,0.181c1.326,1.095,2.436,2.352,3.328,3.716c4.699-2.074,9.538-5.757,13.651-10.75
			C58.692,40.506,61.643,31.405,60.464,24.778z"/>
	</g>
	<g>
		<g>
			<path fill-rule="evenodd" clip-rule="evenodd" fill="#D3683C" d="M41.958,39.902l-0.005,0.344l-0.022,1.541
				c-0.003,0.207-0.181,0.378-0.388,0.375c-0.208-0.003-0.379-0.179-0.376-0.387l0.023-1.54l0.006-0.344l0.002-0.122
				c0.004-0.278-0.22-0.509-0.499-0.513l0,0c-0.277-0.005-0.508,0.219-0.513,0.497l-0.001,0.123l-0.005,0.344l-0.023,1.54
				c-0.011,0.767,0.605,1.402,1.371,1.413l0,0c0.767,0.013,1.402-0.605,1.414-1.371l0.023-1.54l0.006-0.345l0.001-0.122
				c0.005-0.278-0.22-0.509-0.498-0.513l0,0c-0.277-0.004-0.508,0.219-0.513,0.497L41.958,39.902z"/>
			<path fill-rule="evenodd" clip-rule="evenodd" fill="#353D46" d="M37.594,47.36L37.594,47.36c0.277,0.005,0.508-0.22,0.512-0.498
				l0.05-3.578c0.003-0.277-0.22-0.509-0.497-0.513l0,0c-0.278-0.005-0.51,0.221-0.513,0.498l-0.05,3.578
				C37.092,47.125,37.316,47.356,37.594,47.36z"/>
			<path fill-rule="evenodd" clip-rule="evenodd" fill="#353D46" d="M36.108,48.802L36.108,48.802
				c0.278,0.004,0.509-0.22,0.513-0.498l0.04-2.975c0.003-0.278-0.22-0.509-0.498-0.513l0,0c-0.278-0.004-0.509,0.221-0.513,0.498
				l-0.04,2.975C35.606,48.565,35.83,48.798,36.108,48.802z"/>
			<path fill-rule="evenodd" clip-rule="evenodd" fill="#353D46" d="M39.096,45.901L39.096,45.901
				c0.278,0.005,0.509-0.219,0.513-0.497l0.058-4.151c0.004-0.277-0.22-0.508-0.498-0.513l0,0c-0.278-0.004-0.509,0.22-0.512,0.498
				L38.6,45.39C38.595,45.666,38.818,45.897,39.096,45.901z"/>
		</g>
		<path fill="#FFFFFF" d="M36.713,44.397l-0.017,0.647c0,0.016-0.001,0.029-0.001,0.036c0,0.001,0,0.003,0,0.004
			c0-0.001,0-0.003,0-0.005c0-0.004,0.001-0.006,0.001-0.009c0,0.004,0.001,0.007,0.001,0.01c0,0.001,0,0.003,0,0.004
			c0-0.001,0-0.003,0-0.003c0.013,0.168,0.134,0.249,0.284,0.18c0,0,0.265-0.123,0.397-0.119c0.252,0.006,0.452,0.24,0.445,0.523
			c-0.006,0.283-0.218,0.509-0.471,0.502c-0.131-0.003-0.39-0.139-0.39-0.139c-0.15-0.077-0.276,0.001-0.293,0.176
			c0,0.001,0,0.002,0,0.003l-0.001,0.029l-0.013,0.521"/>
		<path fill="#353D46" d="M36.64,46.251c0.011-0.252,0.076-0.322,0.217-0.319c0.046,0,0.094,0.013,0.14,0.037
			c0.094,0.048,0.276,0.125,0.358,0.127c0.212,0.004,0.388-0.19,0.393-0.432c0.003-0.242-0.165-0.441-0.376-0.444
			c-0.083-0.001-0.266,0.069-0.362,0.114c-0.048,0.022-0.096,0.025-0.141,0.033c-0.171,0.021-0.204-0.113-0.247-0.233"/>
		<path fill="#353D46" d="M36.616,45.092"/>
		<path fill="#FFFFFF" d="M38.596,45.123l0.009-0.646c0-0.018,0-0.029,0.001-0.037c0-0.002,0-0.003,0-0.004c0,0.001,0,0.003,0,0.006
			c0,0.003,0,0.006,0,0.008c-0.001-0.003-0.001-0.006-0.002-0.01c0-0.002,0-0.003,0-0.004c0,0.001,0,0.002,0,0.004
			c-0.015-0.168-0.137-0.247-0.286-0.177c0,0-0.264,0.126-0.396,0.124c-0.252-0.002-0.455-0.234-0.452-0.518
			c0.003-0.285,0.212-0.512,0.465-0.508c0.131,0.002,0.392,0.133,0.392,0.133c0.15,0.076,0.276-0.004,0.291-0.179
			c0-0.001,0-0.002,0-0.003l0-0.029l0.006-0.521"/>
		<path fill="#353D46" d="M38.689,44.473c0-0.016,0-0.027,0-0.035h-0.001c-0.001-0.002-0.001-0.004-0.001-0.006l-0.07,0.002
			l-0.013-0.002l0.013,0.002c0.008-0.221-0.046-0.273-0.184-0.273c-0.046,0-0.093,0.011-0.141,0.035
			c-0.095,0.045-0.278,0.118-0.361,0.117c-0.211-0.001-0.383-0.198-0.381-0.439c0.001-0.242,0.174-0.438,0.385-0.436
			c0.084,0,0.265,0.074,0.36,0.122c0.048,0.022,0.095,0.036,0.141,0.036c0.141,0,0.179-0.131,0.192-0.298"/>
		<path fill="#FFFFFF" d="M41.177,41.138c0.008,0.032,0.001,0.105-0.018,0.185c0,0-0.141,0.288-0.139,0.432
			c0,0.277,0.253,0.501,0.563,0.501c0.31-0.002,0.562-0.228,0.561-0.505c-0.001-0.144-0.143-0.431-0.143-0.431
			c-0.047-0.095-0.064-0.227-0.061-0.312"/>
	</g>
	<g>
	</g>
	<g>
	</g>
	<g>
	</g>
	<g>
	</g>
	<g>
	</g>
	<g>
	</g>
</g>
</svg>
