<?xml version="1.0" encoding="utf-8"?>
<!-- Generator: Adobe Illustrator 16.0.0, SVG Export Plug-In . SVG Version: 6.00 Build 0)  -->
<!DOCTYPE svg PUBLIC "-//W3C//DTD SVG 1.1//EN" "http://www.w3.org/Graphics/SVG/1.1/DTD/svg11.dtd">
<svg version="1.1" xmlns="http://www.w3.org/2000/svg" xmlns:xlink="http://www.w3.org/1999/xlink" x="0px" y="0px"
	 width="107.702px" height="84.74px" viewBox="0 0 107.702 84.74" enable-background="new 0 0 107.702 84.74" xml:space="preserve">
<g id="Background">
</g>
<g id="Objects">
	<g>
		<g>
			<path fill="#A5BACC" d="M9.333,53.677c2.646,0.004,7.923-2.575,7.923-2.575c3.05-1.495,5.566,0.164,5.818,3.682
				c0.001,0.02,0.007,0.041,0.007,0.061l0.006,0.58l-0.047,29.04l5.542,0.009v0.012l25.785,0.044c0.414,0,0.689-0.007,0.82-0.013
				c-0.049,0.003-0.13,0.008-0.225,0.014c0.068-0.001,0.127,0,0.171-0.006c-0.056,0.006-0.147,0.008-0.265,0.017
				c0.043,0.001,0.083,0.009,0.124,0.014c3.426-0.31,5.021-2.793,3.55-5.806c0,0-2.58-5.276-2.574-7.92
				c0.007-5.098,4.632-9.22,10.334-9.209c5.705,0.008,10.316,4.146,10.309,9.242c-0.005,2.645-2.599,7.913-2.599,7.913
				c-1.488,3.019,0.116,5.521,3.574,5.82c0.067-0.003,0.133-0.017,0.202-0.021l0.578-0.008l10.512,0.017l0,0l18.516,0.031
				l0.048-29.033c0,0,0.271-19.952,0.044-23.517c-0.011,0.161-0.007-0.073-0.005-0.482l0.05-31.308c0,0-3.256,0-5.131,0.007
				L78.354,0.256c-0.036,0-0.26,0-0.625-0.001c-0.056,0-0.103,0-0.141,0.004c0.028-0.004,0.064-0.004,0.098-0.004
				c-3.886-0.006-23.33-0.038-23.33-0.038L41.693,0.182V0.169L29.51,0.15c-0.436,0-5.894-0.022-6.333-0.024l-0.051,31.297
				c-0.001,0.344,0.003,0.585,0.007,0.736c0.002,0.03,0.006,0.058,0.006,0.082c-0.003-0.026-0.006-0.067-0.009-0.109
				c-0.005-0.06-0.011-0.116-0.018-0.176c-0.005,0.068-0.013,0.133-0.019,0.195c-0.005,0.032-0.009,0.064-0.007,0.082
				c0-0.015,0.001-0.044,0.001-0.065c-0.343,3.375-2.819,4.936-5.807,3.464c0,0-5.27-2.598-7.914-2.602
				c-5.097-0.008-9.232,4.607-9.242,10.307C0.115,49.038,4.236,53.668,9.333,53.677z"/>
		</g>
		<path fill="#FFFFFF" stroke="#999999" stroke-width="0.25" stroke-miterlimit="10" d="M9.333,53.677
			c2.646,0.004,7.923-2.575,7.923-2.575c3.05-1.495,5.566,0.164,5.818,3.682c0.001,0.02,0.007,0.041,0.007,0.061l0.006,0.58
			l-0.047,29.04l5.542,0.009v0.012l25.785,0.044c0.414,0,0.689-0.007,0.82-0.013c-0.049,0.003-0.13,0.008-0.225,0.014
			c0.068-0.001,0.127,0,0.171-0.006c-0.056,0.006-0.147,0.008-0.265,0.017c0.043,0.001,0.083,0.009,0.124,0.014
			c3.426-0.31,5.021-2.793,3.55-5.806c0,0-2.58-5.276-2.574-7.92c0.007-5.098,4.632-9.22,10.334-9.209
			c5.705,0.008,10.316,4.146,10.309,9.242c-0.005,2.645-2.599,7.913-2.599,7.913c-1.488,3.019,0.116,5.521,3.574,5.82
			c0.067-0.003,0.133-0.017,0.202-0.021l0.578-0.008l10.512,0.017l0,0l18.516,0.031l0.048-29.033c0,0,0.271-19.952,0.044-23.517
			c-0.011,0.161-0.007-0.073-0.005-0.482l0.05-31.308c0,0-3.256,0-5.131,0.007L78.354,0.256c-0.036,0-0.26,0-0.625-0.001
			c-0.056,0-0.103,0-0.141,0.004c0.028-0.004,0.064-0.004,0.098-0.004c-3.886-0.006-23.33-0.038-23.33-0.038L41.693,0.182V0.169
			L29.51,0.15c-0.436,0-5.894-0.022-6.333-0.024l-0.051,31.297c-0.001,0.344,0.003,0.585,0.007,0.736
			c0.002,0.03,0.006,0.058,0.006,0.082c-0.003-0.026-0.006-0.067-0.009-0.109c-0.005-0.06-0.011-0.116-0.018-0.176
			c-0.005,0.068-0.013,0.133-0.019,0.195c-0.005,0.032-0.009,0.064-0.007,0.082c0-0.015,0.001-0.044,0.001-0.065
			c-0.343,3.375-2.819,4.936-5.807,3.464c0,0-5.27-2.598-7.914-2.602c-5.097-0.008-9.232,4.607-9.242,10.307
			C0.115,49.038,4.236,53.668,9.333,53.677z"/>
		<path fill="#BE8E61" d="M29.508,1.65l10.877,0.018l1.303,0.014l12.664,0.032l23.316,0.039l0.099,0l24.631,0.028l3.633-0.007
			l-0.05,30.068c0,0.146-0.002,0.299,0.018,0.464c0.205,3.854-0.053,23.058-0.056,23.251l-0.046,27.553l-27.525-0.045l-0.599,0.005
			c-0.089,0.005-0.145,0.011-0.194,0.017c-1.155-0.131-2.022-0.576-2.396-1.24c-0.348-0.615-0.287-1.475,0.178-2.413
			c0.28-0.569,2.744-5.66,2.75-8.57c0.01-5.916-5.283-10.734-11.804-10.745c-6.517-0.011-11.83,4.791-11.84,10.706
			c-0.004,2.91,2.445,8.01,2.726,8.58c0.324,0.662,0.616,1.618,0.172,2.407c-0.354,0.629-1.156,1.062-2.225,1.214v-0.01
			c-0.122,0.004-0.381,0.012-0.768,0.011l-24.287-0.04l-1.5-0.014l-4.04-0.008l0.045-27.54l-0.01-0.687l-0.012-0.114
			c-0.237-3.308-2.308-5.57-5.145-5.574c-0.922-0.001-1.872,0.236-2.825,0.701c-1.922,0.938-5.592,2.423-7.263,2.42
			c-4.255-0.008-7.716-3.97-7.709-8.833c0.01-4.863,3.481-8.812,7.739-8.806c1.672,0.002,5.336,1.498,7.253,2.444
			c0.951,0.469,1.901,0.708,2.821,0.71c2.792,0.004,4.808-2.106,5.145-5.369l-1.438-0.075l0.41-0.011l1.031,0.033
			c0.004-0.025,0.004-0.05,0.01-0.076h0.04l-0.003-0.072c-0.004-0.141-0.008-0.366-0.008-0.693l0.049-29.792
			C26.46,1.638,29.202,1.65,29.508,1.65z"/>
	</g>
	<g>
		<path fill="#FFFFFF" stroke="#713700" stroke-width="0.25" stroke-miterlimit="10" d="M72.556,52.265
			c0,0.776-0.629,1.405-1.404,1.405H44.656c-0.776,0-1.403-0.629-1.403-1.405V7.325c0-0.775,0.627-1.404,1.403-1.404h26.495
			c0.775,0,1.404,0.629,1.404,1.404V52.265z"/>
		<path opacity="0.4" fill="#61AABE" stroke="#713700" stroke-miterlimit="10" d="M70.309,24.552c0,0.775-0.631,1.404-1.405,1.404
			h-22c-0.775,0-1.404-0.629-1.404-1.404V9.106c0-0.776,0.629-1.405,1.404-1.405h22c0.774,0,1.405,0.629,1.405,1.405V24.552z"/>
		<path fill="#FFFFFF" stroke="#713700" stroke-width="0.25" stroke-miterlimit="10" d="M35.002,52.869
			c-0.478,0-0.979-0.062-1.501-0.188l0,0c-1.106-0.258-2.008-0.849-2.554-1.666l0,0c-0.55-0.817-0.741-1.771-0.741-2.738l0,0
			c0.004-1.512,0.453-3.13,1.055-4.728l0,0c0.603-1.596,1.371-3.166,2.068-4.503l0,0c2.157-4.145,2.319-8.248,2.319-11.081l0,0
			c0-0.452-0.004-0.873-0.004-1.26l0,0h2.106c0,0.373,0.005,0.796,0.005,1.26l0,0c-0.003,2.916-0.153,7.434-2.558,12.055l0,0
			c-0.678,1.299-1.414,2.804-1.969,4.273l0,0c-0.558,1.468-0.924,2.906-0.919,3.983l0,0c0,0.695,0.142,1.209,0.38,1.557l0,0
			c0.243,0.348,0.586,0.621,1.305,0.802l0,0c0.378,0.089,0.711,0.127,1.007,0.127l0,0c0.721-0.005,1.22-0.208,1.678-0.581l0,0
			c0.454-0.369,0.854-0.954,1.174-1.707l0,0c0.643-1.505,0.902-3.64,0.899-5.605l0,0c0-1.116-0.08-2.184-0.197-3.054l0,0
			c-0.064-0.483-0.092-0.98-0.092-1.485l0,0c0.006-2.762,0.834-5.792,1.729-7.835l0,0c0.304-0.685,0.609-1.254,0.952-1.708l0,0
			c0.201-0.258,0.399-0.488,0.733-0.685l0,0c0.178-0.104,0.416-0.198,0.718-0.2l0,0c0,0,0,1.856,0,2.439
			c0,0-0.604,1.241-0.911,2.103l0,0c-0.617,1.729-1.119,3.995-1.115,5.887l0,0c0,0.425,0.022,0.83,0.074,1.204l0,0
			c0.132,0.969,0.216,2.119,0.216,3.335l0,0c0,1.607-0.146,3.327-0.557,4.901l0,0c-0.414,1.57-1.081,3.037-2.284,4.039l0,0
			c-0.789,0.66-1.828,1.061-2.99,1.061l0,0C35.021,52.869,35.011,52.869,35.002,52.869L35.002,52.869z"/>
		<path fill="#EC6F24" d="M37.306,14.723c-0.747,0.749-3.184,2.762-2.246,4.727c0.936,1.967,0.326,3.651,0.326,4.635
			c0,0.984,0,2.014,0.517,2.014c0.515,0,1.451,0.045,1.919,0.045c0.935-3.616-0.516-3.79-0.189-4.54
			c0.33-0.748,2.319-2.177,3.604-0.89C42.151,19.801,42.036,18.513,37.306,14.723z"/>
		<path fill="#FFFFFF" d="M37.599,14.384c1.089-1.09,3.757-2.916,4.987-3.301c0,0.844,0,1.826,0,1.826s-2.599,1.614-2.969,2.967
			C38.74,14.997,37.599,14.384,37.599,14.384z"/>
		<path fill="#FFFFFF" d="M41.074,21.265c-0.387-0.387-0.737-0.598-1.334-0.387c0,0.526,0.106,2.984-0.279,3.371
			c-0.388,0.387-0.773,0.352-0.773,0.352s-0.125,1.07-0.318,1.263c0.882,0,2.722-0.387,2.722-1.844S41.074,21.265,41.074,21.265z"/>
		<path fill="#FFFFFF" stroke="#713700" stroke-width="0.25" stroke-miterlimit="10" d="M73.493,56.055v-0.278
			c0-0.776-0.63-1.405-1.406-1.405H43.719c-0.776,0-1.404,0.629-1.404,1.405v0.278H73.493z"/>
		<path fill="#EC6F24" d="M70.309,24.552v-2.268c-0.913,0.361-1.986,0.691-3.545,0.691c-4.433,0-4.433-1.124-8.861-1.124
			c-4.428,0-4.428,1.124-8.858,1.124c-1.562,0-2.63-0.33-3.545-0.69v2.267c0,0.775,0.629,1.404,1.404,1.404h22
			C69.678,25.957,70.309,25.327,70.309,24.552z"/>
	</g>
	<g>
		<g>
			<path fill-rule="evenodd" clip-rule="evenodd" fill="#F16836" d="M64.861,16.263l-0.362,0.36l-1.619,1.62
				c-0.219,0.217-0.584,0.217-0.802,0c-0.22-0.219-0.22-0.585,0-0.804l1.618-1.618l0.361-0.361l0.129-0.128
				c0.292-0.293,0.292-0.77,0-1.062l0,0c-0.293-0.292-0.771-0.292-1.062,0l-0.129,0.129l-0.361,0.361l-1.618,1.619
				c-0.804,0.805-0.804,2.121,0,2.926l0,0c0.805,0.805,2.122,0.805,2.926,0l1.619-1.619l0.361-0.361l0.128-0.128
				c0.292-0.291,0.292-0.77,0-1.062l0,0c-0.292-0.291-0.77-0.291-1.062,0L64.861,16.263z"/>
			<path fill-rule="evenodd" clip-rule="evenodd" fill="#2D3B45" d="M52.488,19.699L52.488,19.699c0.292,0.292,0.77,0.292,1.062,0
				l3.756-3.766c0.29-0.292,0.291-0.769,0-1.062l0,0c-0.292-0.292-0.771-0.292-1.062,0l-3.756,3.765
				C52.196,18.929,52.195,19.407,52.488,19.699z"/>
			<path fill-rule="evenodd" clip-rule="evenodd" fill="#2D3B45" d="M49.413,19.699L49.413,19.699c0.291,0.292,0.77,0.292,1.062,0
				l3.121-3.131c0.291-0.292,0.292-0.77,0-1.061l0,0c-0.292-0.293-0.772-0.292-1.062,0l-3.121,3.13
				C49.122,18.929,49.122,19.407,49.413,19.699z"/>
			<path fill-rule="evenodd" clip-rule="evenodd" fill="#2D3B45" d="M55.6,19.699L55.6,19.699c0.292,0.292,0.77,0.292,1.062,0
				l4.357-4.366c0.291-0.292,0.291-0.77,0-1.062l0,0c-0.293-0.292-0.771-0.292-1.062,0L55.6,18.637
				C55.308,18.929,55.307,19.407,55.6,19.699z"/>
		</g>
		<path fill="#FFFFFF" d="M54.614,15.628l-0.688,0.674c-0.018,0.017-0.03,0.029-0.038,0.037c-0.002,0.001-0.002,0.003-0.005,0.004
			c0.003-0.001,0.004-0.003,0.007-0.005c0.003-0.003,0.007-0.005,0.01-0.008c-0.004,0.004-0.006,0.007-0.008,0.011
			c-0.003,0.001-0.005,0.003-0.005,0.004c0-0.001,0.001-0.002,0.003-0.003c-0.16,0.192-0.115,0.403,0.117,0.485
			c0,0,0.409,0.144,0.546,0.283c0.264,0.268,0.232,0.725-0.067,1.02c-0.3,0.295-0.758,0.316-1.021,0.048
			c-0.137-0.139-0.274-0.551-0.274-0.551c-0.078-0.238-0.295-0.285-0.493-0.117c-0.001,0.001-0.003,0.002-0.005,0.003l-0.029,0.029
			l-0.554,0.543"/>
		<path fill="#2D3B45" d="M52.618,17.53c0.273-0.26,0.415-0.267,0.562-0.119c0.049,0.049,0.085,0.112,0.111,0.185
			c0.051,0.15,0.162,0.419,0.248,0.507c0.224,0.223,0.611,0.198,0.865-0.055c0.256-0.253,0.282-0.641,0.06-0.863
			c-0.086-0.087-0.356-0.203-0.505-0.253c-0.074-0.025-0.129-0.071-0.184-0.11c-0.205-0.153-0.102-0.331-0.023-0.503"/>
		<path fill="#2D3B45" d="M53.793,16.268"/>
		<path fill="#FFFFFF" d="M55.872,18.352l0.679-0.682c0.018-0.018,0.03-0.03,0.039-0.038c0.001-0.001,0.003-0.003,0.004-0.004
			c-0.002,0.002-0.003,0.004-0.006,0.006c-0.003,0.002-0.007,0.004-0.01,0.007c0.003-0.003,0.006-0.007,0.009-0.011
			c0.001-0.001,0.003-0.003,0.004-0.004c-0.001,0.001-0.003,0.003-0.003,0.004c0.158-0.195,0.109-0.406-0.124-0.484
			c0,0-0.41-0.139-0.549-0.277c-0.267-0.265-0.241-0.722,0.055-1.021c0.296-0.299,0.754-0.326,1.021-0.061
			c0.14,0.138,0.279,0.547,0.279,0.547c0.081,0.237,0.3,0.282,0.496,0.111c0.001-0.001,0.002-0.001,0.004-0.002l0.03-0.031
			l0.547-0.55"/>
		<path fill="#2D3B45" d="M56.643,17.752c0.019-0.017,0.03-0.028,0.037-0.035l-0.001-0.001c0.002-0.003,0.004-0.006,0.006-0.008
			l-0.076-0.07l-0.013-0.015l0.013,0.015c0.237-0.227,0.233-0.338,0.086-0.482c-0.049-0.048-0.11-0.084-0.186-0.108
			c-0.149-0.05-0.419-0.161-0.508-0.248c-0.225-0.22-0.203-0.608,0.049-0.864c0.252-0.257,0.639-0.286,0.864-0.066
			c0.087,0.087,0.202,0.354,0.256,0.503c0.026,0.074,0.064,0.136,0.112,0.183c0.149,0.146,0.325,0.046,0.513-0.119"/>
	</g>
	<g opacity="0.4">
		<path fill="#713700" d="M93.541,71.294l-0.085,1.459c0.005,1.393,0.382,2.284,1.132,2.676l7.693-0.026l0.015,4.428l-12.151,0.042
			l-0.014-4.152l1.561-0.15c-1.193-0.738-1.792-1.774-1.797-3.106c-0.002-0.473,0.042-0.886,0.131-1.236L93.541,71.294z"/>
		<path fill="#713700" d="M96.077,70.72c-1.213,0.004-2.294-0.268-3.243-0.816c-0.949-0.548-1.68-1.339-2.192-2.371
			c-0.513-1.031-0.771-2.243-0.776-3.637c-0.007-2.128,0.551-3.808,1.673-5.038s2.653-1.85,4.593-1.856h0.135
			c1.894-0.007,3.399,0.604,4.515,1.831c1.117,1.227,1.679,2.892,1.686,4.993c0.007,2.023-0.506,3.65-1.539,4.881
			c-1.032,1.229-2.436,1.896-4.21,1.999L96.077,70.72z M96.297,66.292c1.123-0.004,1.946-0.213,2.469-0.626
			c0.522-0.414,0.783-1.022,0.78-1.829c-0.006-1.576-1.045-2.379-3.119-2.406l-0.382,0.001c-2.179,0.007-3.266,0.825-3.26,2.454
			c0.005,1.48,0.947,2.279,2.827,2.396L96.297,66.292z"/>
		<path fill="#713700" d="M99.495,49.029c-0.002-0.622-0.148-1.104-0.438-1.444s-0.692-0.505-1.209-0.495l-0.015-4.152
			c1.333-0.004,2.428,0.551,3.285,1.664c0.857,1.114,1.289,2.551,1.295,4.312c0.008,2.067-0.541,3.699-1.645,4.894
			c-1.104,1.195-2.638,1.796-4.599,1.803l-0.157,0.001c-1.229,0.004-2.312-0.257-3.254-0.784c-0.941-0.525-1.666-1.288-2.176-2.285
			c-0.508-0.996-0.766-2.178-0.77-3.544c-0.007-1.849,0.426-3.318,1.299-4.407c0.872-1.089,2.057-1.636,3.554-1.642l0.015,4.152
			c-0.629,0.003-1.111,0.183-1.447,0.544c-0.335,0.36-0.502,0.842-0.5,1.446c0.004,1.147,0.631,1.816,1.883,2.005
			c0.396,0.06,0.943,0.088,1.64,0.086c1.22-0.004,2.065-0.178,2.536-0.521S99.497,49.773,99.495,49.029z"/>
		<path fill="#713700" d="M97.617,35.356l1.071,1.245l3.459-0.012l0.016,4.428l-17.262,0.06l-0.015-4.428l9.164-0.031l-0.507-0.446
			l-3.561-3.325l-0.019-5.308l5.015,4.962l7.136-5.333l0.018,5.072L97.617,35.356z"/>
		<path fill="#713700" d="M102.314,19.716c0.007,2.181-0.542,3.948-1.65,5.301c-1.106,1.354-2.551,2.032-4.333,2.038l-0.314,0.002
			c-1.242,0.004-2.341-0.262-3.293-0.797c-0.953-0.536-1.691-1.319-2.216-2.351c-0.523-1.032-0.788-2.258-0.793-3.677
			c-0.007-1.997,0.518-3.576,1.573-4.736s2.53-1.743,4.425-1.75l1.471-0.005l0.03,8.804c0.681-0.159,1.215-0.508,1.603-1.043
			c0.388-0.536,0.58-1.228,0.577-2.078c-0.005-1.401-0.429-2.495-1.27-3.28l2.037-2.03c0.653,0.55,1.175,1.329,1.563,2.339
			C102.113,17.463,102.311,18.551,102.314,19.716z M92.636,20.249c0.004,1.297,0.74,2.065,2.209,2.306l-0.016-4.468l-0.292,0.001
			c-0.606-0.015-1.075,0.166-1.407,0.544S92.633,19.548,92.636,20.249z"/>
		<path fill="#713700" d="M86.873,6.839l3.021-0.01l-0.008-2.339l2.628-0.009l0.008,2.339l5.56-0.02
			c0.456-0.002,0.774-0.099,0.953-0.292c0.18-0.193,0.268-0.574,0.266-1.144c-0.001-0.438-0.024-0.806-0.071-1.104l2.707-0.01
			c0.22,0.797,0.331,1.628,0.334,2.495c0.006,1.524-0.298,2.651-0.909,3.381s-1.542,1.096-2.793,1.1l-6.03,0.021l0.006,1.813
			l-2.628,0.009l-0.006-1.813l-3.021,0.01L86.873,6.839z"/>
	</g>
	<g>
	</g>
	<g>
	</g>
	<g>
	</g>
	<g>
	</g>
	<g>
	</g>
	<g>
	</g>
</g>
</svg>
