<?xml version="1.0" encoding="utf-8"?>
<!-- Generator: Adobe Illustrator 16.0.0, SVG Export Plug-In . SVG Version: 6.00 Build 0)  -->
<!DOCTYPE svg PUBLIC "-//W3C//DTD SVG 1.1//EN" "http://www.w3.org/Graphics/SVG/1.1/DTD/svg11.dtd">
<svg version="1.1" xmlns="http://www.w3.org/2000/svg" xmlns:xlink="http://www.w3.org/1999/xlink" x="0px" y="0px"
	 width="117.038px" height="91.97px" viewBox="0 0 117.038 91.97" enable-background="new 0 0 117.038 91.97" xml:space="preserve">
<g id="Background">
</g>
<g id="Objects">
	<g>
		<g>
			<path fill="#A5BACC" d="M106.887,33.611c-2.876,0-8.608,2.812-8.608,2.812c-3.312,1.629-6.05-0.169-6.329-3.991
				c-0.002-0.022-0.009-0.044-0.009-0.066l-0.007-0.631V0.171h-6.024V0.157H57.881c-0.449,0-0.748,0.007-0.892,0.014
				c0.055-0.002,0.142-0.008,0.244-0.014c-0.074,0-0.138,0-0.185,0.005c0.061-0.005,0.16-0.008,0.286-0.019
				c-0.047,0-0.09-0.008-0.134-0.015c-3.724,0.344-5.453,3.045-3.848,6.317c0,0,2.812,5.73,2.812,8.604
				c0,5.541-5.021,10.029-11.218,10.029c-6.201,0-11.22-4.489-11.22-10.029c0-2.874,2.81-8.604,2.81-8.604
				c1.612-3.286-0.137-6-3.896-6.32c-0.073,0.003-0.145,0.018-0.219,0.023l-0.63,0.008H20.369l0,0H0.243v31.557
				c0,0-0.262,21.688-0.007,25.561c0.012-0.175,0.007,0.08,0.007,0.525v34.03c0,0,3.541-0.006,5.577-0.017L31.957,91.8
				c0.039,0,0.283,0,0.681,0c0.06,0,0.111,0,0.151-0.004C32.76,91.8,32.719,91.8,32.684,91.8c4.225,0,25.359,0,25.359,0
				l13.765,0.015v0.014H85.05c0.475,0,6.407,0.014,6.884,0.016v-34.02c0-0.374-0.005-0.636-0.009-0.801
				c-0.003-0.031-0.006-0.062-0.006-0.088c0.003,0.028,0.006,0.073,0.009,0.118c0.006,0.065,0.013,0.126,0.02,0.192
				c0.006-0.075,0.014-0.146,0.021-0.213c0.005-0.034,0.008-0.069,0.008-0.089c0,0.017-0.002,0.048-0.002,0.071
				c0.366-3.669,3.056-5.37,6.305-3.776c0,0,5.732,2.814,8.608,2.814c5.539,0,10.026-5.024,10.026-11.22
				C116.913,38.636,112.426,33.611,106.887,33.611z"/>
		</g>
		<path fill="#FFFFFF" stroke="#999999" stroke-width="0.25" stroke-miterlimit="10" d="M106.887,33.611
			c-2.876,0-8.608,2.812-8.608,2.812c-3.312,1.629-6.05-0.169-6.329-3.991c-0.002-0.022-0.009-0.044-0.009-0.066l-0.007-0.631V0.171
			h-6.024V0.157H57.881c-0.449,0-0.748,0.007-0.892,0.014c0.055-0.002,0.142-0.008,0.244-0.014c-0.074,0-0.138,0-0.185,0.005
			c0.061-0.005,0.16-0.008,0.286-0.019c-0.047,0-0.09-0.008-0.134-0.015c-3.724,0.344-5.453,3.045-3.848,6.317
			c0,0,2.812,5.73,2.812,8.604c0,5.541-5.021,10.029-11.218,10.029c-6.201,0-11.22-4.489-11.22-10.029
			c0-2.874,2.81-8.604,2.81-8.604c1.612-3.286-0.137-6-3.896-6.32c-0.073,0.003-0.145,0.018-0.219,0.023l-0.63,0.008H20.369l0,0
			H0.243v31.557c0,0-0.262,21.688-0.007,25.561c0.012-0.175,0.007,0.08,0.007,0.525v34.03c0,0,3.541-0.006,5.577-0.017L31.957,91.8
			c0.039,0,0.283,0,0.681,0c0.06,0,0.111,0,0.151-0.004C32.76,91.8,32.719,91.8,32.684,91.8c4.225,0,25.359,0,25.359,0l13.765,0.015
			v0.014H85.05c0.475,0,6.407,0.014,6.884,0.016v-34.02c0-0.374-0.005-0.636-0.009-0.801c-0.003-0.031-0.006-0.062-0.006-0.088
			c0.003,0.028,0.006,0.073,0.009,0.118c0.006,0.065,0.013,0.126,0.02,0.192c0.006-0.075,0.014-0.146,0.021-0.213
			c0.005-0.034,0.008-0.069,0.008-0.089c0,0.017-0.002,0.048-0.002,0.071c0.366-3.669,3.056-5.37,6.305-3.776
			c0,0,5.732,2.814,8.608,2.814c5.539,0,10.026-5.024,10.026-11.22C116.913,38.636,112.426,33.611,106.887,33.611z"/>
		<path fill="#28324E" d="M85.05,90.197H73.227l-1.416-0.014l-13.766-0.013H32.702h-0.108L5.82,90.184l-3.947,0.014V57.515
			c0-0.159,0.002-0.326-0.021-0.506c-0.228-4.188,0.019-25.062,0.021-25.273V1.788h29.921l0.65-0.007
			c0.096-0.005,0.157-0.012,0.211-0.018c1.256,0.14,2.198,0.624,2.607,1.344c0.378,0.669,0.313,1.602-0.189,2.622
			C34.77,6.349,32.1,11.888,32.1,15.05c0,6.431,5.762,11.659,12.849,11.659c7.083,0,12.851-5.228,12.851-11.659
			c0-3.163-2.673-8.702-2.979-9.322c-0.354-0.718-0.672-1.756-0.19-2.614c0.384-0.686,1.256-1.158,2.416-1.325v0.011
			c0.134-0.003,0.415-0.013,0.835-0.013H84.28l1.629,0.013h4.393v29.935l0.01,0.747l0.015,0.124
			c0.264,3.596,2.518,6.051,5.602,6.051c1.001,0,2.034-0.261,3.069-0.768c2.089-1.023,6.073-2.642,7.89-2.642
			c4.626,0,8.395,4.301,8.395,9.587s-3.769,9.585-8.395,9.585c-1.819,0-5.804-1.619-7.89-2.644
			c-1.035-0.508-2.067-0.767-3.067-0.767c-3.034,0-5.223,2.298-5.582,5.844l1.562,0.079l-0.447,0.013l-1.119-0.035
			c-0.006,0.028-0.006,0.055-0.011,0.083h-0.044l0.004,0.079c0.004,0.153,0.009,0.397,0.009,0.753v32.383
			C88.362,90.205,85.381,90.197,85.05,90.197z"/>
	</g>
	<g>
		<g>
			<g>
				<circle opacity="0.1" fill="#FFFFFF" cx="52.426" cy="30.813" r="4.815"/>
				<g>
					<path fill="#E6E1CE" d="M54.715,30.813c0,1.263-1.025,2.289-2.29,2.289c-1.261,0-2.288-1.025-2.288-2.289
						s1.027-2.288,2.288-2.288C53.689,28.525,54.715,29.55,54.715,30.813z"/>
					<circle fill="#D8D1BD" cx="52.768" cy="28.917" r="0.294"/>
					<circle fill="#D8D1BD" cx="50.988" cy="29.947" r="0.475"/>
					<circle fill="#D8D1BD" cx="52.115" cy="30.028" r="0.163"/>
					<circle fill="#D8D1BD" cx="52.589" cy="30.323" r="0.195"/>
					<circle fill="#D8D1BD" cx="51.331" cy="31.288" r="0.212"/>
					<path fill="#D8D1BD" d="M53.21,31.63c0,0.208-0.167,0.375-0.377,0.375c-0.207,0-0.373-0.167-0.373-0.375
						c0-0.208,0.166-0.375,0.373-0.375C53.043,31.255,53.21,31.423,53.21,31.63z"/>
					<circle fill="#D8D1BD" cx="53.765" cy="30.258" r="0.36"/>
					<circle fill="#D8D1BD" cx="51.868" cy="32.433" r="0.474"/>
				</g>
			</g>
			<g>
				<g>
					<path opacity="0.1" fill="#FFFFFF" d="M0.143,43.414c6.062-8.481,15.987-14.011,27.208-14.011
						c18.453,0,33.412,14.959,33.412,33.413c0,12.533-6.897,23.281-17.105,28.999H10.739c-4.137-2.374-7.717-5.611-10.497-9.459
						L0.143,43.414z"/>
					<g>
						<circle fill="#0F82AF" cx="27.35" cy="62.815" r="25.431"/>
						<g>
							<path fill="#B3D661" d="M51.383,54.464l-1.044,2.457l-1.685,1.265v2.356l-1.094,1.686l-2.865,3.62l-1.514-3.368l-1.347-1.094
								l-1.264,2.694h-1.178l-1.012-1.432v-1.517l-3.79-1.684l1.013,2.525l-2.275,0.42l-0.169,2.36l-1.598,0.671l-0.928,7.327
								l-1.097,2.358l-2.271-0.674l-1.517-1.851l-0.842-5.982h-2.274l-2.778-1.937l0.252-4.378l2.697-2.188l4.63,1.261l2.356-1.261
								l-1.514-0.169l-0.674-0.843l-2.443-0.168l-0.925-1.433l-1.853,1.686l-0.927-0.253l0.587-2.44l-1.682-1.937l1.432-1.687
								l0.927,1.599h1.516l-0.339-1.261l1.348-2.695l8.168-1.011l1.18-1.095l2.526-0.166l2.021-2.276l3.957-1.098l0.004-0.006
								c3.787,2.994,6.708,7.041,8.306,11.701L51.383,54.464z"/>
							<polygon fill="#B3D661" points="13.119,42.52 13.119,44.713 14.889,45.132 15.137,47.739 15.73,49.595 16.907,50.77 
								17.666,50.353 18,47.489 20.192,46.562 21.961,42.688 23.055,42.438 22.298,40.415 19.603,39.995 15.643,41.174 							"/>
							<path fill="#B3D661" d="M51.527,70.743l-4.22,2.515l-0.422,1.346l0.675,2.022l1.18-0.056l0.002,0.002
								c1.155-1.79,2.089-3.737,2.77-5.797L51.527,70.743z"/>
							<polygon fill="#B3D661" points="47.055,66.688 47.478,68.374 49.074,68.624 49.749,67.109 48.824,65.425 							"/>
							<polygon fill="#B3D661" points="31.981,72.752 33.074,71.153 34.172,71.74 33.074,73.342 31.981,73.762 							"/>
							<path fill="#B3D661" d="M9.313,44.906l2.711,0.142l1.095,2.358l-2.611,3.363l-0.168,3.539L7.982,59.11l-3.285,1.094
								L4.36,62.058l1.431,0.084l0.927,1.6l0.76,1.265l3.449-0.675l2.53,2.272l0.25,1.602l3.453,0.337l0.086,2.948l-4.127,6.145
								l-1.686,3.368l-0.9,0.894l0.001-0.002c-0.472-0.418-0.934-0.856-1.376-1.307l0.004-0.004l1.009-3.958l-0.253-3.032
								l-2.524-4.801l0.167-2.694L6.55,65.091l-1.012-1.266l-2.525-1.01l-1.01-2.104l-0.005,0.062
								c0.493-6.194,3.205-11.76,7.337-15.911L9.313,44.906z"/>
							<polygon fill="#B3D661" points="25.329,41.596 27.855,40.752 29.371,41.34 28.023,43.952 25.413,44.544 24.571,42.688 
															"/>
						</g>
					</g>
				</g>
				<path opacity="0.2" fill="#28324E" d="M38.878,58.156c3.137,7.583,4.19,15.951-2.118,28.29
					c13.044-5.213,19.39-20.014,14.173-33.055C45.72,40.35,30.919,34.004,17.875,39.22C29.346,43.296,35.527,50.059,38.878,58.156z"
					/>
			</g>
			<g>
				<path fill="#B1B3B4" d="M90.302,67.831c-3.183-5.701-9.273-9.562-16.25-9.562v-0.856c6.785,0,12.768,3.493,16.25,8.771"/>
				<path fill="#B1B3B4" d="M76.384,57.508c0.521,0.895,0.065,2.127-1.015,2.751l-5.343,3.097c-1.079,0.625-2.372,0.404-2.893-0.487
					l-4.473-7.721c-0.517-0.894-0.064-2.129,1.016-2.75l5.341-3.097c1.081-0.625,2.378-0.406,2.894,0.488L76.384,57.508z"/>
				<path fill="#D9DADB" d="M61.562,52.579c0.161,0.282,0.064,0.639-0.216,0.8l0,0c-0.278,0.166-0.638,0.071-0.801-0.214
					l-0.497-0.857c-0.164-0.28-0.067-0.64,0.213-0.803l0,0c0.279-0.161,0.64-0.064,0.801,0.213L61.562,52.579z"/>
				<path fill="#D9DADB" d="M70.958,47.132c0.161,0.28,0.066,0.64-0.213,0.806l0,0c-0.28,0.159-0.64,0.067-0.803-0.213l-0.497-0.862
					c-0.163-0.28-0.068-0.64,0.214-0.801l0,0c0.278-0.163,0.639-0.068,0.8,0.213L70.958,47.132z"/>
				<path fill="#FFFFFF" d="M70.174,46.649c1.549,2.674,0.638,6.098-2.036,7.646c-2.675,1.553-6.098,0.64-7.647-2.035
					c-1.548-2.671-0.637-6.098,2.037-7.646C65.199,43.063,68.623,43.974,70.174,46.649z"/>
				<g>
					<path fill="#FFFFFF" d="M69.396,51.218l1.351,2.333l3.779-2.188c2.45-1.423,3.287-4.562,1.866-7.014l-2.332,1.371
						c0.667,1.151,0.281,2.618-0.863,3.297L69.396,51.218z"/>
					
						<ellipse transform="matrix(0.865 -0.5018 0.5018 0.865 -12.4422 43.8311)" fill="#FFFFFF" cx="75.224" cy="45.035" rx="1.355" ry="1.366"/>
				</g>
				<g>
					<path fill="#FFFFFF" d="M66.495,56.22l-1.354-2.331l-3.776,2.187c-2.451,1.42-3.287,4.559-1.867,7.014l2.334-1.373
						c-0.668-1.147-0.282-2.617,0.86-3.293L66.495,56.22z"/>
					<path fill="#FFFFFF" d="M59.493,63.085c-0.376-0.653-0.158-1.49,0.488-1.861c0.649-0.377,1.481-0.155,1.857,0.502
						c0.376,0.652,0.161,1.485-0.487,1.859C60.705,63.961,59.873,63.735,59.493,63.085z"/>
				</g>
				
					<rect x="65.421" y="51.63" transform="matrix(0.8651 -0.5015 0.5015 0.8651 -19.0003 42.5252)" fill="#FFFFFF" width="8.307" height="9.927"/>
				<path fill="#FFFFFF" d="M75.354,68.372c0.451,0.773,0.185,1.77-0.591,2.219l0,0c-0.776,0.448-1.771,0.185-2.219-0.593
					l-4.572-7.885c-0.449-0.78-0.185-1.771,0.593-2.224l0,0c0.776-0.447,1.768-0.184,2.22,0.592L75.354,68.372z"/>
				<path fill="#FFFFFF" d="M79.728,65.835c0.45,0.775,0.185,1.771-0.592,2.221l0,0c-0.776,0.451-1.77,0.187-2.22-0.588l-4.569-7.89
					c-0.452-0.779-0.188-1.771,0.59-2.22l0,0c0.774-0.452,1.771-0.185,2.218,0.593L79.728,65.835z"/>
				<path fill="#D9DADB" d="M72.479,57.561c0.247,0.43,0.102,0.984-0.328,1.236l-2.137,1.232c-0.429,0.252-0.983,0.104-1.231-0.326
					l-2.156-3.725c-0.252-0.431-0.104-0.983,0.325-1.231l2.134-1.238c0.436-0.249,0.983-0.104,1.236,0.33L72.479,57.561z"/>
				<path fill="#D9DADB" d="M75.229,67.438c-0.084-0.142-0.32-0.166-0.525-0.048l-2.65,1.535c-0.203,0.118-0.302,0.332-0.214,0.479
					l0,0c0.08,0.146,0.317,0.169,0.521,0.05l2.648-1.536C75.214,67.799,75.312,67.585,75.229,67.438L75.229,67.438z"/>
				<path fill="#D9DADB" d="M79.576,64.92c-0.084-0.144-0.319-0.166-0.526-0.047l-2.648,1.533c-0.205,0.119-0.302,0.332-0.218,0.479
					l0,0c0.085,0.146,0.318,0.168,0.525,0.05l2.648-1.535C79.56,65.281,79.66,65.065,79.576,64.92L79.576,64.92z"/>
				<path fill="#D9DADB" d="M77.157,45.238c-0.048-0.137-0.239-0.199-0.43-0.133l-2.494,0.804c-0.193,0.063-0.313,0.225-0.271,0.363
					l0,0c0.044,0.136,0.236,0.196,0.43,0.136l2.495-0.808C77.08,45.536,77.199,45.374,77.157,45.238L77.157,45.238z"/>
				<path fill="#D9DADB" d="M62.112,61.494c-0.045-0.14-0.234-0.196-0.43-0.138l-2.492,0.809c-0.196,0.06-0.312,0.223-0.27,0.359
					l0,0c0.046,0.136,0.234,0.195,0.428,0.136l2.495-0.808C62.035,61.79,62.155,61.63,62.112,61.494L62.112,61.494z"/>
				<path fill="#C6C7C8" d="M69.794,47.078c0.93,1.6-0.273,4.033-2.689,5.432c-2.416,1.401-5.125,1.239-6.056-0.363
					c-0.928-1.602,0.275-4.036,2.693-5.438C66.156,45.31,68.867,45.475,69.794,47.078z"/>
				<path fill="#29334F" d="M69.563,47.212c0.847,1.466-0.316,3.73-2.603,5.055c-2.286,1.326-4.828,1.209-5.678-0.257
					c-0.85-1.465,0.314-3.729,2.601-5.054C66.171,45.631,68.711,45.746,69.563,47.212z"/>
				
					<ellipse transform="matrix(0.8655 -0.501 0.501 0.8655 -16.5589 38.6315)" opacity="0.6" fill="#FFFFFF" cx="63.646" cy="50.146" rx="1.467" ry="1.075"/>
				<path opacity="0.6" fill="#FFFFFF" d="M66.205,50.931c0.127,0.22-0.013,0.538-0.311,0.712c-0.299,0.171-0.647,0.133-0.772-0.087
					c-0.126-0.218,0.015-0.536,0.312-0.709C65.733,50.672,66.076,50.712,66.205,50.931z"/>
			</g>
			<g>
				<g>
					<path opacity="0.1" fill="#FFFFFF" d="M30.174,19.516c0,0.37-0.299,0.67-0.668,0.67l0,0c-0.37,0-0.672-0.3-0.672-0.67l0,0
						c0-0.37,0.302-0.669,0.672-0.669l0,0C29.875,18.847,30.174,19.146,30.174,19.516L30.174,19.516z"/>
					<path fill="#FFFFFF" d="M29.761,19.516c0,0.143-0.116,0.256-0.255,0.256l0,0c-0.143,0-0.258-0.114-0.258-0.256l0,0
						c0-0.143,0.115-0.257,0.258-0.257l0,0C29.645,19.259,29.761,19.373,29.761,19.516L29.761,19.516z"/>
				</g>
				<g>
					<path opacity="0.1" fill="#FFFFFF" d="M42.491,12.016c0,0.37-0.299,0.669-0.668,0.669l0,0c-0.371,0-0.67-0.3-0.67-0.669l0,0
						c0-0.369,0.299-0.67,0.67-0.67l0,0C42.192,11.345,42.491,11.646,42.491,12.016L42.491,12.016z"/>
				</g>
				<g>
					<path opacity="0.1" fill="#FFFFFF" d="M38.12,23.445c0,0.371-0.3,0.67-0.671,0.67l0,0c-0.368,0-0.668-0.299-0.668-0.67l0,0
						c0-0.369,0.3-0.668,0.668-0.668l0,0C37.82,22.776,38.12,23.076,38.12,23.445L38.12,23.445z"/>
					<path fill="#FFFFFF" d="M37.706,23.445c0,0.143-0.117,0.257-0.257,0.257l0,0c-0.139,0-0.254-0.114-0.254-0.257l0,0
						c0-0.14,0.115-0.255,0.254-0.255l0,0C37.589,23.189,37.706,23.305,37.706,23.445L37.706,23.445z"/>
				</g>
				<g>
					<path opacity="0.1" fill="#FFFFFF" d="M70.757,75.988c0,0.368-0.301,0.667-0.671,0.667l0,0c-0.369,0-0.668-0.299-0.668-0.667
						l0,0c0-0.37,0.299-0.668,0.668-0.668l0,0C70.456,75.32,70.757,75.618,70.757,75.988L70.757,75.988z"/>
					<path fill="#FFFFFF" d="M70.343,75.988c0,0.142-0.114,0.259-0.257,0.259l0,0c-0.143,0-0.256-0.117-0.256-0.259l0,0
						c0-0.143,0.113-0.26,0.256-0.26l0,0C70.229,75.729,70.343,75.846,70.343,75.988L70.343,75.988z"/>
				</g>
				<g>
					<path opacity="0.1" fill="#FFFFFF" d="M81.007,76.501c0,0.371-0.301,0.67-0.668,0.67l0,0c-0.37,0-0.671-0.299-0.671-0.67l0,0
						c0-0.371,0.301-0.668,0.671-0.668l0,0C80.706,75.833,81.007,76.13,81.007,76.501L81.007,76.501z"/>
					<path fill="#FFFFFF" d="M80.596,76.501c0,0.14-0.115,0.258-0.257,0.258l0,0c-0.143,0-0.257-0.118-0.257-0.258l0,0
						c0-0.145,0.114-0.254,0.257-0.254l0,0C80.48,76.247,80.596,76.356,80.596,76.501L80.596,76.501z"/>
				</g>
				<g>
					<path opacity="0.1" fill="#FFFFFF" d="M63.922,86.924c0,0.368-0.3,0.668-0.672,0.668l0,0c-0.367,0-0.668-0.3-0.668-0.668l0,0
						c0-0.369,0.301-0.669,0.668-0.669l0,0C63.622,86.255,63.922,86.555,63.922,86.924L63.922,86.924z"/>
					<path fill="#FFFFFF" d="M63.507,86.924c0,0.143-0.114,0.257-0.257,0.257l0,0c-0.141,0-0.255-0.114-0.255-0.257l0,0
						c0-0.142,0.114-0.259,0.255-0.259l0,0C63.393,86.665,63.507,86.782,63.507,86.924L63.507,86.924z"/>
				</g>
				<g>
					<path opacity="0.1" fill="#FFFFFF" d="M79.654,41.744c0,0.369-0.299,0.672-0.668,0.672l0,0c-0.371,0-0.67-0.303-0.67-0.672l0,0
						c0-0.369,0.299-0.668,0.67-0.668l0,0C79.355,41.076,79.654,41.375,79.654,41.744L79.654,41.744z"/>
					<path fill="#FFFFFF" d="M79.24,41.744c0,0.144-0.113,0.259-0.254,0.259l0,0c-0.144,0-0.256-0.115-0.256-0.259l0,0
						c0-0.14,0.112-0.254,0.256-0.254l0,0C79.127,41.49,79.24,41.604,79.24,41.744L79.24,41.744z"/>
				</g>
				<g>
					<path opacity="0.1" fill="#FFFFFF" d="M64.604,33.27c0,0.372-0.3,0.67-0.668,0.67l0,0c-0.37,0-0.671-0.298-0.671-0.67l0,0
						c0-0.369,0.301-0.667,0.671-0.667l0,0C64.305,32.602,64.604,32.9,64.604,33.27L64.604,33.27z"/>
					<path fill="#FFFFFF" d="M64.191,33.27c0,0.143-0.115,0.257-0.255,0.257l0,0c-0.143,0-0.258-0.114-0.258-0.257l0,0
						c0-0.14,0.115-0.255,0.258-0.255l0,0C64.076,33.014,64.191,33.129,64.191,33.27L64.191,33.27z"/>
				</g>
				<g>
					<path opacity="0.1" fill="#FFFFFF" d="M62.383,14.304c0,0.37-0.301,0.669-0.67,0.669l0,0c-0.368,0-0.668-0.299-0.668-0.669l0,0
						c0-0.37,0.3-0.669,0.668-0.669l0,0C62.082,13.635,62.383,13.935,62.383,14.304L62.383,14.304z"/>
					<path fill="#FFFFFF" d="M61.97,14.304c0,0.141-0.113,0.257-0.257,0.257l0,0c-0.141,0-0.257-0.116-0.257-0.257l0,0
						c0-0.141,0.116-0.256,0.257-0.256l0,0C61.856,14.048,61.97,14.164,61.97,14.304L61.97,14.304z"/>
				</g>
				<g>
					<path opacity="0.1" fill="#FFFFFF" d="M75.579,26.161c-2.731-3.31-5.373-2.884-6.904-3.12l0,0
						c-0.523-0.156-0.821-0.706-0.667-1.232l0,0c0.156-0.525,0.708-0.823,1.234-0.668l0,0
						C70.367,21.412,73.655,23.119,75.579,26.161L75.579,26.161z"/>
					<path fill="#FFFFFF" d="M69.338,22.092c0,0.209-0.171,0.379-0.379,0.379l0,0c-0.209,0-0.378-0.17-0.378-0.379l0,0
						c0-0.21,0.169-0.38,0.378-0.38l0,0C69.167,21.712,69.338,21.882,69.338,22.092L69.338,22.092z"/>
				</g>
				<g>
					<path opacity="0.1" fill="#FFFFFF" d="M82.203,28.657c0,0.37-0.298,0.67-0.67,0.67l0,0c-0.368,0-0.667-0.3-0.667-0.67l0,0
						c0-0.369,0.299-0.67,0.667-0.67l0,0C81.905,27.987,82.203,28.288,82.203,28.657L82.203,28.657z"/>
					<path fill="#FFFFFF" d="M81.789,28.657c0,0.142-0.111,0.257-0.256,0.257l0,0c-0.141,0-0.255-0.115-0.255-0.257l0,0
						c0-0.141,0.114-0.256,0.255-0.256l0,0C81.678,28.401,81.789,28.516,81.789,28.657L81.789,28.657z"/>
				</g>
				<g>
					<path opacity="0.1" fill="#FFFFFF" d="M88.354,43.01c0,0.369-0.298,0.668-0.67,0.668l0,0c-0.369,0-0.668-0.3-0.668-0.668l0,0
						c0-0.369,0.299-0.667,0.668-0.667l0,0C88.057,42.343,88.354,42.641,88.354,43.01L88.354,43.01z"/>
					<path fill="#FFFFFF" d="M87.942,43.01c0,0.141-0.117,0.257-0.258,0.257l0,0c-0.139,0-0.256-0.116-0.256-0.257l0,0
						c0-0.139,0.117-0.254,0.256-0.254l0,0C87.825,42.756,87.942,42.871,87.942,43.01L87.942,43.01z"/>
				</g>
				<g>
					<path opacity="0.1" fill="#FFFFFF" d="M18.128,26.266c0,0.369-0.302,0.668-0.669,0.668l0,0c-0.37,0-0.671-0.3-0.671-0.668l0,0
						c0-0.37,0.301-0.67,0.671-0.67l0,0C17.826,25.595,18.128,25.896,18.128,26.266L18.128,26.266z"/>
					<path fill="#FFFFFF" d="M17.716,26.266c0,0.141-0.116,0.256-0.257,0.256l0,0c-0.143,0-0.257-0.116-0.257-0.256l0,0
						c0-0.143,0.114-0.257,0.257-0.257l0,0C17.6,26.009,17.716,26.123,17.716,26.266L17.716,26.266z"/>
				</g>
			</g>
		</g>
	</g>
	<g>
	</g>
	<g>
	</g>
	<g>
	</g>
	<g>
	</g>
	<g>
	</g>
	<g>
	</g>
</g>
</svg>
