<?xml version="1.0" encoding="utf-8"?>
<!-- Generator: Adobe Illustrator 16.0.0, SVG Export Plug-In . SVG Version: 6.00 Build 0)  -->
<!DOCTYPE svg PUBLIC "-//W3C//DTD SVG 1.1//EN" "http://www.w3.org/Graphics/SVG/1.1/DTD/svg11.dtd">
<svg version="1.1" id="Layer_1" xmlns="http://www.w3.org/2000/svg" xmlns:xlink="http://www.w3.org/1999/xlink" x="0px" y="0px"
	 width="353px" height="430px" viewBox="0 0 353 430" enable-background="new 0 0 353 430" xml:space="preserve">
<g>
	<path fill="#86DCEA" d="M291.152,258.698c0.484,0.282,1.307-2.483,2.287-3.429c0.998-0.957-0.398-4.426-1.412-4.027
		c-1.043,0.379-3.74-1.133-4.565-0.967c-0.823,0.16-1.16,2.276-0.47,3.138c0.675,0.882-1.119,2.687-0.984,3.716
		c0.148,1.02,0.541,1.548,0.919,1.174C287.291,257.939,290.682,258.41,291.152,258.698z"/>
	<path fill="#86DCEA" d="M306.494,270.626c2.658-0.012,6.234-3.38,4.654-5.867C308.588,264.839,304.445,268.044,306.494,270.626z"/>
	<path fill="#86DCEA" d="M314.529,267.762c-0.291,0.579-2.361,2.424-2.963,2.188c-0.612-0.233-0.107,1.444-0.437,2
		c-0.317,0.553,0.771,1.55,1.237,0.675c0.314-0.596,3.289-0.912,5.798-1.042c-0.873-1.956-1.783-3.897-2.718-5.853
		C315.05,266.499,314.707,267.4,314.529,267.762z"/>
	<g>
		<g>
			<g>
				<path fill="#F7931E" d="M329.35,237.622c-0.132-0.218-0.262-0.44-0.398-0.657c-0.217-0.341-0.44-0.68-0.672-1.011
					c-0.234-0.333-0.478-0.657-0.727-0.978c-0.152-0.199-0.314-0.393-0.475-0.586c-0.084-0.104-0.168-0.205-0.254-0.308
					c-8.514-10.026-23.471-12.103-34.44-4.392c-10.655,7.49-13.897,21.645-8.067,32.904c0.016,0.03,0.031,0.057,0.045,0.086
					c0.156,0.297,0.313,0.592,0.481,0.885c0.077,0.137,0.161,0.271,0.241,0.406c0.119,0.197,0.232,0.396,0.359,0.592
					c0.218,0.347,0.441,0.686,0.677,1.02c0.233,0.332,0.478,0.659,0.728,0.979c0.143,0.186,0.289,0.36,0.438,0.539
					c0.098,0.121,0.195,0.246,0.297,0.363c0.217,0.256,0.439,0.503,0.664,0.745c0.023,0.026,0.048,0.054,0.07,0.08
					c8.621,9.299,23.039,11.046,33.697,3.556c10.971-7.712,14.084-22.49,7.528-33.897
					C329.479,237.84,329.413,237.732,329.35,237.622z"/>
				<path fill="#F7931E" d="M292.384,229.691c-10.655,7.49-13.897,21.646-8.067,32.904c0.016,0.031,0.031,0.059,0.045,0.088
					c0.156,0.295,0.313,0.592,0.481,0.885c0.077,0.136,0.161,0.271,0.241,0.404c0.119,0.198,0.232,0.397,0.359,0.594
					c0.218,0.346,0.441,0.685,0.677,1.019c0.233,0.332,0.478,0.659,0.728,0.979c0.143,0.185,0.289,0.359,0.438,0.537
					c0.098,0.123,0.195,0.246,0.297,0.364c0.217,0.257,0.439,0.503,0.664,0.745c0.023,0.027,0.048,0.055,0.07,0.08
					c8.621,9.299,23.039,11.046,33.697,3.557"/>
				<g>
					<path fill="#D1ECFB" d="M330.432,247.301c0.029,0.194,0.058,0.389,0.082,0.583c0.021,0.177,0.038,0.353,0.057,0.533
						c0.021,0.192,0.037,0.386,0.054,0.581c0.013,0.177,0.021,0.354,0.03,0.531c0.01,0.197,0.021,0.39,0.023,0.582
						c0.006,0.181,0.006,0.356,0.006,0.535c0.002,0.193,0.002,0.39-0.004,0.58c-0.002,0.18-0.012,0.357-0.02,0.535
						c-0.008,0.193-0.018,0.387-0.03,0.58c-0.013,0.176-0.024,0.355-0.043,0.532c-0.017,0.192-0.036,0.385-0.06,0.577
						c-0.02,0.178-0.043,0.352-0.066,0.527c-0.025,0.192-0.056,0.385-0.086,0.576c-0.027,0.174-0.061,0.348-0.092,0.522
						c-0.035,0.188-0.073,0.381-0.113,0.571c-0.037,0.172-0.074,0.344-0.115,0.517c-0.043,0.188-0.093,0.379-0.142,0.569
						c-0.045,0.168-0.093,0.336-0.14,0.504c-0.055,0.188-0.111,0.378-0.17,0.566c-0.053,0.166-0.104,0.331-0.16,0.496
						c-0.062,0.188-0.129,0.375-0.199,0.562c-0.059,0.162-0.116,0.326-0.182,0.484c-0.072,0.188-0.149,0.373-0.229,0.557
						c-0.064,0.16-0.132,0.316-0.201,0.473c-0.082,0.188-0.171,0.369-0.257,0.553c-0.073,0.153-0.146,0.307-0.224,0.459
						c-0.094,0.182-0.189,0.364-0.286,0.543c-0.082,0.148-0.161,0.297-0.242,0.445c-0.104,0.182-0.212,0.357-0.317,0.538
						c-0.088,0.144-0.172,0.286-0.26,0.429c-0.115,0.178-0.232,0.354-0.352,0.53c-0.092,0.136-0.184,0.276-0.277,0.411
						c-0.021,0.031-0.046,0.062-0.068,0.093c0.695-3.955,0.049-8.791-1.882-13.757l5.835-4.1c0.014,0.084,0.033,0.166,0.049,0.25
						C330.38,246.947,330.407,247.124,330.432,247.301z"/>
					<path fill="#D1ECFB" d="M301.471,227.984c0.206-0.051,0.41-0.104,0.62-0.148c0.161-0.038,0.324-0.066,0.489-0.1
						c0.204-0.041,0.408-0.082,0.613-0.115c0.166-0.029,0.334-0.055,0.503-0.078c0.2-0.032,0.403-0.061,0.606-0.085
						c0.17-0.021,0.338-0.038,0.508-0.056c0.203-0.02,0.404-0.037,0.606-0.053c0.171-0.014,0.342-0.022,0.515-0.031
						c0.198-0.01,0.398-0.021,0.6-0.025c0.174-0.005,0.346-0.006,0.52-0.006c0.198-0.002,0.397-0.002,0.598,0.003
						c0.172,0.005,0.346,0.009,0.519,0.017c0.197,0.008,0.396,0.019,0.593,0.032c0.172,0.011,0.35,0.025,0.522,0.042
						c0.194,0.016,0.39,0.036,0.585,0.059c0.174,0.019,0.349,0.043,0.521,0.065c0.193,0.026,0.387,0.056,0.577,0.088
						c0.175,0.028,0.349,0.058,0.521,0.091c0.19,0.035,0.382,0.072,0.572,0.112c0.174,0.039,0.344,0.074,0.517,0.114
						c0.19,0.046,0.379,0.093,0.565,0.145c0.172,0.043,0.344,0.09,0.515,0.139c0.185,0.052,0.37,0.107,0.555,0.166
						c0.17,0.054,0.34,0.105,0.511,0.164c0.182,0.062,0.365,0.125,0.547,0.192c0.166,0.062,0.334,0.121,0.5,0.185
						c0.183,0.072,0.36,0.147,0.539,0.223c0.166,0.07,0.33,0.137,0.492,0.211c0.178,0.078,0.355,0.163,0.529,0.247
						c0.163,0.077,0.322,0.153,0.48,0.231c0.176,0.09,0.35,0.184,0.521,0.274c0.159,0.085,0.315,0.167,0.472,0.256
						c0.071,0.04,0.143,0.084,0.215,0.126l-5.832,4.1c-4.018-3.496-8.351-5.739-12.304-6.426c0.037-0.01,0.074-0.021,0.111-0.031
						C301.15,228.062,301.312,228.023,301.471,227.984z"/>
					<path fill="#D1ECFB" d="M317.926,243.23c1.518,2.158,2.773,4.377,3.768,6.574l-9.229,6.487l-8.682-12.351l9.231-6.487
						C314.744,239.135,316.404,241.068,317.926,243.23z"/>
					<path fill="#D1ECFB" d="M322.583,251.947c2.728,7.234,2.492,13.959-1,17.318l-7.817-11.121L322.583,251.947z"/>
					<path fill="#D1ECFB" d="M302.479,242.087l-7.813-11.118c4.342-2.15,10.749-0.093,16.631,4.922L302.479,242.087z"/>
					<path fill="#D1ECFB" d="M327.016,238.145c0.094,0.15,0.188,0.303,0.281,0.457c0.077,0.129,0.153,0.256,0.229,0.388
						c0.134,0.229,0.263,0.46,0.388,0.694c0.004,0.01,0.01,0.021,0.017,0.028c0.741,1.404,1.342,2.89,1.795,4.448l-6.158,4.329
						c-1.016-2.204-2.277-4.414-3.787-6.562c-1.51-2.148-3.162-4.087-4.895-5.789l6.158-4.328c1.309,0.949,2.503,2.019,3.568,3.188
						c0.015,0.016,0.025,0.029,0.041,0.044c0.173,0.192,0.343,0.388,0.514,0.589c0.098,0.116,0.195,0.235,0.292,0.355
						c0.11,0.138,0.222,0.272,0.33,0.412c0.217,0.283,0.43,0.564,0.637,0.858C326.63,237.548,326.824,237.846,327.016,238.145z"/>
				</g>
				<g>
					<path fill="#FFFFFF" d="M289.82,266.579c-0.034-0.037-0.067-0.074-0.103-0.112c-0.161-0.178-0.317-0.359-0.476-0.544
						c-0.105-0.128-0.213-0.257-0.318-0.388s-0.211-0.26-0.312-0.391c-0.217-0.283-0.432-0.568-0.637-0.862
						c-0.207-0.294-0.404-0.593-0.598-0.894c-0.088-0.142-0.175-0.283-0.261-0.425c-0.087-0.146-0.175-0.292-0.261-0.437
						c-0.119-0.211-0.237-0.42-0.351-0.633c-0.024-0.043-0.048-0.088-0.069-0.133c-0.731-1.389-1.321-2.854-1.769-4.386l6.157-4.328
						c1.015,2.208,2.277,4.417,3.787,6.567c1.51,2.146,3.16,4.084,4.891,5.783l-6.158,4.33
						C292.055,268.787,290.878,267.734,289.82,266.579z"/>
					<path fill="#FFFFFF" d="M296.468,258.312c-1.52-2.162-2.774-4.381-3.77-6.58l9.231-6.488l8.682,12.35l-9.233,6.49
						C299.646,262.404,297.984,260.471,296.468,258.312z"/>
					<path fill="#FFFFFF" d="M292.812,232.271l7.814,11.119l-8.82,6.199C289.082,242.355,289.316,235.63,292.812,232.271z"/>
					<path fill="#FFFFFF" d="M311.913,259.447l7.817,11.121c-4.347,2.152-10.756,0.096-16.639-4.92L311.913,259.447z"/>
					<path fill="#FFFFFF" d="M288.044,237.166c-0.694,3.953-0.051,8.787,1.877,13.75l-5.828,4.096
						C282.964,248.812,284.37,242.342,288.044,237.166z"/>
					<path fill="#FFFFFF" d="M295.376,271.07l5.83-4.098c4.019,3.498,8.351,5.741,12.305,6.426
						C307.395,275.102,300.828,274.23,295.376,271.07z"/>
				</g>
			</g>
			<g>
				<path fill="#29ABE2" d="M281.096,226.826c-6.197,4.355-7.689,12.904-3.334,19.104c4.356,6.198,22.297,7.877,22.297,7.877
					s4.498-17.449,0.141-23.647C295.842,223.962,287.292,222.471,281.096,226.826z M292.895,243.614
					c-3.076,2.161-7.32,1.422-9.483-1.654c-2.16-3.075-1.419-7.321,1.655-9.483c3.076-2.164,7.322-1.42,9.482,1.654
					C296.711,237.206,295.971,241.451,292.895,243.614z"/>
				<path fill="#0071BC" d="M281.096,226.826c-0.07,0.049-0.134,0.107-0.201,0.158l3.59,5.107c0.068-0.05,0.131-0.107,0.201-0.158
					c3.377-2.373,8.035-1.558,10.405,1.815c2.372,3.375,1.562,8.033-1.815,10.405c-0.07,0.051-0.146,0.091-0.215,0.138l6.662,9.479
					c0.211,0.023,0.336,0.035,0.336,0.035s4.498-17.449,0.141-23.647C295.842,223.962,287.292,222.471,281.096,226.826z"/>
				<circle fill="#D1ECFB" cx="288.98" cy="238.045" r="6.807"/>
				<path fill="#A6DAE9" d="M285.064,232.477c3.078-2.164,7.322-1.42,9.483,1.654c2.162,3.075,1.423,7.32-1.653,9.483"/>
			</g>
		</g>
	</g>
	<g>
		<circle fill="#FFAE00" cx="249.041" cy="245.029" r="18.034"/>
		<g>
			<path fill="#FFFFFF" d="M243.057,236.301c-5.267,3.702-6.947,10.389-3.755,14.932c1.919,2.729,5.157,4.065,8.578,3.896
				l1.047,4.342l1.572-4.763c1.419-0.385,2.821-1.032,4.124-1.948c5.27-3.703,6.945-10.388,3.753-14.932
				C255.184,233.282,248.324,232.598,243.057,236.301z"/>
			<g>
				<circle fill="#013C5C" cx="244.782" cy="247.623" r="1.58"/>
				<circle fill="#013C5C" cx="248.953" cy="244.691" r="1.58"/>
				<circle fill="#013C5C" cx="253.125" cy="241.758" r="1.58"/>
			</g>
		</g>
	</g>
	<g>
		<g>
			<circle fill="#29ABE2" cx="277.639" cy="334.29" r="23.461"/>
		</g>
	</g>
	<path fill="#CDD5D8" d="M234.009,277.752l-14.456,10.161c-1.229,0.864-1.523,2.562-0.66,3.789l5.473,7.783
		c0.861,1.228,2.558,1.521,3.785,0.658l1.113-0.781l2.735,3.893c0.101,0.144,0.254,0.247,0.438,0.279
		c0.369,0.063,0.723-0.182,0.785-0.554l1.6-7.525l7.783-5.473c1.228-0.859,1.523-2.557,0.662-3.783l-5.473-7.784
		C236.934,277.188,235.234,276.891,234.009,277.752 M223.564,290.077l8.896-6.253c0.307-0.217,0.73-0.143,0.946,0.165
		c0.216,0.307,0.143,0.731-0.164,0.946l-8.896,6.254c-0.308,0.216-0.731,0.141-0.947-0.166
		C223.186,290.717,223.259,290.293,223.564,290.077 M231.923,292.511l-4.448,3.128c-0.307,0.215-0.73,0.141-0.947-0.166
		c-0.215-0.31-0.141-0.729,0.166-0.943l4.449-3.129c0.307-0.215,0.729-0.145,0.945,0.164
		C232.303,291.872,232.229,292.296,231.923,292.511 M237.031,285.6l-11.12,7.814c-0.308,0.215-0.729,0.143-0.947-0.166
		c-0.216-0.307-0.142-0.73,0.165-0.947l11.12-7.814c0.308-0.217,0.729-0.141,0.946,0.166S237.339,285.382,237.031,285.6"/>
	<path fill="#CDD5D8" d="M306.041,179.57l-14.456,10.161c-1.228,0.863-1.522,2.56-0.66,3.787l5.472,7.784
		c0.862,1.229,2.558,1.523,3.785,0.659l1.112-0.781l2.735,3.892c0.103,0.144,0.254,0.248,0.438,0.279
		c0.371,0.066,0.724-0.182,0.786-0.553l1.6-7.526l7.783-5.471c1.228-0.862,1.524-2.557,0.662-3.786l-5.472-7.784
		C308.966,179.004,307.27,178.707,306.041,179.57 M295.598,191.894l8.896-6.252c0.308-0.216,0.732-0.143,0.949,0.166
		c0.215,0.306,0.14,0.73-0.168,0.946l-8.896,6.253c-0.307,0.216-0.729,0.142-0.943-0.166
		C295.218,192.533,295.291,192.111,295.598,191.894 M303.954,194.328l-4.448,3.126c-0.308,0.216-0.73,0.142-0.945-0.165
		c-0.218-0.309-0.144-0.729,0.164-0.946l4.448-3.126c0.308-0.216,0.729-0.145,0.946,0.164
		C304.336,193.688,304.261,194.112,303.954,194.328 M309.062,187.416l-11.119,7.815c-0.308,0.216-0.73,0.142-0.946-0.166
		c-0.215-0.308-0.142-0.73,0.166-0.946l11.118-7.816c0.309-0.217,0.73-0.142,0.947,0.165
		C309.443,186.775,309.372,187.198,309.062,187.416"/>
	<g>
		<path fill="#CDD5D8" d="M232.953,129.275l-2.112,1.483c1.138-1.479,1.24-3.59,0.113-5.194l-10.429-14.834
			c-1.391-1.98-4.131-2.456-6.108-1.065l-19.073,13.406c-1.979,1.391-2.457,4.13-1.066,6.109l10.428,14.834
			c1.127,1.604,3.146,2.224,4.924,1.655l-2.271,1.596c-1.037,0.729-1.284,2.159-0.561,3.192c0.729,1.037,2.159,1.287,3.195,0.559
			l25.596-17.99c1.032-0.726,1.283-2.158,0.555-3.194C235.418,128.798,233.984,128.549,232.953,129.275z M224.546,139.323
			l-5.054,3.552c-0.27,0.19-0.643,0.126-0.831-0.144c-0.188-0.271-0.125-0.645,0.146-0.834l5.053-3.552
			c0.271-0.19,0.644-0.123,0.832,0.148C224.882,138.763,224.816,139.132,224.546,139.323z M209.667,143.45
			c-1.081,0.759-2.571,0.499-3.333-0.582l-10.426-14.835c-0.762-1.083-0.501-2.574,0.58-3.333l19.072-13.406
			c1.082-0.76,2.571-0.499,3.332,0.583l10.428,14.835c0.76,1.081,0.502,2.571-0.58,3.332L209.667,143.45z"/>
		<polygon fill="#CDD5D8" points="212.611,135.856 219.145,122.781 204.874,125.006 		"/>
	</g>
	<g>
		<path fill="#CDD5D8" d="M236.23,225.275l-1.267,0.891c0.683-0.889,0.744-2.155,0.065-3.118l-6.254-8.9
			c-0.836-1.188-2.48-1.473-3.666-0.64l-11.444,8.044c-1.187,0.833-1.476,2.479-0.642,3.666l6.256,8.9
			c0.678,0.963,1.89,1.335,2.953,0.993l-1.359,0.957c-0.622,0.438-0.771,1.296-0.335,1.914c0.437,0.623,1.294,0.772,1.917,0.336
			l15.355-10.795c0.621-0.437,0.771-1.293,0.334-1.916C237.711,224.99,236.854,224.84,236.23,225.275z M231.188,231.305
			l-3.031,2.131c-0.162,0.113-0.387,0.076-0.499-0.086c-0.115-0.162-0.076-0.388,0.086-0.502l3.032-2.131
			c0.162-0.113,0.387-0.074,0.5,0.088C231.391,230.969,231.35,231.191,231.188,231.305z M222.26,233.779
			c-0.648,0.457-1.543,0.301-2-0.348l-6.255-8.9c-0.457-0.649-0.302-1.545,0.349-2l11.443-8.043c0.648-0.456,1.544-0.3,1.999,0.35
			l6.256,8.9c0.456,0.648,0.302,1.543-0.348,2L222.26,233.779z"/>
		<polygon fill="#CDD5D8" points="224.025,229.225 227.945,221.379 219.384,222.714 		"/>
	</g>
	<g>
		<g id="_x31_0_21_">
			<g>
				<path fill="#FFFFFF" d="M4.232,122.029c-0.152,0.069-0.219,0.253-0.147,0.411c0.072,0.157,0.256,0.229,0.411,0.158
					c0.153-0.069,0.221-0.253,0.147-0.411C4.571,122.03,4.388,121.958,4.232,122.029z M4.583,122.789
					c-0.155,0.069-0.223,0.254-0.149,0.411c0.072,0.158,0.256,0.229,0.41,0.16c0.154-0.069,0.22-0.254,0.147-0.412
					C4.919,122.79,4.735,122.719,4.583,122.789z M4.931,123.55c-0.154,0.07-0.223,0.254-0.148,0.412
					c0.069,0.158,0.253,0.229,0.408,0.158c0.153-0.068,0.221-0.253,0.15-0.411C5.268,123.551,5.084,123.48,4.931,123.55z"/>
			</g>
		</g>
	</g>
	<g>
		<path fill="#EF7962" d="M196.643,388.311c0,0,1.067-1.571,0.215-3.379c-0.854-1.805-4.914-5.461-4.914-5.461l-5.875-4.647
			l-3-3.335c0,0-1.62,1.317-0.123,3.249c1.503,1.929,4.834,4.468,4.834,4.468l6.066,4.85
			C193.846,384.054,196.666,387.083,196.643,388.311z"/>
		<path fill="#FDD64E" d="M182.323,373.427c0,0,1.425-2.014,2.747-2.251c1.322-0.233,6.293-1.264,8.562-1.121
			c2.265,0.143,5.166-1.104,5.166-1.104l0.453-2.711c0,0-2.694,1.099-5.147,0.966c-2.451-0.132-7.234,0.851-7.234,0.851
			s-3.186,0.646-3.963,2.258C182.126,371.924,182.323,373.427,182.323,373.427z"/>
		<path fill="#EF7962" d="M199.236,366.208c0,0-1.184-2.097-4.877-3.878c-3.695-1.779-7.877-5.352-8.159-6.76
			c0,0-1.067,2.1-0.457,2.993c0.61,0.893,1.884,2.861,4.141,4.124c2.259,1.266,4.701,2.765,4.701,2.765s2.164,1.429,2.426,1.641
			C197.555,367.167,199.236,366.208,199.236,366.208z"/>
		<path fill="#EF7962" d="M198.312,356.312c0,0-0.762,0.453-3.377-0.088c-2.615-0.542-6.725-2.271-7.776-3.966
			c-1.056-1.693,0.155-2.965,0.155-2.965s2.615,2.65,4.08,2.996c1.461,0.344,7.377,0.747,7.377,0.747L198.312,356.312z"/>
		<path fill="#FDD64E" d="M185.562,357.692c0,0,0.912-1.772,2.114-2.2s2.974-0.708,4.173-0.856c1.201-0.147,6.121,0.258,6.559,1.092
			l0.354-2.796c0,0-1.811-1.554-5.029-1.194c-3.221,0.356-5.006,0.741-6.233,1.341c-1.228,0.604-1.604,1.464-1.604,1.464
			L185.562,357.692z"/>
		<path fill="#EF7962" d="M197.917,348.346c0,0-1.006,0.879-2.896,0.403c-1.888-0.474-5.472-0.938-6.184-3.498
			c0.482-1.337,1.451-1.412,1.451-1.412s0.73,0.841,1.678,1.185c0.947,0.341,6.461,0.443,6.461,0.443L197.917,348.346z"/>
		<path fill="#FDD64E" d="M186.766,350.337c0,0,1.422-1.735,2.68-2.016c1.254-0.28,6.293-1.264,8.445-0.052
			c0.176-0.991,0.539-2.804,0.539-2.804s-1.679-0.899-3.627-0.681c-1.947,0.218-4.811,0.661-5.812,1.224
			c-1,0.562-1.892,1.667-1.892,1.667L186.766,350.337z"/>
		<path fill="#FDD64E" d="M188.984,344.744c0,0,2.473-2.394,5.115-1.532c0.327-0.763,1.025-2.595,1.025-2.595
			s-1.84-0.295-3.723,0.25c-1.879,0.545-1.846,1.078-1.846,1.078L188.984,344.744z"/>
	</g>
	<g>
		<polygon fill="#EF7962" points="74.734,168.935 63.293,165.882 54.292,173.577 53.659,161.751 43.559,155.568 54.609,151.313 
			57.369,139.797 64.831,148.993 76.636,148.057 70.198,157.996 		"/>
		<polygon fill="#C7D142" points="206.214,297.247 201.199,294.863 196.393,297.645 197.109,292.139 192.979,288.424 
			198.438,287.404 200.693,282.329 203.352,287.206 208.874,287.781 205.057,291.814 		"/>
		<polygon fill="#8CB5B9" points="95.337,198.621 90.32,196.238 85.515,199.019 86.231,193.511 82.101,189.798 87.56,188.778 
			89.815,183.702 92.473,188.58 97.996,189.156 94.179,193.189 		"/>
		<polygon fill="#FDD64E" points="200.713,90.916 195.695,88.533 190.891,91.313 191.605,85.807 187.477,82.093 192.938,81.072 
			195.191,75.998 197.85,80.875 203.372,81.45 199.555,85.484 		"/>
		<polygon fill="#704A5D" points="271.802,268.654 266.788,266.271 261.979,269.055 262.695,263.547 258.566,259.835 
			264.023,258.814 266.279,253.738 268.938,258.616 274.462,259.191 270.645,263.225 		"/>
		<polygon fill="#704A5D" points="294.684,220.018 289.668,217.634 284.861,220.414 285.577,214.907 281.448,211.194 
			286.906,210.174 289.16,205.098 291.816,209.977 297.341,210.551 293.523,214.585 		"/>
		<polygon fill="#C7D142" points="32.453,100.411 29.816,105.962 35.826,104.679 40.29,108.905 40.928,102.792 46.325,99.851 
			40.709,97.355 39.579,91.313 35.471,95.884 29.376,95.091 		"/>
		<polygon fill="#704A5D" points="192.588,227.777 195.381,226.404 195.543,223.799 192.402,226.695 		"/>
		<polygon fill="#704A5D" points="172.424,212.977 172.586,210.372 169.447,213.268 169.632,214.351 		"/>
		<polygon fill="#FDD64E" points="59.069,125.385 63.64,123.643 67.462,119.633 62.89,121.376 		"/>
		<polygon fill="#C7D142" points="191.204,103.952 187.409,103.371 189.072,106.699 192.869,107.277 		"/>
		<polygon fill="#D7D8DC" points="208.641,314.343 213.085,311.661 209.016,311.493 204.568,314.182 		"/>
		<polygon fill="#C7D142" points="255.027,149.08 255.936,145.999 255.072,141.031 254.17,144.112 		"/>
		<polygon fill="#C7D142" points="120.413,159.339 121.32,156.262 120.459,151.291 119.556,154.375 		"/>
		<polygon fill="#FDD64E" points="231.715,111.856 235.514,112.436 233.85,109.108 230.051,108.529 		"/>
		<polygon fill="#52C6DB" points="173.644,147.887 176.45,143.143 176.562,138.791 173.761,143.535 		"/>
		<polygon fill="#52C6DB" points="339.964,278.79 346.486,275.312 343.214,269.852 336.691,273.331 		"/>
		<polygon fill="#52C6DB" points="131.531,196.361 126.216,191.221 122.028,196.013 127.34,201.15 		"/>
		<polygon fill="#EF7962" points="113.66,188.064 119.403,184.142 115.784,179.371 110.039,183.291 		"/>
		<polygon fill="#EF7962" points="179.062,198.583 173.316,202.502 176.935,207.276 182.682,203.355 		"/>
		<polygon fill="#C7D142" points="167.907,249.165 173.651,245.245 170.032,240.473 164.288,244.395 		"/>
		<polygon fill="#D7D8DC" points="224.475,273.146 221.043,278.061 226.538,282.32 229.967,277.411 		"/>
		<polygon fill="#C7D142" points="283.634,353.468 289.376,349.545 285.76,344.772 280.014,348.697 		"/>
		<polygon fill="#EF7962" points="191.55,411.856 198.072,408.38 194.801,402.921 188.277,406.399 		"/>
		<polygon fill="#FDD64E" points="212.877,245.546 206.376,243.07 204.525,248.766 211.025,251.243 		"/>
		<polygon fill="#FDD64E" points="153.864,195.325 147.365,192.848 145.515,198.544 152.016,201.021 		"/>
		<polygon fill="#D7D8DC" points="175.507,20.004 168.84,24.032 174.946,24.283 181.616,20.254 		"/>
		<polygon fill="#704A5D" points="331.921,301.032 327.73,303.095 327.486,307.004 332.198,302.659 		"/>
		<polygon fill="#EF7962" points="247.719,416.347 245.221,411.354 239.525,410.483 242.023,415.473 		"/>
		<polygon fill="#C7D142" points="207.039,196.536 201.341,195.665 203.839,200.657 209.534,201.529 		"/>
		<polygon fill="#D7D8DC" points="267.452,201.639 274.122,197.608 268.016,197.363 261.348,201.389 		"/>
		<polygon fill="#52C6DB" points="238.221,386.475 238.337,382.122 235.529,386.866 235.418,391.219 		"/>
		<polygon fill="#EF7962" points="127.24,63.133 125.724,59.861 124.47,64.561 125.985,67.834 		"/>
		<polygon fill="#C7D142" points="104.328,150.532 108.894,148.1 112.297,143.734 107.727,146.167 		"/>
		<polygon fill="#D7D8DC" points="121.707,119.061 126.473,114.963 122.604,113.896 117.841,117.988 		"/>
		<polygon fill="#D7D8DC" points="98.317,70.48 103.082,66.382 99.217,65.314 94.454,69.408 		"/>
		<polygon fill="#D7D8DC" points="308.773,286.951 304.01,291.046 307.873,292.116 312.641,288.02 		"/>
		<polygon fill="#D7D8DC" points="91.538,122.454 86.774,126.548 90.64,127.619 95.404,123.521 		"/>
		<polygon fill="#FDD64E" points="304.531,359.719 299.958,361.462 296.137,365.47 300.708,363.728 		"/>
		<polygon fill="#C7D142" points="210.816,101.888 214.615,102.467 212.95,99.142 209.154,98.562 		"/>
		<polygon fill="#C7D142" points="243.07,190.342 246.866,190.921 245.205,187.596 241.409,187.014 		"/>
		<polygon fill="#EF7962" points="262.669,172.767 266.393,173.337 264.76,170.074 261.038,169.505 		"/>
		<polygon fill="#FDD64E" points="243.986,211.495 247.785,212.074 246.12,208.748 242.324,208.167 		"/>
		<polygon fill="#C7D142" points="307.372,321.471 303.577,320.891 305.239,324.217 309.035,324.799 		"/>
		<polygon fill="#D7D8DC" points="290.082,266.803 294.85,262.708 290.98,261.639 286.219,265.732 		"/>
	</g>
	<g>
		<path fill="#475A5C" d="M9.95,58.579c0,0,2.132,0.945,4.123-0.48c1.993-1.425,5.52-7.125,5.52-7.125l4.325-8.106l3.369-4.349
			c0,0-1.948-1.667-3.947,0.563c-2.003,2.233-4.338,6.809-4.338,6.809l-4.528,8.382C14.474,54.273,11.437,58.339,9.95,58.579z"/>
		<path fill="#8CB5B9" d="M24.782,38.045c0,0,2.74,1.278,3.317,2.823c0.574,1.544,2.9,7.321,3.225,10.086
			c0.324,2.764,2.465,5.995,2.465,5.995l3.369-0.046c0,0-1.918-3.014-2.293-6.002c-0.376-2.988-2.607-8.544-2.607-8.544
			s-1.476-3.703-3.59-4.291C26.552,37.479,24.782,38.045,24.782,38.045z"/>
		<path fill="#475A5C" d="M37.192,56.877c0,0,2.272-1.886,3.613-6.733c1.34-4.85,4.734-10.676,6.374-11.326
			c0,0-2.768-0.829-3.711,0.106c-0.945,0.933-3.044,2.899-4.075,5.898c-1.03,3-2.309,6.278-2.309,6.278s-1.247,2.919-1.446,3.285
			C35.666,55.057,37.192,56.877,37.192,56.877z"/>
		<path fill="#475A5C" d="M48.934,53.601c0,0-0.716-0.821-0.634-4.095c0.079-3.276,1.274-8.611,3.085-10.253
			c1.813-1.64,3.612-0.46,3.612-0.46s-2.626,3.737-2.722,5.579c-0.095,1.839,0.709,9.066,0.709,9.066L48.934,53.601z"/>
		<path fill="#8CB5B9" d="M44.48,38.515c0,0,2.336,0.712,3.116,2.071c0.781,1.357,1.505,3.433,1.945,4.85
			c0.442,1.416,1.027,7.443,0.116,8.151l3.452-0.185c0,0,1.478-2.525,0.342-6.332c-1.136-3.808-1.987-5.878-2.981-7.228
			c-0.996-1.351-2.116-1.62-2.116-1.62L44.48,38.515z"/>
		<path fill="#475A5C" d="M58.459,51.379c0,0-1.278-1.021-1.119-3.402c0.16-2.384-0.062-6.811,2.87-8.229
			c1.72,0.29,2.022,1.444,2.022,1.444s-0.854,1.065-1.062,2.282c-0.206,1.217,0.874,7.896,0.874,7.896L58.459,51.379z"/>
		<path fill="#8CB5B9" d="M53.621,38.357c0,0,2.401,1.338,3.016,2.791c0.614,1.454,2.899,7.321,1.908,10.185
			c1.235-0.005,3.5,0.037,3.5,0.037s0.721-2.224,0.031-4.526c-0.69-2.302-1.853-5.66-2.75-6.745c-0.896-1.084-2.425-1.92-2.425-1.92
			L53.621,38.357z"/>
		<path fill="#8CB5B9" d="M60.854,39.812c0,0,3.429,2.46,2.968,5.841c0.99,0.228,3.356,0.67,3.356,0.67s-0.049-2.285-1.117-4.438
			c-1.069-2.15-1.704-1.992-1.704-1.992L60.854,39.812z"/>
	</g>
	<g>
		<path fill="#704A5D" d="M265.432,388.885c0,0-0.099-1.729-1.716-2.56c-1.62-0.836-6.588-1.232-6.588-1.232l-6.829-0.104
			l-4.02-0.75c0,0-0.441,1.853,1.714,2.42c2.155,0.563,5.975,0.555,5.975,0.555l7.082,0.146
			C261.05,387.358,264.77,387.985,265.432,388.885z"/>
		<path fill="#BC7F9C" d="M246.816,386.056c0,0-0.086-2.246,0.74-3.151c0.825-0.905,3.854-4.404,5.571-5.56
			c1.718-1.152,3.127-3.665,3.127-3.665l-1.175-2.214c0,0-1.342,2.292-3.188,3.558c-1.85,1.264-4.765,4.628-4.765,4.628
			s-1.948,2.23-1.618,3.83C245.842,385.076,246.816,386.056,246.816,386.056z"/>
		<path fill="#704A5D" d="M255.052,371.453c0,0-2.018-0.862-5.679-0.104c-3.662,0.763-8.667,0.499-9.652-0.362
			c0,0,0.391,2.107,1.329,2.416s2.951,1.026,5.285,0.688c2.332-0.335,4.935-0.604,4.935-0.604s2.354-0.167,2.664-0.159
			C254.367,373.08,255.052,371.453,255.052,371.453z"/>
		<path fill="#704A5D" d="M248.896,364.802c0,0-0.301,0.753-2.492,1.812c-2.193,1.059-6.129,2.082-7.827,1.441
			c-1.7-0.64-1.53-2.23-1.53-2.23s3.362,0.466,4.613-0.095c1.249-0.563,5.753-3.551,5.753-3.551L248.896,364.802z"/>
		<path fill="#BC7F9C" d="M240.434,372.872c0,0-0.32-1.786,0.312-2.763c0.633-0.979,1.759-2.163,2.545-2.937
			c0.787-0.772,4.572-3.208,5.352-2.846l-1.293-2.22c0,0-2.175-0.119-4.306,1.926s-3.211,3.312-3.767,4.427
			c-0.553,1.116-0.351,1.948-0.351,1.948L240.434,372.872z"/>
		<path fill="#704A5D" d="M244.191,359.26c0,0-0.239,1.192-1.868,1.896c-1.632,0.704-4.481,2.355-6.416,0.897
			c-0.394-1.235,0.266-1.828,0.266-1.828s0.995,0.202,1.871-0.073c0.875-0.276,4.922-3.26,4.922-3.26L244.191,359.26z"/>
		<path fill="#BC7F9C" d="M237.227,366.882c0,0,0.068-2.041,0.819-2.94c0.753-0.899,3.856-4.403,6.086-4.723
			c-0.424-0.813-1.166-2.325-1.166-2.325s-1.713,0.278-3.001,1.516c-1.288,1.241-3.113,3.147-3.525,4.108
			c-0.412,0.964-0.444,2.259-0.444,2.259L237.227,366.882z"/>
		<path fill="#BC7F9C" d="M235.73,361.605c0,0,0.461-3.104,2.853-3.945c-0.187-0.733-0.696-2.448-0.696-2.448
			s-1.494,0.811-2.553,2.247c-1.061,1.438-0.738,1.806-0.738,1.806L235.73,361.605z"/>
	</g>
	<g>
		<g>
			<path fill="#FFFFFF" stroke="#999999" stroke-width="0.5" stroke-miterlimit="10" d="M85.274,142.086
				c-3.467,0.025-6.258,2.854-6.232,6.32c0.009,1.168,0.036,1.701,0.599,2.633l-0.555,3.643l3.417-0.709
				c0.914,0.509,1.737,0.673,2.86,0.665c3.467-0.025,6.256-2.854,6.231-6.321C91.569,144.85,88.741,142.062,85.274,142.086z"/>
			
				<linearGradient id="SVGID_1_" gradientUnits="userSpaceOnUse" x1="158.1011" y1="352.6182" x2="153.7291" y2="341.7211" gradientTransform="matrix(1 -0.0071 -0.0071 -1 -68.3024 497.1989)">
				<stop  offset="0" style="stop-color:#4BC25A"/>
				<stop  offset="1" style="stop-color:#368C41"/>
			</linearGradient>
			<path fill="url(#SVGID_1_)" d="M85.378,143.277c-2.744,0.02-4.954,2.261-4.934,5.004c0.006,0.924,0.265,1.788,0.709,2.526
				l-0.361,2.121l2.206-0.337c0.725,0.403,1.561,0.631,2.449,0.625c2.744-0.019,4.953-2.26,4.935-5.004
				C90.362,145.468,88.121,143.258,85.378,143.277z"/>
			<path fill="#FFFFFF" d="M82.458,150.759c-0.085-0.2-0.13-0.392-0.13-0.573c-0.001-0.042,0.003-0.072,0.011-0.091
				c0.011-0.031,0.083-0.087,0.217-0.169c0.136-0.083,0.302-0.177,0.501-0.285l0.3-0.167c0.019-0.012,0.055-0.036,0.106-0.074
				c0.054-0.039,0.102-0.067,0.143-0.086c0.041-0.021,0.081-0.03,0.119-0.03c0.069,0,0.157,0.061,0.268,0.182
				c0.11,0.122,0.221,0.246,0.327,0.37c0.107,0.124,0.19,0.186,0.25,0.186c0.027,0,0.059-0.007,0.094-0.021
				c0.037-0.013,0.066-0.026,0.089-0.038c0.023-0.011,0.055-0.029,0.097-0.054c0.041-0.025,0.067-0.041,0.078-0.05
				c0.374-0.21,0.695-0.453,0.965-0.725c0.269-0.273,0.506-0.598,0.711-0.974c0.007-0.012,0.024-0.038,0.049-0.08
				c0.023-0.042,0.042-0.074,0.053-0.097c0.012-0.023,0.023-0.053,0.036-0.088c0.013-0.036,0.019-0.068,0.019-0.094
				c0-0.049-0.039-0.113-0.117-0.189c-0.077-0.077-0.164-0.149-0.257-0.218c-0.093-0.066-0.179-0.142-0.258-0.223
				c-0.078-0.081-0.116-0.149-0.117-0.207c-0.001-0.037,0.008-0.078,0.027-0.119c0.019-0.042,0.046-0.089,0.084-0.143
				c0.038-0.054,0.062-0.089,0.073-0.109c0.012-0.022,0.039-0.077,0.083-0.162c0.046-0.085,0.093-0.172,0.141-0.26
				c0.05-0.086,0.099-0.177,0.149-0.271c0.051-0.093,0.097-0.169,0.141-0.231c0.043-0.061,0.074-0.095,0.093-0.103
				c0.019-0.008,0.049-0.012,0.091-0.012c0.182-0.001,0.373,0.04,0.575,0.121c0.174,0.078,0.327,0.256,0.458,0.534
				c0.13,0.277,0.197,0.524,0.198,0.739c0.001,0.062-0.004,0.125-0.014,0.194c-0.009,0.068-0.018,0.126-0.026,0.173
				s-0.025,0.11-0.05,0.188c-0.024,0.078-0.042,0.134-0.056,0.168c-0.013,0.034-0.036,0.097-0.069,0.188
				c-0.034,0.091-0.055,0.148-0.062,0.171c-0.223,0.623-0.628,1.231-1.217,1.829c-0.589,0.597-1.192,1.01-1.812,1.243
				c-0.022,0.007-0.078,0.028-0.169,0.064c-0.09,0.035-0.153,0.058-0.188,0.072c-0.033,0.014-0.089,0.033-0.167,0.058
				c-0.077,0.025-0.14,0.043-0.187,0.053c-0.048,0.01-0.105,0.02-0.173,0.029c-0.068,0.01-0.134,0.015-0.194,0.016
				c-0.215,0.002-0.463-0.061-0.741-0.188C82.718,151.083,82.538,150.931,82.458,150.759L82.458,150.759z"/>
		</g>
	</g>
	<g>
		<g>
			<path fill="#FFFFFF" stroke="#999999" stroke-width="0.5" stroke-miterlimit="10" d="M32.925,115.768
				c-2.836,1.994-3.52,5.908-1.526,8.744c0.672,0.955,0.998,1.378,1.99,1.825l1.619,3.311l2.405-2.528
				c1.042-0.102,1.812-0.435,2.73-1.081c2.836-1.994,3.519-5.908,1.525-8.744C39.675,114.458,35.761,113.775,32.925,115.768z"/>
			
				<linearGradient id="SVGID_2_" gradientUnits="userSpaceOnUse" x1="53.2158" y1="275.9697" x2="48.8427" y2="265.0697" gradientTransform="matrix(0.8181 -0.575 -0.575 -0.8181 150.5158 372.1247)">
				<stop  offset="0" style="stop-color:#4BC25A"/>
				<stop  offset="1" style="stop-color:#368C41"/>
			</linearGradient>
			<path fill="url(#SVGID_2_)" d="M33.688,116.689c-2.245,1.578-2.785,4.678-1.207,6.922c0.53,0.756,1.235,1.319,2.021,1.673
				l0.91,1.95l1.622-1.534c0.825-0.081,1.642-0.369,2.369-0.88c2.245-1.578,2.786-4.678,1.208-6.923
				C39.033,115.652,35.933,115.111,33.688,116.689z"/>
			<path fill="#FFFFFF" d="M35.546,124.501c-0.184-0.115-0.329-0.248-0.433-0.397c-0.025-0.034-0.039-0.061-0.043-0.081
				c-0.009-0.032,0.019-0.119,0.082-0.263c0.064-0.144,0.147-0.317,0.25-0.519l0.151-0.308c0.008-0.021,0.024-0.062,0.046-0.123
				c0.021-0.062,0.045-0.112,0.067-0.151c0.022-0.04,0.051-0.07,0.081-0.092c0.057-0.04,0.164-0.041,0.324-0.003
				c0.16,0.038,0.32,0.077,0.479,0.119c0.158,0.041,0.263,0.044,0.312,0.009c0.022-0.015,0.044-0.039,0.065-0.07
				c0.022-0.032,0.038-0.059,0.051-0.081c0.013-0.023,0.029-0.055,0.049-0.099s0.032-0.073,0.036-0.086
				c0.188-0.386,0.314-0.768,0.38-1.145c0.065-0.378,0.076-0.779,0.031-1.206c-0.001-0.014-0.002-0.045-0.006-0.093
				c-0.004-0.048-0.008-0.085-0.012-0.109c-0.003-0.026-0.011-0.057-0.021-0.093c-0.01-0.038-0.023-0.066-0.038-0.088
				c-0.028-0.04-0.097-0.071-0.205-0.089c-0.107-0.019-0.219-0.029-0.334-0.032c-0.114-0.002-0.229-0.015-0.339-0.036
				c-0.11-0.022-0.181-0.057-0.214-0.103c-0.021-0.031-0.037-0.069-0.046-0.114c-0.008-0.045-0.013-0.1-0.012-0.165
				c0-0.065,0-0.109-0.001-0.131c-0.005-0.025-0.013-0.085-0.024-0.181c-0.011-0.096-0.022-0.194-0.032-0.293
				c-0.009-0.1-0.021-0.202-0.032-0.308c-0.011-0.106-0.017-0.195-0.016-0.27c0-0.075,0.007-0.121,0.018-0.137
				c0.012-0.018,0.034-0.038,0.068-0.062c0.148-0.105,0.329-0.181,0.541-0.228c0.188-0.035,0.416,0.024,0.681,0.178
				c0.265,0.154,0.46,0.318,0.584,0.495c0.036,0.05,0.068,0.105,0.1,0.167c0.031,0.061,0.058,0.114,0.077,0.158
				s0.041,0.105,0.065,0.183c0.024,0.078,0.042,0.134,0.05,0.17c0.009,0.035,0.025,0.1,0.05,0.194
				c0.023,0.094,0.04,0.152,0.047,0.176c0.171,0.639,0.185,1.371,0.041,2.197c-0.145,0.826-0.406,1.51-0.783,2.053
				c-0.015,0.019-0.049,0.068-0.103,0.149c-0.055,0.08-0.093,0.135-0.113,0.166c-0.02,0.03-0.055,0.078-0.104,0.143
				c-0.05,0.064-0.092,0.115-0.125,0.15c-0.032,0.035-0.075,0.076-0.125,0.123c-0.051,0.047-0.101,0.088-0.15,0.123
				c-0.176,0.124-0.415,0.213-0.717,0.268C35.943,124.62,35.71,124.598,35.546,124.501L35.546,124.501z"/>
		</g>
	</g>
	<g>
		<g>
			<path fill="#FFFFFF" stroke="#999999" stroke-width="0.5" stroke-miterlimit="10" d="M268.551,175.106
				c-2.836,1.993-3.52,5.908-1.525,8.744c0.672,0.956,0.998,1.378,1.99,1.825l1.618,3.311l2.405-2.528
				c1.042-0.103,1.812-0.436,2.73-1.082c2.836-1.994,3.519-5.908,1.524-8.744C275.301,173.795,271.387,173.112,268.551,175.106z"/>
			
				<linearGradient id="SVGID_3_" gradientUnits="userSpaceOnUse" x1="211.876" y1="91.9272" x2="207.5041" y2="81.03" gradientTransform="matrix(0.8181 -0.575 -0.575 -0.8181 150.5158 372.1247)">
				<stop  offset="0" style="stop-color:#4BC25A"/>
				<stop  offset="1" style="stop-color:#368C41"/>
			</linearGradient>
			<path fill="url(#SVGID_3_)" d="M269.312,176.027c-2.244,1.578-2.785,4.678-1.207,6.922c0.53,0.756,1.235,1.319,2.021,1.673
				l0.909,1.95l1.623-1.534c0.825-0.081,1.642-0.369,2.368-0.88c2.246-1.578,2.787-4.678,1.209-6.923
				C274.659,174.99,271.559,174.449,269.312,176.027z"/>
			<path fill="#FFFFFF" d="M271.171,183.839c-0.183-0.116-0.328-0.249-0.433-0.397c-0.024-0.034-0.038-0.062-0.043-0.081
				c-0.008-0.032,0.02-0.119,0.082-0.263c0.064-0.145,0.147-0.318,0.25-0.52l0.152-0.308c0.008-0.02,0.023-0.061,0.045-0.122
				c0.021-0.062,0.045-0.113,0.067-0.151c0.022-0.04,0.051-0.071,0.081-0.092c0.057-0.039,0.164-0.04,0.324-0.003
				c0.16,0.038,0.32,0.078,0.479,0.119s0.264,0.044,0.312,0.01c0.021-0.015,0.044-0.039,0.064-0.071
				c0.022-0.031,0.038-0.059,0.051-0.081c0.014-0.022,0.029-0.055,0.049-0.099c0.021-0.044,0.033-0.072,0.037-0.086
				c0.188-0.386,0.313-0.768,0.379-1.145c0.065-0.378,0.076-0.779,0.031-1.206c0-0.014-0.002-0.044-0.006-0.093
				c-0.004-0.048-0.008-0.085-0.012-0.11c-0.003-0.026-0.012-0.057-0.021-0.093c-0.01-0.038-0.022-0.066-0.037-0.087
				c-0.028-0.041-0.098-0.071-0.205-0.089c-0.107-0.019-0.219-0.029-0.334-0.033c-0.114-0.002-0.229-0.015-0.34-0.036
				c-0.109-0.022-0.181-0.057-0.213-0.103c-0.022-0.031-0.039-0.068-0.047-0.114c-0.008-0.045-0.013-0.1-0.012-0.165
				c0-0.065,0-0.108-0.002-0.131c-0.004-0.025-0.012-0.085-0.023-0.181c-0.012-0.095-0.021-0.193-0.031-0.293
				s-0.021-0.202-0.032-0.308c-0.013-0.105-0.019-0.195-0.017-0.27c0-0.075,0.008-0.12,0.019-0.137
				c0.012-0.017,0.034-0.038,0.067-0.062c0.148-0.104,0.33-0.18,0.541-0.228c0.188-0.035,0.416,0.024,0.682,0.178
				c0.265,0.154,0.46,0.318,0.584,0.495c0.035,0.05,0.068,0.105,0.1,0.167c0.032,0.062,0.059,0.114,0.077,0.158
				s0.041,0.105,0.065,0.183c0.023,0.078,0.041,0.134,0.05,0.17c0.009,0.035,0.024,0.101,0.05,0.194
				c0.023,0.094,0.04,0.152,0.047,0.176c0.171,0.639,0.186,1.37,0.041,2.197c-0.145,0.826-0.406,1.51-0.783,2.053
				c-0.015,0.02-0.049,0.069-0.103,0.149c-0.056,0.08-0.093,0.135-0.113,0.166c-0.021,0.03-0.055,0.078-0.104,0.143
				c-0.049,0.065-0.092,0.115-0.125,0.15c-0.032,0.035-0.074,0.076-0.125,0.123c-0.051,0.047-0.101,0.089-0.149,0.123
				c-0.176,0.124-0.415,0.214-0.717,0.268C271.568,183.958,271.336,183.936,271.171,183.839L271.171,183.839z"/>
		</g>
	</g>
	<g>
		<g>
			<path fill="#FFFFFF" stroke="#999999" stroke-width="0.5" stroke-miterlimit="10" d="M312.253,325.592
				c-1.83,2.943-0.928,6.813,2.017,8.646c0.992,0.615,1.457,0.878,2.547,0.899l2.783,2.412l1.226-3.267
				c0.919-0.501,1.497-1.109,2.09-2.064c1.83-2.942,0.927-6.812-2.017-8.644C317.952,321.745,314.084,322.647,312.253,325.592z"/>
			
				<linearGradient id="SVGID_4_" gradientUnits="userSpaceOnUse" x1="75.0513" y1="-104.2334" x2="70.6793" y2="-115.1305" gradientTransform="matrix(0.528 -0.8493 -0.8493 -0.528 186.3502 333.335)">
				<stop  offset="0" style="stop-color:#4BC25A"/>
				<stop  offset="1" style="stop-color:#368C41"/>
			</linearGradient>
			<path fill="url(#SVGID_4_)" d="M313.314,326.141c-1.447,2.331-0.732,5.396,1.598,6.845c0.785,0.486,1.654,0.729,2.515,0.748
				l1.601,1.438l0.894-2.047c0.728-0.398,1.367-0.981,1.836-1.737c1.449-2.329,0.735-5.394-1.597-6.844
				C317.829,323.096,314.766,323.811,313.314,326.141z"/>
			<path fill="#FFFFFF" d="M318.081,332.604c-0.213-0.033-0.397-0.1-0.554-0.194c-0.035-0.022-0.06-0.042-0.069-0.06
				c-0.021-0.024-0.028-0.114-0.026-0.271c0.002-0.159,0.01-0.352,0.025-0.576l0.02-0.343c0-0.022-0.002-0.065-0.007-0.131
				c-0.005-0.064-0.002-0.121,0.005-0.166c0.004-0.046,0.019-0.085,0.037-0.116c0.037-0.058,0.135-0.102,0.297-0.129
				c0.164-0.028,0.326-0.054,0.488-0.079c0.161-0.024,0.26-0.062,0.291-0.113c0.014-0.021,0.023-0.053,0.032-0.09
				c0.009-0.038,0.012-0.069,0.015-0.095c0.004-0.026,0.006-0.062,0.008-0.109c0-0.05,0-0.08,0-0.094
				c0.021-0.428-0.013-0.829-0.101-1.202c-0.087-0.373-0.233-0.747-0.442-1.122c-0.007-0.013-0.02-0.041-0.041-0.083
				s-0.041-0.075-0.055-0.097c-0.013-0.022-0.031-0.048-0.055-0.077c-0.024-0.031-0.049-0.053-0.069-0.065
				c-0.042-0.026-0.116-0.027-0.226-0.003c-0.104,0.025-0.211,0.061-0.319,0.103c-0.104,0.043-0.215,0.075-0.326,0.1
				c-0.108,0.022-0.188,0.019-0.235-0.012c-0.032-0.021-0.062-0.049-0.088-0.088c-0.024-0.037-0.051-0.086-0.074-0.146
				c-0.024-0.06-0.043-0.101-0.053-0.121c-0.014-0.021-0.045-0.071-0.094-0.155c-0.048-0.084-0.097-0.17-0.145-0.258
				c-0.047-0.089-0.098-0.178-0.149-0.271c-0.053-0.094-0.092-0.173-0.12-0.242c-0.029-0.068-0.041-0.114-0.037-0.134
				c0.004-0.021,0.017-0.048,0.039-0.083c0.096-0.155,0.231-0.295,0.408-0.422c0.159-0.105,0.393-0.141,0.696-0.104
				c0.303,0.038,0.548,0.113,0.729,0.228c0.053,0.032,0.104,0.071,0.157,0.115c0.054,0.045,0.099,0.081,0.132,0.114
				c0.035,0.033,0.08,0.08,0.133,0.144c0.054,0.062,0.092,0.106,0.112,0.137c0.022,0.028,0.062,0.083,0.121,0.159
				c0.06,0.077,0.097,0.124,0.112,0.145c0.406,0.521,0.705,1.188,0.896,2.005c0.19,0.817,0.218,1.549,0.082,2.195
				c-0.004,0.023-0.017,0.082-0.034,0.179c-0.02,0.096-0.033,0.16-0.039,0.195c-0.008,0.036-0.021,0.094-0.041,0.173
				c-0.021,0.078-0.037,0.142-0.056,0.187c-0.017,0.046-0.04,0.1-0.065,0.163c-0.028,0.062-0.06,0.119-0.092,0.172
				c-0.113,0.183-0.299,0.357-0.556,0.526C318.494,332.557,318.271,332.629,318.081,332.604L318.081,332.604z"/>
		</g>
	</g>
	<g>
		<g>
			<path fill="#FFFFFF" stroke="#999999" stroke-width="0.5" stroke-miterlimit="10" d="M231.243,317.348
				c-2.836,1.994-3.521,5.908-1.526,8.744c0.672,0.956,0.998,1.379,1.99,1.825l1.619,3.31l2.404-2.526
				c1.043-0.104,1.812-0.437,2.73-1.082c2.836-1.993,3.52-5.907,1.525-8.744C237.993,316.037,234.079,315.354,231.243,317.348z"/>
			
				<linearGradient id="SVGID_5_" gradientUnits="userSpaceOnUse" x1="99.5586" y1="-2.9912" x2="95.1865" y2="-13.8888" gradientTransform="matrix(0.8181 -0.575 -0.575 -0.8181 150.5158 372.1247)">
				<stop  offset="0" style="stop-color:#4BC25A"/>
				<stop  offset="1" style="stop-color:#368C41"/>
			</linearGradient>
			<path fill="url(#SVGID_5_)" d="M232.006,318.27c-2.244,1.578-2.785,4.678-1.207,6.923c0.53,0.757,1.235,1.318,2.021,1.673
				l0.91,1.95l1.621-1.534c0.825-0.081,1.643-0.368,2.369-0.88c2.245-1.577,2.786-4.679,1.209-6.925
				C237.352,317.232,234.251,316.691,232.006,318.27z"/>
			<path fill="#FFFFFF" d="M233.863,326.081c-0.184-0.115-0.328-0.248-0.432-0.396c-0.025-0.034-0.039-0.062-0.043-0.082
				c-0.01-0.031,0.019-0.117,0.082-0.262c0.063-0.146,0.146-0.317,0.25-0.52l0.15-0.309c0.008-0.021,0.023-0.062,0.046-0.123
				c0.022-0.061,0.045-0.112,0.067-0.15c0.021-0.04,0.051-0.07,0.08-0.093c0.058-0.039,0.164-0.04,0.324-0.003
				c0.16,0.038,0.32,0.077,0.479,0.118c0.157,0.041,0.263,0.045,0.312,0.011c0.022-0.016,0.045-0.039,0.065-0.07
				c0.022-0.031,0.038-0.06,0.051-0.081c0.013-0.022,0.029-0.055,0.05-0.099c0.02-0.046,0.031-0.072,0.035-0.087
				c0.188-0.387,0.314-0.769,0.381-1.146c0.064-0.378,0.075-0.779,0.03-1.206c-0.001-0.014-0.002-0.044-0.006-0.093
				c-0.004-0.047-0.009-0.084-0.013-0.109c-0.002-0.024-0.01-0.057-0.021-0.093c-0.01-0.038-0.022-0.066-0.038-0.088
				c-0.027-0.04-0.097-0.071-0.205-0.09c-0.107-0.02-0.219-0.028-0.334-0.031c-0.113-0.003-0.229-0.016-0.339-0.036
				c-0.11-0.021-0.181-0.058-0.214-0.104c-0.021-0.03-0.037-0.069-0.046-0.114c-0.009-0.044-0.013-0.101-0.013-0.165
				c0-0.065,0-0.108,0-0.131c-0.004-0.025-0.014-0.086-0.024-0.183c-0.013-0.095-0.022-0.192-0.032-0.292
				c-0.009-0.101-0.021-0.203-0.031-0.309c-0.012-0.105-0.018-0.195-0.018-0.271c0.002-0.074,0.008-0.12,0.02-0.138
				c0.012-0.017,0.033-0.037,0.067-0.062c0.147-0.104,0.329-0.181,0.541-0.229c0.188-0.035,0.416,0.024,0.681,0.178
				c0.266,0.154,0.461,0.318,0.584,0.495c0.037,0.051,0.068,0.105,0.101,0.167c0.032,0.062,0.058,0.113,0.077,0.157
				c0.019,0.045,0.041,0.105,0.064,0.185c0.024,0.078,0.043,0.134,0.051,0.17c0.008,0.033,0.024,0.1,0.049,0.193
				c0.023,0.095,0.041,0.151,0.048,0.176c0.171,0.639,0.185,1.37,0.041,2.196c-0.146,0.826-0.406,1.509-0.783,2.054
				c-0.015,0.02-0.049,0.067-0.103,0.148c-0.056,0.08-0.094,0.136-0.113,0.166s-0.055,0.078-0.104,0.143
				c-0.051,0.065-0.093,0.114-0.125,0.149c-0.033,0.035-0.076,0.076-0.125,0.123c-0.052,0.047-0.102,0.089-0.15,0.123
				c-0.176,0.124-0.415,0.213-0.717,0.269C234.262,326.2,234.027,326.178,233.863,326.081L233.863,326.081z"/>
		</g>
	</g>
	<g>
		<path fill="#EF7962" d="M288.094,106.421c0,0-1.936,2.849-0.387,6.12c1.544,3.271,8.898,9.895,8.898,9.895l10.644,8.42
			l5.435,6.043c0,0,2.938-2.392,0.223-5.887c-2.719-3.497-8.756-8.095-8.756-8.095l-10.99-8.788
			C293.159,114.13,288.051,108.644,288.094,106.421z"/>
		<path fill="#FDD64E" d="M314.032,133.384c0,0-2.58,3.648-4.976,4.075c-2.397,0.43-11.406,2.291-15.51,2.034
			c-4.104-0.256-9.359,2.001-9.359,2.001l-0.821,4.911c0,0,4.886-1.991,9.325-1.752c4.443,0.239,13.104-1.54,13.104-1.54
			s5.772-1.166,7.185-4.086C314.389,136.105,314.032,133.384,314.032,133.384z"/>
		<path fill="#EF7962" d="M283.395,146.46c0,0,2.143,3.798,8.834,7.024c6.695,3.226,14.271,9.691,14.783,12.245
			c0,0,1.934-3.803,0.824-5.419c-1.107-1.621-3.413-5.187-7.501-7.477c-4.089-2.287-8.517-5.006-8.517-5.006
			s-3.914-2.584-4.394-2.967C286.441,144.724,283.395,146.46,283.395,146.46z"/>
		<path fill="#EF7962" d="M285.064,164.388c0,0,1.383-0.824,6.117,0.157c4.741,0.979,12.183,4.119,14.092,7.184
			c1.908,3.066-0.284,5.368-0.284,5.368s-4.738-4.799-7.392-5.421c-2.647-0.624-13.363-1.356-13.363-1.356L285.064,164.388z"/>
		<path fill="#FDD64E" d="M308.163,161.888c0,0-1.649,3.208-3.83,3.982c-2.179,0.778-5.386,1.284-7.562,1.554
			c-2.176,0.268-11.09-0.469-11.877-1.979l-0.641,5.064c0,0,3.279,2.813,9.111,2.164c5.832-0.646,9.066-1.341,11.289-2.43
			c2.225-1.091,2.912-2.649,2.912-2.649L308.163,161.888z"/>
		<path fill="#EF7962" d="M285.786,178.818c0,0,1.821-1.592,5.239-0.732c3.423,0.859,9.914,1.701,11.205,6.336
			c-0.875,2.424-2.631,2.56-2.631,2.56s-1.324-1.521-3.039-2.143c-1.715-0.621-11.705-0.808-11.705-0.808L285.786,178.818z"/>
		<path fill="#FDD64E" d="M305.984,175.213c0,0-2.575,3.14-4.85,3.648c-2.273,0.509-11.402,2.288-15.304,0.091
			c-0.317,1.799-0.978,5.079-0.978,5.079s3.043,1.632,6.57,1.235c3.528-0.396,8.715-1.2,10.527-2.218
			c1.812-1.021,3.429-3.021,3.429-3.021L305.984,175.213z"/>
		<path fill="#FDD64E" d="M301.966,185.341c0,0-4.477,4.336-9.269,2.776c-0.594,1.383-1.858,4.704-1.858,4.704
			s3.334,0.53,6.742-0.458c3.407-0.988,3.344-1.952,3.344-1.952L301.966,185.341z"/>
	</g>
</g>
<g>
	<path fill="#CDD5D8" d="M134.7,112.677c-0.925,0-1.823-0.148-2.669-0.441l-1.928-0.667l1.481-1.402
		c1.96-1.856,2.456-3.998,2.487-5.602c-3.388-3.757-5.249-8.444-5.249-13.252c0-11.779,10.926-21.363,24.356-21.363
		c13.43,0,24.357,9.584,24.357,21.363s-10.928,21.363-24.357,21.363c-3.999,0-7.943-0.866-11.459-2.513
		C140.396,111.102,137.721,112.677,134.7,112.677z M141.431,107.255l0.71,0.36c3.342,1.689,7.159,2.584,11.038,2.584
		c12.065,0,21.88-8.473,21.88-18.886c0-10.415-9.815-18.887-21.88-18.887c-12.064,0-21.88,8.472-21.88,18.886
		c0,4.328,1.743,8.56,4.908,11.914l0.322,0.341l0.015,0.469c0.054,1.684-0.248,3.968-1.745,6.162
		c2.868-0.046,5.505-2.042,6.009-2.445L141.431,107.255z"/>
	<path fill="#CDD5D8" d="M141.365,97.156c-0.908,0-1.646-0.071-2.215-0.215c-0.569-0.142-0.962-0.288-1.178-0.437
		c-0.055-0.054-0.075-0.179-0.062-0.376c0.013-0.194,0.044-0.399,0.092-0.608c0.047-0.209,0.108-0.397,0.182-0.558
		c0.075-0.162,0.145-0.238,0.214-0.224c0.353,0.122,0.735,0.24,1.148,0.355c0.413,0.114,0.938,0.172,1.575,0.172
		c0.65,0,1.202-0.094,1.657-0.284c0.454-0.19,0.681-0.529,0.681-1.017c0-0.421-0.15-0.763-0.448-1.026
		c-0.297-0.264-0.833-0.546-1.605-0.842c-0.42-0.164-0.816-0.343-1.189-0.54c-0.374-0.196-0.701-0.427-0.986-0.691
		c-0.285-0.264-0.508-0.579-0.671-0.944c-0.163-0.365-0.245-0.8-0.245-1.301c0-0.406,0.079-0.793,0.234-1.159
		c0.155-0.366,0.396-0.681,0.721-0.944c0.325-0.264,0.742-0.475,1.25-0.63c0.508-0.156,1.114-0.234,1.819-0.234
		c0.46,0,0.843,0.011,1.148,0.03c0.305,0.021,0.555,0.048,0.752,0.082c0.196,0.034,0.355,0.071,0.478,0.112s0.237,0.074,0.345,0.102
		c0.095,0.04,0.143,0.159,0.143,0.355s-0.028,0.406-0.082,0.63c-0.054,0.224-0.129,0.42-0.223,0.589
		c-0.095,0.17-0.19,0.241-0.285,0.214c-0.23-0.067-0.546-0.142-0.945-0.223c-0.4-0.082-0.789-0.122-1.168-0.122
		c-0.773,0-1.305,0.109-1.596,0.325c-0.292,0.217-0.437,0.508-0.437,0.873c0,0.394,0.163,0.709,0.488,0.945
		c0.325,0.236,0.834,0.478,1.524,0.722c1.097,0.434,1.907,0.932,2.429,1.493c0.521,0.562,0.782,1.271,0.782,2.124
		c0,0.638-0.122,1.166-0.365,1.587c-0.245,0.42-0.569,0.752-0.976,0.994c-0.406,0.245-0.871,0.418-1.393,0.52
		C142.439,97.105,141.907,97.156,141.365,97.156z"/>
	<path fill="#CDD5D8" d="M156.019,97.055c-0.284,0-0.471-0.047-0.558-0.143c-0.09-0.095-0.132-0.276-0.132-0.549v-7.114
		c-0.542,0.881-0.959,1.562-1.251,2.043s-0.503,0.834-0.64,1.058c-0.136,0.222-0.217,0.355-0.245,0.396
		c-0.026,0.041-0.039,0.068-0.039,0.082c-0.121,0.204-0.207,0.335-0.254,0.396c-0.048,0.062-0.146,0.091-0.295,0.091h-0.325
		c-0.176,0-0.292-0.03-0.346-0.091c-0.054-0.062-0.136-0.192-0.244-0.396l-2.073-3.535v7.194c0,0.177-0.03,0.316-0.092,0.418
		c-0.061,0.102-0.22,0.152-0.478,0.152h-0.853c-0.19,0-0.355-0.031-0.499-0.092c-0.142-0.061-0.213-0.261-0.213-0.601v-9.756
		c0-0.271,0.051-0.45,0.152-0.539c0.102-0.088,0.247-0.132,0.437-0.132h1.016c0.148,0,0.274,0.02,0.376,0.061
		s0.206,0.143,0.315,0.305l2.703,4.31l2.703-4.269c0.082-0.148,0.179-0.254,0.296-0.315c0.116-0.062,0.226-0.091,0.335-0.091h1.118
		c0.258,0,0.406,0.054,0.448,0.162c0.041,0.109,0.061,0.285,0.061,0.529v9.835c0,0.203-0.026,0.354-0.081,0.448
		c-0.055,0.096-0.21,0.143-0.467,0.143H156.019L156.019,97.055z"/>
	<path fill="#CDD5D8" d="M162.788,97.156c-0.909,0-1.646-0.071-2.215-0.215c-0.569-0.142-0.962-0.288-1.178-0.437
		c-0.055-0.054-0.075-0.179-0.062-0.376c0.013-0.194,0.042-0.399,0.09-0.608c0.047-0.209,0.108-0.397,0.183-0.558
		c0.073-0.163,0.144-0.238,0.213-0.224c0.353,0.122,0.735,0.24,1.148,0.355c0.413,0.115,0.938,0.172,1.575,0.172
		c0.65,0,1.202-0.094,1.657-0.284c0.453-0.19,0.682-0.529,0.682-1.017c0-0.421-0.149-0.763-0.448-1.026
		c-0.299-0.264-0.833-0.546-1.606-0.842c-0.42-0.164-0.815-0.343-1.189-0.54c-0.374-0.196-0.701-0.427-0.986-0.691
		c-0.284-0.264-0.507-0.579-0.67-0.944c-0.163-0.366-0.245-0.8-0.245-1.301c0-0.406,0.079-0.793,0.233-1.159
		c0.156-0.366,0.397-0.681,0.722-0.944c0.325-0.264,0.741-0.475,1.25-0.63c0.509-0.156,1.116-0.234,1.819-0.234
		c0.461,0,0.844,0.011,1.148,0.03c0.305,0.021,0.555,0.048,0.753,0.082c0.195,0.034,0.355,0.071,0.477,0.112
		c0.122,0.04,0.238,0.074,0.347,0.102c0.094,0.04,0.142,0.159,0.142,0.355s-0.028,0.406-0.083,0.63
		c-0.053,0.224-0.128,0.42-0.222,0.589c-0.095,0.17-0.19,0.241-0.285,0.214c-0.23-0.067-0.546-0.142-0.944-0.223
		c-0.4-0.082-0.79-0.122-1.169-0.122c-0.772,0-1.304,0.109-1.595,0.325c-0.292,0.217-0.438,0.508-0.438,0.873
		c0,0.394,0.164,0.709,0.488,0.945s0.834,0.478,1.524,0.722c1.097,0.434,1.908,0.932,2.429,1.493
		c0.521,0.562,0.783,1.271,0.783,2.124c0,0.638-0.122,1.166-0.365,1.587c-0.245,0.42-0.57,0.752-0.977,0.994
		c-0.406,0.245-0.871,0.418-1.392,0.52C163.859,97.105,163.33,97.156,162.788,97.156z"/>
</g>
<g>
	<path d="M333.172,336.713c0.611,6.581-0.414,12.785-4.651,18.128c-1.571,1.981-3.465,3.638-5.688,4.854
		c-0.732,0.399-0.996,0.879-1.119,1.67c-0.41,2.639-0.729,5.313-1.424,7.881c-1.335,4.918-4.379,8.571-8.891,10.977
		c-0.246,0.131-0.494,0.267-0.754,0.357c-0.923,0.326-1.461-0.107-1.219-1.053c0.303-1.186,0.738-2.338,1.062-3.52
		c0.324-1.181,0.589-2.379,0.865-3.571c0.61-2.635,0.222-5.184-0.623-7.682c-3.331,0.7-6.455,1.593-9.64,1.979
		c-7.271,0.882-14.464,0.396-21.45-2.022c-3.622-1.252-6.686-3.386-9.141-6.265c-3.166-3.715-3.842-8.04-2.541-12.724
		c1.416-5.105,3.982-9.523,7.636-13.358c2.745-2.883,5.677-5.509,9.058-7.632c3.9-2.449,8.124-3.931,12.709-4.263
		c3.5-0.253,7.012-0.379,10.52-0.478c1.101-0.031,2.232,0.107,3.311,0.349c3.867,0.863,7.641,2.045,11.265,3.659
		c3.268,1.455,6.011,3.617,8.234,6.413C332.15,332.249,332.957,334.406,333.172,336.713z M329.615,349.316
		c1.137-3.333,1.93-6.761,1.723-10.321c-0.156-2.698-0.677-5.308-2.367-7.537c-1.718-2.266-3.861-4.14-6.404-5.274
		c-5.642-2.514-11.324-4.957-17.762-4.635c-4.463,0.224-8.979,0.216-13.193,1.798c-9.114,3.422-15.732,9.716-20.199,18.321
		c-0.229,0.443-0.436,0.916-0.539,1.398c-0.04,0.181,0.245,0.432,0.408,0.692c-1.139,1.036-1.697,2.338-1.745,4.115
		c1.634-1.844,3.114-3.516,4.597-5.186c0.105,0.09,0.21,0.181,0.314,0.27c-1.446,1.736-2.844,3.52-4.359,5.192
		c-0.919,1.013-1.129,1.565-0.546,3.127c1.013-1.266,1.993-2.492,2.972-3.716c0.088,0.07,0.178,0.142,0.266,0.213
		c-0.847,1.582-1.946,2.979-3.404,4.267c0.178,0.604,0.371,1.262,0.656,2.24c0.877-1.15,1.529-2.029,2.209-2.887
		c0.645-0.812,1.318-1.601,1.979-2.399c0.101,0.085,0.201,0.171,0.301,0.258c-1.387,1.848-2.775,3.696-4.215,5.614
		c0.286,0.498,0.613,1.067,1.037,1.806c1.131-1.44,2.162-2.754,3.191-4.067c0.116,0.086,0.232,0.173,0.348,0.261
		c-1.001,1.429-2.004,2.86-2.973,4.245c0.412,0.533,0.834,1.076,1.275,1.644c1.004-1.294,1.852-2.39,2.701-3.486
		c0.111,0.08,0.221,0.158,0.33,0.239c-0.81,1.22-1.621,2.439-2.473,3.721c0.483,0.359,0.914,0.68,1.377,1.023
		c0.752-0.94,1.439-1.803,2.127-2.663c0.099,0.074,0.195,0.148,0.295,0.224c-0.613,0.947-1.228,1.893-1.939,2.99
		c1.607,0.839,3.064,1.598,4.479,2.335c1.139-1.494,2.138-2.806,3.135-4.114c-0.193,1.742-1.535,2.81-2.382,4.37
		c1.687,0.423,3.224,0.807,4.543,1.138c1.186-1.47,2.176-2.697,3.166-3.923c0.118,0.085,0.237,0.171,0.354,0.258
		c-0.848,1.186-1.697,2.371-2.678,3.737c1.024,0.15,1.822,0.268,2.449,0.359c1.303-1.532,2.452-2.885,3.602-4.237
		c0.105,0.085,0.212,0.17,0.318,0.256c-0.956,1.299-1.912,2.597-3.031,4.117c1.146,0.098,1.96,0.165,2.701,0.227
		c1.28-2.121,2.836-3.827,4.409-5.521c0.101,0.079,0.2,0.157,0.3,0.236c-1.269,1.705-2.537,3.411-3.887,5.225
		c1.15,0,2.088,0,2.996,0c0.656-1.522,2.911-4.124,4.449-4.964c-1.412,1.792-2.607,3.311-3.982,5.057
		c1.256-0.114,2.13-0.194,2.932-0.269c1.32-1.882,2.652-3.603,4.23-5.107c0.102,0.08,0.203,0.159,0.303,0.239
		c-1.162,1.511-2.324,3.022-3.671,4.772c1.14-0.182,1.989-0.316,2.562-0.407c1.242-1.574,2.324-2.942,3.404-4.312
		c0.117,0.086,0.234,0.171,0.352,0.258c-0.908,1.204-1.818,2.408-2.908,3.851c2.301-0.622,4.673-0.348,5.818-2.771
		c-0.178,0.404-0.354,0.808-0.623,1.427c0.532-0.183,0.84-0.278,1.143-0.389c1.502-0.556,1.861-0.354,2.17,1.198
		c0.111,0.557,0.258,1.105,0.427,1.83c0.594-0.647,1.004-1.095,1.656-1.808c-1.329,3.083-1.329,3.083-1.013,3.866
		c0.539-0.695,1.062-1.368,1.585-2.042c0.188,0.799-0.199,1.331-0.556,1.854c-0.736,1.083-1.162,2.253-1.268,3.567
		c-0.188,2.35-0.74,4.615-1.689,6.781c-0.086,0.199-0.011,0.469-0.011,0.998c3.829-2.899,6.658-6.156,7.598-10.722
		c0.525-2.56,0.925-5.148,1.321-7.733c0.129-0.847,0.415-1.436,1.246-1.793c1.263-0.542,2.281-1.37,2.781-2.729
		c0.153-0.41,0.438-0.774,0.68-1.147c0.041-0.062,0.177-0.064,0.294-0.104c0,0.227,0,0.442,0,0.999
		C327.27,353.698,328.797,351.714,329.615,349.316z"/>
	<path fill="#FBB03B" d="M331.338,338.995c0.207,3.561-0.586,6.988-1.723,10.321c-0.818,2.397-2.346,4.382-4.31,6.35
		c0-0.557,0-0.772,0-0.999c-0.117,0.04-0.253,0.042-0.294,0.104c-0.242,0.373-0.526,0.737-0.68,1.147
		c-0.5,1.358-1.519,2.187-2.781,2.728c-0.831,0.358-1.117,0.947-1.246,1.794c-0.396,2.584-0.796,5.174-1.321,7.733
		c-0.939,4.565-3.769,7.822-7.598,10.722c0-0.529-0.075-0.799,0.011-0.998c0.949-2.166,1.502-4.432,1.689-6.781
		c0.105-1.314,0.531-2.484,1.268-3.567c0.356-0.522,0.744-1.055,0.556-1.854c-0.522,0.674-1.046,1.347-1.585,2.042
		c-0.316-0.783-0.316-0.783,1.013-3.866c-0.652,0.713-1.062,1.16-1.656,1.808c-0.169-0.725-0.315-1.273-0.427-1.83
		c-0.309-1.552-0.668-1.754-2.17-1.198c-0.303,0.11-0.61,0.206-1.143,0.389c0.27-0.619,0.445-1.022,0.623-1.427
		c-1.146,2.424-3.518,2.149-5.818,2.771c1.09-1.442,2-2.646,2.908-3.851c-0.117-0.087-0.234-0.172-0.352-0.258
		c-1.08,1.369-2.162,2.737-3.404,4.312c-0.572,0.091-1.422,0.226-2.562,0.407c1.347-1.75,2.509-3.262,3.671-4.772
		c-0.1-0.08-0.201-0.159-0.303-0.239c-1.578,1.505-2.91,3.226-4.23,5.107c-0.802,0.074-1.676,0.154-2.932,0.269
		c1.375-1.746,2.57-3.265,3.982-5.057c-1.538,0.84-3.793,3.441-4.449,4.964c-0.908,0-1.846,0-2.996,0
		c1.35-1.813,2.618-3.52,3.887-5.225c-0.1-0.079-0.199-0.157-0.3-0.236c-1.573,1.693-3.129,3.399-4.409,5.521
		c-0.741-0.062-1.555-0.129-2.701-0.227c1.119-1.521,2.075-2.818,3.031-4.117c-0.106-0.086-0.213-0.171-0.318-0.256
		c-1.149,1.353-2.299,2.705-3.602,4.237c-0.627-0.092-1.425-0.209-2.449-0.359c0.98-1.366,1.83-2.552,2.678-3.737
		c-0.117-0.087-0.236-0.173-0.354-0.258c-0.99,1.226-1.98,2.453-3.166,3.923c-1.319-0.331-2.856-0.716-4.543-1.138
		c0.847-1.561,2.188-2.628,2.382-4.37c-0.997,1.309-1.996,2.62-3.135,4.114c-1.414-0.737-2.871-1.496-4.479-2.335
		c0.712-1.098,1.326-2.043,1.939-2.99c-0.1-0.075-0.196-0.149-0.295-0.224c-0.688,0.86-1.375,1.723-2.127,2.663
		c-0.463-0.344-0.894-0.664-1.377-1.023c0.852-1.281,1.663-2.501,2.473-3.721c-0.109-0.081-0.219-0.159-0.33-0.239
		c-0.85,1.097-1.697,2.192-2.701,3.486c-0.441-0.567-0.863-1.11-1.275-1.644c0.969-1.385,1.972-2.816,2.973-4.245
		c-0.115-0.088-0.231-0.175-0.348-0.261c-1.029,1.313-2.061,2.627-3.191,4.067c-0.424-0.738-0.751-1.308-1.037-1.806
		c1.439-1.918,2.828-3.767,4.215-5.614c-0.1-0.087-0.2-0.173-0.301-0.258c-0.66,0.799-1.334,1.587-1.979,2.399
		c-0.68,0.857-1.332,1.736-2.209,2.887c-0.285-0.979-0.479-1.636-0.656-2.24c1.458-1.288,2.558-2.685,3.404-4.267
		c-0.088-0.071-0.178-0.143-0.266-0.213c-0.979,1.224-1.959,2.45-2.972,3.716c-0.583-1.562-0.373-2.114,0.546-3.127
		c1.516-1.673,2.913-3.456,4.359-5.192c-0.104-0.089-0.209-0.181-0.314-0.27c-1.482,1.67-2.963,3.342-4.597,5.186
		c0.048-1.777,0.606-3.079,1.745-4.115c-0.163-0.261-0.448-0.512-0.408-0.692c0.104-0.482,0.311-0.955,0.539-1.398
		c4.467-8.605,11.085-14.899,20.199-18.321c4.215-1.582,8.73-1.574,13.193-1.798c6.438-0.322,12.12,2.121,17.762,4.635
		c2.543,1.135,4.687,3.009,6.404,5.274C330.661,333.688,331.182,336.297,331.338,338.995z M321.599,357.812
		c0.405-1.017,0.746-1.868,1.087-2.719C321.561,356.388,321.48,356.616,321.599,357.812z M315.546,352.283
		c2.265-2.311,3.627-5.032,3.521-8.355c-0.061-1.876-1.326-2.936-3.207-2.561c-0.961,0.19-1.875,0.608-2.941,0.967
		c-1.605-0.974-3.463-1.274-5.414-0.479c-1.957,0.795-2.773,2.678-1.982,4.642c0.267,0.659,0.602,1.37,1.107,1.841
		c1.46,1.358,3.002,2.632,4.562,3.877c0.416,0.331,0.994,0.521,1.527,0.634C313.722,353.057,314.781,353.063,315.546,352.283z
		 M314.858,331.905c0.099-0.902-0.046-1.893-0.335-2.761c-0.339-1.018-1.297-1.295-2.339-0.951
		c-1.077,0.354-1.538,1.196-1.741,2.274c-0.529-0.112-0.955-0.247-1.388-0.29c-1.226-0.119-2.719,0.691-3.07,1.63
		c-0.409,1.087,0.016,2.474,1.084,3.278c1.538,1.156,3.302,1.573,5.201,1.388c0.837-0.081,1.475-0.496,1.723-1.358
		C314.3,334.048,314.739,332.993,314.858,331.905z M302.111,343.764c0.299-1.168,0.43-2.415,0.401-3.623
		c-0.054-2.285-1.987-4.756-4.03-5.209c-2.941-0.65-7.985,1.417-7.81,5.853c-0.106,0.026-0.212,0.069-0.319,0.077
		c-0.165,0.011-0.336,0.017-0.5-0.007c-3.506-0.509-6.478,0.753-9.061,2.953c-3.403,2.897-3.116,7.59,0.562,10.125
		c1.849,1.275,3.874,2.117,6.154,2.374c2.978,0.334,5.874,0.132,8.703-0.875c0.2-0.07,0.446-0.145,0.638-0.096
		c1.023,0.264,1.574-0.275,1.962-1.104c0.308-0.652,0.668-1.293,0.873-1.978C300.529,349.435,301.383,346.614,302.111,343.764z
		 M283.156,363.823c0.902-1.18,1.655-2.165,2.408-3.148C283.615,361.987,283.232,362.523,283.156,363.823z M278.105,361.618
		c0.565-0.765,1.13-1.529,1.694-2.293c-0.102-0.075-0.204-0.149-0.306-0.224c-0.578,0.756-1.156,1.51-1.734,2.266
		C277.875,361.45,277.991,361.535,278.105,361.618z M272.745,342.101c0.298-0.393,0.594-0.788,0.89-1.181
		c-0.061-0.043-0.119-0.088-0.179-0.131c-0.316,0.357-0.632,0.715-0.948,1.073C272.588,341.94,272.666,342.021,272.745,342.101z"/>
	<path d="M322.686,355.093c-0.341,0.851-0.682,1.702-1.087,2.719C321.48,356.616,321.561,356.388,322.686,355.093z"/>
	<path fill="#C1272D" d="M319.066,343.928c0.106,3.323-1.256,6.045-3.521,8.355c-0.765,0.78-1.824,0.773-2.827,0.564
		c-0.533-0.113-1.111-0.303-1.527-0.634c-1.561-1.245-3.103-2.519-4.562-3.877c-0.506-0.471-0.841-1.182-1.107-1.841
		c-0.791-1.964,0.025-3.847,1.982-4.642c1.951-0.795,3.809-0.494,5.414,0.479c1.066-0.358,1.98-0.776,2.941-0.967
		C317.74,340.992,319.006,342.052,319.066,343.928z"/>
	<path fill="#C1272D" d="M314.523,329.145c0.289,0.868,0.434,1.858,0.335,2.761c-0.119,1.088-0.559,2.143-0.865,3.21
		c-0.248,0.862-0.886,1.277-1.723,1.358c-1.899,0.186-3.663-0.231-5.201-1.388c-1.068-0.805-1.493-2.191-1.084-3.278
		c0.352-0.938,1.845-1.749,3.07-1.63c0.433,0.043,0.858,0.178,1.388,0.29c0.203-1.078,0.664-1.92,1.741-2.274
		C313.227,327.85,314.185,328.127,314.523,329.145z"/>
	<path fill="#C1272D" d="M302.513,340.141c0.028,1.208-0.103,2.455-0.401,3.623c-0.729,2.851-1.582,5.671-2.427,8.491
		c-0.205,0.685-0.565,1.325-0.873,1.978c-0.388,0.828-0.938,1.367-1.962,1.104c-0.191-0.049-0.438,0.025-0.638,0.096
		c-2.829,1.007-5.726,1.209-8.703,0.875c-2.28-0.257-4.306-1.099-6.154-2.374c-3.678-2.535-3.965-7.228-0.562-10.125
		c2.583-2.2,5.555-3.462,9.061-2.953c0.164,0.023,0.335,0.018,0.5,0.007c0.107-0.008,0.213-0.051,0.319-0.077
		c-0.176-4.436,4.868-6.503,7.81-5.853C300.525,335.385,302.459,337.855,302.513,340.141z"/>
	<path d="M285.564,360.675c-0.753,0.983-1.506,1.969-2.408,3.148C283.232,362.523,283.615,361.987,285.564,360.675z"/>
	<path d="M279.8,359.325c-0.564,0.764-1.129,1.528-1.694,2.293c-0.114-0.083-0.23-0.168-0.346-0.251
		c0.578-0.756,1.156-1.51,1.734-2.266C279.596,359.176,279.698,359.25,279.8,359.325z"/>
	<path d="M273.635,340.92c-0.296,0.393-0.592,0.788-0.89,1.181c-0.079-0.08-0.157-0.16-0.237-0.238
		c0.316-0.358,0.632-0.716,0.948-1.073C273.516,340.832,273.574,340.877,273.635,340.92z"/>
</g>
<g>
	<path fill="#EBBA16" d="M169.333,154.222v19.617c0,2.525-2.047,4.574-4.574,4.574l-15.84,0.065l-9.279,10.207v-10.207h-6.561
		c-2.526,0-4.574-2.048-4.574-4.574v-19.616c0-2.526,2.048-4.574,4.574-4.574l31.679-0.066
		C167.285,149.649,169.333,151.697,169.333,154.222z"/>
	<path fill="#ED8A19" d="M177.749,139.507l-31.679-0.064c-2.527,0-4.575,2.048-4.575,4.573v5.681l23.263-0.048
		c2.526,0,4.574,2.047,4.574,4.574v17.112l6.496,7.145v-10.207h1.921c2.526,0,4.574-2.048,4.574-4.573v-19.617
		C182.323,141.555,180.275,139.507,177.749,139.507z"/>
	<circle fill="#FFFFFF" cx="138.712" cy="164.481" r="2.784"/>
	<circle fill="#FFFFFF" cx="148.919" cy="164.481" r="2.784"/>
	<circle fill="#FFFFFF" cx="159.126" cy="164.481" r="2.784"/>
</g>
<g>
	<g>
		<path id="WhatsApp" fill="#CDD5D8" d="M204.873,230.998c0,16.98-13.871,30.743-30.983,30.743c-5.433,0-10.537-1.387-14.977-3.824
			l-17.154,5.45l5.592-16.494c-2.821-4.633-4.446-10.066-4.446-15.875c0-16.979,13.872-30.744,30.984-30.744
			C191.004,200.254,204.873,214.019,204.873,230.998z M173.89,205.15c-14.365,0-26.049,11.596-26.049,25.848
			c0,5.656,1.843,10.894,4.962,15.155l-3.254,9.6l10.01-3.182c4.113,2.7,9.041,4.275,14.332,4.275
			c14.364,0,26.049-11.595,26.049-25.847C199.939,216.747,188.254,205.15,173.89,205.15z M189.535,238.079
			c-0.191-0.313-0.697-0.503-1.455-0.88c-0.761-0.377-4.496-2.2-5.189-2.45c-0.696-0.251-1.205-0.378-1.71,0.376
			c-0.505,0.755-1.962,2.451-2.405,2.954c-0.443,0.504-0.886,0.567-1.646,0.189c-0.758-0.376-3.204-1.173-6.105-3.739
			c-2.257-1.998-3.782-4.463-4.225-5.218c-0.442-0.755-0.047-1.161,0.333-1.537c0.343-0.338,0.76-0.88,1.14-1.32
			c0.381-0.439,0.507-0.753,0.759-1.257c0.255-0.503,0.127-0.943-0.063-1.32c-0.189-0.377-1.709-4.085-2.342-5.594
			c-0.633-1.508-1.264-1.257-1.708-1.257c-0.442,0-0.95-0.063-1.456-0.063c-0.507,0-1.33,0.189-2.026,0.942
			c-0.696,0.755-2.657,2.578-2.657,6.286s2.72,7.291,3.101,7.793c0.379,0.502,5.252,8.359,12.973,11.376
			c7.723,3.018,7.723,2.011,9.113,1.885c1.393-0.126,4.492-1.823,5.129-3.582C189.725,239.901,189.725,238.393,189.535,238.079z"/>
	</g>
	<path fill="#CDD5D8" d="M227.946,149.944c-13.837,0-25.095,10.639-25.095,23.716c0,7.042,3.279,13.674,8.997,18.194
		c0.736,0.583,1.805,0.458,2.387-0.278c0.582-0.735,0.458-1.805-0.278-2.386c-4.897-3.874-7.706-9.533-7.706-15.529
		c0-11.204,9.732-20.317,21.695-20.317c11.961,0,21.693,9.113,21.693,20.317s-9.732,20.32-21.693,20.32
		c-2.088,0-4.15-0.277-6.136-0.823c-0.434-0.121-0.897-0.062-1.288,0.159l-7.039,3.987c-0.816,0.462-1.104,1.499-0.641,2.316
		c0.312,0.552,0.888,0.861,1.479,0.861c0.285,0,0.572-0.071,0.837-0.22l6.438-3.649c2.064,0.509,4.197,0.767,6.349,0.767
		c13.836,0,25.092-10.641,25.092-23.718S241.782,149.944,227.946,149.944z"/>
	<path fill="#29ABE2" d="M227.445,165.39c-0.6-0.277-1.308-0.182-1.812,0.246l-13.117,11.115c-0.716,0.607-0.804,1.679-0.197,2.395
		c0.606,0.717,1.679,0.805,2.396,0.198l10.317-8.744v8.124c0,0.661,0.386,1.263,0.985,1.542c0.229,0.106,0.473,0.158,0.714,0.158
		c0.396,0,0.786-0.138,1.1-0.402l13.117-11.115c0.717-0.607,0.805-1.679,0.199-2.396c-0.607-0.715-1.68-0.805-2.396-0.198
		l-10.319,8.745v-8.124C228.431,166.27,228.046,165.668,227.445,165.39z"/>
</g>
<g>
	<path fill="#010002" d="M290.631,371.31c-0.675-1.082-1.72-1.701-2.869-1.701c-0.742,0-1.513,0.254-2.287,0.753L252.469,391.6
		c-2.345,1.512-2.508,3.788-2.47,4.696c0.037,0.912,0.396,3.153,2.857,4.353l4.218,2.048c0.8,0.39,1.694,0.589,2.657,0.589
		c0.153,0,0.299-0.024,0.45-0.034c-0.059,0.092-0.128,0.162-0.181,0.258c-0.786,1.443-0.825,3.399-0.113,5.506
		c0.011,0.037,0.021,0.066,0.032,0.098c1.247,3.392,2.635,7.22,2.803,7.752c0.413,1.323,1.467,2.235,2.622,2.235
		c1.78,0,2.31-1.053,5.222-6.872c0.227-0.427,0.731-1.419,0.817-2.681c0.34,0.17,0.66,0.325,0.934,0.461l4.673,2.338
		c0.937,0.469,1.757,0.883,2.189,1.103c0.134,0.101,0.274,0.187,0.422,0.261c0.33,0.16,0.682,0.242,1.034,0.242
		c2.125,0,2.634-2.26,2.908-3.471c0.135-0.598,0.321-1.428,0.521-2.343l7.128-32.142C291.731,373.568,291.07,372.019,290.631,371.31
		z M268.213,410.397c0,0-2.645,5.283-2.869,5.283c-0.006,0-0.01-0.004-0.013-0.012c-0.26-0.855-2.873-7.962-2.873-7.962
		c-0.48-1.424-0.395-2.645,0.435-2.645c0.182,0,0.398,0.06,0.653,0.188l2.029,1.295c0.338,0.284,0.708,0.529,1.115,0.727
		l0.103,0.047l0.191,0.118C268.552,408.456,269.051,408.824,268.213,410.397z M288.506,375.096l-7.124,32.142
		c-0.403,1.812-0.739,3.293-0.745,3.293c-0.006-0.003-0.015-0.038-0.015-0.044c0-0.012-1.161-0.595-2.581-1.308l-4.676-2.337
		c-1.42-0.706-3.75-1.848-5.177-2.523l-0.236-0.116l-0.873-0.556c-0.865-0.815-0.941-2.157-0.072-3.295l14.468-19.012
		c0.581-0.761,0.8-1.153,0.675-1.153c-0.101,0-0.422,0.253-0.959,0.771l-18.305,17.72c-0.799,0.765-2.012,1.191-3.152,1.191
		c-0.584,0-1.15-0.114-1.635-0.349l-4.214-2.046c-1.425-0.691-1.479-1.97-0.123-2.847l33.009-21.242
		c0.381-0.243,0.715-0.357,0.991-0.357C288.472,373.027,288.795,373.79,288.506,375.096z"/>
</g>
<g>
	<g>
		<path fill="#CDD5D8" d="M86.304,77.686h-7.953c-8.33,0-15.106,6.775-15.106,15.104v7.164c0,6.202,3.811,11.776,9.542,14.045v4.645
			c0,0.315,0.185,0.6,0.473,0.727c0.103,0.047,0.213,0.068,0.322,0.068c0.193,0,0.385-0.07,0.534-0.205l4.611-4.177h7.578
			c8.33,0,15.106-6.775,15.106-15.103V92.79C101.411,84.461,94.634,77.686,86.304,77.686z M99.82,99.953
			c0,7.451-6.062,13.513-13.516,13.513h-7.885c-0.197,0-0.387,0.073-0.534,0.206l-3.508,3.178v-3.401c0-0.338-0.212-0.639-0.53-0.75
			c-5.39-1.906-9.011-7.027-9.011-12.746V92.79c0-7.452,6.063-13.513,13.516-13.513h7.953c7.454,0,13.516,6.062,13.516,13.513
			V99.953z"/>
		<path fill="#CDD5D8" d="M92.836,101.931l-4.887-3.174c-0.535-0.347-1.171-0.465-1.793-0.336c-0.623,0.131-1.159,0.5-1.506,1.036
			l-0.23,0.353c-2.115-0.698-4.447-1.591-5.843-5.633l0.578-0.503l0,0c0.993-0.862,1.097-2.372,0.234-3.366l-3.823-4.397
			c-0.288-0.332-0.79-0.365-1.122-0.079l-2.4,2.086c-2.105,1.83-1.122,4.538-0.798,5.428c0.014,0.04,0.032,0.078,0.053,0.115
			c0.083,0.149,2.077,3.707,5.296,6.986c3.232,3.292,9.068,6.333,9.247,6.421c0.667,0.433,1.416,0.64,2.158,0.64
			c1.302,0,2.579-0.638,3.341-1.809l1.731-2.667C93.309,102.663,93.204,102.17,92.836,101.931z M90.005,104.833
			c-0.717,1.104-2.197,1.417-3.366,0.663c-0.058-0.03-5.855-3.049-8.911-6.162c-2.856-2.91-4.752-6.142-5.011-6.592
			c-0.63-1.766-0.519-2.851,0.369-3.623l1.801-1.564l3.301,3.798c0.293,0.337,0.259,0.83-0.076,1.122l-0.976,0.847
			c-0.238,0.207-0.332,0.534-0.239,0.834c1.664,5.406,4.898,6.466,7.26,7.242l0.344,0.114c0.344,0.116,0.721-0.017,0.918-0.321
			l0.564-0.868c0.116-0.18,0.294-0.301,0.501-0.345c0.208-0.044,0.419-0.004,0.599,0.113l4.221,2.741L90.005,104.833z"/>
		<path fill="#CDD5D8" d="M84.143,90.604c-0.423-0.121-0.863,0.125-0.982,0.547c-0.12,0.422,0.125,0.862,0.547,0.982
			c1.185,0.337,2.128,1.282,2.462,2.468c0.099,0.35,0.417,0.579,0.765,0.579c0.072,0,0.145-0.009,0.216-0.029
			c0.422-0.119,0.669-0.558,0.549-0.981C87.218,92.458,85.854,91.091,84.143,90.604z"/>
		<path fill="#CDD5D8" d="M90.194,95.353c0.072,0,0.144-0.01,0.216-0.03c0.423-0.119,0.669-0.559,0.549-0.981
			c-0.938-3.326-3.585-5.978-6.909-6.924c-0.422-0.122-0.862,0.125-0.982,0.548s0.125,0.862,0.547,0.982
			c2.796,0.795,5.023,3.029,5.813,5.826C89.529,95.124,89.846,95.353,90.194,95.353z"/>
		<path fill="#CDD5D8" d="M83.708,83.715c-0.423-0.122-0.863,0.124-0.983,0.548c-0.121,0.422,0.125,0.862,0.547,0.982
			c4.738,1.348,8.513,5.131,9.85,9.872c0.099,0.35,0.417,0.58,0.765,0.58c0.072,0,0.144-0.009,0.216-0.03
			c0.422-0.119,0.669-0.559,0.549-0.981C93.167,89.417,88.974,85.213,83.708,83.715z"/>
	</g>
</g>
</svg>
