<?xml version="1.0" encoding="utf-8"?>
<!-- Generator: Adobe Illustrator 21.0.0, SVG Export Plug-In . SVG Version: 6.00 Build 0)  -->
<svg version="1.1" id="Layer_1" xmlns="http://www.w3.org/2000/svg" xmlns:xlink="http://www.w3.org/1999/xlink" x="0px" y="0px"
	 width="353px" height="430px" viewBox="0 0 353 430" style="enable-background:new 0 0 353 430;" xml:space="preserve">
<style type="text/css">
	.st0{fill:#77777A;}
	.st1{fill:#2DC100;}
	.st2{fill:#FFFFFF;}
	.st3{fill:#0074BB;}
	.st4{fill:#005991;}
	.st5{fill:url(#SVGID_1_);}
	.st6{fill:url(#SVGID_2_);}
	.st7{fill:url(#SVGID_3_);}
	.st8{fill:url(#SVGID_4_);}
	.st9{fill:url(#SVGID_5_);}
	.st10{fill:url(#SVGID_6_);}
	.st11{fill:url(#SVGID_7_);}
	.st12{fill:url(#SVGID_8_);}
	.st13{fill:url(#SVGID_9_);}
	.st14{fill:#CDD5D8;}
	.st15{fill:#EBBA16;}
	.st16{fill:#ED8A19;}
	.st17{fill:#29ABE2;}
	.st18{fill:#757584;}
	.st19{fill:#646473;}
	.st20{fill:#98CA3F;}
	.st21{fill:#84B037;}
	.st22{fill:#12A89D;}
	.st23{fill:#0E857C;}
	.st24{fill:#F48F35;}
	.st25{fill:#C4732B;}
	.st26{fill:#355367;}
	.st27{fill:#638AA3;}
	.st28{fill:#1F313D;}
	.st29{fill:#FF877D;}
	.st30{fill:#BEEB70;}
	.st31{fill:#16D1C3;}
	.st32{fill:#FFB675;}
	.st33{fill:#E0E0E0;}
	.st34{fill:url(#SVGID_10_);}
	.st35{fill:url(#SVGID_11_);}
	.st36{fill:#D2E5F1;}
	.st37{fill:#B5CFE4;}
	.st38{fill:#FEFEFE;}
	.st39{fill:#7C529D;}
	.st40{fill:#FAF9FB;}
	.st41{fill:#F9F7F9;}
	.st42{fill:#EFE9F3;}
	.st43{fill:#437BBD;}
	.st44{fill:none;stroke:#CDD5D8;stroke-width:3;stroke-linecap:round;}
	.st45{fill:#00AFF0;}
	.st46{fill:#55ACEE;}
	.st47{fill:#F1F2F2;}
	.st48{fill:url(#SVGID_12_);}
	.st49{fill:url(#SVGID_13_);}
	.st50{fill:url(#SVGID_14_);}
</style>
<g>
	<path class="st0" d="M262.4,134.1"/>
	<path class="st0" d="M284.7,123.2l-0.6,0.3"/>
	<path class="st0" d="M291.6,119.8l-0.9,0.4"/>
	<path class="st0" d="M290.4,118.4"/>
</g>
<path class="st1" d="M329.2,134.7c1.1,2.5-0.1,5.3-2.5,6.4l-20.9,9.1c-2.5,1.1-5.3-0.1-6.4-2.5l-9.1-20.9c-1.1-2.5,0.1-5.3,2.5-6.4
	l20.9-9.1c2.5-1.1,5.3,0.1,6.4,2.5L329.2,134.7z"/>
<g>
	<path class="st2" d="M313.2,124.8c-2.4,1.2-4.1,2.8-5.1,5.2s-0.9,4.8,0.4,7.2c-1,0.3-1.9,0.5-2.8,0.8c-0.3,0.1-0.6,0.3-0.8,0.5
		c-0.6,0.8-1.2,1.7-1.9,2.7c-0.2-0.9-0.4-1.6-0.4-2.4c-0.1-0.6-0.3-0.8-0.8-0.9c-3.8-0.8-6.3-3.3-6.8-6.8c-0.4-3.3,0.9-5.9,3.3-8.1
		c3.3-2.9,8.2-3.5,11.8-1.5C311.3,122.4,312.4,123.4,313.2,124.8z M301.7,128.6c-0.2-0.6-0.9-0.9-1.5-0.6c-0.6,0.2-0.9,0.9-0.7,1.5
		c0.2,0.6,0.9,0.9,1.5,0.6C301.6,129.9,301.9,129.2,301.7,128.6z M307,125c-0.6,0.3-0.9,1-0.6,1.6s1,0.8,1.6,0.6
		c0.6-0.3,0.9-0.9,0.6-1.6C308.2,125,307.5,124.7,307,125z"/>
	<path class="st2" d="M325.1,137.4c-0.9,0-1.8-0.2-2.6,0c-0.8,0.2-1.4,1-2.1,1.4c-2.3,1.3-4.7,1.5-7.1,0.7
		c-4.7-1.6-6.2-6.5-3.5-10.7c2.4-3.7,7.8-5.1,11.5-3.1c3.3,1.8,4.6,5.5,3,8.9c-0.5,1-0.5,1.6,0.4,2.3
		C324.8,137,324.9,137.2,325.1,137.4z M312.8,132.8c0.5-0.2,0.7-0.8,0.5-1.3s-0.8-0.8-1.3-0.5c-0.5,0.2-0.7,0.8-0.5,1.3
		S312.3,133,312.8,132.8z M317.6,128.6c-0.5,0.2-0.7,0.8-0.5,1.2c0.2,0.5,0.8,0.8,1.3,0.5c0.5-0.2,0.7-0.7,0.5-1.2
		C318.6,128.6,318.1,128.4,317.6,128.6z"/>
</g>
<g>
	<path class="st3" d="M192.6,132.6l18.9,6.3c2.2,0.7,3.4,3.2,2.7,5.4l-4.4,13.4c-0.7,2-2.8,3.2-4.8,2.9l-1.7,5.1l-4.3-7l-13.6-4.5
		c-2.2-0.7-3.5-3.2-2.7-5.4l4.4-13.4C188,133,190.4,131.8,192.6,132.6z"/>
	<g>
		<path class="st4" d="M212.7,139.4c0,0.2-0.1,0.4-0.1,0.5l-4.6,13.9c-0.7,2.1-3,3.2-5,2.5l-14.4-4.8l-4.2,1.8
			c0.4,0.3,0.8,0.5,1.3,0.7l0.4,0.1l2.6-1.1l13.9,4.6c2.9,0.9,5.9-0.6,6.9-3.5l4.5-13.7C213.5,140.1,213.1,139.7,212.7,139.4z"/>
		<path class="st4" d="M182.8,149.8l-0.2-0.1c0,0.2,0,0.4,0,0.6L182.8,149.8z"/>
	</g>
	
		<linearGradient id="SVGID_1_" gradientUnits="userSpaceOnUse" x1="260.7822" y1="-217.1116" x2="260.7822" y2="-249.6426" gradientTransform="matrix(0.9494 0.3141 -0.3141 0.9494 -126.0214 284.9234)">
		<stop  offset="0" style="stop-color:#828282"/>
		<stop  offset="1" style="stop-color:#FFFFFF"/>
	</linearGradient>
	<path class="st5" d="M210.3,133.3l-20.7-6.9c-2.9-0.9-5.9,0.6-6.9,3.5l-4.6,13.9c-0.9,2.6,0.4,5.4,2.8,6.6l-2.2,6.7l9.7-4.1
		l13.9,4.6c2.9,0.9,5.9-0.6,6.9-3.5l4.6-13.9C214.7,137.3,213.2,134.2,210.3,133.3z M207.8,153.6c-0.7,2.1-3,3.2-5,2.5l-14.4-4.8
		l-7.3,3.1l1.6-4.8l-1.1-0.6c-1.8-0.9-2.6-2.9-2-4.8l4.6-13.9c0.7-2.1,3-3.2,5-2.5l20.7,6.9c2.1,0.7,3.2,3,2.5,5L207.8,153.6z"/>
	
		<linearGradient id="SVGID_2_" gradientUnits="userSpaceOnUse" x1="260.8145" y1="-220.3307" x2="260.8145" y2="-248.1816" gradientTransform="matrix(0.9494 0.3141 -0.3141 0.9494 -126.0214 284.9234)">
		<stop  offset="2.150000e-02" style="stop-color:#000000"/>
		<stop  offset="1" style="stop-color:#2B2B2B"/>
	</linearGradient>
	<path class="st6" d="M182.7,149.6l-1.1-0.6c-1.8-0.9-2.6-2.9-2-4.8l4.6-13.9c0.7-2.1,3-3.2,5-2.5l20.7,6.9c2.1,0.7,3.2,3,2.5,5
		l-4.6,13.9c-0.7,2.1-3,3.2-5,2.5l-14.4-4.8l-7.3,3.1L182.7,149.6z"/>
	<g>
		
			<linearGradient id="SVGID_3_" gradientUnits="userSpaceOnUse" x1="254.7837" y1="-229.8889" x2="254.7837" y2="-243.312" gradientTransform="matrix(0.9494 0.3141 -0.3141 0.9494 -126.0214 284.9234)">
			<stop  offset="0" style="stop-color:#969696"/>
			<stop  offset="1" style="stop-color:#F7F7F7"/>
		</linearGradient>
		<path class="st7" d="M194.4,136c0.2-0.6,0.1-1.5-1.5-2l-2.4-0.8l-1.7,2.9l2.5,0.8C193.3,137.6,194.1,136.9,194.4,136z"/>
		
			<linearGradient id="SVGID_4_" gradientUnits="userSpaceOnUse" x1="261.6457" y1="-229.8865" x2="261.6457" y2="-243.3136" gradientTransform="matrix(0.9494 0.3141 -0.3141 0.9494 -126.0214 284.9234)">
			<stop  offset="0" style="stop-color:#969696"/>
			<stop  offset="1" style="stop-color:#F7F7F7"/>
		</linearGradient>
		<path class="st8" d="M200.9,138.2c0.2-0.6,0.1-1.5-1.5-2l-2.4-0.8l-1.7,2.9l2.5,0.8C199.7,139.8,200.6,139,200.9,138.2z"/>
		
			<linearGradient id="SVGID_5_" gradientUnits="userSpaceOnUse" x1="253.9186" y1="-229.8821" x2="253.9186" y2="-243.3154" gradientTransform="matrix(0.9494 0.3141 -0.3141 0.9494 -126.0214 284.9234)">
			<stop  offset="0" style="stop-color:#969696"/>
			<stop  offset="1" style="stop-color:#F7F7F7"/>
		</linearGradient>
		<path class="st9" d="M192,140.5c0.2-0.6,0.1-1.5-1.5-2l-2.4-0.8l-1.7,2.9l2.5,0.8C190.8,142.1,191.7,141.4,192,140.5z"/>
		
			<linearGradient id="SVGID_6_" gradientUnits="userSpaceOnUse" x1="260.7806" y1="-229.8831" x2="260.7806" y2="-243.3144" gradientTransform="matrix(0.9494 0.3141 -0.3141 0.9494 -126.0214 284.9234)">
			<stop  offset="0" style="stop-color:#969696"/>
			<stop  offset="1" style="stop-color:#F7F7F7"/>
		</linearGradient>
		<path class="st10" d="M198.5,142.7c0.2-0.6,0.1-1.5-1.5-2l-2.4-0.8l-1.7,2.9l2.5,0.8C197.3,144.3,198.2,143.5,198.5,142.7z"/>
		
			<linearGradient id="SVGID_7_" gradientUnits="userSpaceOnUse" x1="267.9003" y1="-229.885" x2="267.9003" y2="-243.3123" gradientTransform="matrix(0.9494 0.3141 -0.3141 0.9494 -126.0214 284.9234)">
			<stop  offset="0" style="stop-color:#969696"/>
			<stop  offset="1" style="stop-color:#F7F7F7"/>
		</linearGradient>
		<path class="st11" d="M205.9,143c0.2-0.6,0.1-1.5-1.5-2l-2.4-0.8l-1.7,2.9l2.5,0.8C204.7,144.6,205.6,143.8,205.9,143z"/>
		
			<linearGradient id="SVGID_8_" gradientUnits="userSpaceOnUse" x1="266.8767" y1="-229.8821" x2="266.8767" y2="-243.3155" gradientTransform="matrix(0.9494 0.3141 -0.3141 0.9494 -126.0214 284.9234)">
			<stop  offset="0" style="stop-color:#969696"/>
			<stop  offset="1" style="stop-color:#F7F7F7"/>
		</linearGradient>
		<path class="st12" d="M203.3,147.6c0.2-0.6,0.1-1.5-1.5-2l-2.4-0.8l-1.7,2.9l2.5,0.8C202.1,149.2,203,148.5,203.3,147.6z"/>
		
			<linearGradient id="SVGID_9_" gradientUnits="userSpaceOnUse" x1="259.7571" y1="-229.8836" x2="259.7571" y2="-243.3137" gradientTransform="matrix(0.9494 0.3141 -0.3141 0.9494 -126.0214 284.9234)">
			<stop  offset="0" style="stop-color:#969696"/>
			<stop  offset="1" style="stop-color:#F7F7F7"/>
		</linearGradient>
		<path class="st13" d="M195.9,147.3c0.2-0.6,0.1-1.5-1.5-2l-2.4-0.8l-1.7,2.9l2.5,0.8C194.7,148.9,195.6,148.2,195.9,147.3z"/>
	</g>
</g>
<g>
	<path class="st14" d="M106.7,127.1c-0.7-0.6-1.4-1.2-1.8-2l-1.1-1.7l2-0.2c2.7-0.3,4.4-1.7,5.4-2.9c-0.4-5,1-9.9,3.9-13.7
		c7.2-9.3,21.7-10.2,32.3-2c10.6,8.2,13.4,22.5,6.2,31.8s-21.7,10.2-32.3,2c-3.2-2.4-5.8-5.5-7.5-9
		C112.2,129.4,109.1,129,106.7,127.1z M115.4,127l0.3,0.7c1.6,3.4,4.1,6.4,7.2,8.8c9.5,7.4,22.5,6.7,28.9-1.6
		c6.4-8.2,3.8-20.9-5.8-28.3s-22.5-6.7-28.9,1.6c-2.6,3.4-3.9,7.8-3.4,12.4v0.5l-0.3,0.4c-1,1.4-2.6,3-5.1,3.8
		c2.3,1.7,5.6,1.7,6.3,1.7L115.4,127z"/>
	<path class="st14" d="M121.5,118.9c-0.7-0.6-1.3-1.1-1.6-1.5c-0.4-0.5-0.6-0.8-0.7-1.1c0-0.1,0.1-0.2,0.2-0.3
		c0.1-0.1,0.3-0.3,0.4-0.4c0.2-0.1,0.3-0.2,0.5-0.3c0.2-0.1,0.3-0.1,0.3,0c0.2,0.3,0.4,0.6,0.7,1c0.3,0.3,0.6,0.7,1.1,1.1
		s1,0.7,1.5,0.8c0.5,0.1,0.9,0,1.2-0.4c0.3-0.3,0.3-0.7,0.3-1.1c-0.1-0.4-0.3-0.9-0.8-1.6c-0.2-0.4-0.4-0.8-0.6-1.2
		c-0.2-0.4-0.3-0.8-0.4-1.1c-0.1-0.4,0-0.8,0-1.2c0.1-0.4,0.3-0.8,0.6-1.2c0.2-0.3,0.5-0.6,0.9-0.8c0.3-0.2,0.7-0.3,1.1-0.3
		s0.9,0.1,1.4,0.3c0.5,0.2,1,0.5,1.6,0.9c0.4,0.3,0.7,0.5,0.9,0.7s0.4,0.4,0.5,0.5s0.2,0.3,0.3,0.4s0.1,0.2,0.2,0.3
		c0.1,0.1,0,0.2-0.1,0.4c-0.1,0.2-0.3,0.3-0.4,0.4s-0.4,0.3-0.5,0.3s-0.3,0.1-0.4,0c-0.1-0.2-0.3-0.4-0.6-0.8
		c-0.3-0.3-0.6-0.6-0.9-0.8c-0.6-0.5-1.1-0.7-1.5-0.7s-0.7,0.1-0.9,0.4c-0.2,0.3-0.3,0.7-0.2,1c0.1,0.4,0.4,0.9,0.8,1.5
		c0.6,1,0.9,1.9,1,2.7c0.1,0.8-0.2,1.5-0.7,2.2c-0.4,0.5-0.8,0.8-1.3,1c-0.4,0.2-0.9,0.2-1.4,0.2c-0.5-0.1-0.9-0.2-1.4-0.4
		C122.4,119.5,121.9,119.3,121.5,118.9z"/>
	<path class="st14" d="M133.2,127.8c-0.2-0.2-0.3-0.3-0.4-0.5c0-0.1,0.1-0.3,0.2-0.5l4.3-5.6c-1,0.4-1.7,0.7-2.2,0.9
		c-0.5,0.2-0.9,0.4-1.2,0.4c-0.2,0.1-0.4,0.1-0.4,0.2h-0.1c-0.2,0.1-0.4,0.1-0.4,0.2c-0.1,0-0.2,0-0.3-0.1l-0.3-0.2
		c-0.1-0.1-0.2-0.2-0.2-0.3c0-0.1,0-0.2,0-0.5l0.5-4.1l-4.4,5.7c-0.1,0.1-0.2,0.2-0.3,0.3c-0.1,0-0.3,0-0.5-0.2L127,123
		c-0.2-0.1-0.3-0.2-0.3-0.4c-0.1-0.1,0-0.3,0.2-0.6l6-7.7c0.2-0.2,0.3-0.3,0.4-0.3c0.1,0,0.3,0,0.4,0.2l0.8,0.6
		c0.1,0.1,0.2,0.2,0.3,0.3s0.1,0.2,0.1,0.4l-0.5,5.1l4.7-1.7c0.2-0.1,0.3-0.1,0.4-0.1c0.1,0,0.2,0.1,0.3,0.1l0.9,0.7
		c0.2,0.2,0.3,0.3,0.3,0.4s-0.1,0.3-0.3,0.5l-6,7.8c-0.1,0.2-0.2,0.3-0.3,0.3s-0.3,0-0.5-0.2L133.2,127.8L133.2,127.8z"/>
	<path class="st14" d="M138.5,132c-0.7-0.6-1.3-1.1-1.6-1.5c-0.4-0.5-0.6-0.8-0.7-1.1c0-0.1,0-0.2,0.2-0.3c0.1-0.1,0.3-0.3,0.4-0.4
		c0.2-0.1,0.3-0.2,0.5-0.3s0.3-0.1,0.3,0c0.2,0.3,0.4,0.6,0.7,1c0.3,0.3,0.6,0.7,1.1,1.1c0.5,0.4,1,0.7,1.5,0.8s0.9,0,1.2-0.4
		c0.3-0.3,0.3-0.7,0.3-1.1c-0.1-0.4-0.3-0.9-0.8-1.6c-0.2-0.4-0.4-0.8-0.6-1.2c-0.2-0.4-0.3-0.8-0.4-1.2c-0.1-0.4,0-0.8,0-1.2
		c0.1-0.4,0.3-0.8,0.6-1.2c0.2-0.3,0.5-0.6,0.9-0.8c0.3-0.2,0.7-0.3,1.1-0.3c0.4,0,0.9,0.1,1.4,0.3c0.5,0.2,1,0.5,1.6,0.9
		c0.4,0.3,0.7,0.5,0.9,0.7s0.4,0.4,0.5,0.5s0.2,0.3,0.3,0.4s0.1,0.2,0.2,0.3c0.1,0.1,0,0.2-0.1,0.4c-0.1,0.2-0.3,0.3-0.5,0.4
		s-0.4,0.3-0.5,0.3c-0.2,0.1-0.3,0.1-0.4,0c-0.1-0.2-0.3-0.4-0.6-0.8c-0.3-0.3-0.6-0.6-0.9-0.8c-0.6-0.5-1.1-0.7-1.5-0.7
		s-0.7,0.1-0.9,0.4s-0.3,0.7-0.2,1c0.1,0.4,0.4,0.9,0.8,1.5c0.6,1,0.9,1.9,1,2.7s-0.2,1.5-0.7,2.2c-0.4,0.5-0.8,0.8-1.3,1
		s-0.9,0.2-1.4,0.2c-0.5-0.1-0.9-0.2-1.4-0.4C139.3,132.6,138.9,132.4,138.5,132z"/>
</g>
<g>
	<path class="st15" d="M162.1,154.2v19.6c0,2.5-2,4.6-4.6,4.6l-15.8,0.1l-9.3,10.2v-10.2h-6.6c-2.5,0-4.6-2-4.6-4.6v-19.6
		c0-2.5,2-4.6,4.6-4.6l31.7-0.1C160,149.6,162.1,151.7,162.1,154.2z"/>
	<path class="st16" d="M170.5,139.5l-31.7-0.1c-2.5,0-4.6,2-4.6,4.6v5.7h23.3c2.5,0,4.6,2,4.6,4.6v17.1l6.5,7.1v-10.2h1.9
		c2.5,0,4.6-2,4.6-4.6v-19.6C175.1,141.6,173,139.5,170.5,139.5z"/>
	<circle class="st2" cx="131.4" cy="164.5" r="2.8"/>
	<circle class="st2" cx="141.6" cy="164.5" r="2.8"/>
	<circle class="st2" cx="151.9" cy="164.5" r="2.8"/>
</g>
<g>
	<g>
		<path id="WhatsApp" class="st14" d="M197.6,231c0,17-13.9,30.7-31,30.7c-5.4,0-10.5-1.4-15-3.8l-17.2,5.5l5.6-16.5
			c-2.8-4.6-4.4-10.1-4.4-15.9c0-17,13.9-30.7,31-30.7S197.6,214,197.6,231z M166.6,205.1c-14.4,0-26,11.6-26,25.8
			c0,5.7,1.8,10.9,5,15.2l-3.3,9.6l10-3.2c4.1,2.7,9,4.3,14.3,4.3c14.4,0,26-11.6,26-25.8S181,205.1,166.6,205.1z M182.3,238.1
			c-0.2-0.3-0.7-0.5-1.5-0.9s-4.5-2.2-5.2-2.4c-0.7-0.3-1.2-0.4-1.7,0.4c-0.5,0.8-2,2.5-2.4,3s-0.9,0.6-1.6,0.2
			c-0.8-0.4-3.2-1.2-6.1-3.7c-2.3-2-3.8-4.5-4.2-5.2c-0.4-0.8,0-1.2,0.3-1.5s0.8-0.9,1.1-1.3c0.4-0.4,0.5-0.8,0.8-1.3
			s0.1-0.9-0.1-1.3c-0.2-0.4-1.7-4.1-2.3-5.6s-1.3-1.3-1.7-1.3s-0.9-0.1-1.5-0.1c-0.5,0-1.3,0.2-2,0.9c-0.7,0.8-2.7,2.6-2.7,6.3
			s2.7,7.3,3.1,7.8c0.4,0.5,5.3,8.4,13,11.4s7.7,2,9.1,1.9c1.4-0.1,4.5-1.8,5.1-3.6C182.5,239.9,182.5,238.4,182.3,238.1z"/>
	</g>
	<path class="st14" d="M220.7,149.9c-13.8,0-25.1,10.6-25.1,23.7c0,7,3.3,13.7,9,18.2c0.7,0.6,1.8,0.5,2.4-0.3
		c0.6-0.7,0.5-1.8-0.3-2.4c-4.9-3.9-7.7-9.5-7.7-15.5c0-11.2,9.7-20.3,21.7-20.3s21.7,9.1,21.7,20.3s-9.7,20.3-21.7,20.3
		c-2.1,0-4.1-0.3-6.1-0.8c-0.4-0.1-0.9-0.1-1.3,0.2l-7,4c-0.8,0.5-1.1,1.5-0.6,2.3c0.3,0.6,0.9,0.9,1.5,0.9c0.3,0,0.6-0.1,0.8-0.2
		l6.4-3.6c2.1,0.5,4.2,0.8,6.4,0.8c13.8,0,25.1-10.6,25.1-23.7C245.8,160.6,234.5,149.9,220.7,149.9z"/>
	<path class="st17" d="M220.2,165.4c-0.6-0.3-1.3-0.2-1.8,0.2l-13.1,11.1c-0.7,0.6-0.8,1.7-0.2,2.4s1.7,0.8,2.4,0.2l10.3-8.7v8.1
		c0,0.7,0.4,1.3,1,1.5c0.2,0.1,0.5,0.2,0.7,0.2c0.4,0,0.8-0.1,1.1-0.4l13.1-11.1c0.7-0.6,0.8-1.7,0.2-2.4s-1.7-0.8-2.4-0.2
		l-10.3,8.7v-8.1C221.2,166.3,220.8,165.7,220.2,165.4z"/>
</g>
<g>
	<polygon class="st18" points="316.4,211.8 89.2,211.8 71.9,162.8 333.7,162.8 	"/>
	<path class="st19" d="M202.8,167.2c49.2,0,93.5,5.4,124.4,14l6.5-18.4H71.9l6.5,18.4C109.3,172.6,153.6,167.2,202.8,167.2z"/>
	<polygon class="st20" points="287,260.8 118.5,260.8 101.2,211.8 304.4,211.8 	"/>
	<path class="st21" d="M202.8,219.8c35.7,0,68.7,2.8,96,7.7l5.6-15.7H101.2l5.6,15.7C134,222.7,167.1,219.8,202.8,219.8z"/>
	<polygon class="st22" points="259.8,309.8 145.8,309.8 128.5,260.8 277.1,260.8 	"/>
	<path class="st23" d="M202.8,269.3c24.9,0,48.6,1.4,69.9,3.9l4.4-12.4H128.5l4.4,12.4C154.2,270.7,177.9,269.3,202.8,269.3z"/>
	<polygon class="st24" points="231.3,358.8 174.3,358.8 156.9,309.8 248.7,309.8 	"/>
	<path class="st25" d="M202.8,318.5c14.6,0,28.8,0.5,42.3,1.4l3.5-10h-91.7l3.5,10C174,318.9,188.2,318.5,202.8,318.5z"/>
	<path class="st26" d="M347,157.6c0,2.8-2.3,5.1-5.1,5.1H63.7c-2.8,0-5.1-2.3-5.1-5.1v-10.3c0-2.8,2.3-5.1,5.1-5.1h278.1
		c2.8,0,5.1,2.3,5.1,5.1L347,157.6L347,157.6z"/>
	<g>
		<path class="st27" d="M142.2,148.5c0,1.6-1.3,2.9-2.9,2.9H74.8c-1.6,0-2.9-1.3-2.9-2.9l0,0c0-1.6,1.3-2.9,2.9-2.9h64.5
			C140.9,145.5,142.2,146.9,142.2,148.5L142.2,148.5z"/>
		<path class="st27" d="M166.6,148.5c0,1.6-1.3,2.9-2.9,2.9h-7.9c-1.6,0-2.9-1.3-2.9-2.9l0,0c0-1.6,1.3-2.9,2.9-2.9h7.9
			C165.3,145.5,166.6,146.9,166.6,148.5L166.6,148.5z"/>
	</g>
	<path class="st28" d="M341.9,155.4H63.7c-2.8,0-5.1-2.3-5.1-5.1v7.3c0,2.8,2.3,5.1,5.1,5.1h278.1c2.8,0,5.1-2.3,5.1-5.1v-7.3
		C347,153.1,344.7,155.4,341.9,155.4z"/>
	<polygon class="st24" points="183.7,374.2 221.6,385.3 221.6,341.8 183.7,341.8 	"/>
	<g>
		<path class="st29" d="M89.2,211.8c0,0,3.5-0.1,9.8-0.2c6.2-0.1,15.1-0.3,25.7-0.4c10.6-0.1,23.1-0.3,36.4-0.3s27.5-0.1,41.7-0.1
			s28.4,0.1,41.7,0.1c13.3,0,25.7,0.2,36.4,0.3c10.6,0.1,19.5,0.3,25.7,0.4c6.2,0.1,9.8,0.2,9.8,0.2s-3.5,0.1-9.8,0.2
			c-6.2,0.1-15.1,0.3-25.7,0.4c-10.6,0.1-23.1,0.3-36.4,0.3c-13.3,0-27.5,0.1-41.7,0.1s-28.4-0.1-41.7-0.1s-25.7-0.2-36.4-0.3
			c-10.6-0.1-19.5-0.3-25.7-0.4C92.8,211.8,89.2,211.8,89.2,211.8z"/>
	</g>
	<g>
		<path class="st30" d="M118.5,260.8c0,0,2.6-0.1,7.2-0.2c4.6-0.1,11.2-0.3,19.1-0.4c7.9-0.1,17.1-0.3,27-0.3s20.4-0.1,30.9-0.1
			s21.1,0.1,30.9,0.1c9.9,0,19.1,0.2,27,0.3c7.9,0.1,14.5,0.3,19.1,0.4s7.2,0.2,7.2,0.2s-2.6,0.1-7.2,0.2s-11.2,0.3-19.1,0.4
			s-17.1,0.3-27,0.3s-20.4,0.1-30.9,0.1s-21.1-0.1-30.9-0.1c-9.9,0-19.1-0.2-27-0.3c-7.9-0.1-14.5-0.3-19.1-0.4
			C121.2,260.9,118.5,260.8,118.5,260.8z"/>
	</g>
	<g>
		<path class="st31" d="M145.8,309.8c0,0,1.8-0.1,4.9-0.2c3.1-0.1,7.6-0.3,12.9-0.4c5.3-0.1,11.6-0.2,18.2-0.3
			c3.3,0,6.8-0.1,10.3-0.1s7.1,0,10.6,0c3.6,0,7.1,0,10.6,0s7,0.1,10.3,0.1c6.7,0.1,12.9,0.2,18.2,0.3c5.3,0.1,9.8,0.3,12.9,0.4
			s4.9,0.2,4.9,0.2s-1.8,0.1-4.9,0.2s-7.6,0.3-12.9,0.4c-5.3,0.1-11.6,0.2-18.2,0.3c-3.3,0-6.8,0.1-10.3,0.1s-7.1,0-10.6,0
			c-3.6,0-7.1,0-10.6,0s-7-0.1-10.3-0.1c-6.7-0.1-12.9-0.2-18.2-0.3c-5.3-0.1-9.8-0.3-12.9-0.4C147.6,309.9,145.8,309.8,145.8,309.8
			z"/>
	</g>
	<g>
		<path class="st32" d="M174.3,358.8c0,0,3.6-0.3,8.9-0.6c2.7-0.1,5.8-0.2,9.1-0.3c1.7,0,3.4-0.1,5.2-0.1s3.5,0,5.3,0s3.6,0,5.3,0
			c1.8,0,3.5,0.1,5.2,0.1c3.3,0.1,6.5,0.2,9.1,0.3c5.4,0.2,8.9,0.6,8.9,0.6s-3.6,0.3-8.9,0.6c-2.7,0.1-5.8,0.2-9.1,0.3
			c-1.7,0-3.4,0.1-5.2,0.1s-3.5,0-5.3,0s-3.6,0-5.3,0c-1.8,0-3.5-0.1-5.2-0.1c-3.3-0.1-6.5-0.2-9.1-0.3
			C177.8,359.1,174.3,358.8,174.3,358.8z"/>
	</g>
	<g>
		<path class="st26" d="M347,157.6c0,0,0,0.3-0.1,0.8s-0.3,1.4-0.9,2.3c-0.6,0.9-1.7,1.8-3.3,2.1c-0.8,0.1-1.6,0.1-2.5,0.1
			s-1.8,0-2.9,0c-8,0.1-19.5,0.3-33.3,0.4c-13.8,0.1-29.9,0.3-47.1,0.3s-35.6,0.1-54,0.1s-36.8-0.1-54-0.1s-33.3-0.2-47.1-0.3
			s-25.3-0.3-33.3-0.4c-1,0-2,0-2.9,0s-1.8,0-2.5-0.1c-1.6-0.3-2.7-1.2-3.3-2.1c-0.6-0.9-0.9-1.7-0.9-2.3s-0.1-0.8-0.1-0.8
			s0,0.3,0.1,0.8s0.3,1.4,1,2.2c0.6,0.8,1.8,1.7,3.3,1.9c0.8,0.1,1.6,0,2.5,0s1.8,0,2.9,0c8-0.1,19.5-0.3,33.3-0.4
			c13.8-0.1,29.9-0.3,47.1-0.3s35.6-0.1,54-0.1s36.8,0.1,54,0.1s33.3,0.2,47.1,0.3c13.8,0.1,25.3,0.3,33.3,0.4c1,0,2,0,2.9,0
			s1.7,0.1,2.5,0c1.5-0.2,2.7-1.1,3.3-1.9c0.6-0.9,0.9-1.7,1-2.2C347,157.9,347,157.6,347,157.6z"/>
	</g>
	<path class="st24" d="M218.1,376.2c3,5.4,5.1,10,1,12.2l-35.4,19.2c-4.1,2.2-5.5-2.7-8.4-8.2l-5.2-7.7c-3-5.4-5.4-9.3-1.3-11.5
		l32.3-17.6c4.1-2.2,9.8,0.4,12.8,5.8L218.1,376.2z"/>
	<path class="st25" d="M202.8,367c6.4,0,12.7,0.1,18.9,0.3v-8.4h-37.8v8.4C190.1,367.1,196.4,367,202.8,367z"/>
</g>
<path class="st33" d="M141,79.1c2.1-5.4,1.9-11.3-0.4-16.6c-4.9-10.9-17.7-15.9-28.6-11c-3.5,1.6-6.5,4-8.7,7.1l-11.5,1.8l7.4,9.3
	c-0.3,3.6,0.3,7.2,1.8,10.5l0,0l0,0c4.9,10.9,17.7,15.9,28.6,11C134.9,88.8,138.9,84.5,141,79.1z M104.3,78.6L104.3,78.6
	c-1.3-3-1.8-6.2-1.4-9.4l0.1-0.8l-4.4-5.5l6.8-1l0.4-0.7c1.9-2.8,4.5-5,7.6-6.4c9.1-4,19.8,0.1,23.8,9.1c2,4.4,2.1,9.3,0.4,13.8
	c-1.7,4.5-5.1,8.1-9.5,10C119,91.8,108.3,87.7,104.3,78.6z"/>
<linearGradient id="SVGID_10_" gradientUnits="userSpaceOnUse" x1="22.5662" y1="420.9075" x2="22.5662" y2="462.6862" gradientTransform="matrix(0.4068 0.9135 0.9135 -0.4068 -291.9574 230.3224)">
	<stop  offset="0" style="stop-color:#20B038"/>
	<stop  offset="1" style="stop-color:#60D66A"/>
</linearGradient>
<path class="st34" d="M93.2,60.7l11-1.7c2.1-2.9,5-5.3,8.3-6.7c10.4-4.6,22.7,0.1,27.3,10.5c2.3,5.1,2.4,10.7,0.4,15.9
	s-5.9,9.2-10.9,11.5c-10.4,4.6-22.7-0.1-27.3-10.5l0,0l0,0c-1.4-3.2-2-6.6-1.7-10.1L93.2,60.7z"/>
<g>
	<path class="st2" d="M127,62.6c0.7-0.7,0.5-1.1,0.4-1.5c-0.1-0.3-0.3-0.6-0.4-0.9c-0.1-0.3-0.5-0.8-1.2-1s-2.4-1-4.8,0.1
		c-2.4,1.1-4,3.9-4.2,4.3c-0.2,0.4-3.9,5.8-3.7,11.7c0.2,4.9,0.9,5.6,1.4,6.4c0.5,0.9,2.5,2.4,3.8,2.3s2.3-0.5,2.5-0.8
		c0.1-0.2,0.1-0.6,0.2-1.2c0-0.6,0.1-3.5,0.1-4.1c0-0.5-0.1-0.9-0.7-1c-0.6-0.1-2.2-0.6-2.6-0.7s-0.6-0.4-0.6-1s-0.2-2.4,0.7-5
		c0.6-2,1.8-3.7,2.2-4.2s0.7-0.4,1.1-0.2c0.3,0.1,0.8,0.2,1.2,0.4c0.4,0.1,0.6,0.1,1,0.1s0.6-0.2,0.8-0.4
		C124.2,65.5,126.2,63.5,127,62.6z"/>
</g>
<path class="st2" d="M141,78.9c2.1-5.3,1.9-11.2-0.4-16.4c-4.8-10.8-17.5-15.7-28.3-10.9c-3.5,1.5-6.4,3.9-8.6,7l-11.4,1.7l7.4,9.2
	c-0.3,3.6,0.3,7.1,1.8,10.4l0,0l0,0c4.8,10.8,17.5,15.7,28.3,10.9C134.9,88.4,139,84.2,141,78.9z M104.7,78.4L104.7,78.4
	c-1.3-2.9-1.8-6.1-1.4-9.3l0.1-0.8L99,62.9l6.7-1l0.4-0.7c1.9-2.8,4.5-5,7.6-6.3c9-4,19.5,0.1,23.5,9c1.9,4.4,2.1,9.2,0.4,13.6
	c-1.7,4.4-5,8-9.4,9.9C119.3,91.5,108.7,87.4,104.7,78.4z"/>
<g>
	
		<linearGradient id="SVGID_11_" gradientUnits="userSpaceOnUse" x1="113.4" y1="-120.4977" x2="113.4" y2="-85.3632" gradientTransform="matrix(1 0 0 1 -42 208)">
		<stop  offset="0" style="stop-color:#42BCE8"/>
		<stop  offset="1" style="stop-color:#23A7DC"/>
	</linearGradient>
	<circle class="st35" cx="71.4" cy="105.1" r="17.6"/>
	<g>
		<path class="st2" d="M79.9,97.6l-3.1,15.9c0,0-0.4,1.1-1.7,0.6l-7.3-5.6l-2.6-1.3l-4.4-1.5c0,0-0.7-0.2-0.7-0.8
			c-0.1-0.5,0.8-0.8,0.8-0.8l17.7-6.9C78.5,97.2,79.9,96.6,79.9,97.6z"/>
		<path class="st36" d="M67.3,113.3c0,0-0.2,0-0.5-0.9c-0.3-0.8-1.6-5.2-1.6-5.2l10.7-6.8c0,0,0.6-0.4,0.6,0c0,0,0.1,0.1-0.2,0.4
			s-8.4,7.6-8.4,7.6"/>
		<path class="st37" d="M70.7,110.6l-2.9,2.6c0,0-0.2,0.2-0.5,0.1l0.6-4.9"/>
	</g>
</g>
<g id="SMXPsX.tif">
	<g>
		<path class="st38" d="M279.8,123.2c5-3.3,9.4-6.6,13.8-10c1.9-1.5,3.8-3.1,5.1-5.2c1.6-2.4,1.8-4.9,0.5-7.5
			c-0.9-2-2.1-3.7-3.5-5.4c-2.3-2.9-5.9-3.9-9.3-2.5c-2.8,1.1-5.6,2.5-8.2,4c-5.4,3.2-10.8,6.5-15.9,10c-5,3.4-9.8,7-14.2,11.1
			c-3,2.8-3.7,6.1-2,9.9c0.8,1.8,2,3.4,3.3,5c2.8,3.6,6.3,4,10.2,2.5c1.1-0.4,2.2-1,3.2-1.6c0.8-0.5,1.2-0.3,1.6,0.4
			c0.5,0.9,1.2,1.8,1.8,2.7c0.2,0.2,0.3,0.6,0.6,0.6c0.4-0.1,0.3-0.5,0.3-0.8c0.3-1.7,0.5-3.5,0.8-5.2c0.1-0.4,0.2-0.7,0.6-1
			C272.5,127.9,276.4,125.5,279.8,123.2z"/>
		<path class="st39" d="M279.8,123.2c-3.4,2.3-7.3,4.7-11.2,7c-0.4,0.2-0.5,0.6-0.6,1c-0.3,1.7-0.5,3.5-0.8,5.2c0,0.3,0,0.7-0.3,0.8
			c-0.4,0.1-0.4-0.3-0.6-0.6c-0.6-0.9-1.3-1.8-1.8-2.7c-0.4-0.7-0.8-0.9-1.6-0.4c-1,0.6-2.1,1.2-3.2,1.6c-3.9,1.5-7.4,1.1-10.2-2.5
			c-1.2-1.6-2.4-3.1-3.3-5c-1.7-3.8-1-7.1,2-9.9c4.4-4.1,9.3-7.7,14.2-11.1c5.2-3.6,10.5-6.8,15.9-10c2.6-1.5,5.4-2.9,8.2-4
			c3.4-1.3,6.9-0.4,9.3,2.5c1.3,1.7,2.5,3.5,3.5,5.4c1.2,2.6,1,5.1-0.5,7.5c-1.3,2.1-3.2,3.7-5.1,5.2
			C289.2,116.6,284.8,120,279.8,123.2z M274.4,112.9c0.8,1.2,1.5,2.3,2.3,3.5c0.3,0.4,0.7,0.8,1.2,0.7c0.6-0.1,0.9-0.4,0.9-1
			c0-0.4,0.2-0.4,0.5-0.4c2-0.1,3.2-1.5,3.1-3.4s-1.1-3.3-2.8-4.2c-1.4-0.8-3-0.4-4,0.8c-0.7,0.9-0.7,0.9-1.4-0.1
			c-0.1-0.1-0.2-0.3-0.3-0.4c-0.4-0.7-0.9-1-1.6-0.6c-0.7,0.5-0.6,1.2-0.2,1.8C273,110.7,273.7,111.8,274.4,112.9z M268.3,118.8
			c-1.9-1.4-3.5-2.6-5.1-3.7c-0.6-0.4-1.2-0.6-1.7,0.1s-0.3,1.3,0.4,1.8c2.4,1.7,4.9,3.4,7.3,5.1c0.5,0.3,1,0.5,1.5,0.1
			c0.5-0.3,0.5-0.8,0.4-1.3c-0.2-0.9-0.4-1.7-0.6-2.6c-0.4-2.1-0.9-4.1-1.3-6.2c-0.2-0.7-0.6-1.2-1.4-1s-0.9,0.8-0.8,1.4
			c0,0.3,0.1,0.6,0.2,0.9C267.4,115,267.8,116.7,268.3,118.8z M286.4,107.5c0.5-0.3,0.9-0.6,1.4-0.9c1-0.7,1-1.2,0.2-2.1
			c-1.5-1.5-3.8-1.7-5.4-0.4c-1.6,1.3-1.8,3.6-0.6,5.5c1,1.4,2.3,2.2,4.1,1.9c1.8-0.3,3-1.5,3.6-3.2c0.2-0.5,0.2-1.1-0.5-1.3
			c-0.6-0.2-1,0-1.2,0.5c-0.2,0.4-0.4,0.7-0.6,1c-0.6,0.9-1.8,1.3-2.6,0.8c-0.4-0.2-0.5-0.4-0.1-0.7
			C285.3,108.3,285.9,107.9,286.4,107.5z M263.6,126.6c0.7-0.5,1.1-1.7,0.9-2.5c-0.2-0.8-0.8-0.7-1.4-0.8c-0.4,0-0.9,0-1.3-0.1
			c-0.9,0-1.4,0.3-1.4,1.2c0,0.5-0.3,0.8-0.8,0.8c-1.3,0.2-2.5,0-3.6-0.7c-0.5-0.3-0.8-0.7-0.5-1.3c0.1-0.3,0.3-0.7,0-1
			c-0.3-0.5-2.5-1.3-3.1-1.1c-0.2,0.1-0.4,0.2-0.6,0.4c-0.8,1.1-0.7,2.2,0.4,3c3.3,2.3,6.9,2.9,10.9,2.2
			C263.3,126.7,263.5,126.6,263.6,126.6z M289.1,104.8c0.6,0.9,1.1,1.7,1.7,2.6c0.4,0.5,0.9,0.7,1.5,0.4c0.6-0.3,0.7-0.9,0.4-1.5
			c-0.3-0.5-0.6-1-1-1.5c-1.1-1.3-1.6-2.6-0.2-4c0.3-0.3,0.2-0.8-0.1-1.2c-0.4-0.4-0.8-0.4-1.3-0.2c-0.4,0.2-0.7,0.5-0.8,1
			c-0.1,0.3-0.1,0.5-0.6,0.3s-1,0.1-1.3,0.5s-0.2,0.9,0.1,1.3C288,103.2,288.5,104,289.1,104.8z M272.7,116.1c0.5,0.7,1,1.4,1.4,2.1
			c0.4,0.6,1,0.9,1.6,0.5s0.7-1,0.3-1.6c-1-1.5-2-3-3-4.5c-0.4-0.6-0.9-0.8-1.5-0.4c-0.7,0.4-0.7,1-0.3,1.6
			C271.7,114.6,272.2,115.3,272.7,116.1z M255.3,119c-0.1,0.1-0.6,0.2-0.4,0.6c0.1,0.3,0.4,0,0.6-0.1c2.5-1.1,4.2-0.8,6,1.3
			c0.2,0.2,0.3,0.6,0.6,0.4c0.3-0.2,0-0.5-0.1-0.7C260.7,118.4,257.5,117.6,255.3,119z M271.5,109.9c-0.5-0.6-1-0.7-1.7-0.4
			c-0.6,0.3-0.7,1.2-0.4,1.7c0.4,0.6,1.2,0.7,1.7,0.3C271.8,111.1,271.8,110.5,271.5,109.9z M260.7,120.8c-0.9-1.3-2.8-1.8-4.3-1
			c-0.2,0.1-0.6,0.2-0.4,0.5s0.4,0.1,0.7,0c1.6-0.6,2.4-0.4,3.5,0.8c0.2,0.2,0.3,0.5,0.6,0.3C261,121.2,260.8,121,260.7,120.8z
			 M259.5,121.3c-0.4-0.6-1.6-0.9-2.2-0.5c-0.1,0.1-0.3,0.2-0.2,0.4c0.1,0.3,0.3,0.2,0.5,0.1c0.6-0.3,1.1-0.1,1.6,0.4
			c0.1,0.1,0.3,0.2,0.4,0.1C259.7,121.7,259.6,121.5,259.5,121.3z"/>
		<path class="st40" d="M274.4,112.9c-0.7-1.1-1.5-2.2-2.2-3.3c-0.4-0.7-0.6-1.3,0.2-1.8c0.7-0.5,1.3-0.1,1.6,0.6
			c0.1,0.1,0.2,0.3,0.3,0.4c0.7,1,0.7,1,1.4,0.1c1-1.2,2.6-1.6,4-0.8c1.6,0.9,2.7,2.3,2.8,4.2c0.1,2-1.2,3.4-3.1,3.4
			c-0.3,0-0.5,0-0.5,0.4c0,0.6-0.4,0.9-0.9,1c-0.6,0.1-0.9-0.2-1.2-0.7C276,115.2,275.2,114,274.4,112.9z M279.9,111
			c-0.7-1-1.8-1.4-2.6-0.9c-0.8,0.5-0.9,1.7-0.3,2.7c0.7,1,1.8,1.4,2.6,1C280.4,113.3,280.5,112.1,279.9,111z"/>
		<path class="st40" d="M268.3,118.8c-0.5-2-0.9-3.7-1.3-5.5c-0.1-0.3-0.1-0.6-0.2-0.9c-0.1-0.7,0-1.3,0.8-1.4
			c0.8-0.2,1.3,0.3,1.4,1c0.5,2.1,0.9,4.1,1.3,6.2c0.2,0.9,0.4,1.7,0.6,2.6c0.1,0.5,0,1-0.4,1.3c-0.5,0.4-1,0.2-1.5-0.1
			c-2.4-1.7-4.9-3.4-7.3-5.1c-0.7-0.5-0.9-1.1-0.4-1.8c0.5-0.7,1.2-0.5,1.7-0.1C264.8,116.2,266.4,117.4,268.3,118.8z"/>
		<path class="st41" d="M286.4,107.5c-0.5,0.4-1.1,0.7-1.7,1.1c-0.4,0.3-0.3,0.5,0.1,0.7c0.8,0.4,2,0.1,2.6-0.8
			c0.2-0.3,0.4-0.7,0.6-1c0.3-0.5,0.7-0.7,1.2-0.5c0.6,0.3,0.7,0.8,0.5,1.3c-0.7,1.7-1.8,2.8-3.6,3.2c-1.7,0.3-3.1-0.5-4.1-1.9
			c-1.3-1.8-1-4.2,0.6-5.5s3.9-1.1,5.4,0.4c0.8,0.9,0.8,1.4-0.2,2.1C287.4,106.9,286.9,107.2,286.4,107.5z M284.8,106.8
			c0.2-0.1,0.3-0.2,0.5-0.3c0.3-0.2,0.9-0.3,0.8-0.7c-0.2-0.5-0.8-0.6-1.3-0.6c-0.7,0.1-1.2,0.5-1.4,1.2c-0.1,0.4-0.2,0.9,0.2,1.1
			c0.3,0.2,0.5-0.2,0.8-0.3C284.5,107.1,284.6,106.9,284.8,106.8z"/>
		<path class="st40" d="M263.6,126.6c-0.1,0-0.3,0.1-0.6,0.2c-3.9,0.7-7.6,0-10.9-2.2c-1.1-0.8-1.2-1.9-0.4-3
			c0.1-0.2,0.3-0.3,0.6-0.4c0.6-0.1,2.8,0.7,3.1,1.1c0.3,0.3,0.1,0.7,0,1c-0.3,0.6,0,1,0.5,1.3c1.1,0.7,2.3,0.9,3.6,0.7
			c0.5-0.1,0.8-0.3,0.8-0.8c0-1,0.6-1.3,1.4-1.2c0.4,0,0.9,0,1.3,0.1c0.6,0.1,1.2,0,1.4,0.8C264.7,124.9,264.3,126.2,263.6,126.6z"
			/>
		<path class="st41" d="M289.1,104.8c-0.5-0.8-1-1.5-1.5-2.3c-0.3-0.4-0.3-0.8-0.1-1.3c0.3-0.5,0.7-0.7,1.3-0.5
			c0.5,0.2,0.5,0,0.6-0.3c0.1-0.4,0.4-0.8,0.8-1c0.5-0.2,0.9-0.1,1.3,0.2c0.4,0.4,0.4,0.8,0.1,1.1c-1.3,1.4-0.9,2.7,0.2,4
			c0.4,0.5,0.7,1,1,1.5c0.3,0.6,0.2,1.2-0.4,1.5s-1.1,0.1-1.5-0.4C290.2,106.5,289.6,105.6,289.1,104.8z"/>
		<path class="st40" d="M272.7,116.1c-0.5-0.7-1-1.5-1.5-2.2c-0.4-0.6-0.4-1.2,0.3-1.6c0.6-0.4,1.1-0.2,1.5,0.4c1,1.5,2,3,3,4.4
			c0.4,0.6,0.4,1.2-0.3,1.6c-0.6,0.4-1.2,0.2-1.6-0.5C273.7,117.5,273.2,116.8,272.7,116.1z"/>
		<path class="st42" d="M255.3,119c2.2-1.3,5.3-0.6,6.7,1.5c0.1,0.2,0.4,0.5,0.1,0.7s-0.4-0.2-0.6-0.4c-1.8-2.1-3.5-2.4-6-1.3
			c-0.2,0.1-0.5,0.3-0.6,0.1C254.7,119.2,255.2,119.1,255.3,119z"/>
		<path class="st41" d="M271.5,109.9c0.3,0.6,0.3,1.2-0.3,1.7c-0.6,0.4-1.3,0.3-1.7-0.3c-0.4-0.6-0.2-1.4,0.4-1.7
			C270.4,109.2,271,109.3,271.5,109.9z"/>
		<path class="st42" d="M260.7,120.8c0.1,0.2,0.3,0.4,0.1,0.6c-0.3,0.3-0.4-0.1-0.6-0.3c-1.1-1.2-1.9-1.4-3.5-0.8
			c-0.2,0.1-0.5,0.3-0.7,0c-0.1-0.3,0.2-0.4,0.4-0.5C257.9,119.1,259.8,119.5,260.7,120.8z"/>
		<path class="st42" d="M259.5,121.3c0.1,0.2,0.2,0.4,0,0.5c-0.1,0.1-0.3,0.1-0.4-0.1c-0.4-0.5-0.9-0.7-1.6-0.4
			c-0.2,0.1-0.4,0.1-0.5-0.1c0-0.2,0.1-0.3,0.2-0.4C257.9,120.4,259.1,120.7,259.5,121.3z"/>
		<path class="st39" d="M279.9,111c0.7,1,0.6,2.2-0.3,2.7c-0.8,0.5-1.9,0.1-2.6-1s-0.6-2.2,0.3-2.7C278.1,109.6,279.2,110,279.9,111
			z"/>
		<path class="st39" d="M284.8,106.8c-0.2,0.1-0.3,0.2-0.5,0.3c-0.3,0.1-0.5,0.6-0.8,0.3c-0.3-0.3-0.3-0.7-0.2-1.1
			c0.2-0.7,0.7-1.1,1.4-1.2c0.5-0.1,1.2,0,1.3,0.6c0.1,0.4-0.5,0.5-0.8,0.7C285.1,106.6,285,106.7,284.8,106.8z"/>
	</g>
</g>
<g>
	<g>
		<path class="st43" d="M64.4,31.1c-8.8-3.5-18.6,0.3-21.8,8.5c-1.8,4.7-1.2,9.8,1.4,13.9l-2.2,5.7l6.6-0.8c1.3,1,2.7,1.8,4.3,2.4
			c8.8,3.5,18.6-0.3,21.8-8.5C77.8,44,73.2,34.6,64.4,31.1 M58.1,51.7l-2.3-6L46.1,47l12.4-5.9l2.4,6l9.5-1.3L58.1,51.7z"/>
	</g>
</g>
<line class="st44" x1="45.6" y1="30.2" x2="35.6" y2="22.2"/>
<line class="st44" x1="35.3" y1="32.2" x2="25.3" y2="24.2"/>
<line class="st44" x1="34.4" y1="43.8" x2="24.4" y2="35.8"/>
<line class="st44" x1="304.8" y1="107.6" x2="314.8" y2="99.5"/>
<line class="st44" x1="307.4" y1="94.4" x2="317.4" y2="86.3"/>
<line class="st44" x1="299.9" y1="86.5" x2="309.8" y2="78.4"/>
<g>
	<path class="st45" d="M190.9,102.6c0,0.1,0,0.1,0,0.2l-0.1-0.3C190.8,102.5,190.8,102.6,190.9,102.6c0.2-0.9,0.3-1.9,0.3-2.9
		c0-2.1-0.4-4.2-1.2-6.2c-0.8-1.9-1.9-3.6-3.4-5c-1.5-1.5-3.2-2.6-5-3.4c-2-0.8-4-1.2-6.2-1.2c-1,0-2,0.1-3,0.3l0,0
		c0.1,0,0.1,0.1,0.2,0.1l-0.3-0.1c0.1,0,0.1,0,0.2,0c-1.4-0.7-2.9-1.1-4.4-1.1c-2.5,0-4.9,1-6.6,2.8s-2.8,4.1-2.8,6.6
		c0,1.6,0.4,3.2,1.2,4.6c0-0.1,0-0.1,0-0.2l0.1,0.3c0-0.1-0.1-0.1-0.1-0.2c-0.2,0.9-0.2,1.8-0.2,2.7c0,2.1,0.4,4.2,1.2,6.2
		c0.8,1.9,1.9,3.6,3.4,5c1.5,1.5,3.2,2.6,5,3.4c2,0.8,4,1.2,6.2,1.2c0.9,0,1.9-0.1,2.8-0.2c-0.1,0-0.1-0.1-0.2-0.1l0.3,0.1
		c-0.1,0-0.1,0-0.2,0c1.4,0.8,3,1.2,4.6,1.2c2.5,0,4.9-1,6.6-2.8c1.8-1.8,2.8-4.1,2.8-6.6C192.1,105.6,191.6,104,190.9,102.6
		L190.9,102.6z M175.3,109.5c-5.6,0-8.2-2.8-8.2-4.8c0-1.1,0.8-1.8,1.9-1.8c2.4,0,1.8,3.5,6.3,3.5c2.3,0,3.6-1.3,3.6-2.5
		c0-0.8-0.4-1.6-1.9-2l-5-1.3c-4-1-4.8-3.2-4.8-5.2c0-4.3,4-5.9,7.8-5.9c3.5,0,7.6,1.9,7.6,4.5c0,1.1-0.9,1.7-2,1.7
		c-2.1,0-1.7-2.8-5.8-2.8c-2.1,0-3.2,0.9-3.2,2.3c0,1.3,1.6,1.8,3,2.1l3.7,0.8c4.1,0.9,5.1,3.3,5.1,5.5
		C183.4,106.9,180.7,109.5,175.3,109.5z M177.9,115.3c0.1,0,0.1,0.1,0.2,0.1c0.1,0,0.1,0,0.2,0L177.9,115.3z M190.8,102.8
		c0-0.1,0-0.1,0-0.2s-0.1-0.1-0.1-0.2L190.8,102.8z M159.7,96.9c0,0.1,0,0.1,0,0.2s0.1,0.1,0.1,0.2L159.7,96.9z M172.4,84.3
		c-0.1,0-0.1-0.1-0.2-0.1c-0.1,0-0.1,0-0.2,0L172.4,84.3z"/>
</g>
<g>
	
		<ellipse transform="matrix(0.9564 -0.2921 0.2921 0.9564 -15.9514 73.9261)" class="st46" cx="239.6" cy="90.4" rx="17.9" ry="17.9"/>
	<g>
		<path class="st47" d="M248.6,82.4c-0.6,0.5-1.5,0.9-2.3,1.2c0.2-0.7,1.2-1.6,1.2-2.7c-0.6,0.7-1.4,1.3-2.3,1.8
			c-1-0.6-2.2-0.7-3.4-0.4c-2.3,0.7-3.5,3.1-2.8,5.3c0.1,0.3,0.2,0.6,0.4,0.9c-3.5,0.9-7,0.2-9.7-1.7c-0.2,0.7-0.2,1.5,0.1,2.2
			c0.4,1.4,1.5,2.5,2.9,2.9c-0.7,0.2-1.4,0.2-2,0.1c0,0,0,0,0,0.1c0.6,2,2.5,3.2,4.5,3c-0.3,0.2-0.7,0.4-1,0.5
			c-0.3,0.1-0.5,0.1-0.8,0.2c1,1.5,2.9,2.2,4.7,1.7c-1.1,1.5-2.6,2.7-4.5,3.3c-0.3,0.1-0.7,0.2-1,0.2c2.2,0.6,4.5,0.6,6.8-0.1
			c7.5-2.3,9.7-9.8,8.1-15.2c-0.1-0.2-0.1-0.4-0.2-0.5C247.9,84.3,248.3,83.4,248.6,82.4L248.6,82.4z"/>
	</g>
</g>
<line class="st44" x1="265.1" y1="81.4" x2="270.9" y2="70"/>
<line class="st44" x1="262" y1="68.3" x2="267.8" y2="56.8"/>
<line class="st44" x1="252" y1="64.2" x2="257.7" y2="52.8"/>
<g>
	<path class="st24" d="M201.8,43.3c-3.3-3.1-7.4-4.6-12.3-4.6c-5.2,0-9.6,1.7-13.2,5.2c-3.6,3.5-5.5,7.8-5.5,13
		c0,5,1.7,9.2,5.2,12.8c3.5,3.6,8.1,5.4,14,5.4c3.5,0,7-0.7,10.4-2.2c1.1-0.5,1.7-1.7,1.2-2.9l0,0c-0.5-1.2-1.8-1.7-2.9-1.2
		c-3,1.3-5.9,1.9-8.7,1.9c-4.5,0-8-1.4-10.5-4.1c-2.5-2.7-3.7-6-3.7-9.7c0-4,1.3-7.4,4-10c2.6-2.7,5.9-4,9.7-4c3.5,0,6.5,1.1,9,3.3
		c2.4,2.2,3.7,5,3.7,8.3c0,2.3-0.6,4.2-1.7,5.7c-1.1,1.5-2.3,2.3-3.5,2.3c-0.7,0-1-0.3-1-1.1c0-0.6,0-1.2,0.1-2l1.4-11.3h-4.7
		l-0.3,1.1c-1.2-1-2.5-1.5-4-1.5c-2.3,0-4.2,0.9-5.9,2.7c-1.6,1.8-2.4,4.2-2.4,7c0,2.8,0.7,5,2.2,6.8c1.4,1.7,3.2,2.6,5.2,2.6
		c1.8,0,3.4-0.8,4.6-2.3c1,1.5,2.4,2.2,4.3,2.2c2.8,0,5.2-1.2,7.2-3.6c2-2.4,3-5.3,3-8.7C206.8,50,205.1,46.3,201.8,43.3z
		 M190.9,60.3c-0.8,1.1-1.8,1.7-3,1.7c-0.8,0-1.4-0.4-1.9-1.2c-0.5-0.8-0.7-1.9-0.7-3.1c0-1.5,0.3-2.8,1-3.7
		c0.7-0.9,1.5-1.4,2.5-1.4c0.9,0,1.7,0.3,2.3,1.1c0.7,0.7,1,1.6,1,2.8C192.2,57.9,191.7,59.2,190.9,60.3z"/>
</g>
<g>
	
		<linearGradient id="SVGID_12_" gradientUnits="userSpaceOnUse" x1="120.7253" y1="54.7217" x2="120.7253" y2="20.0528" gradientTransform="matrix(0.877 0.4804 -0.4804 0.877 31.2423 -64.5165)">
		<stop  offset="0" style="stop-color:#E09B3D"/>
		<stop  offset="0.3" style="stop-color:#C74C4D"/>
		<stop  offset="0.6" style="stop-color:#C21975"/>
		<stop  offset="1" style="stop-color:#7024C4"/>
	</linearGradient>
	<path class="st48" d="M133.8,14.2l-12.4-6.8c-5-2.8-11.4-0.9-14.2,4.1L100.4,24c-2.8,5-0.9,11.4,4.1,14.2L117,45
		c5,2.8,11.4,0.9,14.2-4.1l6.8-12.4C140.7,23.4,138.9,17,133.8,14.2z M128.1,39.1c-1.8,3.3-6,4.6-9.4,2.7l-12.4-6.8
		c-3.3-1.8-4.6-6-2.7-9.4l6.8-12.4c1.8-3.3,6-4.6,9.4-2.7l12.4,6.8c3.3,1.8,4.6,6,2.7,9.4L128.1,39.1L128.1,39.1z"/>
	
		<linearGradient id="SVGID_13_" gradientUnits="userSpaceOnUse" x1="120.7253" y1="54.7217" x2="120.7253" y2="20.0528" gradientTransform="matrix(0.877 0.4804 -0.4804 0.877 31.2423 -64.5165)">
		<stop  offset="0" style="stop-color:#E09B3D"/>
		<stop  offset="0.3" style="stop-color:#C74C4D"/>
		<stop  offset="0.6" style="stop-color:#C21975"/>
		<stop  offset="1" style="stop-color:#7024C4"/>
	</linearGradient>
	<path class="st49" d="M123.6,18.3c-4.4-2.4-9.9-0.8-12.3,3.6c-2.4,4.4-0.8,9.9,3.6,12.3s9.9,0.8,12.3-3.6
		C129.5,26.2,127.9,20.7,123.6,18.3z M116.5,31.1c-2.7-1.5-3.7-4.8-2.2-7.5s4.8-3.7,7.5-2.2c2.7,1.5,3.7,4.8,2.2,7.5
		C122.6,31.5,119.2,32.5,116.5,31.1z"/>
	
		<linearGradient id="SVGID_14_" gradientUnits="userSpaceOnUse" x1="129.8062" y1="-439.2784" x2="129.8062" y2="-473.9472" gradientTransform="matrix(0.877 0.4804 -0.4804 0.877 -206.0962 368.7345)">
		<stop  offset="0" style="stop-color:#E09B3D"/>
		<stop  offset="0.3" style="stop-color:#C74C4D"/>
		<stop  offset="0.6" style="stop-color:#C21975"/>
		<stop  offset="1" style="stop-color:#7024C4"/>
	</linearGradient>
	<circle class="st50" cx="131.5" cy="22.7" r="2.2"/>
</g>
<line class="st44" x1="96.4" y1="14.8" x2="84" y2="11.8"/>
<line class="st44" x1="52" y1="95.2" x2="43.5" y2="85.6"/>
<line class="st44" x1="55.8" y1="86.6" x2="48.2" y2="76.3"/>
<line class="st44" x1="92.5" y1="24.7" x2="80.1" y2="21.8"/>
</svg>
