<?xml version="1.0" encoding="utf-8"?>
<!-- Generator: Adobe Illustrator 16.0.0, SVG Export Plug-In . SVG Version: 6.00 Build 0)  -->
<!DOCTYPE svg PUBLIC "-//W3C//DTD SVG 1.1//EN" "http://www.w3.org/Graphics/SVG/1.1/DTD/svg11.dtd">
<svg version="1.1" id="Layer_1" xmlns="http://www.w3.org/2000/svg" xmlns:xlink="http://www.w3.org/1999/xlink" x="0px" y="0px"
	 width="353px" height="430px" viewBox="0 0 353 430" enable-background="new 0 0 353 430" xml:space="preserve">
<path fill="#2DC100" d="M302.186,134.711c1.072,2.47-0.06,5.341-2.528,6.413l-20.868,9.061c-2.471,1.072-5.341-0.061-6.413-2.53
	l-9.062-20.868c-1.071-2.47,0.061-5.341,2.529-6.413l20.868-9.061c2.472-1.073,5.341,0.061,6.413,2.53L302.186,134.711z"/>
<g>
	<path fill="#FFFFFF" d="M286.152,124.77c-2.351,1.17-4.127,2.808-5.108,5.193c-0.994,2.41-0.892,4.79,0.421,7.226
		c-0.992,0.292-1.902,0.536-2.797,0.837c-0.309,0.104-0.646,0.292-0.836,0.544c-0.632,0.835-1.202,1.717-1.895,2.723
		c-0.168-0.864-0.355-1.604-0.444-2.354c-0.065-0.553-0.251-0.794-0.839-0.917c-3.773-0.785-6.316-3.308-6.77-6.846
		c-0.419-3.272,0.887-5.934,3.299-8.074c3.295-2.921,8.166-3.516,11.823-1.481C284.329,122.355,285.382,123.367,286.152,124.77z
		 M274.654,128.598c-0.228-0.584-0.949-0.886-1.549-0.646c-0.612,0.245-0.91,0.924-0.67,1.528c0.244,0.613,0.918,0.896,1.535,0.647
		C274.583,129.88,274.889,129.196,274.654,128.598z M279.951,124.979c-0.59,0.269-0.871,0.992-0.611,1.565
		c0.271,0.593,0.967,0.847,1.573,0.575c0.608-0.273,0.868-0.947,0.597-1.556C281.244,124.966,280.549,124.706,279.951,124.979z"/>
	<path fill="#FFFFFF" d="M298.072,137.422c-0.91-0.008-1.83-0.214-2.607,0.032c-0.775,0.245-1.367,1.01-2.109,1.426
		c-2.256,1.267-4.658,1.527-7.104,0.672c-4.652-1.629-6.221-6.541-3.475-10.724c2.442-3.717,7.771-5.145,11.523-3.087
		c3.274,1.795,4.588,5.496,3.012,8.882c-0.455,0.98-0.486,1.638,0.365,2.299C297.835,137.043,297.934,137.242,298.072,137.422z
		 M285.754,132.791c0.484-0.209,0.721-0.763,0.529-1.25c-0.2-0.516-0.793-0.765-1.303-0.545c-0.502,0.215-0.736,0.83-0.502,1.322
		C284.702,132.788,285.271,132.999,285.754,132.791z M290.566,128.572c-0.473,0.202-0.705,0.76-0.518,1.244
		c0.2,0.517,0.776,0.763,1.28,0.546c0.487-0.209,0.713-0.745,0.521-1.236C291.646,128.608,291.068,128.358,290.566,128.572z"/>
</g>
<g>
	<path fill="#0074BB" d="M219.564,135.839l18.91,6.257c2.238,0.74,3.451,3.153,2.711,5.39l-4.437,13.411
		c-0.677,2.045-2.751,3.23-4.812,2.854l-1.678,5.07l-4.251-6.982l-13.562-4.487c-2.237-0.74-3.451-3.153-2.711-5.391l4.437-13.411
		C214.914,136.313,217.328,135.1,219.564,135.839z"/>
	<g>
		<path fill="#005991" d="M239.588,142.655c-0.031,0.176-0.072,0.352-0.131,0.525l-4.604,13.914
			c-0.691,2.09-2.955,3.228-5.045,2.536l-14.416-4.769l-4.24,1.79c0.379,0.298,0.812,0.54,1.296,0.7l0.45,0.149l2.558-1.08
			l13.894,4.597c2.859,0.946,5.945-0.605,6.893-3.465l4.52-13.657C240.461,143.414,240.064,142.99,239.588,142.655z"/>
		<path fill="#005991" d="M209.701,153.116l-0.166-0.083c-0.014,0.198-0.016,0.396-0.002,0.59L209.701,153.116z"/>
	</g>
	
		<linearGradient id="SVGID_1_" gradientUnits="userSpaceOnUse" x1="257.3613" y1="349.834" x2="257.3613" y2="382.3643" gradientTransform="matrix(0.9494 0.3141 0.3141 -0.9494 -137.548 415.275)">
		<stop  offset="0" style="stop-color:#828282"/>
		<stop  offset="1" style="stop-color:#FFFFFF"/>
	</linearGradient>
	<path fill="url(#SVGID_1_)" d="M237.258,136.525l-20.732-6.859c-2.858-0.946-5.943,0.605-6.891,3.465l-4.603,13.913
		c-0.865,2.614,0.36,5.411,2.761,6.596l-2.207,6.672l9.748-4.115l13.895,4.597c2.859,0.946,5.944-0.605,6.892-3.465l4.603-13.913
		C241.668,140.556,240.117,137.471,237.258,136.525z M234.73,156.87c-0.69,2.09-2.953,3.228-5.043,2.537l-14.418-4.77l-7.285,3.077
		l1.595-4.822l-1.14-0.562c-1.772-0.875-2.643-2.95-2.021-4.827l4.604-13.913c0.691-2.09,2.955-3.228,5.045-2.537l20.731,6.859
		c2.091,0.691,3.228,2.955,2.536,5.045L234.73,156.87z"/>
	
		<linearGradient id="SVGID_2_" gradientUnits="userSpaceOnUse" x1="257.3613" y1="353.0527" x2="257.3613" y2="380.9033" gradientTransform="matrix(0.9494 0.3141 0.3141 -0.9494 -137.548 415.275)">
		<stop  offset="0.0215" style="stop-color:#000000"/>
		<stop  offset="1" style="stop-color:#2B2B2B"/>
	</linearGradient>
	<path fill="url(#SVGID_2_)" d="M209.579,152.892l-1.14-0.562c-1.772-0.875-2.643-2.95-2.021-4.827l4.604-13.913
		c0.691-2.09,2.955-3.228,5.045-2.537l20.731,6.859c2.091,0.691,3.228,2.955,2.536,5.045l-4.604,13.913
		c-0.691,2.09-2.955,3.228-5.045,2.537l-14.416-4.77l-7.287,3.077L209.579,152.892z"/>
	<g>
		
			<linearGradient id="SVGID_3_" gradientUnits="userSpaceOnUse" x1="251.4053" y1="362.6113" x2="251.4053" y2="376.0344" gradientTransform="matrix(0.9494 0.3141 0.3141 -0.9494 -137.548 415.275)">
			<stop  offset="0" style="stop-color:#969696"/>
			<stop  offset="1" style="stop-color:#F7F7F7"/>
		</linearGradient>
		<path fill="url(#SVGID_3_)" d="M221.346,139.318c0.2-0.607,0.081-1.5-1.479-2.016l-2.405-0.796l-1.73,2.938l2.506,0.829
			C220.193,140.922,221.061,140.181,221.346,139.318z"/>
		
			<linearGradient id="SVGID_4_" gradientUnits="userSpaceOnUse" x1="258.2295" y1="362.6084" x2="258.2295" y2="376.0355" gradientTransform="matrix(0.9494 0.3141 0.3141 -0.9494 -137.548 415.275)">
			<stop  offset="0" style="stop-color:#969696"/>
			<stop  offset="1" style="stop-color:#F7F7F7"/>
		</linearGradient>
		<path fill="url(#SVGID_4_)" d="M227.823,141.462c0.2-0.607,0.084-1.499-1.478-2.016l-2.406-0.796l-1.729,2.939l2.505,0.829
			C226.675,143.066,227.538,142.324,227.823,141.462z"/>
		
			<linearGradient id="SVGID_5_" gradientUnits="userSpaceOnUse" x1="250.4902" y1="362.6055" x2="250.4902" y2="376.0368" gradientTransform="matrix(0.9494 0.3141 0.3141 -0.9494 -137.548 415.275)">
			<stop  offset="0" style="stop-color:#969696"/>
			<stop  offset="1" style="stop-color:#F7F7F7"/>
		</linearGradient>
		<path fill="url(#SVGID_5_)" d="M218.9,143.794c0.201-0.606,0.084-1.501-1.479-2.018l-2.404-0.796l-1.732,2.941l2.508,0.829
			C217.751,145.399,218.616,144.655,218.9,143.794z"/>
		
			<linearGradient id="SVGID_6_" gradientUnits="userSpaceOnUse" x1="257.3154" y1="362.6055" x2="257.3154" y2="376.0368" gradientTransform="matrix(0.9494 0.3141 0.3141 -0.9494 -137.548 415.275)">
			<stop  offset="0" style="stop-color:#969696"/>
			<stop  offset="1" style="stop-color:#F7F7F7"/>
		</linearGradient>
		<path fill="url(#SVGID_6_)" d="M225.379,145.938c0.2-0.606,0.084-1.501-1.477-2.017l-2.406-0.796l-1.73,2.941l2.506,0.829
			C224.23,147.543,225.094,146.798,225.379,145.938z"/>
		
			<linearGradient id="SVGID_7_" gradientUnits="userSpaceOnUse" x1="264.4531" y1="362.6074" x2="264.4531" y2="376.0347" gradientTransform="matrix(0.9494 0.3141 0.3141 -0.9494 -137.548 415.275)">
			<stop  offset="0" style="stop-color:#969696"/>
			<stop  offset="1" style="stop-color:#F7F7F7"/>
		</linearGradient>
		<path fill="url(#SVGID_7_)" d="M232.796,146.249c0.201-0.607,0.084-1.502-1.476-2.018l-2.405-0.796l-1.733,2.94l2.508,0.829
			C231.646,147.853,232.512,147.111,232.796,146.249z"/>
		
			<linearGradient id="SVGID_8_" gradientUnits="userSpaceOnUse" x1="263.4697" y1="362.6045" x2="263.4697" y2="376.0379" gradientTransform="matrix(0.9494 0.3141 0.3141 -0.9494 -137.548 415.275)">
			<stop  offset="0" style="stop-color:#969696"/>
			<stop  offset="1" style="stop-color:#F7F7F7"/>
		</linearGradient>
		<path fill="url(#SVGID_8_)" d="M230.221,150.899c0.201-0.607,0.084-1.499-1.477-2.015l-2.405-0.796l-1.731,2.939l2.508,0.83
			C229.072,152.505,229.938,151.759,230.221,150.899z"/>
		
			<linearGradient id="SVGID_9_" gradientUnits="userSpaceOnUse" x1="256.334" y1="362.6055" x2="256.334" y2="376.0376" gradientTransform="matrix(0.9494 0.3141 0.3141 -0.9494 -137.548 415.275)">
			<stop  offset="0" style="stop-color:#969696"/>
			<stop  offset="1" style="stop-color:#F7F7F7"/>
		</linearGradient>
		<path fill="url(#SVGID_9_)" d="M222.809,150.59c0.201-0.61,0.084-1.503-1.477-2.019l-2.406-0.796l-1.732,2.941l2.509,0.83
			C221.659,152.194,222.523,151.45,222.809,150.59z"/>
	</g>
</g>
<g>
	<path fill="#CDD5D8" d="M140.729,128.149c-0.732-0.565-1.353-1.231-1.843-1.98l-1.119-1.706l2.029-0.205
		c2.686-0.271,4.387-1.664,5.392-2.915c-0.385-5.044,1.006-9.892,3.944-13.697c7.198-9.323,21.704-10.231,32.334-2.024
		c10.632,8.208,13.423,22.471,6.224,31.794c-7.197,9.323-21.705,10.23-32.333,2.024c-3.166-2.444-5.758-5.54-7.535-8.992
		C146.2,130.384,143.121,129.996,140.729,128.149z M149.371,127.972l0.342,0.719c1.613,3.379,4.087,6.42,7.158,8.791
		c9.55,7.373,22.497,6.665,28.859-1.578c6.365-8.244,3.774-20.948-5.774-28.321s-22.497-6.666-28.861,1.577
		c-2.645,3.426-3.852,7.841-3.396,12.43l0.046,0.467l-0.274,0.38c-0.986,1.366-2.622,2.989-5.147,3.811
		c2.299,1.716,5.605,1.748,6.251,1.737L149.371,127.972z"/>
	<path fill="#CDD5D8" d="M155.49,119.938c-0.719-0.555-1.259-1.062-1.622-1.524c-0.363-0.46-0.585-0.816-0.665-1.065
		c-0.011-0.076,0.05-0.188,0.181-0.335c0.128-0.146,0.279-0.289,0.444-0.425c0.165-0.137,0.328-0.248,0.485-0.331
		c0.158-0.083,0.26-0.1,0.306-0.046c0.205,0.312,0.435,0.639,0.691,0.982c0.257,0.343,0.637,0.709,1.142,1.099
		c0.515,0.397,1.009,0.66,1.485,0.788c0.476,0.127,0.862-0.002,1.161-0.389c0.257-0.333,0.347-0.695,0.272-1.085
		c-0.074-0.391-0.326-0.941-0.756-1.647c-0.232-0.387-0.437-0.771-0.612-1.155c-0.175-0.383-0.293-0.766-0.358-1.149
		c-0.064-0.383-0.048-0.769,0.046-1.158c0.094-0.388,0.295-0.783,0.601-1.179c0.249-0.322,0.547-0.58,0.894-0.775
		c0.346-0.194,0.73-0.297,1.148-0.306c0.418-0.01,0.877,0.078,1.374,0.265c0.498,0.187,1.025,0.495,1.583,0.926
		c0.364,0.281,0.661,0.524,0.89,0.726c0.229,0.203,0.41,0.377,0.545,0.525c0.134,0.146,0.238,0.273,0.31,0.38
		c0.072,0.108,0.143,0.204,0.211,0.292c0.051,0.09,0.016,0.213-0.104,0.368c-0.12,0.156-0.271,0.305-0.45,0.449
		c-0.179,0.144-0.358,0.253-0.537,0.33c-0.179,0.077-0.297,0.075-0.356-0.005c-0.142-0.194-0.346-0.446-0.612-0.754
		c-0.267-0.309-0.55-0.579-0.85-0.81c-0.612-0.473-1.1-0.711-1.462-0.718c-0.364-0.007-0.656,0.135-0.879,0.424
		c-0.241,0.312-0.304,0.661-0.191,1.046c0.113,0.385,0.368,0.888,0.765,1.503c0.603,1.014,0.94,1.903,1.011,2.666
		c0.069,0.763-0.158,1.484-0.68,2.159c-0.39,0.505-0.809,0.848-1.259,1.034c-0.45,0.183-0.91,0.247-1.38,0.19
		c-0.471-0.054-0.945-0.202-1.42-0.44C156.372,120.554,155.919,120.269,155.49,119.938z"/>
	<path fill="#CDD5D8" d="M167.151,128.813c-0.225-0.174-0.344-0.326-0.354-0.455c-0.013-0.13,0.065-0.299,0.231-0.515l4.348-5.631
		c-0.967,0.366-1.714,0.65-2.239,0.853c-0.525,0.202-0.908,0.353-1.153,0.446c-0.243,0.092-0.389,0.148-0.436,0.164
		c-0.045,0.017-0.073,0.03-0.081,0.041c-0.22,0.088-0.369,0.139-0.443,0.159c-0.076,0.02-0.171-0.018-0.289-0.108l-0.257-0.199
		c-0.139-0.107-0.213-0.202-0.218-0.283c-0.005-0.083,0.009-0.235,0.049-0.463l0.52-4.065l-4.396,5.694
		c-0.108,0.14-0.217,0.232-0.329,0.274c-0.111,0.043-0.267-0.014-0.472-0.171l-0.675-0.521c-0.15-0.116-0.262-0.242-0.339-0.378
		c-0.075-0.135-0.009-0.336,0.199-0.605l5.962-7.723c0.166-0.214,0.315-0.325,0.449-0.334c0.135-0.007,0.276,0.047,0.427,0.163
		l0.804,0.621c0.117,0.09,0.205,0.183,0.26,0.278c0.055,0.095,0.076,0.239,0.063,0.434l-0.494,5.062l4.749-1.727
		c0.155-0.067,0.297-0.091,0.427-0.068c0.13,0.022,0.234,0.066,0.32,0.133l0.885,0.683c0.204,0.158,0.288,0.291,0.255,0.402
		c-0.034,0.111-0.126,0.262-0.275,0.456l-6.01,7.785c-0.125,0.161-0.237,0.265-0.338,0.305c-0.102,0.042-0.253-0.015-0.457-0.172
		L167.151,128.813L167.151,128.813z"/>
	<path fill="#CDD5D8" d="M172.447,133.03c-0.719-0.556-1.259-1.062-1.622-1.524c-0.364-0.46-0.585-0.816-0.665-1.066
		c-0.011-0.077,0.049-0.188,0.181-0.335c0.129-0.146,0.277-0.291,0.442-0.427c0.165-0.136,0.329-0.248,0.486-0.33
		c0.158-0.084,0.259-0.1,0.306-0.047c0.205,0.312,0.435,0.64,0.692,0.982c0.256,0.344,0.637,0.71,1.141,1.099
		c0.515,0.397,1.009,0.66,1.486,0.788c0.474,0.126,0.862-0.002,1.161-0.389c0.257-0.333,0.348-0.695,0.272-1.085
		c-0.076-0.392-0.326-0.941-0.757-1.648c-0.232-0.386-0.436-0.77-0.611-1.154c-0.175-0.384-0.294-0.767-0.358-1.15
		c-0.063-0.382-0.047-0.768,0.047-1.157c0.095-0.389,0.295-0.783,0.601-1.18c0.248-0.321,0.547-0.579,0.893-0.774
		c0.347-0.194,0.73-0.297,1.147-0.306c0.42-0.01,0.878,0.077,1.375,0.265c0.498,0.188,1.027,0.497,1.583,0.926
		c0.364,0.282,0.661,0.525,0.892,0.726c0.228,0.203,0.408,0.377,0.545,0.525c0.133,0.146,0.237,0.273,0.31,0.38
		c0.071,0.106,0.144,0.204,0.213,0.292c0.05,0.089,0.015,0.213-0.104,0.368c-0.119,0.156-0.271,0.305-0.451,0.448
		c-0.178,0.145-0.357,0.254-0.535,0.331c-0.18,0.077-0.297,0.074-0.355-0.005c-0.142-0.193-0.346-0.446-0.611-0.753
		c-0.267-0.31-0.551-0.579-0.851-0.811c-0.61-0.472-1.099-0.71-1.461-0.717c-0.364-0.007-0.657,0.134-0.88,0.423
		c-0.241,0.312-0.304,0.662-0.191,1.046c0.112,0.385,0.369,0.888,0.764,1.503c0.604,1.014,0.94,1.904,1.012,2.666
		c0.067,0.763-0.157,1.485-0.679,2.16c-0.391,0.505-0.811,0.848-1.259,1.033c-0.451,0.183-0.911,0.247-1.38,0.189
		c-0.471-0.054-0.945-0.202-1.42-0.439C173.326,133.644,172.876,133.361,172.447,133.03z"/>
</g>
<g>
	<path fill="#EBBA16" d="M162.063,154.222v19.617c0,2.525-2.047,4.574-4.574,4.574l-15.84,0.065l-9.279,10.207v-10.207h-6.561
		c-2.526,0-4.574-2.048-4.574-4.574v-19.616c0-2.526,2.048-4.574,4.574-4.574l31.679-0.066
		C160.016,149.649,162.063,151.697,162.063,154.222z"/>
	<path fill="#ED8A19" d="M170.479,139.507l-31.679-0.064c-2.527,0-4.575,2.048-4.575,4.573v5.681l23.263-0.048
		c2.526,0,4.574,2.047,4.574,4.574v17.112l6.496,7.145v-10.207h1.921c2.526,0,4.574-2.048,4.574-4.573v-19.617
		C175.054,141.555,173.006,139.507,170.479,139.507z"/>
	<circle fill="#FFFFFF" cx="131.442" cy="164.481" r="2.784"/>
	<circle fill="#FFFFFF" cx="141.649" cy="164.481" r="2.784"/>
	<circle fill="#FFFFFF" cx="151.856" cy="164.481" r="2.784"/>
</g>
<g>
	<g>
		<path id="WhatsApp" fill="#CDD5D8" d="M197.604,230.998c0,16.98-13.871,30.743-30.982,30.743c-5.433,0-10.537-1.388-14.977-3.824
			l-17.154,5.45l5.592-16.494c-2.821-4.633-4.446-10.066-4.446-15.875c0-16.979,13.872-30.744,30.984-30.744
			C183.734,200.254,197.604,214.019,197.604,230.998z M166.621,205.15c-14.365,0-26.049,11.596-26.049,25.848
			c0,5.656,1.843,10.895,4.962,15.154l-3.254,9.601l10.01-3.183c4.113,2.701,9.041,4.275,14.332,4.275
			c14.364,0,26.048-11.596,26.048-25.848S180.984,205.15,166.621,205.15z M182.266,238.079c-0.19-0.313-0.697-0.503-1.455-0.88
			c-0.762-0.377-4.496-2.2-5.188-2.45c-0.695-0.251-1.205-0.378-1.709,0.376c-0.506,0.755-1.963,2.451-2.406,2.954
			c-0.442,0.504-0.885,0.567-1.646,0.188c-0.758-0.375-3.204-1.174-6.105-3.738c-2.257-1.998-3.782-4.463-4.225-5.219
			c-0.442-0.754-0.047-1.16,0.333-1.537c0.343-0.338,0.76-0.879,1.14-1.319c0.381-0.438,0.507-0.753,0.759-1.257
			c0.255-0.504,0.127-0.943-0.063-1.32c-0.189-0.377-1.709-4.085-2.342-5.594c-0.633-1.508-1.264-1.258-1.708-1.258
			c-0.442,0-0.95-0.062-1.456-0.062c-0.507,0-1.33,0.189-2.026,0.941c-0.696,0.756-2.657,2.578-2.657,6.287
			c0,3.707,2.72,7.291,3.101,7.793c0.379,0.502,5.252,8.357,12.973,11.375c7.723,3.019,7.723,2.012,9.113,1.886
			c1.393-0.126,4.491-1.823,5.129-3.582C182.455,239.9,182.455,238.393,182.266,238.079z"/>
	</g>
	<path fill="#CDD5D8" d="M220.676,149.944c-13.836,0-25.094,10.639-25.094,23.716c0,7.042,3.277,13.674,8.996,18.194
		c0.736,0.583,1.805,0.458,2.387-0.278c0.582-0.735,0.459-1.805-0.277-2.386c-4.896-3.874-7.705-9.533-7.705-15.529
		c0-11.204,9.73-20.317,21.693-20.317s21.693,9.113,21.693,20.317s-9.73,20.32-21.693,20.32c-2.088,0-4.148-0.277-6.135-0.823
		c-0.436-0.121-0.896-0.062-1.289,0.159l-7.039,3.987c-0.814,0.462-1.104,1.499-0.641,2.316c0.312,0.552,0.889,0.861,1.479,0.861
		c0.285,0,0.572-0.071,0.838-0.22l6.438-3.649c2.063,0.509,4.196,0.767,6.351,0.767c13.836,0,25.092-10.641,25.092-23.718
		C245.768,160.584,234.514,149.944,220.676,149.944z"/>
	<path fill="#29ABE2" d="M220.176,165.39c-0.6-0.277-1.309-0.182-1.812,0.246l-13.116,11.115c-0.716,0.607-0.804,1.679-0.197,2.395
		c0.606,0.717,1.681,0.805,2.396,0.198l10.318-8.744v8.124c0,0.661,0.385,1.263,0.984,1.542c0.229,0.106,0.473,0.158,0.713,0.158
		c0.396,0,0.787-0.138,1.102-0.402l13.117-11.115c0.717-0.607,0.805-1.679,0.197-2.396c-0.605-0.715-1.68-0.805-2.396-0.198
		l-10.318,8.745v-8.124C221.162,166.27,220.775,165.668,220.176,165.39z"/>
</g>
<g>
	<g>
		<path fill="#CDD5D8" d="M79.035,77.686h-7.953c-8.33,0-15.106,6.775-15.106,15.104v7.164c0,6.202,3.811,11.776,9.542,14.045v4.645
			c0,0.315,0.185,0.6,0.473,0.727c0.103,0.047,0.213,0.068,0.322,0.068c0.193,0,0.385-0.07,0.534-0.205l4.611-4.177h7.578
			c8.33,0,15.106-6.775,15.106-15.103V92.79C94.142,84.461,87.364,77.686,79.035,77.686z M92.55,99.953
			c0,7.451-6.062,13.513-13.516,13.513h-7.885c-0.197,0-0.387,0.073-0.534,0.206l-3.508,3.178v-3.401c0-0.338-0.212-0.639-0.53-0.75
			c-5.39-1.906-9.011-7.027-9.011-12.746V92.79c0-7.452,6.063-13.513,13.516-13.513h7.953c7.454,0,13.516,6.062,13.516,13.513
			L92.55,99.953L92.55,99.953z"/>
		<path fill="#CDD5D8" d="M85.566,101.931l-4.887-3.174c-0.535-0.347-1.171-0.465-1.793-0.336c-0.623,0.131-1.159,0.5-1.506,1.036
			l-0.23,0.353c-2.115-0.698-4.447-1.591-5.843-5.633l0.578-0.503l0,0c0.993-0.862,1.097-2.372,0.234-3.366l-3.823-4.397
			c-0.288-0.332-0.79-0.365-1.122-0.079l-2.4,2.086c-2.105,1.83-1.122,4.538-0.798,5.428c0.014,0.04,0.032,0.078,0.053,0.115
			c0.083,0.149,2.077,3.707,5.296,6.986c3.232,3.292,9.068,6.333,9.247,6.421c0.667,0.433,1.416,0.64,2.158,0.64
			c1.302,0,2.579-0.638,3.341-1.809l1.731-2.667C86.04,102.663,85.935,102.17,85.566,101.931z M82.735,104.833
			c-0.717,1.104-2.197,1.417-3.366,0.663c-0.058-0.03-5.855-3.049-8.911-6.162c-2.856-2.91-4.752-6.142-5.011-6.592
			c-0.63-1.766-0.519-2.851,0.369-3.623l1.801-1.564l3.301,3.798c0.293,0.337,0.259,0.83-0.076,1.122l-0.976,0.847
			c-0.238,0.207-0.332,0.534-0.239,0.834c1.664,5.406,4.898,6.466,7.26,7.242l0.344,0.114c0.344,0.116,0.721-0.017,0.918-0.321
			l0.564-0.868c0.116-0.18,0.294-0.301,0.501-0.345c0.208-0.044,0.419-0.004,0.599,0.113l4.221,2.741L82.735,104.833z"/>
		<path fill="#CDD5D8" d="M76.874,90.604c-0.423-0.121-0.863,0.125-0.982,0.547c-0.12,0.422,0.125,0.862,0.547,0.982
			c1.185,0.337,2.128,1.282,2.462,2.468c0.099,0.35,0.417,0.579,0.765,0.579c0.072,0,0.145-0.009,0.216-0.029
			c0.422-0.119,0.669-0.558,0.549-0.981C79.948,92.458,78.584,91.091,76.874,90.604z"/>
		<path fill="#CDD5D8" d="M82.924,95.353c0.072,0,0.144-0.01,0.216-0.03c0.423-0.119,0.669-0.559,0.549-0.981
			c-0.938-3.326-3.585-5.978-6.909-6.924c-0.422-0.122-0.862,0.125-0.982,0.548c-0.12,0.423,0.125,0.862,0.547,0.982
			c2.796,0.795,5.023,3.029,5.813,5.826C82.259,95.124,82.577,95.353,82.924,95.353z"/>
		<path fill="#CDD5D8" d="M76.438,83.715c-0.423-0.122-0.863,0.124-0.983,0.548c-0.121,0.422,0.125,0.862,0.547,0.982
			c4.738,1.348,8.513,5.131,9.85,9.872c0.099,0.35,0.417,0.58,0.765,0.58c0.072,0,0.144-0.009,0.216-0.03
			c0.422-0.119,0.669-0.559,0.549-0.981C85.897,89.417,81.705,85.213,76.438,83.715z"/>
	</g>
</g>
<g>
	<polygon fill="#757584" points="316.354,211.777 89.235,211.777 71.904,162.768 333.686,162.768 	"/>
	<path fill="#646473" d="M202.795,167.19c49.196,0,93.479,5.39,124.38,13.991l6.511-18.414H71.904l6.511,18.414
		C109.316,172.58,153.599,167.19,202.795,167.19z"/>
	<polygon fill="#98CA3F" points="287.044,260.785 118.545,260.785 101.214,211.777 304.375,211.777 	"/>
	<path fill="#84B037" d="M202.795,219.822c35.666,0,68.746,2.836,96.021,7.67l5.559-15.715H101.214l5.558,15.715
		C134.048,222.658,167.128,219.822,202.795,219.822z"/>
	<polygon fill="#12A89D" points="259.757,309.795 145.832,309.795 128.501,260.785 277.088,260.785 	"/>
	<path fill="#0E857C" d="M202.795,269.332c24.93,0,48.598,1.385,69.902,3.869l4.391-12.416H128.501l4.39,12.416
		C154.197,270.717,177.865,269.332,202.795,269.332z"/>
	<polygon fill="#F48F35" points="231.327,358.805 174.262,358.805 156.931,309.795 248.658,309.795 	"/>
	<path fill="#C4732B" d="M202.795,318.459c14.612,0,28.791,0.477,42.314,1.369l3.549-10.033h-91.727l3.548,10.033
		C174.004,318.936,188.184,318.459,202.795,318.459z"/>
	<path fill="#355367" d="M347,157.636c0,2.834-2.298,5.132-5.132,5.132H63.722c-2.834,0-5.132-2.297-5.132-5.132v-10.264
		c0-2.834,2.297-5.132,5.132-5.132h278.146c2.834,0,5.132,2.297,5.132,5.132V157.636L347,157.636z"/>
	<g>
		<path fill="#638AA3" d="M142.249,148.462c0,1.612-1.307,2.918-2.918,2.918H74.823c-1.612,0-2.919-1.307-2.919-2.918l0,0
			c0-1.612,1.307-2.919,2.919-2.919h64.507C140.941,145.543,142.249,146.85,142.249,148.462L142.249,148.462z"/>
		<path fill="#638AA3" d="M166.615,148.462c0,1.612-1.307,2.918-2.918,2.918h-7.881c-1.612,0-2.919-1.307-2.919-2.918l0,0
			c0-1.612,1.307-2.919,2.919-2.919h7.881C165.308,145.543,166.615,146.85,166.615,148.462L166.615,148.462z"/>
	</g>
	<path fill="#1F313D" d="M341.868,155.447H63.722c-2.834,0-5.132-2.297-5.132-5.132v7.32c0,2.834,2.297,5.132,5.132,5.132h278.146
		c2.834,0,5.132-2.297,5.132-5.132v-7.32C347,153.15,344.702,155.447,341.868,155.447z"/>
	<polygon fill="#F48F35" points="183.73,374.247 221.576,385.259 221.576,341.804 183.73,341.804 	"/>
	<g>
		<path fill="#FF877D" d="M89.235,211.777c0,0,3.549-0.07,9.759-0.194c6.21-0.081,15.082-0.276,25.728-0.367
			c10.646-0.083,23.067-0.267,36.375-0.306c13.308-0.042,27.502-0.087,41.698-0.133c14.193,0.045,28.391,0.09,41.697,0.131
			c13.308,0.033,25.729,0.223,36.375,0.305c10.646,0.089,19.518,0.288,25.729,0.368c6.211,0.124,9.76,0.195,9.76,0.195
			s-3.549,0.071-9.76,0.195c-6.211,0.081-15.082,0.279-25.729,0.368c-10.646,0.082-23.067,0.271-36.375,0.305
			c-13.309,0.042-27.504,0.086-41.697,0.131c-14.195-0.045-28.39-0.091-41.698-0.133c-13.308-0.039-25.728-0.223-36.375-0.306
			c-10.646-0.091-19.518-0.286-25.728-0.367C92.784,211.847,89.235,211.777,89.235,211.777z"/>
	</g>
	<g>
		<path fill="#BEEB70" d="M118.545,260.785c0,0,2.633-0.07,7.24-0.193c4.607-0.08,11.189-0.275,19.088-0.367
			c7.898-0.082,17.113-0.268,26.986-0.306c9.874-0.042,20.405-0.087,30.936-0.133c10.53,0.045,21.062,0.09,30.936,0.132
			c9.873,0.033,19.088,0.223,26.985,0.305c7.898,0.09,14.479,0.287,19.089,0.368c4.606,0.124,7.239,0.194,7.239,0.194
			s-2.633,0.07-7.239,0.193c-4.607,0.082-11.189,0.279-19.089,0.369c-7.897,0.082-17.112,0.271-26.985,0.305
			c-9.873,0.041-20.404,0.087-30.936,0.132c-10.531-0.046-21.062-0.091-30.936-0.134c-9.873-0.037-19.087-0.223-26.986-0.305
			c-7.898-0.092-14.48-0.287-19.088-0.367C121.178,260.855,118.545,260.785,118.545,260.785z"/>
	</g>
	<g>
		<path fill="#16D1C3" d="M145.832,309.795c0,0,1.78-0.07,4.895-0.193c3.115-0.086,7.565-0.266,12.906-0.378
			c5.34-0.129,11.57-0.234,18.246-0.307c3.337-0.028,6.786-0.058,10.291-0.087c3.504-0.012,7.064-0.022,10.625-0.034
			c3.561,0.011,7.12,0.022,10.624,0.033c3.505,0.029,6.954,0.058,10.291,0.085c6.677,0.07,12.906,0.178,18.246,0.307
			c5.34,0.111,9.79,0.294,12.905,0.38c3.115,0.124,4.896,0.194,4.896,0.194s-1.78,0.07-4.896,0.194
			c-3.115,0.086-7.565,0.269-12.905,0.38c-5.34,0.129-11.569,0.236-18.246,0.307c-3.337,0.027-6.786,0.057-10.291,0.085
			c-3.504,0.012-7.063,0.022-10.624,0.033c-3.561-0.012-7.121-0.021-10.625-0.034c-3.505-0.028-6.954-0.059-10.291-0.087
			c-6.676-0.071-12.906-0.178-18.246-0.307c-5.34-0.112-9.791-0.292-12.906-0.378C147.612,309.865,145.832,309.795,145.832,309.795z
			"/>
	</g>
	<g>
		<path fill="#FFB675" d="M174.262,358.805c0,0,3.566-0.334,8.916-0.57c2.676-0.129,5.797-0.235,9.141-0.308
			c1.672-0.025,3.398-0.083,5.154-0.087c1.756-0.012,3.538-0.021,5.322-0.034c1.783,0.012,3.566,0.022,5.321,0.033
			c1.756,0.001,3.483,0.061,5.155,0.085c3.344,0.07,6.463,0.178,9.14,0.307c5.351,0.237,8.916,0.574,8.916,0.574
			s-3.565,0.337-8.916,0.574c-2.677,0.129-5.796,0.236-9.14,0.307c-1.672,0.025-3.399,0.084-5.155,0.085
			c-1.755,0.012-3.538,0.022-5.321,0.033c-1.783-0.012-3.566-0.021-5.322-0.034c-1.756-0.004-3.482-0.061-5.154-0.087
			c-3.344-0.07-6.465-0.178-9.141-0.307C177.828,359.139,174.262,358.805,174.262,358.805z"/>
	</g>
	<g>
		<path fill="#355367" d="M347,157.636c0,0-0.023,0.286-0.07,0.841c-0.08,0.543-0.298,1.378-0.932,2.265
			c-0.614,0.879-1.747,1.81-3.34,2.065c-0.803,0.131-1.635,0.095-2.531,0.12c-0.896,0.011-1.848,0.022-2.854,0.035
			c-8.045,0.081-19.539,0.276-33.332,0.367c-13.793,0.083-29.885,0.267-47.125,0.306c-17.241,0.042-35.631,0.087-54.021,0.133
			c-18.391-0.045-36.781-0.09-54.021-0.131c-17.241-0.033-33.333-0.223-47.125-0.305c-13.792-0.089-25.287-0.288-33.333-0.368
			c-1.005-0.013-1.958-0.024-2.853-0.035c-0.883-0.022-1.754,0.009-2.525-0.119c-1.602-0.256-2.73-1.188-3.346-2.067
			c-0.634-0.888-0.851-1.718-0.931-2.264c-0.046-0.556-0.071-0.842-0.071-0.842s0.034,0.285,0.098,0.837
			c0.097,0.54,0.341,1.355,0.99,2.203c0.629,0.842,1.765,1.703,3.284,1.896c0.78,0.104,1.593,0.038,2.5,0.037
			c0.896-0.011,1.848-0.022,2.853-0.035c8.046-0.081,19.54-0.279,33.333-0.368c13.793-0.082,29.884-0.271,47.125-0.305
			c17.241-0.042,35.631-0.086,54.021-0.131c18.392,0.045,36.78,0.091,54.021,0.133c17.242,0.039,33.332,0.223,47.125,0.306
			c13.793,0.091,25.287,0.286,33.334,0.367c1.004,0.012,1.957,0.024,2.853,0.035c0.894,0.003,1.745,0.065,2.495-0.036
			c1.527-0.192,2.661-1.054,3.29-1.896c0.649-0.85,0.892-1.661,0.989-2.203C346.967,157.921,347,157.636,347,157.636z"/>
	</g>
	<path fill="#F48F35" d="M218.075,376.227c2.956,5.437,5.122,9.971,1.028,12.193l-35.396,19.239
		c-4.092,2.224-5.481-2.731-8.438-8.167l-5.161-7.656c-2.954-5.437-5.355-9.298-1.264-11.521l32.309-17.562
		c4.093-2.224,9.806,0.381,12.76,5.817L218.075,376.227z"/>
	<path fill="#C4732B" d="M202.795,366.971c6.387,0,12.686,0.097,18.887,0.271v-8.438h-37.772v8.438
		C190.109,367.066,196.408,366.971,202.795,366.971z"/>
</g>
<path fill="#E0E0E0" d="M144.025,61.561c2.079-5.411,1.928-11.307-0.432-16.612c-4.865-10.926-17.715-15.86-28.645-11
	c-3.493,1.555-6.496,3.985-8.729,7.059l-11.521,1.76l7.436,9.282c-0.29,3.599,0.329,7.229,1.806,10.548l0.003,0.008l0,0
	c4.866,10.926,17.717,15.861,28.646,11C137.885,71.25,141.947,66.973,144.025,61.561z M107.29,61.115l-0.002-0.006
	c-1.315-2.958-1.812-6.211-1.438-9.409l0.089-0.761l-4.413-5.508l6.82-1.042l0.449-0.669c1.888-2.818,4.531-5.038,7.645-6.423
	c9.083-4.041,19.764,0.06,23.811,9.149c1.958,4.403,2.084,9.303,0.356,13.802c-1.728,4.496-5.104,8.051-9.507,10.01
	C122.015,74.298,111.333,70.197,107.29,61.115z"/>
<linearGradient id="SVGID_10_" gradientUnits="userSpaceOnUse" x1="94.3672" y1="-39.5347" x2="94.3672" y2="-81.313" gradientTransform="matrix(0.4068 0.9135 -0.9135 0.4068 30.1998 -7.9539)">
	<stop  offset="0" style="stop-color:#20B038"/>
	<stop  offset="1" style="stop-color:#60D66A"/>
</linearGradient>
<path fill="url(#SVGID_10_)" d="M96.243,43.171l10.995-1.681c2.131-2.932,4.997-5.251,8.33-6.736
	c10.43-4.639,22.692,0.071,27.335,10.498c2.251,5.062,2.397,10.689,0.412,15.851c-1.983,5.165-5.859,9.247-10.914,11.495
	c-10.43,4.639-22.692-0.07-27.335-10.496c0-0.001,0,0,0,0l-0.004-0.009c-1.408-3.166-2-6.632-1.724-10.065L96.243,43.171z"/>
<g>
	<path fill="#FFFFFF" d="M130.009,45.129c0.652-0.73,0.496-1.122,0.355-1.478c-0.115-0.292-0.261-0.618-0.407-0.945
		c-0.145-0.326-0.504-0.801-1.193-1.032c-0.691-0.231-2.438-0.969-4.848,0.104c-2.409,1.073-3.956,3.865-4.173,4.254
		c-0.217,0.392-3.92,5.806-3.667,11.656c0.211,4.862,0.91,5.56,1.392,6.422c0.481,0.861,2.474,2.369,3.799,2.268
		c1.325-0.101,2.305-0.537,2.455-0.751c0.149-0.212,0.127-0.594,0.154-1.192c0.027-0.599,0.14-3.534,0.103-4.056
		c-0.037-0.521-0.1-0.885-0.735-0.992c-0.636-0.109-2.155-0.556-2.609-0.696c-0.454-0.14-0.623-0.407-0.596-1.006
		c0.027-0.6-0.158-2.406,0.677-5.02c0.649-2.033,1.814-3.73,2.178-4.234c0.362-0.503,0.742-0.366,1.095-0.229
		c0.317,0.121,0.789,0.235,1.185,0.352c0.395,0.118,0.635,0.108,1.034,0.126s0.649-0.191,0.84-0.423
		C127.237,48.025,129.234,45.995,130.009,45.129z"/>
</g>
<path fill="#FFFFFF" d="M144.017,61.372c2.056-5.349,1.905-11.178-0.427-16.42c-4.811-10.803-17.512-15.679-28.316-10.875
	c-3.453,1.537-6.422,3.939-8.629,6.977l-11.39,1.74l7.351,9.176c-0.286,3.558,0.326,7.146,1.785,10.426l0.004,0.009c0,0,0-0.001,0,0
	c4.809,10.8,17.513,15.678,28.316,10.873C137.946,70.948,141.961,66.72,144.017,61.372z M107.703,60.931l-0.003-0.006
	c-1.301-2.924-1.792-6.141-1.422-9.301l0.087-0.752l-4.36-5.445l6.741-1.031l0.443-0.662c1.867-2.784,4.479-4.98,7.557-6.349
	c8.979-3.993,19.536,0.06,23.537,9.044c1.936,4.352,2.061,9.196,0.353,13.643c-1.708,4.445-5.045,7.96-9.397,9.896
	C122.259,73.962,111.7,69.908,107.703,60.931z"/>
<g>
	
		<linearGradient id="SVGID_11_" gradientUnits="userSpaceOnUse" x1="137.0474" y1="341.8418" x2="137.0474" y2="306.7073" gradientTransform="matrix(1 0 0 -1 -21 433.5)">
		<stop  offset="0" style="stop-color:#42BCE8"/>
		<stop  offset="1" style="stop-color:#23A7DC"/>
	</linearGradient>
	<circle fill="url(#SVGID_11_)" cx="116.047" cy="109.29" r="17.632"/>
	<g>
		<path fill="#FFFFFF" d="M124.627,101.801l-3.149,15.877c0,0-0.44,1.101-1.651,0.573l-7.268-5.572l-2.643-1.277l-4.448-1.498
			c0,0-0.683-0.242-0.749-0.771c-0.065-0.528,0.771-0.815,0.771-0.815l17.684-6.937
			C123.173,101.382,124.627,100.744,124.627,101.801z"/>
		<path fill="#D2E5F1" d="M112,117.5c0,0-0.212-0.02-0.477-0.857c-0.265-0.836-1.607-5.241-1.607-5.241l10.681-6.783
			c0,0,0.616-0.374,0.595,0c0,0,0.109,0.066-0.221,0.375c-0.33,0.309-8.391,7.554-8.391,7.554"/>
		<path fill="#B5CFE4" d="M115.345,114.815l-2.874,2.621c0,0-0.226,0.17-0.471,0.063l0.55-4.868"/>
	</g>
</g>
<g id="SMXPsX.tif">
	<g>
		<path fill="#FEFEFE" d="M195.124,96.6c5.569,2.108,10.878,3.742,16.204,5.315c2.352,0.695,4.736,1.23,7.216,1.088
			c2.863-0.165,5.024-1.48,6.417-4.003c1.046-1.893,1.762-3.928,2.346-5.992c1.012-3.591-0.322-7.018-3.408-8.967
			c-2.573-1.626-5.266-3.052-8.057-4.258c-5.765-2.493-11.574-4.885-17.505-6.966c-5.678-1.992-11.413-3.792-17.333-4.946
			c-4.069-0.793-7.106,0.571-9.151,4.202c-0.979,1.738-1.555,3.632-2.09,5.549c-1.229,4.404,0.517,7.431,4.033,9.693
			c0.996,0.641,2.067,1.196,3.166,1.638c0.881,0.355,0.942,0.786,0.599,1.567c-0.438,0.997-0.781,2.037-1.149,3.064
			c-0.095,0.265-0.365,0.577-0.1,0.824c0.268,0.249,0.561-0.042,0.807-0.169c1.56-0.8,3.11-1.615,4.659-2.435
			c0.363-0.191,0.677-0.3,1.109-0.108C187.029,93.53,191.23,95.212,195.124,96.6z"/>
		<path fill="#7C529D" d="M195.124,96.6c-3.894-1.387-8.095-3.07-12.237-4.903c-0.434-0.192-0.746-0.083-1.109,0.108
			c-1.549,0.82-3.101,1.634-4.659,2.435c-0.246,0.126-0.539,0.417-0.807,0.169c-0.266-0.247,0.005-0.559,0.1-0.824
			c0.369-1.027,0.711-2.067,1.149-3.064c0.346-0.781,0.282-1.212-0.599-1.567c-1.099-0.442-2.17-0.997-3.166-1.638
			c-3.517-2.262-5.262-5.289-4.033-9.693c0.535-1.917,1.11-3.811,2.09-5.549c2.045-3.631,5.082-4.995,9.151-4.202
			c5.92,1.154,11.655,2.954,17.333,4.946c5.931,2.081,11.74,4.474,17.505,6.966c2.791,1.206,5.482,2.631,8.057,4.258
			c3.086,1.95,4.42,5.376,3.408,8.967c-0.584,2.064-1.3,4.1-2.346,5.992c-1.393,2.523-3.554,3.839-6.417,4.003
			c-2.479,0.142-4.864-0.393-7.216-1.088C206.002,100.342,200.693,98.708,195.124,96.6z M200.316,86.191
			c-0.484,1.302-0.963,2.605-1.453,3.904c-0.188,0.498-0.229,0.976,0.166,1.385c0.392,0.402,0.875,0.49,1.35,0.19
			c0.319-0.203,0.396-0.074,0.592,0.173c1.213,1.542,3.094,1.733,4.614,0.488c1.493-1.222,1.99-2.839,1.751-4.695
			c-0.206-1.609-1.396-2.668-3.012-2.778c-1.145-0.077-1.145-0.077-0.729-1.199c0.057-0.155,0.108-0.312,0.174-0.464
			c0.297-0.7,0.267-1.363-0.513-1.66c-0.819-0.312-1.292,0.186-1.563,0.935C201.243,83.714,200.775,84.951,200.316,86.191z
			 M191.961,84.699c0-2.323,0.01-4.329-0.007-6.335c-0.006-0.712-0.202-1.36-1.077-1.372c-0.865-0.012-1.234,0.517-1.223,1.34
			c0.049,2.967,0.097,5.934,0.156,8.901c0.01,0.557,0.182,1.05,0.775,1.257c0.544,0.189,0.969-0.044,1.325-0.43
			c0.603-0.654,1.19-1.323,1.784-1.986c1.406-1.573,2.818-3.142,4.214-4.725c0.504-0.571,0.6-1.186-0.031-1.736
			c-0.601-0.523-1.157-0.309-1.657,0.188c-0.21,0.208-0.396,0.44-0.592,0.665C194.471,81.801,193.314,83.138,191.961,84.699z
			 M211.712,92.734c0.524,0.195,1.05,0.396,1.579,0.585c1.125,0.402,1.575,0.131,1.771-1.057c0.352-2.124-0.853-4.072-2.838-4.592
			c-1.97-0.517-4.002,0.638-4.754,2.735c-0.584,1.625-0.418,3.166,0.867,4.386c1.322,1.255,2.952,1.535,4.696,1.074
			c0.557-0.147,0.952-0.496,0.795-1.16c-0.14-0.582-0.533-0.792-1.114-0.71c-0.393,0.056-0.787,0.119-1.181,0.123
			c-1.087,0.013-2.101-0.752-2.207-1.618c-0.054-0.433,0.04-0.648,0.528-0.457C210.471,92.283,211.093,92.505,211.712,92.734z
			 M182.842,85.528c0.778,0.298,1.973-0.115,2.514-0.763c0.521-0.624,0.09-1.108-0.207-1.608c-0.221-0.368-0.471-0.719-0.715-1.072
			c-0.483-0.705-1.072-0.964-1.838-0.404c-0.43,0.314-0.822,0.19-1.156-0.143c-0.924-0.916-1.491-2.01-1.576-3.325
			c-0.036-0.582,0.134-1.028,0.785-1.188c0.344-0.084,0.703-0.203,0.832-0.619c0.17-0.543-0.461-2.801-0.901-3.178
			c-0.183-0.156-0.396-0.229-0.638-0.237c-1.346-0.042-2.207,0.757-2.164,2.099c0.123,4.001,1.717,7.347,4.598,10.098
			C182.539,85.343,182.743,85.457,182.842,85.528z M215.502,93.217c-0.355,0.96-0.729,1.915-1.062,2.882
			c-0.211,0.604-0.057,1.153,0.539,1.426c0.637,0.292,1.184,0.046,1.488-0.568c0.264-0.53,0.504-1.086,0.646-1.659
			c0.4-1.638,1.142-2.782,3.095-2.538c0.472,0.059,0.78-0.27,0.856-0.778c0.082-0.526-0.114-0.908-0.561-1.159
			c-0.396-0.224-0.824-0.234-1.245-0.069c-0.296,0.116-0.479,0.227-0.604-0.25c-0.141-0.529-0.631-0.721-1.18-0.696
			c-0.533,0.025-0.836,0.324-1.01,0.805C216.152,91.485,215.824,92.35,215.502,93.217z M196.744,86.683
			c-0.299,0.804-0.584,1.612-0.898,2.41c-0.275,0.697-0.135,1.283,0.553,1.566c0.692,0.285,1.22-0.032,1.48-0.734
			c0.624-1.668,1.249-3.335,1.857-5.008c0.231-0.641,0.117-1.187-0.584-1.455c-0.733-0.28-1.211,0.022-1.477,0.719
			C197.361,85.013,197.057,85.849,196.744,86.683z M184.132,74.334c-0.192-0.042-0.511-0.333-0.687,0.066
			c-0.117,0.269,0.216,0.341,0.412,0.451c2.363,1.316,3.076,2.938,2.457,5.582c-0.057,0.245-0.273,0.563,0.057,0.693
			c0.346,0.136,0.391-0.241,0.48-0.473C187.766,78.285,186.51,75.31,184.132,74.334z M201.014,82.029
			c0.197-0.714-0.043-1.256-0.679-1.575c-0.599-0.3-1.378,0.079-1.612,0.724c-0.242,0.665,0.092,1.387,0.762,1.59
			C200.209,82.987,200.688,82.663,201.014,82.029z M185.771,79.767c0.562-1.47-0.203-3.282-1.683-4.042
			c-0.229-0.119-0.506-0.35-0.687-0.037c-0.189,0.329,0.179,0.425,0.388,0.562c1.419,0.921,1.749,1.685,1.435,3.316
			c-0.047,0.238-0.25,0.559,0.152,0.642C185.675,80.27,185.686,79.933,185.771,79.767z M184.7,79.05
			c0.274-0.708-0.224-1.829-0.916-2.067c-0.162-0.056-0.327-0.097-0.45,0.053c-0.184,0.224-0.02,0.354,0.158,0.456
			c0.598,0.338,0.794,0.837,0.621,1.494c-0.047,0.179,0.011,0.358,0.185,0.4C184.538,79.444,184.635,79.248,184.7,79.05z"/>
		<path fill="#FAF9FB" d="M200.314,86.191c0.461-1.24,0.929-2.477,1.379-3.721c0.271-0.749,0.744-1.247,1.563-0.935
			c0.778,0.296,0.81,0.959,0.513,1.66c-0.064,0.152-0.117,0.309-0.174,0.464c-0.416,1.122-0.416,1.122,0.729,1.199
			c1.615,0.109,2.806,1.168,3.012,2.778c0.239,1.856-0.258,3.473-1.751,4.695c-1.521,1.245-3.401,1.054-4.614-0.488
			c-0.193-0.248-0.271-0.376-0.592-0.173c-0.475,0.3-0.958,0.212-1.35-0.19c-0.396-0.409-0.354-0.887-0.166-1.385
			C199.354,88.796,199.832,87.493,200.314,86.191z M205,89.5c0.445-1.157,0.123-2.29-0.753-2.642
			c-0.914-0.367-1.897,0.211-2.354,1.383c-0.438,1.128-0.102,2.308,0.758,2.656C203.549,91.262,204.551,90.666,205,89.5z"/>
		<path fill="#FAF9FB" d="M191.961,84.699c1.354-1.561,2.51-2.897,3.669-4.234c0.195-0.224,0.382-0.456,0.593-0.665
			c0.498-0.496,1.057-0.711,1.656-0.188c0.631,0.55,0.535,1.165,0.031,1.736c-1.396,1.583-2.807,3.151-4.215,4.725
			c-0.592,0.664-1.182,1.332-1.783,1.986c-0.355,0.386-0.781,0.619-1.325,0.43c-0.595-0.207-0.767-0.7-0.776-1.257
			c-0.06-2.967-0.106-5.934-0.154-8.901c-0.014-0.823,0.355-1.352,1.222-1.34c0.875,0.012,1.071,0.66,1.077,1.372
			C191.971,80.37,191.961,82.376,191.961,84.699z"/>
		<path fill="#F9F7F9" d="M211.712,92.734c-0.619-0.229-1.241-0.451-1.854-0.692c-0.488-0.192-0.582,0.024-0.528,0.457
			c0.106,0.866,1.121,1.631,2.207,1.618c0.394-0.004,0.789-0.067,1.181-0.123c0.581-0.083,0.975,0.128,1.114,0.71
			c0.158,0.665-0.238,1.013-0.795,1.16c-1.744,0.461-3.374,0.181-4.696-1.074c-1.285-1.22-1.451-2.761-0.867-4.386
			c0.752-2.097,2.784-3.252,4.754-2.735c1.985,0.521,3.188,2.468,2.838,4.592c-0.196,1.188-0.646,1.459-1.771,1.057
			C212.762,93.13,212.236,92.929,211.712,92.734z M211.325,90.987c0.185,0.069,0.364,0.162,0.555,0.201
			c0.36,0.074,0.808,0.535,1.05,0.187c0.313-0.457,0.049-1.021-0.33-1.422c-0.494-0.523-1.105-0.69-1.793-0.414
			c-0.371,0.148-0.797,0.351-0.799,0.774c-0.001,0.391,0.5,0.315,0.768,0.465C210.943,90.873,211.141,90.919,211.325,90.987z"/>
		<path fill="#FAF9FB" d="M182.842,85.528c-0.099-0.071-0.303-0.185-0.468-0.342c-2.881-2.751-4.474-6.096-4.599-10.098
			c-0.041-1.341,0.82-2.141,2.166-2.099c0.24,0.007,0.453,0.081,0.637,0.237c0.439,0.377,1.07,2.635,0.902,3.178
			c-0.129,0.416-0.489,0.534-0.834,0.619c-0.65,0.16-0.82,0.606-0.783,1.188c0.084,1.315,0.652,2.409,1.574,3.325
			c0.336,0.333,0.729,0.457,1.157,0.143c0.767-0.56,1.354-0.301,1.839,0.404c0.243,0.354,0.493,0.704,0.713,1.072
			c0.297,0.5,0.729,0.985,0.209,1.608C184.812,85.413,183.62,85.826,182.842,85.528z"/>
		<path fill="#F9F7F9" d="M215.502,93.217c0.322-0.868,0.65-1.732,0.963-2.603c0.174-0.481,0.477-0.78,1.01-0.805
			c0.549-0.025,1.039,0.167,1.18,0.696c0.125,0.476,0.31,0.366,0.604,0.25c0.421-0.165,0.849-0.155,1.245,0.069
			c0.445,0.25,0.643,0.632,0.561,1.159c-0.076,0.508-0.385,0.836-0.856,0.778c-1.953-0.244-2.692,0.899-3.095,2.538
			c-0.143,0.572-0.383,1.128-0.646,1.659c-0.306,0.615-0.854,0.861-1.488,0.568c-0.596-0.273-0.75-0.822-0.539-1.426
			C214.773,95.132,215.146,94.177,215.502,93.217z"/>
		<path fill="#FAF9FB" d="M196.745,86.684c0.312-0.834,0.616-1.67,0.932-2.503c0.265-0.697,0.742-0.999,1.476-0.719
			c0.701,0.269,0.816,0.814,0.584,1.455c-0.607,1.673-1.232,3.34-1.856,5.008c-0.262,0.702-0.788,1.019-1.479,0.734
			c-0.688-0.283-0.83-0.869-0.555-1.566C196.16,88.295,196.445,87.487,196.745,86.684z"/>
		<path fill="#EFE9F3" d="M184.132,74.334c2.378,0.976,3.634,3.951,2.72,6.318c-0.09,0.232-0.135,0.609-0.479,0.473
			c-0.33-0.13-0.112-0.448-0.056-0.693c0.617-2.644-0.096-4.266-2.459-5.582c-0.195-0.109-0.528-0.182-0.412-0.451
			C183.621,74.001,183.939,74.292,184.132,74.334z"/>
		<path fill="#F9F7F9" d="M201.014,82.029c-0.324,0.634-0.805,0.958-1.529,0.738c-0.67-0.203-1.004-0.925-0.762-1.59
			c0.234-0.645,1.014-1.024,1.612-0.724C200.971,80.773,201.211,81.315,201.014,82.029z"/>
		<path fill="#EFE9F3" d="M185.771,79.767c-0.088,0.166-0.098,0.502-0.395,0.44c-0.402-0.083-0.2-0.404-0.152-0.642
			c0.314-1.631-0.016-2.395-1.435-3.316c-0.209-0.136-0.577-0.232-0.388-0.562c0.181-0.313,0.455-0.082,0.687,0.037
			C185.568,76.485,186.333,78.297,185.771,79.767z"/>
		<path fill="#EFE9F3" d="M184.7,79.05c-0.065,0.197-0.162,0.394-0.402,0.336c-0.174-0.042-0.229-0.221-0.185-0.4
			c0.173-0.657-0.023-1.156-0.621-1.494c-0.178-0.101-0.342-0.231-0.158-0.456c0.123-0.15,0.288-0.109,0.45-0.053
			C184.477,77.221,184.977,78.343,184.7,79.05z"/>
		<path fill="#7C529D" d="M205,89.5c-0.449,1.166-1.451,1.762-2.352,1.397c-0.857-0.348-1.193-1.528-0.756-2.656
			c0.455-1.171,1.439-1.75,2.354-1.383C205.123,87.21,205.445,88.343,205,89.5z"/>
		<path fill="#7C529D" d="M211.325,90.987c-0.185-0.068-0.382-0.114-0.552-0.21c-0.267-0.15-0.768-0.074-0.767-0.465
			c0.002-0.424,0.429-0.626,0.798-0.774c0.688-0.276,1.299-0.11,1.795,0.414c0.379,0.401,0.644,0.965,0.328,1.422
			c-0.24,0.348-0.688-0.113-1.049-0.187C211.689,91.148,211.51,91.056,211.325,90.987z"/>
	</g>
</g>
<g>
	<g>
		<path fill="#437BBD" d="M64.441,31.076c-8.806-3.485-18.577,0.342-21.823,8.546c-1.85,4.675-1.181,9.763,1.365,13.919
			l-2.241,5.664l6.615-0.85c1.29,0.977,2.738,1.802,4.328,2.431c8.806,3.485,18.577-0.342,21.823-8.546
			C77.755,44.036,73.248,34.561,64.441,31.076 M58.11,51.708l-2.336-5.964l-9.647,1.222l12.399-5.861l2.435,6.003l9.549-1.262
			L58.11,51.708z"/>
	</g>
</g>
<line fill="none" stroke="#CDD5D8" stroke-width="3" stroke-linecap="round" x1="45.565" y1="30.238" x2="35.58" y2="22.204"/>
<line fill="none" stroke="#CDD5D8" stroke-width="3" stroke-linecap="round" x1="35.3" y1="32.227" x2="25.315" y2="24.193"/>
<line fill="none" stroke="#CDD5D8" stroke-width="3" stroke-linecap="round" x1="34.42" y1="43.795" x2="24.435" y2="35.762"/>
<line fill="none" stroke="#CDD5D8" stroke-width="3" stroke-linecap="round" x1="180.331" y1="61.555" x2="171.114" y2="52.649"/>
<line fill="none" stroke="#CDD5D8" stroke-width="3" stroke-linecap="round" x1="169.928" y1="62.605" x2="160.712" y2="53.7"/>
<line fill="none" stroke="#CDD5D8" stroke-width="3" stroke-linecap="round" x1="165.003" y1="72.046" x2="155.787" y2="63.141"/>
<g>
	<g>
		<defs>
			<path id="SVGID_12_" d="M244.615,33.022h-9.108h-9.126h-1.333c-2.426,0-4.623,0.983-6.213,2.574
				c-0.754,0.754-1.372,1.645-1.812,2.631c-0.489,1.093-0.762,2.306-0.762,3.582v0.699v5.137v8.254v5.812v1.246
				c0,1.482,0.366,2.879,1.016,4.104c0.412,0.78,0.938,1.49,1.559,2.109c1.59,1.59,3.787,2.574,6.213,2.574h1.333h9.126h9.108h1.581
				c2.427,0,4.623-0.983,6.214-2.574c0.618-0.619,1.146-1.329,1.558-2.109c0.648-1.225,1.016-2.622,1.016-4.104v-1.246v-5.812
				v-8.254v-5.137V41.81c0-1.276-0.271-2.489-0.76-3.582c-0.441-0.987-1.061-1.877-1.812-2.631c-1.592-1.59-3.787-2.574-6.214-2.574
				L244.615,33.022L244.615,33.022z"/>
		</defs>
		<clipPath id="SVGID_13_">
			<use xlink:href="#SVGID_12_"  overflow="visible"/>
		</clipPath>
		<g clip-path="url(#SVGID_13_)">
			<g>
				<g>
					<defs>
						<rect id="SVGID_14_" x="216.262" y="33.023" width="38.723" height="38.722"/>
					</defs>
					<clipPath id="SVGID_15_">
						<use xlink:href="#SVGID_14_"  overflow="visible"/>
					</clipPath>
					<g clip-path="url(#SVGID_15_)">
					</g>
				</g>
			</g>
		</g>
		<g clip-path="url(#SVGID_13_)">
			<g>
				<defs>
					<rect id="SVGID_16_" x="209.988" y="26.433" width="66.861" height="47.275"/>
				</defs>
				<clipPath id="SVGID_17_">
					<use xlink:href="#SVGID_16_"  overflow="visible"/>
				</clipPath>
				<path clip-path="url(#SVGID_17_)" fill="#FFFFFF" d="M241.632,38.213h-12.021c-4.531,0-8.205,3.674-8.205,8.207v12.019
					c0,4.532,3.674,8.207,8.205,8.207h12.021c4.532,0,8.207-3.675,8.207-8.207V46.42C249.839,41.888,246.164,38.213,241.632,38.213
					 M247.221,58.65c0,3.009-2.438,5.447-5.447,5.447h-12.301c-3.009,0-5.447-2.438-5.447-5.447v-12.3
					c0-3.009,2.438-5.448,5.447-5.448h12.301c3.009,0,5.447,2.439,5.447,5.448V58.65z"/>
			</g>
			<g>
				<defs>
					<rect id="SVGID_18_" x="209.988" y="26.433" width="66.861" height="47.275"/>
				</defs>
				<clipPath id="SVGID_19_">
					<use xlink:href="#SVGID_18_"  overflow="visible"/>
				</clipPath>
				<path clip-path="url(#SVGID_19_)" fill="#FFFFFF" d="M235.622,45.123c-4.074,0-7.377,3.304-7.377,7.377
					c0,4.075,3.303,7.377,7.377,7.377c4.073,0,7.378-3.302,7.378-7.377C243,48.426,239.695,45.123,235.622,45.123 M235.622,57.282
					c-2.642,0-4.782-2.141-4.782-4.782s2.143-4.782,4.782-4.782c2.642,0,4.782,2.142,4.782,4.782
					C240.404,55.142,238.264,57.282,235.622,57.282"/>
			</g>
			<g>
				<defs>
					<rect id="SVGID_20_" x="209.988" y="26.433" width="66.861" height="47.275"/>
				</defs>
				<clipPath id="SVGID_21_">
					<use xlink:href="#SVGID_20_"  overflow="visible"/>
				</clipPath>
				<path clip-path="url(#SVGID_21_)" fill="#FFFFFF" d="M243.245,43.124c-0.949,0-1.718,0.77-1.718,1.719
					c0,0.949,0.769,1.719,1.718,1.719c0.948,0,1.719-0.77,1.719-1.719C244.964,43.894,244.193,43.124,243.245,43.124"/>
			</g>
		</g>
		<g clip-path="url(#SVGID_13_)">
			<path fill="#00AFF0" d="M276.387,84.887c-0.013,0.072-0.021,0.145-0.035,0.217l-0.069-0.413
				C276.318,84.755,276.352,84.822,276.387,84.887c0.213-1.152,0.322-2.331,0.322-3.509c0-2.613-0.511-5.149-1.521-7.536
				c-0.976-2.305-2.371-4.376-4.149-6.154c-1.777-1.778-3.849-3.173-6.153-4.148c-2.386-1.01-4.921-1.521-7.535-1.521
				c-1.229,0-2.465,0.116-3.664,0.346c-0.004,0-0.006,0-0.01,0.001c0.067,0.036,0.135,0.067,0.201,0.105l-0.406-0.064
				c0.067-0.013,0.137-0.027,0.205-0.041c-1.648-0.875-3.5-1.343-5.376-1.343c-3.062,0-5.938,1.192-8.104,3.357
				c-2.164,2.165-3.356,5.043-3.356,8.104c0,1.949,0.501,3.864,1.442,5.557c0.012-0.07,0.021-0.141,0.033-0.211l0.07,0.406
				c-0.035-0.064-0.068-0.13-0.104-0.195c-0.191,1.096-0.291,2.217-0.291,3.336c0,2.614,0.511,5.149,1.521,7.537
				c0.975,2.306,2.369,4.375,4.146,6.153c1.779,1.778,3.848,3.175,6.154,4.147c2.387,1.012,4.924,1.524,7.535,1.524
				c1.139,0,2.278-0.104,3.393-0.301c-0.065-0.036-0.133-0.069-0.197-0.107l0.412,0.073c-0.07,0.014-0.143,0.022-0.215,0.035
				c1.715,0.97,3.654,1.486,5.639,1.486c3.061,0,5.938-1.19,8.102-3.356c2.166-2.163,3.357-5.042,3.357-8.104
				C277.838,88.508,277.334,86.586,276.387,84.887L276.387,84.887z M257.427,93.234c-6.878,0-9.956-3.381-9.956-5.916
				c0-1.3,0.961-2.211,2.283-2.211c2.941,0,2.182,4.226,7.673,4.226c2.812,0,4.364-1.527,4.364-3.088
				c0-0.94-0.464-1.981-2.314-2.438l-6.119-1.527c-4.926-1.236-5.819-3.899-5.819-6.403c0-5.198,4.896-7.15,9.489-7.15
				c4.234,0,9.227,2.34,9.227,5.458c0,1.336-1.156,2.113-2.479,2.113c-2.514,0-2.051-3.477-7.11-3.477
				c-2.511,0-3.901,1.137-3.901,2.765c0,1.624,1.982,2.142,3.705,2.534l4.527,1.005c4.961,1.105,6.219,4.001,6.219,6.729
				C267.214,90.08,263.971,93.234,257.427,93.234z M260.543,100.33c0.064,0.038,0.132,0.071,0.197,0.107
				c0.072-0.013,0.145-0.021,0.215-0.035L260.543,100.33z M276.352,85.104c0.015-0.072,0.022-0.145,0.035-0.217
				c-0.035-0.063-0.066-0.132-0.104-0.196L276.352,85.104z M238.312,77.83c-0.013,0.07-0.021,0.141-0.033,0.211
				c0.037,0.065,0.068,0.131,0.104,0.195L238.312,77.83z M253.876,62.47c-0.065-0.038-0.134-0.069-0.201-0.104
				c-0.069,0.014-0.138,0.028-0.206,0.041L253.876,62.47z"/>
		</g>
	</g>
</g>
</svg>
