<?xml version="1.0" encoding="utf-8"?>
<!-- Generator: Adobe Illustrator 21.0.0, SVG Export Plug-In . SVG Version: 6.00 Build 0)  -->
<svg version="1.1" id="Слой_1" xmlns="http://www.w3.org/2000/svg" xmlns:xlink="http://www.w3.org/1999/xlink" x="0px" y="0px"
	 width="301px" height="186px" viewBox="0 0 301 186" enable-background="new 0 0 301 186" xml:space="preserve">
<g>
	<g>
		<g>
			<g>
				<g>
					<g>
						<path fill="#415168" d="M218.372,58.312c-6.592,0-94.428,0-94.428,0s-87.837,0-94.43,0s-5.861,5.711-5.861,5.711V179.3
							h200.579V64.023C224.232,64.023,224.965,58.312,218.372,58.312z"/>
						<path fill="#FFFFFF" d="M215.923,174.583H32.098c-0.985,0-1.784-0.8-1.784-1.786V66.547c0-0.986,0.799-1.786,1.784-1.786
							h183.825c0.982,0,1.782,0.8,1.782,1.786v106.25C217.705,173.783,216.905,174.583,215.923,174.583z"/>
					</g>
					<g>
						<rect x="-0.254" y="178.464" fill="#E2E5DA" width="248.13" height="4.794"/>
						<rect x="235.887" y="178.464" fill="#F4F4F4" width="11.989" height="4.794"/>
						<rect x="-0.254" y="178.464" fill="#F4F4F4" width="11.987" height="4.794"/>
						<path fill="#828485" d="M123.71,183.258H-0.254c0,0,2.981,2.742,8.416,2.742c5.436,0,115.548,0,115.548,0s110.111,0,115.545,0
							c5.436,0,8.417-2.742,8.417-2.742H123.71z"/>
					</g>
				</g>
				<rect x="30.313" y="64.759" fill="none" width="187.337" height="9.972"/>
				<path fill="#FFFFFF" d="M212.249,72.335h-42.712c-0.834,0-1.52-0.685-1.52-1.52v-0.958c0-0.834,0.686-1.518,1.52-1.518h42.712
					c0.833,0,1.517,0.684,1.517,1.518v0.958C213.766,71.651,213.082,72.335,212.249,72.335z"/>
				<g>
					<circle fill="#ED4545" cx="33.32" cy="68.4" r="1.737"/>
					<circle fill="#D3AF16" cx="38.446" cy="68.4" r="1.737"/>
					<circle fill="#47EA78" cx="43.448" cy="68.4" r="1.737"/>
				</g>
				<circle fill="#E2E2E2" cx="123.812" cy="61.28" r="1.398"/>
				<circle fill="#415168" cx="123.812" cy="61.279" r="0.936"/>
			</g>
		</g>
	</g>
</g>
<rect x="55.041" y="68.63" fill="none" width="77.099" height="12.202"/>
<rect x="142.729" y="68.63" fill="none" width="77.1" height="12.202"/>
<rect x="29.899" y="72.335" fill="#28282F" width="51.413" height="102.669"/>
<rect x="81.312" y="72.97" fill="none" stroke="#9191AA" stroke-miterlimit="10" width="61.568" height="101.4"/>
<rect x="142.67" y="73.076" fill="none" stroke="#9191AA" stroke-miterlimit="10" width="75.108" height="100.871"/>
<line fill="none" stroke="#9191AA" stroke-linecap="round" stroke-miterlimit="10" x1="40.691" y1="91.222" x2="61.001" y2="91.222"/>
<line fill="none" stroke="#9191AA" stroke-linecap="round" stroke-miterlimit="10" x1="42.595" y1="106.456" x2="62.906" y2="106.456"/>
<line fill="none" stroke="#9191AA" stroke-linecap="round" stroke-miterlimit="10" x1="47.038" y1="98.204" x2="67.349" y2="98.204"/>
<ellipse fill="#9191AA" stroke="#9191AA" stroke-linecap="round" stroke-miterlimit="10" cx="93.293" cy="83.764" rx="4.999" ry="5.236"/>
<ellipse fill="#9191AA" stroke="#9191AA" stroke-linecap="round" stroke-miterlimit="10" cx="93.214" cy="106.455" rx="4.918" ry="5.077"/>
<ellipse fill="#9191AA" stroke="#9191AA" stroke-linecap="round" stroke-miterlimit="10" cx="94.007" cy="130.099" rx="5.078" ry="5.236"/>
<ellipse fill="#FFFFFF" stroke="#9191AA" stroke-linecap="round" stroke-miterlimit="10" cx="94.246" cy="153.82" rx="4.682" ry="4.839"/>
<circle fill="#2DC100" cx="135.264" cy="85.298" r="2.116"/>
<circle fill="#7C529D" cx="135.476" cy="105.186" r="2.117"/>
<circle fill="#00AFF0" cx="135.898" cy="129.729" r="2.116"/>
<circle fill="#2DC100" cx="136.322" cy="151.943" r="2.116"/>
<path fill="#D3F2EE" d="M171.761,97.146c0,2.747-0.712,4.973-1.588,4.973h-20.627c-0.876,0-1.588-2.226-1.588-4.973l0,0
	c0-2.746,0.712-4.971,1.588-4.971h20.627C171.049,92.176,171.761,94.4,171.761,97.146L171.761,97.146z"/>
<path fill="#D1FFD8" d="M210.578,85.353c0,2.717-0.316,4.919-2.274,4.919h-15.127c-1.957,0-2.274-2.202-2.274-4.919l0,0
	c0-2.716,0.317-4.918,2.274-4.918h15.127C210.262,80.435,210.578,82.637,210.578,85.353L210.578,85.353z"/>
<path fill="#D1FFD8" d="M210.578,109.79c0,2.717-0.316,4.919-2.274,4.919h-15.127c-1.957,0-2.274-2.202-2.274-4.919l0,0
	c0-2.717,0.317-4.919,2.274-4.919h15.127C210.262,104.871,210.578,107.073,210.578,109.79L210.578,109.79z"/>
<rect x="143.516" y="154.694" fill="#C8C7CC" width="73.946" height="19.888"/>
<path fill="#D3F2EE" d="M172.608,125.495c0,2.748-0.712,4.974-1.587,4.974h-20.629c-0.875,0-1.586-2.226-1.586-4.974l0,0
	c0-2.745,0.711-4.971,1.586-4.971h20.629C171.896,120.524,172.608,122.75,172.608,125.495L172.608,125.495z"/>
<line fill="none" stroke="#9191AA" stroke-linecap="round" stroke-miterlimit="10" x1="44.71" y1="126.767" x2="65.022" y2="126.767"/>
<line fill="none" stroke="#9191AA" stroke-linecap="round" stroke-miterlimit="10" x1="44.709" y1="136.922" x2="65.021" y2="136.922"/>
<line fill="none" stroke="#9191AA" stroke-linecap="round" stroke-miterlimit="10" x1="45.133" y1="147.924" x2="65.444" y2="147.924"/>
<line fill="none" stroke="#9191AA" stroke-linecap="round" stroke-miterlimit="10" x1="45.557" y1="158.925" x2="65.867" y2="158.925"/>
<line fill="none" stroke="#CACAEC" stroke-linecap="round" stroke-miterlimit="10" x1="93.214" y1="96.3" x2="131.297" y2="96.3"/>
<line fill="none" stroke="#CACAEC" stroke-linecap="round" stroke-miterlimit="10" x1="93.69" y1="119.309" x2="131.773" y2="119.309"/>
<line fill="none" stroke="#CACAEC" stroke-linecap="round" stroke-miterlimit="10" x1="96.229" y1="143.11" x2="134.312" y2="143.11"/>
<line fill="none" stroke="#FFFFFF" stroke-linecap="round" stroke-miterlimit="10" x1="152.402" y1="163.581" x2="172.713" y2="163.581"/>
<line fill="none" stroke="#FFFFFF" stroke-linecap="round" stroke-miterlimit="10" x1="153.036" y1="168.658" x2="173.347" y2="168.658"/>
<text transform="matrix(1.3138 0 0 1 34.9424 83.1816)" fill="#FFFFFF" font-family="'ArialMT'" font-size="7.0583px">My Chats</text>
<g>
	<g>
		<path fill="#86B3B5" d="M96.962,85.527c-0.167-0.118-0.359-0.204-0.563-0.262l-0.213-0.057c0,0,0.003,0,0.004-0.001l-1.519-0.495
			l-1.403,1.816l-1.402-1.816l-1.52,0.495c0.001,0,0.002,0.001,0.004,0.001l-0.22,0.059c-0.175,0.048-0.344,0.116-0.49,0.213
			c-0.772,0.504-0.793,1.331-0.825,1.484c-0.002,0.013,0.008,0.024,0.023,0.024h4.429h4.43c0.015,0,0.027-0.011,0.023-0.024
			C97.689,86.817,97.68,86.035,96.962,85.527z"/>
		<path fill="#E5B295" d="M94.672,84.715l-0.167-0.053c-0.136-0.037-0.212-0.149-0.236-0.271c-0.068-0.353-0.06-1.198-0.059-1.349
			c0-0.013-0.01-0.022-0.023-0.022h-0.081h-1.673h-0.081c-0.014,0-0.023,0.009-0.023,0.022c0.001,0.149,0.009,0.979-0.059,1.349
			c-0.023,0.124-0.1,0.235-0.236,0.271l-0.167,0.053l1.402,1.815L94.672,84.715z"/>
	</g>
	<g>
		<g>
			<path fill="#F2B78B" d="M94.231,84.07c-0.007-0.394-0.022-0.764-0.021-0.863c0-0.016-0.01-0.027-0.023-0.027h-1.835
				c-0.013,0-0.024,0.011-0.024,0.027c0,0.1-0.015,0.472-0.023,0.867c0.131,0.136,0.617,0.33,0.943,0.333
				C93.588,84.409,94.091,84.178,94.231,84.07z"/>
		</g>
		<g>
			<path fill="#E5B295" d="M91.538,81.225c0.13,0.348,0.055,0.894-0.164,1c-0.221,0.104-0.504-0.27-0.633-0.619
				c-0.129-0.347-0.055-0.714,0.166-0.82C91.124,80.682,91.408,80.878,91.538,81.225z"/>
			<path fill="#E5B295" d="M95,81.225c-0.129,0.348-0.055,0.894,0.164,1c0.22,0.104,0.504-0.27,0.633-0.619
				c0.129-0.347,0.055-0.714-0.165-0.82C95.412,80.682,95.129,80.878,95,81.225z"/>
		</g>
		<path fill="#E5B295" d="M93.26,78.218c-2.183-0.072-2.215,2.018-2.181,2.707c0.022,0.502,0.142,1.231,0.249,1.593
			c0.06,0.208,0.171,0.556,0.329,0.707c0.425,0.406,0.955,0.765,1.282,0.891c0.059,0.022,0.188,0.031,0.321,0.031
			c0.132,0,0.263-0.009,0.319-0.031c0.328-0.125,0.855-0.485,1.282-0.891c0.159-0.151,0.27-0.499,0.331-0.707
			c0.106-0.362,0.224-1.09,0.249-1.593C95.473,80.235,95.44,78.146,93.26,78.218z"/>
		<g>
			<ellipse fill="#332113" cx="92.161" cy="81.022" rx="0.273" ry="0.338"/>
			<ellipse fill="#332113" cx="94.376" cy="81.022" rx="0.271" ry="0.338"/>
		</g>
		<g>
			<g>
				<path fill="#FFFFFF" d="M92.706,82.558c0.096,0.214,0.313,0.363,0.563,0.363s0.467-0.149,0.562-0.363H92.706z"/>
			</g>
		</g>
		<path fill="#843B13" d="M94.831,82.628c-0.042,0.104-0.187,0.11-0.239,0.01c-0.086-0.17-0.237-0.353-0.438-0.452
			c-0.49-0.241-0.871,0.056-0.871,0.056c0.204,0.005,0.468,0.05,0.58,0.247c0.392,0.691-0.557,0.804-0.595,0.767
			c-0.037,0.037-0.985-0.076-0.593-0.767c0.11-0.197,0.375-0.242,0.58-0.247c0,0-0.381-0.297-0.871-0.056
			c-0.202,0.099-0.352,0.282-0.438,0.452c-0.052,0.1-0.197,0.093-0.239-0.01c-0.164-0.392-0.418-1.089-0.595-1.782
			c0,0,0.041,0.859,0.206,1.609c0.104,0.476,0.237,1.614,1.654,2.114c0.161,0.057,0.428,0.057,0.59,0.001
			c1.435-0.499,1.554-1.639,1.658-2.115c0.165-0.749,0.206-1.609,0.206-1.609C95.249,81.539,94.993,82.236,94.831,82.628z"/>
	</g>
</g>
<g>
	<g>
		
			<linearGradient id="SVGID_1_" gradientUnits="userSpaceOnUse" x1="156.2344" y1="381.3257" x2="156.2344" y2="378.8263" gradientTransform="matrix(1 0 0 1 -63 -273.5)">
			<stop  offset="0" style="stop-color:#6B2405"/>
			<stop  offset="1" style="stop-color:#A44F22"/>
		</linearGradient>
		<path fill="url(#SVGID_1_)" d="M96.065,107.805c0.006-1.509-0.153-3.634-0.178-4.034c-0.038-0.613-0.185-1.227-0.512-1.73
			c-0.483-0.749-1.354-1.113-2.207-1.113c-0.853,0-1.725,0.364-2.207,1.113c-0.328,0.504-0.475,1.117-0.513,1.73
			c-0.025,0.398-0.082,2.52-0.007,4.029c0.843-0.174,1.792-0.269,2.794-0.269C94.252,107.534,95.215,107.632,96.065,107.805z"/>
	</g>
	<g>
		<path fill="#E5B295" d="M93.209,109.422c0.719,0,1.388-0.381,1.939-1.03l-0.948-0.297c-0.117-0.033-0.182-0.139-0.202-0.262
			c-0.059-0.342-0.052-1.234-0.051-1.38c0-0.011-0.009-0.021-0.021-0.021h-1.435c-0.012,0-0.02,0.01-0.02,0.021
			c0.001,0.146,0.006,1.024-0.051,1.38c-0.02,0.123-0.085,0.229-0.203,0.262l-0.947,0.297
			C91.821,109.041,92.489,109.422,93.209,109.422z"/>
		<path fill="#E5B295" d="M89.458,110.241L89.458,110.241c-0.001,0.012,0.004,0.02,0.011,0.022
			C89.462,110.261,89.458,110.253,89.458,110.241z"/>
		<path fill="#CCE5F2" d="M96.96,110.241c-0.006-0.027-0.009-0.073-0.018-0.135c0-0.004,0-0.006,0-0.008
			c-0.001-0.021-0.005-0.038-0.008-0.062c0-0.004,0-0.006-0.001-0.008c-0.003-0.023-0.007-0.045-0.01-0.07
			c-0.005-0.027-0.01-0.057-0.018-0.091c-0.019-0.087-0.045-0.188-0.083-0.292c-0.013-0.033-0.027-0.07-0.042-0.105
			c-0.04-0.088-0.086-0.181-0.146-0.266c-0.011-0.019-0.024-0.036-0.036-0.053c-0.04-0.053-0.081-0.104-0.13-0.154
			c-0.046-0.049-0.1-0.098-0.157-0.145c-0.036-0.025-0.072-0.055-0.11-0.078c-0.115-0.072-0.24-0.133-0.37-0.172l-0.679-0.211
			c-0.551,0.65-1.217,1.031-1.938,1.031c-0.72,0-1.389-0.381-1.938-1.031l-0.683,0.211c-0.075,0.025-0.149,0.053-0.22,0.087
			s-0.139,0.074-0.202,0.121c-0.123,0.091-0.225,0.194-0.307,0.301c-0.028,0.034-0.054,0.071-0.078,0.107
			c-0.011,0.019-0.024,0.036-0.034,0.056c-0.023,0.036-0.044,0.071-0.061,0.109c-0.028,0.057-0.053,0.111-0.074,0.163
			c-0.126,0.322-0.138,0.61-0.155,0.694c-0.002,0.012,0.003,0.021,0.011,0.023c0.003,0.002,0.005,0.003,0.009,0.003h3.73h3.729
			c0.004,0,0.007-0.001,0.009-0.003C96.956,110.261,96.962,110.253,96.96,110.241z"/>
	</g>
	<g>
		<path fill="#D39E7A" d="M93.953,107.204c-0.008-0.305-0.005-0.596-0.003-0.672c0-0.012-0.01-0.02-0.022-0.02h-1.435
			c-0.011,0-0.02,0.008-0.02,0.02c0,0.076,0.002,0.364-0.004,0.672C92.947,107.37,93.47,107.37,93.953,107.204z"/>
	</g>
	<g>
		<path fill="#E5B295" d="M91.479,104.596c0.129,0.308,0.056,0.788-0.164,0.88c-0.219,0.092-0.502-0.236-0.632-0.544
			c-0.129-0.306-0.056-0.628,0.164-0.722C91.067,104.117,91.35,104.291,91.479,104.596z"/>
		<path fill="#E5B295" d="M94.939,104.596c-0.13,0.308-0.055,0.788,0.164,0.88c0.22,0.092,0.502-0.236,0.632-0.544
			c0.129-0.306,0.055-0.628-0.165-0.722C95.352,104.117,95.068,104.291,94.939,104.596z"/>
	</g>
	<path fill="#E5B295" d="M93.209,101.568c-2.2-0.085-2.232,2.014-2.199,2.705c0.024,0.503,0.22,1.229,0.326,1.591
		c0.061,0.207,0.17,0.397,0.329,0.551c0.574,0.549,1.542,0.734,1.542,0.734s0.97-0.186,1.544-0.734
		c0.159-0.15,0.268-0.344,0.33-0.551c0.105-0.361,0.303-1.09,0.326-1.591C95.443,103.582,95.41,101.483,93.209,101.568z"/>
	<g>
		<g>
			<path fill="#FFFFFF" d="M92.646,105.902c0.097,0.216,0.312,0.364,0.562,0.364c0.251,0,0.465-0.148,0.563-0.364H92.646z"/>
		</g>
	</g>
	<circle fill="#E0916E" cx="91.741" cy="105.259" r="0.318"/>
	<circle fill="#E0916E" cx="94.558" cy="105.259" r="0.318"/>
	<path fill="#843B13" d="M93.474,102.024c0.527,0.067,1.396,0.895,1.896,2.113c0.057,0.141,0.271,0.086,0.25-0.064
		c-0.113-0.831-0.454-1.622-0.952-2.147c-0.181-0.19-0.389-0.353-0.618-0.397c-0.214-0.043-0.452,0.035-0.599,0.243
		c-0.018,0.024-0.023,0.058-0.018,0.087C93.442,101.923,93.448,102.021,93.474,102.024z"/>
	
		<linearGradient id="SVGID_2_" gradientUnits="userSpaceOnUse" x1="153.5541" y1="377.4404" x2="157.4962" y2="377.4404" gradientTransform="matrix(1 0 0 1 -63 -273.5)">
		<stop  offset="0" style="stop-color:#BA7959"/>
		<stop  offset="0.9246" style="stop-color:#A34C21"/>
	</linearGradient>
	<path fill="url(#SVGID_2_)" d="M94.484,101.691c0.004-0.3-0.359-0.473-0.667-0.502c-0.94-0.102-2.029,0.254-2.585,0.993
		c-0.556,0.738-0.623,1.826-0.671,2.736c-0.029,0.539,0.037,1.045,0.123,1.551c0.015,0.08,0.032,0.164,0.052,0.24
		c0.073-0.812,0.466-1.793,0.733-2.264c0.542-0.959,1.834-1.462,2.845-1.959C94.567,102.362,94.482,101.967,94.484,101.691z"/>
	<g>
		<g>
			<path fill="#332113" d="M94.317,104.058c0.158,0,0.284,0.156,0.284,0.348c0,0.034-0.005,0.069-0.012,0.102
				c-0.036-0.142-0.145-0.243-0.272-0.243c-0.13,0-0.237,0.102-0.273,0.243c-0.009-0.032-0.014-0.067-0.014-0.102
				C94.029,104.214,94.157,104.058,94.317,104.058z"/>
			<path fill="#332113" d="M92.103,104.245c-0.129,0-0.235,0.102-0.271,0.239c-0.011-0.031-0.014-0.064-0.014-0.099
				c0-0.187,0.128-0.34,0.287-0.34c0.159,0,0.287,0.15,0.287,0.34c0,0.034-0.006,0.067-0.014,0.099
				C92.339,104.347,92.232,104.245,92.103,104.245z"/>
			<path fill="#332113" d="M92.103,104.723c-0.129,0-0.235-0.1-0.271-0.238c0.036-0.136,0.143-0.239,0.271-0.239
				c0.129,0,0.236,0.102,0.272,0.239C92.339,104.623,92.232,104.723,92.103,104.723z"/>
		</g>
		<g>
			<polygon fill="#332113" points="92.036,104.287 91.691,104.188 91.825,104.37 			"/>
			<polygon fill="#332113" points="94.383,104.231 94.728,104.188 94.593,104.37 			"/>
		</g>
	</g>
</g>
<g>
	<circle fill="#FCC14F" cx="93.98" cy="130.034" r="4.867"/>
	<circle fill="#FFD450" cx="93.98" cy="130.034" r="4.081"/>
	<circle fill="#555454" cx="92.11" cy="128.938" r="0.503"/>
	<circle fill="#555454" cx="95.849" cy="128.938" r="0.503"/>
	<path fill="none" stroke="#F49748" stroke-linecap="round" stroke-miterlimit="10" d="M96.136,132.283
		c-0.004-0.014-0.471-1.536-2.155-1.536c-1.686,0-2.152,1.522-2.157,1.536"/>
</g>
<g>
	<path fill="#F7D9B5" d="M95.086,155.062c-0.005-0.017-0.009-0.028-0.012-0.044c-0.058-0.302-0.052-1.031-0.051-1.162
		c0-0.011-0.008-0.019-0.02-0.019h-0.07h-1.442h-0.069c-0.011,0-0.021,0.008-0.021,0.019c0,0.129,0.006,0.842-0.051,1.162
		c-0.002,0.016-0.006,0.03-0.011,0.044c0.278,0.073,0.57,0.314,0.874,0.314C94.514,155.377,94.807,155.136,95.086,155.062z"/>
	<g>
		<g>
			<path fill="#EFBC8B" d="M95.042,154.745c-0.006-0.341-0.019-0.661-0.019-0.747c0-0.011-0.008-0.021-0.02-0.021H93.42
				c-0.01,0-0.02,0.01-0.02,0.021c0,0.086-0.012,0.409-0.021,0.748c0.112,0.119,0.53,0.285,0.812,0.288
				C94.487,155.036,94.92,154.836,95.042,154.745z"/>
		</g>
		<g>
			<path fill="#F7D9B5" d="M92.721,152.294c0.11,0.299,0.048,0.768-0.143,0.858c-0.189,0.091-0.432-0.231-0.544-0.53
				c-0.11-0.299-0.048-0.617,0.143-0.708C92.366,151.824,92.608,151.993,92.721,152.294z"/>
			<path fill="#F7D9B5" d="M95.705,152.294c-0.112,0.299-0.049,0.768,0.141,0.858c0.189,0.091,0.434-0.231,0.545-0.53
				s0.049-0.617-0.142-0.708C96.06,151.824,95.814,151.993,95.705,152.294z"/>
		</g>
		<path fill="#F7D9B5" d="M94.195,149.636c-1.881-0.062-1.908,1.737-1.879,2.331c0.021,0.435,0.122,1.062,0.214,1.373
			c0.053,0.18,0.148,0.479,0.285,0.607c0.367,0.35,0.822,0.663,1.104,0.767c0.051,0.021,0.161,0.028,0.275,0.027
			c0.115,0.001,0.226-0.007,0.277-0.027c0.282-0.106,0.737-0.417,1.104-0.767c0.138-0.131,0.233-0.429,0.286-0.607
			c0.092-0.312,0.193-0.938,0.213-1.373C96.103,151.373,96.075,149.573,94.195,149.636z"/>
		<g>
			<g>
				<path fill="#FFFFFF" d="M93.728,153.441c0.084,0.186,0.27,0.313,0.485,0.313c0.214,0,0.401-0.129,0.484-0.313H93.728z"/>
			</g>
		</g>
		<g>
			<path fill="#5B77AA" d="M97.394,155.998c-0.143-0.101-0.308-0.176-0.483-0.226l-0.185-0.047c0-0.003,0.001-0.003,0.004-0.003
				l-1.454-0.471c-0.102-0.027-0.161-0.102-0.19-0.189c-0.278,0.073-0.571,0.314-0.873,0.314c-0.303,0-0.596-0.241-0.874-0.314
				c-0.028,0.088-0.091,0.163-0.19,0.189l-1.454,0.471c0.001,0,0.002,0,0.003,0.003l-0.189,0.049
				c-0.151,0.043-0.296,0.102-0.423,0.186c-0.665,0.435-0.684,1.146-0.71,1.278c-0.003,0.012,0.007,0.022,0.02,0.022h3.816h3.814
				c0.013,0,0.023-0.011,0.021-0.022C98.021,157.109,98.012,156.437,97.394,155.998z"/>
		</g>
		<g>
			<path fill="#332113" d="M93.262,151.867c0.146,0,0.264,0.112,0.264,0.25s-0.119,0.247-0.264,0.247
				c-0.146,0-0.264-0.175-0.264-0.311C92.998,151.917,93.116,151.867,93.262,151.867z"/>
			<path fill="#332113" d="M95.159,151.867c0.146,0,0.264,0.05,0.264,0.187c0,0.136-0.118,0.312-0.264,0.312
				s-0.264-0.11-0.264-0.248S95.012,151.867,95.159,151.867z"/>
		</g>
	</g>
	<g>
		<g>
			<g>
				<path fill="#3B4443" d="M92.537,151.563c0.08-0.402,0.211-0.79,0.389-1.151c-0.055-0.089-0.227-0.115-0.323-0.089
					c-0.623,0.874-0.239,2.075-0.172,2.302C92.488,152.274,92.467,151.917,92.537,151.563z"/>
			</g>
		</g>
	</g>
	<g>
		<g>
			<g>
				<path fill="#3B4443" d="M95.83,151.563c-0.08-0.402-0.211-0.79-0.389-1.151c0.056-0.089,0.228-0.115,0.323-0.089
					c0.624,0.874,0.241,2.075,0.172,2.302C95.881,152.274,95.9,151.917,95.83,151.563z"/>
			</g>
		</g>
	</g>
	
		<linearGradient id="SVGID_3_" gradientUnits="userSpaceOnUse" x1="156.7211" y1="424.2339" x2="156.7211" y2="423.1687" gradientTransform="matrix(1 0 0 1 -63 -273.5)">
		<stop  offset="0.1457" style="stop-color:#423A40"/>
		<stop  offset="1" style="stop-color:#665F72"/>
	</linearGradient>
	<path fill="url(#SVGID_3_)" d="M94.42,150.712c-0.371,0.081-0.755,0.047-1.134,0.085c-0.377,0.038-0.777,0.174-0.984,0.492
		c-0.156-0.836,0.344-1.534,1.084-1.832c0.493-0.198,1.374-0.181,1.684,0.31C95.386,150.262,94.883,150.611,94.42,150.712z"/>
	
		<linearGradient id="SVGID_4_" gradientUnits="userSpaceOnUse" x1="158.0343" y1="424.2339" x2="158.0343" y2="423.169" gradientTransform="matrix(1 0 0 1 -63 -273.5)">
		<stop  offset="0.1457" style="stop-color:#423A40"/>
		<stop  offset="1" style="stop-color:#665F72"/>
	</linearGradient>
	<path fill="url(#SVGID_4_)" d="M94.464,150.503c0.276,0.116,0.579,0.154,0.866,0.244c0.287,0.088,0.576,0.248,0.689,0.507
		c0.246-0.564-0.142-1.16-0.671-1.489c-0.353-0.223-0.935-0.334-1.248-0.038C93.784,150.026,94.121,150.355,94.464,150.503z"/>
	<g>
		<path fill="#9DADCC" d="M93.328,154.944l-0.298,0.203l0.64,0.963l0.596-0.734C94.265,155.376,93.373,155.147,93.328,154.944z"/>
		<path fill="#9DADCC" d="M95.096,154.944l0.298,0.203l-0.64,0.963l-0.594-0.734C94.161,155.376,95.052,155.147,95.096,154.944z"/>
	</g>
</g>
<circle fill="#C52431" cx="97.14" cy="79.308" r="0.886"/>
<line fill="none" stroke="#FFFFFF" stroke-width="0.1" stroke-linecap="round" stroke-miterlimit="10" x1="97.134" y1="78.824" x2="97.128" y2="79.797"/>
<path fill="#D1FFD8" d="M210.58,141.949c0,2.716-0.317,4.919-2.276,4.919h-15.127c-1.956,0-2.273-2.203-2.273-4.919l0,0
	c0-2.717,0.317-4.919,2.273-4.919h15.127C210.263,137.03,210.58,139.232,210.58,141.949L210.58,141.949z"/>
<text transform="matrix(1.3138 0 0 1 37.2759 119.5146)" enable-background="new    "><tspan x="0" y="0" fill="#FFFFFF" font-family="'ArialMT'" font-size="7.0583px">T</tspan><tspan x="4.05" y="0" fill="#FFFFFF" font-family="'ArialMT'" font-size="7.0583px">ransfer</tspan></text>
<g>
	<g>
		<path fill="#757584" d="M296.359,142.56h-40.988c-2.41,0-4.371,1.961-4.371,4.371v26.699c0,2.41,1.961,4.371,4.371,4.371h40.988
			c2.41,0,4.371-1.961,4.371-4.371v-26.699C300.729,144.521,298.769,142.56,296.359,142.56z M297.815,173.629
			c0,0.803-0.654,1.457-1.457,1.457h-40.988c-0.803,0-1.457-0.654-1.457-1.457v-20.929h43.902V173.629z M297.815,149.787h-43.902
			v-2.856c0-0.803,0.654-1.457,1.457-1.457h40.988c0.803,0,1.457,0.654,1.457,1.457V149.787z"/>
	</g>
</g>
<g>
	<g>
		<path fill="#D28900" d="M267.681,156.518c-2.598,0-4.712,2.114-4.712,4.712v6.358c0,0.805,0.652,1.457,1.457,1.457
			s1.457-0.652,1.457-1.457v-2.762h3.596v2.762c0,0.805,0.652,1.457,1.457,1.457c0.805,0,1.457-0.652,1.457-1.457v-6.358
			C272.393,158.631,270.279,156.518,267.681,156.518z M269.479,161.912h-3.596v-0.682h0c0-0.991,0.807-1.798,1.798-1.798
			c0.991,0,1.798,0.807,1.798,1.798V161.912L269.479,161.912z"/>
	</g>
</g>
<g>
	<g>
		<path fill="#D28900" d="M279.677,156.518h-3.813c-0.805,0-1.457,0.652-1.457,1.457v9.613c0,0.805,0.652,1.457,1.457,1.457
			s1.457-0.652,1.457-1.457v-2.762h2.356c2.291,0,4.154-1.864,4.154-4.154C283.832,158.381,281.968,156.518,279.677,156.518z
			 M279.677,161.912h-2.356v-2.48h2.356c0.684,0,1.24,0.556,1.24,1.24C280.918,161.356,280.361,161.912,279.677,161.912z"/>
	</g>
</g>
<g>
	<g>
		<path fill="#D28900" d="M287.303,156.518c-0.805,0-1.457,0.652-1.457,1.457v9.613c0,0.805,0.652,1.457,1.457,1.457
			s1.457-0.652,1.457-1.457v-9.613C288.76,157.17,288.108,156.518,287.303,156.518z"/>
	</g>
</g>
<line fill="none" stroke="#CDD5D8" stroke-width="3" stroke-linecap="round" x1="248.547" y1="162.038" x2="226.352" y2="156.746"/>
<line fill="none" stroke="#CDD5D8" stroke-width="3" stroke-linecap="round" x1="248.467" y1="115.433" x2="226.431" y2="121.352"/>
<g>
	<g>
		<path fill="#757584" d="M296.359,97.56h-40.988c-2.41,0-4.371,1.961-4.371,4.371v26.699c0,2.41,1.961,4.371,4.371,4.371h40.988
			c2.41,0,4.371-1.961,4.371-4.371v-26.699C300.729,99.521,298.769,97.56,296.359,97.56z M297.815,128.629
			c0,0.803-0.654,1.457-1.457,1.457h-40.988c-0.803,0-1.457-0.654-1.457-1.457v-20.929h43.902V128.629z M297.815,104.787h-43.902
			v-2.856c0-0.803,0.654-1.457,1.457-1.457h40.988c0.803,0,1.457,0.654,1.457,1.457V104.787z"/>
	</g>
</g>
<path fill="#12A89D" stroke="#12A89D" stroke-miterlimit="10" d="M264.87,114.435c1.045,0,2.028,0.407,2.767,1.146
	c0.306,0.306,0.801,0.306,1.107,0c0.306-0.306,0.306-0.801,0-1.107c-2.136-2.136-5.612-2.136-7.747,0
	c-1.035,1.035-1.605,2.41-1.605,3.874c0,1.463,0.57,2.839,1.605,3.874c1.068,1.068,2.471,1.602,3.874,1.602s2.806-0.534,3.874-1.602
	c0.306-0.306,0.306-0.801,0-1.107c-0.306-0.306-0.801-0.306-1.107,0c-0.739,0.739-1.722,1.146-2.767,1.146s-2.028-0.407-2.767-1.146
	c-0.739-0.739-1.146-1.722-1.146-2.767s0.407-2.028,1.146-2.767C262.842,114.842,263.824,114.435,264.87,114.435z"/>
<path fill="#12A89D" stroke="#12A89D" stroke-miterlimit="10" d="M275.828,120.37c1.382-0.605,2.35-1.985,2.35-3.587
	c0-2.158-1.755-3.913-3.913-3.913h-3.134c-0.432,0-0.783,0.35-0.783,0.783c0,0.026,0.001,0.052,0.004,0.078v9.314
	c0,0.432,0.35,0.783,0.783,0.783s0.783-0.35,0.783-0.783v-8.609h2.348c1.295,0,2.348,1.053,2.348,2.348s-1.053,2.348-2.348,2.348
	c-0.317,0-0.602,0.191-0.723,0.483c-0.121,0.292-0.054,0.629,0.17,0.853l3.13,3.13c0.153,0.153,0.353,0.229,0.553,0.229
	s0.401-0.076,0.553-0.229c0.306-0.306,0.306-0.801,0-1.107L275.828,120.37z"/>
<path fill="#12A89D" stroke="#12A89D" stroke-miterlimit="10" d="M288.548,112.895c-0.345-0.089-0.707,0.066-0.88,0.378
	l-3.229,5.812l-3.229-5.812c-0.173-0.312-0.535-0.467-0.88-0.378c-0.345,0.089-0.586,0.401-0.586,0.758v9.391
	c0,0.432,0.35,0.783,0.783,0.783c0.432,0,0.783-0.35,0.783-0.783v-6.371l2.446,4.403c0.138,0.248,0.4,0.403,0.684,0.403
	s0.546-0.154,0.684-0.403l2.446-4.403v6.371c0,0.432,0.35,0.783,0.783,0.783c0.432,0,0.783-0.35,0.783-0.783v-9.391
	C289.134,113.296,288.893,112.984,288.548,112.895z"/>
</svg>
