<?xml version="1.0" encoding="utf-8"?>
<!-- Generator: Adobe Illustrator 16.0.0, SVG Export Plug-In . SVG Version: 6.00 Build 0)  -->
<!DOCTYPE svg PUBLIC "-//W3C//DTD SVG 1.1//EN" "http://www.w3.org/Graphics/SVG/1.1/DTD/svg11.dtd">
<svg version="1.1" id="Layer_1" xmlns="http://www.w3.org/2000/svg" xmlns:xlink="http://www.w3.org/1999/xlink" x="0px" y="0px"
	 width="250px" height="186px" viewBox="0 0 250 186" enable-background="new 0 0 250 186" xml:space="preserve">
<g>
	<g>
		<g>
			<g>
				<g>
					<g>
						<path fill="#415168" d="M215.969,68.575c-5.193,0-74.386,0-74.386,0s-69.194,0-74.387,0c-5.194,0-4.617,4.499-4.617,4.499
							v90.81h158.006v-90.81C220.585,73.074,221.162,68.575,215.969,68.575z"/>
						<path fill="#FFFFFF" d="M214.039,160.167H69.231c-0.776,0-1.406-0.63-1.406-1.406V75.062c0-0.777,0.63-1.407,1.406-1.407
							h144.808c0.773,0,1.404,0.63,1.404,1.407v83.699C215.443,159.537,214.812,160.167,214.039,160.167z"/>
					</g>
					<g>
						<rect x="43.746" y="163.225" fill="#E2E5DA" width="195.464" height="3.776"/>
						<rect x="229.766" y="163.225" fill="#F4F4F4" width="9.444" height="3.776"/>
						<rect x="43.746" y="163.225" fill="#F4F4F4" width="9.443" height="3.776"/>
						<path fill="#828485" d="M141.398,167.001H43.746c0,0,2.348,2.16,6.63,2.16c4.282,0,91.022,0,91.022,0s86.74,0,91.021,0
							s6.63-2.16,6.63-2.16H141.398z"/>
					</g>
				</g>
				<rect x="67.825" y="73.654" fill="none" width="147.575" height="7.855"/>
				<path fill="#FFFFFF" d="M211.145,79.622h-33.646c-0.657,0-1.197-0.539-1.197-1.197V77.67c0-0.657,0.54-1.196,1.197-1.196h33.646
					c0.656,0,1.195,0.539,1.195,1.196v0.755C212.34,79.083,211.801,79.622,211.145,79.622z"/>
				<g>
					<circle fill="#ED4545" cx="70.194" cy="76.522" r="1.368"/>
					<circle fill="#D3AF16" cx="74.232" cy="76.522" r="1.368"/>
					<circle fill="#47EA78" cx="78.172" cy="76.522" r="1.368"/>
				</g>
				<circle fill="#E2E2E2" cx="141.479" cy="70.913" r="1.101"/>
				<circle fill="#415168" cx="141.479" cy="70.913" r="0.737"/>
			</g>
		</g>
	</g>
</g>
<g>
	<g>
		<ellipse opacity="0.5" fill="#CA9337" enable-background="new    " cx="148.039" cy="176.239" rx="99.961" ry="8.276"/>
		<ellipse opacity="0.5" fill="#CA9337" enable-background="new    " cx="68.828" cy="178.857" rx="66.861" ry="4.186"/>
	</g>
</g>
<g>
	<g>
		<path fill="#F2AC71" d="M36.729,52.867c0,3.448-2.876,4.676-4.627,5.087c-1.751,0.412,9.875,9.645,9.875,9.129
			c0-0.515-0.824-16.792-0.824-16.792S38.577,50.498,36.729,52.867z"/>
		<path fill="#F2AC71" d="M44.676,52.867c0,3.448,2.876,4.676,4.628,5.087c1.751,0.412-9.875,9.645-9.875,9.129
			c0-0.515,0.824-16.792,0.824-16.792S42.831,50.498,44.676,52.867z"/>
		<rect x="36.729" y="36.562" fill="#F2AC71" width="7.949" height="24.361"/>
		<polygon fill="#CC8C58" points="36.729,45.323 44.676,45.323 44.676,50.042 36.729,54.026 		"/>
		<g>
			<path fill="#F2AC71" d="M21.128,25.546c1.694-0.456,3.699,1.205,4.479,3.71c0.779,2.506,0.039,4.908-1.655,5.364
				c-1.694,0.458-3.699-1.204-4.478-3.711C18.694,28.405,19.437,26.002,21.128,25.546z"/>
			<path fill="#F2AC71" d="M60.275,25.546c-1.693-0.456-3.698,1.205-4.478,3.71c-0.78,2.506-0.039,4.908,1.656,5.364
				c1.693,0.458,3.699-1.204,4.478-3.711C62.71,28.405,61.97,26.002,60.275,25.546z"/>
		</g>
		<path fill="#F2AC71" d="M40.959,50.421c-3.462,0-13.18-5.094-15.875-8.676s-3.742-16.454-3.102-22.097
			c0.641-5.641,7.052-16.154,18.719-16.154S58.779,14.008,59.42,19.648c0.642,5.643-0.406,18.515-3.101,22.097
			C53.625,45.327,44.421,50.421,40.959,50.421z"/>
		<path fill="#CC8C58" d="M59.103,31.635c-0.321-1.255-0.864-1.675-1.1,0.455c-0.366,3.293-4.391,10.122-7.562,12.196
			c-3.171,2.073-1.097-0.122-0.854-3.903c0.244-3.781-2.815-3.534-5.062-2.502c-1.438,0.662-2.848,1.026-4.01,1.074v1.47
			c2.637-0.137,3.007-0.511,5.474-1.568c2.561-1.098,3.231-0.303,2.5,2.259c-0.731,2.561-1.283,4.208-3.844,5.671
			c-2.562,1.464-2.076-0.729-3.967-0.61c-0.056,0.004-0.109,0.009-0.162,0.013v4.207c0.157,0.016,0.306,0.025,0.444,0.025
			c3.462,0,12.667-5.094,15.361-8.676C57.651,39.978,58.58,35.944,59.103,31.635z M40.516,38.955
			c-0.652,0.026-1.227-0.044-1.684-0.22c-1.442-0.551-5.004-1.792-6.748,0.067c-1.828,1.951-0.055,6.654-2.738,4.46
			c-2.684-2.195-5.739-5.93-5.739-10.075c0-3.446-1.095-3.019-1.255-1.166c0.53,4.162,1.443,8.008,2.733,9.724
			c2.588,3.438,11.648,8.271,15.43,8.65v-4.207c-1.713,0.175-1.487,1.258-3.144,0.901c-1.708-0.365-2.353,0.013-4.06-1.573
			c-1.708-1.587-0.98-3.673-0.248-6.111c1.22-1.464,4.209,1.156,7.136,1.034c0.108-0.005,0.213-0.009,0.315-0.015v-1.469H40.516z"/>
		<path fill="#CC8C58" d="M39.101,29.525c0,1.874-0.195,3.169-0.507,4.795c-0.312,1.625-1.187,3.172,0.375,3.795
			c1.562,0.626,2.342,0.626,3.383-0.249s0.884,0.062,0.156,0.625s-2.55,1.126-3.799,0.312c-1.249-0.812-1.414-0.107-0.686-4.047
			C38.75,30.819,38.943,28.211,39.101,29.525z"/>
		<path fill="#CC8C58" d="M33.537,40.547c0.854,0.109,1.082,1.185,3.871,1.402c2.789,0.215,6.237-0.272,7.375-0.959
			c1.138-0.688,1.081-1.003,2.219-1.316c1.139-0.312,1.423,0.767-0.114,0.994c-1.537,0.229-0.967,0.509-2.049,1.013
			s-6.009,1.098-7.489,0.827c-1.479-0.27-2.732-0.839-3.7-1.079C32.683,41.188,32.456,40.3,33.537,40.547z"/>
		<path fill="#CC8C58" d="M37.674,44.117c2.04,0.847,3.661,0.71,5.075,0.146c1.414-0.563,1.433-0.154-0.219,0.698
			c-1.4,0.725-2.872,0.73-4.479-0.106C36.446,44.018,36.905,43.713,37.674,44.117z"/>
		<path fill="#4E2700" d="M31.07,172.969c-1.333,0.967-5.517,3.035-6.391,3.402c-0.873,0.369-0.367,1.84,3.081,1.932
			c2.21,0.059,6.707-0.619,9.771-1.828c1.716-0.676,2.984-1.52,3.15-2.494C41.14,171.268,33.966,170.764,31.07,172.969z"/>
		<path fill="#4E2700" d="M55.1,172.969c1.334,0.967,5.517,3.035,6.391,3.402s0.368,1.84-3.081,1.932
			c-2.21,0.059-6.705-0.619-9.77-1.828c-1.717-0.676-2.984-1.52-3.149-2.494C45.03,171.268,52.204,170.764,55.1,172.969z"/>
		<path fill="#425051" d="M29.16,92.826c-0.855,6.844-1.283,20.411,0.427,33.237c1.711,12.826,2.566,32.641,2.566,37.631
			c0,4.986-0.855,8.691-0.855,8.691s0.998,1,4.419,1c3.42,0,5.131,0.145,5.131,0.145s-0.428-3.705-0.57-9.268
			c-0.142-5.561-1.283-30.076-1.141-38.627c0.143-8.555-0.396-15.312,0.696-15.242c0.613,0.041,1.389,0.041,2.001,0
			c1.087-0.07,1.021,6.688,1.761,15.242c0.74,8.551,1.312,33.066,1.558,38.627c0.246,5.562,0.077,9.268,0.077,9.268
			s1.701-0.145,5.122-0.145s4.349-1,4.349-1s-1.114-3.705-1.462-8.691c-0.349-4.99-0.877-24.805-0.063-37.631
			c0.814-12.826-0.151-26.395-1.485-33.237C50.741,93.302,30.096,93.279,29.16,92.826z"/>
		<path fill="#5F7D6C" d="M26.32,60.204c-2.39,1.55,2.846,23.053,1.234,39.938c-0.161,1.68,4.074,3.373,13.148,3.139
			c9.074,0.234,13.305-1.459,13.148-3.139c-2.72-29.152,3.624-38.388,1.233-39.938c-2.277-1.478-5.676-2.981-8.909-3.933
			c-1.07,1.245-3.12,2.09-5.473,2.09s-4.402-0.845-5.473-2.09C31.999,57.223,28.599,58.727,26.32,60.204z"/>
		<path fill="#5F7D6C" d="M26.321,60.204C24.187,61.346,8.904,72.108,7.103,73.409c-1.803,1.302-1.528,5.608,1.36,4.501
			c2.889-1.105,14.203-6.141,17.676-8.319C29.61,67.412,28.263,59.165,26.321,60.204z"/>
		<path fill="#F2AC71" d="M2.015,64.863c-0.398-1.682-1.663-3.687-3.348-4.606c-1.684-0.92-3.25-4.06-3.828-5.367
			c-0.577-1.309-0.259-2.384,0.118-2.22c-0.859-1.31-0.008-2.637,0.833-1.846c-0.11-1.193,0.812-2.253,1.537-0.562
			c0.658-1.737,1.732,0.463,1.972,1.203c0.48,1.478,2.049,4.883,2.945,4.786c1.936-0.209,0.088-3.429,0.951-3.764
			c0.862-0.336,1.42,1.282,1.789,2.628c0.369,1.347,0.96,2.517,0.232,3.774S3.418,61.64,4.075,63.78
			C4.731,65.92,2.394,66.553,2.015,64.863z"/>
		<path fill="#5F7D6C" d="M9.722,73.597c-1.337-2.55-4.83-11.179-4.83-11.179l-4.116,1.823c0,0,3.121,8.812,4.039,11.248
			C6.848,80.869,11.445,76.881,9.722,73.597z"/>
		<path fill="#CC8C58" d="M-5.234,52.695c0.059-0.043,0.124-0.054,0.191-0.024c-0.062-0.095-0.115-0.188-0.159-0.282
			c1.39,1.882,2.279,4.213,2.468,4.503c0.199,0.306,0.812-0.147,0.596-0.576c-0.217-0.427-1.43-3.313-1.961-4.561
			c-0.194-0.456-0.334-0.812-0.452-1.141c0.111,0.034,0.227,0.104,0.342,0.211l-0.005-0.081l0.007,0.022
			c0.534,1.756,2.019,4.817,2.36,5.481c0.341,0.665,0.896,0.32,1.118-0.036c0.224-0.358-0.131-0.945-0.579-2.034
			c-0.448-1.09-1.148-3.16-1.399-3.889c-0.058-0.167-0.116-0.307-0.172-0.432c0.07,0.111,0.14,0.246,0.208,0.406
			c0.021-0.06,0.045-0.114,0.068-0.163l0.022,0.061c0.322,0.907,1.953,5.091,2.278,5.578c0.326,0.488,1.392,0.337,1.801,0.055
			l0.007-0.006c0.27,0.308,0.524,0.488,0.741,0.465c0.677-0.073,0.891-0.516,0.921-1.071c0.022,1.824,1.011,3.063,0.784,2.788
			c-1.652-2.001-3.858-1.427-4.587-1.253c-0.975,0.23-1.822,0.618-2.665,0.92c-0.843,0.305,0.395-0.335,0.356-0.652
			c-0.039-0.318-0.354-0.829-0.785-1.827C-4.125,54.242-4.586,53.542-5.234,52.695z"/>
		<path fill="#5F7D6C" d="M55.372,60.597c1.417,1.768,4.874,24.314,5.564,26.428c0.69,2.114-2.068,5.431-3.75,2.836
			c-1.683-2.597-4.509-15.416-6.032-19.224C49.628,66.832,53.994,58.88,55.372,60.597z"/>
		<path fill="#F2AC71" d="M59.806,103.014c-0.183,1.721,0.348,4.031,1.633,5.457c1.285,1.424,1.723,4.904,1.834,6.332
			c0.112,1.426-0.544,2.332-0.847,2.055c0.377,1.521-0.865,2.488-1.398,1.467c-0.29,1.162-1.512,1.854-1.636,0.021
			c-1.196,1.42-1.482-1.01-1.462-1.789c0.037-1.555-0.393-5.51-1.24-5.816c-0.962-0.352,0.183,3.811-0.743,3.844
			c-0.924,0.031-1.242-1.961-1.144-3.355c0.098-1.391-0.072-2.689,1.031-3.637c1.103-0.945,1.58-2,1.669-4.234
			C57.592,101.117,60.008,101.295,59.806,103.014z"/>
		<polygon fill="#425051" points="46.873,105.646 53.408,111.453 48.216,117.746 43.633,112.797 		"/>
		<path fill="#5F7D6C" d="M60.854,88.294c0.056,2.879-0.324,16.674-0.324,16.674l-4.567-0.145c0,0,0.615-14.839,0.258-16.635
			C55.1,82.548,60.786,84.731,60.854,88.294z"/>
		<path fill="#4E2700" d="M25.339,16.331c2.204-1.499,10.798-0.983,12.774,0.259c1.976,1.242,3.073,1.243,4.83,0.178
			c1.756-1.063,8.343-1.597,11.636-0.709c3.293,0.885,3.755,7.957,3.536,11.862c-0.22,3.903-0.838,6.159,0.379,8.178
			c0.679,1.128,1.498-8.228,1.716-11.953c0.22-3.726,3.513-7.808,1.756-12.953c-1.757-5.145-5.269-7.452-4.391-5.501
			c0.877,1.953-2.854,2.84-7.245-0.71c-4.39-3.549-10.318-5.146-16.904-4.969c-6.587,0.178-5.928,1.065-1.757,1.243
			c4.171,0.177,1.756,1.241-4.171,1.597C21.57,3.208,19.595,3.917,16.082,5.87c-3.512,1.951-2.854,2.661,0.659,1.242
			c3.513-1.42,4.793-0.523,1.976,0.533c-2.412,0.902-5.704,5.7-3.069,3.748c2.635-1.951,2.996,1.186,3.712,3.688
			c0.521,1.819,2.431,2.501,2.431,6.76c0,4.258-0.069,14.622,1.317,13.485C24.684,34.033,22.217,18.459,25.339,16.331z"/>
		<path fill="#222A2B" d="M47.855,32.782c0.949,0,1.722-1.104,1.722-2.46s-0.773-2.46-1.722-2.46c-0.948,0-1.722,1.104-1.722,2.46
			S46.908,32.782,47.855,32.782z"/>
		<ellipse fill="#FFFFFF" cx="48.387" cy="29.42" rx="0.736" ry="1.052"/>
		<path fill="#4E2700" d="M45.536,27.015c1.476-0.134,3.343-0.557,4.913-0.254c1.57,0.304,2.011-0.163,0.153-0.86
			c-1.622-0.607-3.246-0.792-5.015-0.659C44.018,25.361,44.224,27.134,45.536,27.015z"/>
		<path fill="#222A2B" d="M33.414,32.782c0.949,0,1.722-1.104,1.722-2.46s-0.773-2.46-1.722-2.46c-0.948,0-1.722,1.104-1.722,2.46
			S32.465,32.782,33.414,32.782z"/>
		<ellipse fill="#FFFFFF" cx="33.924" cy="29.42" rx="0.736" ry="1.052"/>
		<path fill="#4E2700" d="M35.733,27.015c-1.477-0.134-3.343-0.557-4.913-0.254c-1.569,0.304-2.011-0.163-0.151-0.86
			c1.62-0.607,3.246-0.792,5.015-0.659C37.251,25.361,37.045,27.134,35.733,27.015z"/>
		<g>
			<path fill="#333333" d="M31.846,27.235h4.94c0.601,0,1.147,0.245,1.542,0.641c0.396,0.396,0.642,0.942,0.642,1.542v3.78
				c0,0.601-0.246,1.146-0.642,1.542c-0.395,0.396-0.941,0.642-1.542,0.642h-4.94v-1.05h4.94c0.311,0,0.594-0.129,0.8-0.334
				c0.205-0.206,0.333-0.487,0.333-0.8v-3.78c0-0.311-0.128-0.594-0.333-0.8c-0.206-0.205-0.489-0.332-0.8-0.332h-4.94V27.235z
				 M26.904,27.235h4.94v1.051h-4.94c-0.311,0-0.594,0.127-0.799,0.332c-0.206,0.206-0.333,0.489-0.333,0.8v3.78
				c0,0.312,0.128,0.594,0.333,0.8c0.205,0.205,0.488,0.334,0.799,0.334h4.94v1.05h-4.94c-0.601,0-1.146-0.246-1.542-0.642
				c-0.395-0.396-0.64-0.941-0.64-1.542v-3.78c0-0.6,0.246-1.146,0.64-1.542C25.758,27.48,26.305,27.235,26.904,27.235z"/>
			<rect x="38.443" y="28.957" fill="#333333" width="4.443" height="1.053"/>
			<path fill="#333333" d="M24.069,27.243h3.76l-2.274,1.491h-1.486c-0.191,0-0.348-0.156-0.348-0.349v-0.793
				C23.722,27.401,23.878,27.243,24.069,27.243z"/>
			<path fill="#333333" d="M54.5,28.285h-4.94v-1.051h4.94c0.6,0,1.146,0.245,1.542,0.641c0.396,0.396,0.642,0.942,0.642,1.542v3.78
				c0,0.601-0.246,1.146-0.642,1.542c-0.395,0.396-0.941,0.642-1.542,0.642h-4.94v-1.05h4.94c0.311,0,0.594-0.129,0.8-0.334
				c0.205-0.206,0.332-0.487,0.332-0.8v-3.78c0-0.312-0.127-0.594-0.332-0.8C55.096,28.412,54.812,28.285,54.5,28.285z
				 M49.561,28.285H44.62c-0.311,0-0.594,0.127-0.799,0.332c-0.206,0.206-0.333,0.489-0.333,0.8v3.78c0,0.312,0.127,0.594,0.333,0.8
				c0.206,0.205,0.489,0.334,0.799,0.334h4.941v1.05H44.62c-0.6,0-1.146-0.246-1.542-0.642c-0.395-0.396-0.641-0.941-0.641-1.542
				v-3.78c0-0.6,0.246-1.146,0.641-1.542c0.396-0.396,0.942-0.641,1.542-0.641h4.941V28.285z"/>
			<path fill="#333333" d="M57.335,27.243h-3.76l2.275,1.491h1.485c0.191,0,0.348-0.156,0.348-0.349v-0.793
				C57.684,27.401,57.526,27.243,57.335,27.243z"/>
		</g>
		<path fill="#486354" d="M26.238,70.185c0.839,8.144,2.318,19.872,1.354,29.958c-0.16,1.68,4.075,3.373,13.149,3.139
			c9.074,0.234,13.309-1.459,13.148-3.139c-0.618-6.477-1.049-16.254-0.47-22.7c0.083-0.922,0.269-1.897,0.369-2.748
			c-0.17-3.429-0.459-8.861,0.136-11.832c0.594-2.969-1.332,1.979-1.466,5.734c-0.134,3.758-0.728,10.691-0.594,15.389
			c0.134,4.695,0.805,13.239,0.134,15.923s-9.2,2.5-11.615,2.5s-6.306,0.268-8.587-0.672c-2.281-0.939-2.549-2.551-2.281-6.439
			c0.268-3.892-0.939-11.807-1.341-16.636c-0.403-4.831-1.208-12.746-1.208-15.968c-0.255-1.443-0.634,1.116-0.634,3.298
			C26.333,66.971,26.333,68.565,26.238,70.185z"/>
		<path fill="#486354" d="M6.062,75.13c-0.374,1.651,0.364,3.561,2.399,2.78c2.889-1.105,14.203-6.141,17.676-8.319
			c0.139-0.087,0.271-0.187,0.395-0.293c0.264-3.607,0.299-6.723,0.104-5.748c-0.332,1.654-0.552,4.967-1.767,5.85
			c-1.214,0.883-7.615,3.752-10.705,5.298c-3.091,1.545-6.292,2.869-7.395,1.545C6.588,76.025,6.348,75.637,6.062,75.13z"/>
		<path fill="#486354" d="M0.807,64.329c0.325,0.917,3.143,8.867,4.008,11.16c1.409,3.726,4.047,2.958,4.963,1.041
			c-1.349,0.374-2.446,0.383-3.006-0.288c-1.104-1.324-4.415-8.83-5.96-11.92L0.807,64.329z"/>
		<path fill="#486354" d="M60.532,104.916l-0.001,0.053l-4.567-0.145c0,0,0.615-14.839,0.258-16.635
			c-0.311-1.566-0.097-2.528,0.377-3.027c0.282,0.833,0.516,1.478,0.667,1.843c0.682,1.635-0.136,4.769-0.136,7.491
			c0,2.725-0.544,9.262,0.681,9.262C58.859,103.758,59.511,104.658,60.532,104.916z"/>
		<path fill="#486354" d="M57.462,90.226c-0.095-0.104-0.188-0.228-0.277-0.364c-1.3-2.005-3.282-10.11-4.819-15.452
			c0.294-0.368,0.608-0.713,0.949-1.024c0.954,4.768,3.27,11.986,3.949,13.62C57.596,87.799,57.572,88.946,57.462,90.226z"/>
		<g>
			<path fill="#253233" d="M28.491,102.213c-0.222,6.904-0.013,15.531,1.096,23.852c1.711,12.826,2.566,32.641,2.566,37.629
				s-0.855,8.693-0.855,8.693s0.998,1,4.419,1c0.602,0,1.15,0.004,1.647,0.012c-2.769-0.545-4.484-1.662-3.997-3.484
				c0.671-2.521-0.504-19.82-0.504-27.213c0-7.391-3.192-29.896-4.367-40.479L28.491,102.213z"/>
			<path fill="#253233" d="M39.528,110.611c0.083-0.148,0.184-0.227,0.305-0.217c0.613,0.041,1.389,0.041,2.001,0
				c1.087-0.072,1.021,6.689,1.761,15.242c0.74,8.551,1.312,33.066,1.558,38.627c0.246,5.561,0.077,9.268,0.077,9.268
				s1.701-0.145,5.122-0.145c1.656,0,2.728-0.232,3.393-0.475c-4.333,0.938-6.932-0.074-6.771-2.16
				c0.168-2.184-1.008-22.676-1.008-28.891c0-6.217-1.176-20.996-1.847-27.381c-0.672-6.383-2.184-5.037-4.704-4.533
				C39.454,110.158,39.491,110.381,39.528,110.611z"/>
		</g>
		<path fill="#301800" d="M24.396,176.588c-0.385,0.543,0.408,1.637,3.365,1.715c2.21,0.059,6.707-0.619,9.771-1.828
			c1.716-0.676,2.984-1.52,3.15-2.494c0.009-0.059,0.015-0.115,0.017-0.174C35.464,176.635,28.025,177.238,24.396,176.588z"/>
		<path fill="#301800" d="M61.854,176.588c0.386,0.543-0.408,1.637-3.365,1.715c-2.21,0.059-6.707-0.619-9.77-1.828
			c-1.717-0.676-2.985-1.52-3.15-2.494c-0.009-0.059-0.014-0.115-0.017-0.174C50.785,176.635,58.223,177.238,61.854,176.588z"/>
	</g>
</g>
<rect x="87.304" y="76.703" fill="none" width="60.735" height="9.612"/>
<rect x="156.38" y="76.703" fill="none" width="60.735" height="9.612"/>
<rect x="67.499" y="79.622" fill="#28282F" width="40.501" height="80.878"/>
<rect x="108" y="80.122" fill="none" stroke="#9191AA" stroke-miterlimit="10" width="48.5" height="79.878"/>
<rect x="156.334" y="80.205" fill="none" stroke="#9191AA" stroke-miterlimit="10" width="59.167" height="79.461"/>
<line fill="none" stroke="#9191AA" stroke-linecap="round" stroke-miterlimit="10" x1="76" y1="94.5" x2="92" y2="94.5"/>
<line fill="none" stroke="#9191AA" stroke-linecap="round" stroke-miterlimit="10" x1="77.5" y1="106.5" x2="93.5" y2="106.5"/>
<line fill="none" stroke="#9191AA" stroke-linecap="round" stroke-miterlimit="10" x1="81" y1="100" x2="97" y2="100"/>
<ellipse fill="#9191AA" stroke="#9191AA" stroke-linecap="round" stroke-miterlimit="10" cx="117.438" cy="88.625" rx="3.938" ry="4.125"/>
<ellipse fill="#9191AA" stroke="#9191AA" stroke-linecap="round" stroke-miterlimit="10" cx="117.375" cy="106.5" rx="3.875" ry="4"/>
<ellipse fill="#9191AA" stroke="#9191AA" stroke-linecap="round" stroke-miterlimit="10" cx="118" cy="125.125" rx="4" ry="4.125"/>
<ellipse fill="#FFFFFF" stroke="#9191AA" stroke-linecap="round" stroke-miterlimit="10" cx="118.188" cy="143.812" rx="3.688" ry="3.812"/>
<circle fill="#2DC100" cx="150.5" cy="89.833" r="1.667"/>
<circle fill="#7C529D" cx="150.667" cy="105.5" r="1.667"/>
<circle fill="#00AFF0" cx="151" cy="124.833" r="1.667"/>
<circle fill="#2DC100" cx="151.334" cy="142.333" r="1.667"/>
<path fill="#D3F2EE" d="M179.25,99.167c0,2.164-0.56,3.917-1.25,3.917h-16.25c-0.69,0-1.25-1.753-1.25-3.917l0,0
	c0-2.163,0.56-3.916,1.25-3.916H178C178.69,95.251,179.25,97.004,179.25,99.167L179.25,99.167z"/>
<path fill="#D1FFD8" d="M209.829,89.877c0,2.14-0.25,3.875-1.792,3.875h-11.916c-1.542,0-1.792-1.735-1.792-3.875l0,0
	c0-2.14,0.25-3.875,1.792-3.875h11.916C209.579,86.002,209.829,87.737,209.829,89.877L209.829,89.877z"/>
<path fill="#D1FFD8" d="M209.829,109.127c0,2.14-0.25,3.875-1.792,3.875h-11.916c-1.542,0-1.792-1.735-1.792-3.875l0,0
	c0-2.14,0.25-3.875,1.792-3.875h11.916C209.579,105.252,209.829,106.987,209.829,109.127L209.829,109.127z"/>
<rect x="157" y="144.5" fill="#C8C7CC" width="58.251" height="15.666"/>
<path fill="#D3F2EE" d="M179.918,121.499c0,2.164-0.56,3.917-1.25,3.917h-16.25c-0.69,0-1.25-1.753-1.25-3.917l0,0
	c0-2.163,0.56-3.916,1.25-3.916h16.25C179.358,117.583,179.918,119.336,179.918,121.499L179.918,121.499z"/>
<line fill="none" stroke="#9191AA" stroke-linecap="round" stroke-miterlimit="10" x1="79.167" y1="122.5" x2="95.167" y2="122.5"/>
<line fill="none" stroke="#9191AA" stroke-linecap="round" stroke-miterlimit="10" x1="79.166" y1="130.5" x2="95.166" y2="130.5"/>
<line fill="none" stroke="#9191AA" stroke-linecap="round" stroke-miterlimit="10" x1="79.5" y1="139.167" x2="95.5" y2="139.167"/>
<line fill="none" stroke="#9191AA" stroke-linecap="round" stroke-miterlimit="10" x1="79.833" y1="147.833" x2="95.833" y2="147.833"/>
<line fill="none" stroke="#CACAEC" stroke-linecap="round" stroke-miterlimit="10" x1="117.375" y1="98.5" x2="147.375" y2="98.5"/>
<line fill="none" stroke="#CACAEC" stroke-linecap="round" stroke-miterlimit="10" x1="117.75" y1="116.625" x2="147.75" y2="116.625"/>
<line fill="none" stroke="#CACAEC" stroke-linecap="round" stroke-miterlimit="10" x1="119.75" y1="135.375" x2="149.75" y2="135.375"/>
<line fill="none" stroke="#FFFFFF" stroke-linecap="round" stroke-miterlimit="10" x1="164" y1="151.5" x2="180" y2="151.5"/>
<line fill="none" stroke="#FFFFFF" stroke-linecap="round" stroke-miterlimit="10" x1="164.5" y1="155.5" x2="180.5" y2="155.5"/>
<text transform="matrix(1.3138 0 0 1 71.4702 88.165)" fill="#FFFFFF" font-family="'MyriadPro-Regular'" font-size="5.5602">My Chats</text>
<g>
	<g>
		<path fill="#86B3B5" d="M120.328,90.014c-0.132-0.093-0.283-0.161-0.443-0.206l-0.168-0.045c0,0,0.002,0,0.003-0.001l-1.196-0.389
			l-1.105,1.43l-1.105-1.43l-1.197,0.389c0.001,0,0.002,0.001,0.003,0.001l-0.173,0.046c-0.138,0.038-0.271,0.092-0.386,0.168
			c-0.608,0.397-0.625,1.048-0.65,1.169c-0.002,0.01,0.006,0.019,0.018,0.019h3.489h3.489c0.012,0,0.021-0.009,0.019-0.019
			C120.901,91.03,120.893,90.414,120.328,90.014z"/>
		<path fill="#E5B295" d="M118.524,89.374l-0.132-0.042c-0.107-0.029-0.167-0.117-0.186-0.214c-0.054-0.277-0.047-0.943-0.046-1.062
			c0-0.01-0.008-0.017-0.019-0.017h-0.063h-1.318h-0.063c-0.011,0-0.019,0.007-0.019,0.017c0.001,0.118,0.007,0.771-0.046,1.062
			c-0.018,0.098-0.079,0.186-0.186,0.214l-0.132,0.042l1.105,1.43L118.524,89.374z"/>
	</g>
	<g>
		<g>
			<path fill="#F2B78B" d="M118.177,88.866c-0.006-0.31-0.018-0.602-0.017-0.68c0-0.012-0.008-0.021-0.019-0.021h-1.445
				c-0.01,0-0.019,0.009-0.019,0.021c0,0.079-0.012,0.372-0.018,0.683c0.103,0.107,0.486,0.26,0.743,0.262
				C117.67,89.133,118.066,88.951,118.177,88.866z"/>
		</g>
		<g>
			<path fill="#E5B295" d="M116.055,86.625c0.102,0.274,0.043,0.704-0.129,0.787c-0.174,0.082-0.397-0.212-0.499-0.487
				c-0.102-0.274-0.043-0.563,0.13-0.646C115.729,86.197,115.952,86.352,116.055,86.625z"/>
			<path fill="#E5B295" d="M118.782,86.625c-0.102,0.274-0.043,0.704,0.129,0.787c0.174,0.082,0.397-0.212,0.499-0.487
				c0.102-0.274,0.044-0.563-0.129-0.646C119.107,86.197,118.884,86.352,118.782,86.625z"/>
		</g>
		<path fill="#E5B295" d="M117.411,84.256c-1.719-0.057-1.745,1.589-1.718,2.132c0.018,0.396,0.112,0.97,0.196,1.255
			c0.047,0.164,0.135,0.438,0.259,0.557c0.335,0.32,0.752,0.603,1.01,0.702c0.046,0.018,0.148,0.025,0.253,0.025
			c0.104,0,0.207-0.007,0.252-0.025c0.258-0.099,0.674-0.382,1.01-0.702c0.125-0.119,0.212-0.393,0.26-0.557
			c0.084-0.285,0.177-0.859,0.196-1.255C119.155,85.845,119.129,84.199,117.411,84.256z"/>
		<g>
			<ellipse fill="#332113" cx="116.546" cy="86.465" rx="0.215" ry="0.266"/>
			<ellipse fill="#332113" cx="118.291" cy="86.465" rx="0.214" ry="0.266"/>
		</g>
		<g>
			<g>
				<path fill="#FFFFFF" d="M116.975,87.675c0.076,0.169,0.247,0.286,0.444,0.286s0.367-0.117,0.443-0.286H116.975z"/>
			</g>
		</g>
		<path fill="#843B13" d="M118.649,87.73c-0.033,0.082-0.147,0.087-0.188,0.008c-0.068-0.134-0.187-0.278-0.345-0.356
			c-0.386-0.19-0.686,0.044-0.686,0.044c0.161,0.004,0.369,0.039,0.457,0.194c0.309,0.545-0.439,0.634-0.468,0.604
			c-0.029,0.029-0.777-0.06-0.468-0.604c0.087-0.155,0.296-0.19,0.457-0.194c0,0-0.3-0.234-0.686-0.044
			c-0.159,0.078-0.277,0.222-0.345,0.356c-0.041,0.079-0.155,0.073-0.188-0.008c-0.129-0.309-0.329-0.858-0.469-1.404
			c0,0,0.032,0.677,0.162,1.268c0.082,0.375,0.187,1.271,1.303,1.665c0.127,0.045,0.337,0.045,0.465,0.001
			c1.131-0.393,1.224-1.291,1.306-1.666c0.13-0.59,0.162-1.268,0.162-1.268C118.978,86.872,118.777,87.421,118.649,87.73z"/>
	</g>
</g>
<g>
	<g>
		
			<linearGradient id="SVGID_1_" gradientUnits="userSpaceOnUse" x1="159.3906" y1="510.5801" x2="159.3906" y2="508.6109" gradientTransform="matrix(1 0 0 1 -42 -403)">
			<stop  offset="0" style="stop-color:#6B2405"/>
			<stop  offset="1" style="stop-color:#A44F22"/>
		</linearGradient>
		<path fill="url(#SVGID_1_)" d="M119.621,107.563c0.005-1.188-0.12-2.863-0.14-3.178c-0.03-0.482-0.146-0.966-0.404-1.364
			c-0.38-0.589-1.066-0.877-1.738-0.877s-1.359,0.288-1.739,0.877c-0.258,0.398-0.374,0.882-0.404,1.364
			c-0.02,0.314-0.065,1.985-0.006,3.173c0.664-0.135,1.411-0.21,2.201-0.21C118.193,107.349,118.951,107.427,119.621,107.563z"/>
	</g>
	<g>
		<path fill="#E5B295" d="M117.371,108.837c0.567,0,1.094-0.3,1.528-0.812l-0.747-0.234c-0.092-0.026-0.143-0.11-0.159-0.206
			c-0.046-0.268-0.041-0.972-0.04-1.087c0-0.008-0.007-0.015-0.017-0.015h-1.13c-0.009,0-0.016,0.007-0.016,0.015
			c0.001,0.115,0.005,0.806-0.04,1.087c-0.015,0.096-0.067,0.18-0.159,0.206l-0.747,0.234
			C116.278,108.537,116.804,108.837,117.371,108.837z"/>
		<path fill="#E5B295" d="M114.417,109.482L114.417,109.482c-0.001,0.009,0.003,0.015,0.009,0.018
			C114.42,109.497,114.416,109.491,114.417,109.482z"/>
		<path fill="#CCE5F2" d="M120.326,109.482c-0.004-0.021-0.007-0.057-0.014-0.106c0-0.003,0-0.004,0-0.006
			c-0.001-0.016-0.004-0.03-0.007-0.049c0-0.002,0-0.005-0.001-0.007c-0.002-0.018-0.005-0.034-0.008-0.054
			c-0.004-0.022-0.008-0.046-0.014-0.072c-0.015-0.069-0.036-0.149-0.066-0.231c-0.01-0.026-0.021-0.055-0.033-0.082
			c-0.031-0.07-0.068-0.142-0.115-0.21c-0.009-0.015-0.019-0.028-0.028-0.042c-0.031-0.041-0.064-0.081-0.102-0.121
			c-0.037-0.039-0.079-0.076-0.124-0.113c-0.029-0.021-0.057-0.043-0.087-0.062c-0.091-0.058-0.189-0.104-0.292-0.136l-0.534-0.165
			c-0.434,0.512-0.959,0.812-1.527,0.812c-0.567,0-1.094-0.3-1.527-0.812l-0.538,0.166c-0.059,0.02-0.117,0.041-0.173,0.068
			c-0.056,0.026-0.109,0.058-0.159,0.095c-0.097,0.072-0.177,0.153-0.242,0.237c-0.022,0.027-0.042,0.057-0.061,0.085
			c-0.009,0.015-0.019,0.029-0.027,0.044c-0.018,0.028-0.034,0.057-0.048,0.086c-0.022,0.044-0.042,0.087-0.058,0.129
			c-0.099,0.254-0.109,0.481-0.122,0.547c-0.001,0.009,0.003,0.015,0.009,0.018c0.002,0.001,0.004,0.002,0.007,0.002h2.938h2.938
			c0.003,0,0.005-0.001,0.007-0.002C120.323,109.497,120.328,109.491,120.326,109.482z"/>
	</g>
	<g>
		<path fill="#D39E7A" d="M117.957,107.09c-0.006-0.241-0.004-0.469-0.003-0.53c0-0.008-0.007-0.015-0.017-0.015h-1.13
			c-0.009,0-0.016,0.007-0.016,0.015c0,0.061,0.002,0.288-0.003,0.53C117.165,107.22,117.577,107.22,117.957,107.09z"/>
	</g>
	<g>
		<path fill="#E5B295" d="M116.009,105.035c0.102,0.242,0.044,0.621-0.129,0.693c-0.173,0.073-0.396-0.186-0.498-0.428
			c-0.102-0.242-0.044-0.496,0.129-0.57C115.684,104.658,115.907,104.795,116.009,105.035z"/>
		<path fill="#E5B295" d="M118.734,105.035c-0.102,0.242-0.043,0.621,0.129,0.693c0.173,0.073,0.396-0.186,0.498-0.428
			c0.102-0.242,0.043-0.496-0.13-0.57C119.059,104.658,118.836,104.795,118.734,105.035z"/>
	</g>
	<path fill="#E5B295" d="M117.371,102.651c-1.733-0.068-1.758,1.586-1.732,2.13c0.019,0.396,0.173,0.969,0.257,1.253
		c0.048,0.163,0.134,0.314,0.259,0.434c0.452,0.433,1.215,0.579,1.215,0.579s0.764-0.146,1.216-0.579
		c0.125-0.119,0.211-0.271,0.26-0.434c0.083-0.284,0.239-0.858,0.257-1.253C119.131,104.237,119.105,102.583,117.371,102.651z"/>
	<g>
		<g>
			<path fill="#FFFFFF" d="M116.928,106.065c0.077,0.169,0.246,0.286,0.443,0.286c0.198,0,0.367-0.117,0.444-0.286H116.928z"/>
		</g>
	</g>
	<circle fill="#E0916E" cx="116.215" cy="105.558" r="0.251"/>
	<circle fill="#E0916E" cx="118.434" cy="105.558" r="0.251"/>
	<path fill="#843B13" d="M117.58,103.01c0.415,0.053,1.1,0.704,1.494,1.664c0.045,0.111,0.213,0.068,0.197-0.051
		c-0.089-0.654-0.358-1.278-0.75-1.691c-0.143-0.15-0.306-0.278-0.487-0.314c-0.169-0.033-0.356,0.029-0.471,0.192
		c-0.014,0.02-0.018,0.046-0.014,0.069C117.555,102.93,117.559,103.007,117.58,103.01z"/>
	
		<linearGradient id="SVGID_2_" gradientUnits="userSpaceOnUse" x1="157.2793" y1="507.5195" x2="160.3857" y2="507.5195" gradientTransform="matrix(1 0 0 1 -42 -403)">
		<stop  offset="0" style="stop-color:#BA7959"/>
		<stop  offset="0.9246" style="stop-color:#A34C21"/>
	</linearGradient>
	<path fill="url(#SVGID_2_)" d="M118.376,102.747c0.003-0.236-0.283-0.372-0.526-0.396c-0.74-0.079-1.598,0.201-2.036,0.783
		c-0.438,0.582-0.491,1.438-0.529,2.156c-0.023,0.424,0.029,0.823,0.097,1.222c0.012,0.062,0.025,0.128,0.041,0.188
		c0.057-0.64,0.367-1.412,0.577-1.783c0.427-0.755,1.445-1.151,2.241-1.543C118.441,103.276,118.374,102.964,118.376,102.747z"/>
	<g>
		<g>
			<path fill="#332113" d="M118.244,104.611c0.124,0,0.224,0.123,0.224,0.274c0,0.027-0.004,0.055-0.01,0.08
				c-0.028-0.111-0.114-0.192-0.214-0.192c-0.103,0-0.187,0.081-0.215,0.192c-0.007-0.025-0.011-0.053-0.011-0.08
				C118.017,104.734,118.118,104.611,118.244,104.611z"/>
			<path fill="#332113" d="M116.5,104.759c-0.102,0-0.186,0.08-0.214,0.188c-0.008-0.024-0.011-0.05-0.011-0.078
				c0-0.147,0.101-0.267,0.226-0.267s0.226,0.119,0.226,0.267c0,0.028-0.005,0.054-0.011,0.078
				C116.686,104.839,116.602,104.759,116.5,104.759z"/>
			<path fill="#332113" d="M116.5,105.135c-0.102,0-0.186-0.079-0.214-0.188c0.028-0.107,0.113-0.188,0.214-0.188
				s0.186,0.08,0.214,0.188C116.686,105.056,116.602,105.135,116.5,105.135z"/>
		</g>
		<g>
			<polygon fill="#332113" points="116.447,104.792 116.176,104.715 116.281,104.857 			"/>
			<polygon fill="#332113" points="118.296,104.748 118.568,104.715 118.462,104.857 			"/>
		</g>
	</g>
</g>
<g>
	<circle fill="#FCC14F" cx="117.979" cy="125.074" r="3.834"/>
	<circle fill="#FFD450" cx="117.979" cy="125.074" r="3.214"/>
	<circle fill="#555454" cx="116.506" cy="124.211" r="0.396"/>
	<circle fill="#555454" cx="119.451" cy="124.211" r="0.396"/>
	<path fill="none" stroke="#F49748" stroke-linecap="round" stroke-miterlimit="10" d="M119.677,126.846
		c-0.003-0.011-0.371-1.21-1.698-1.21c-1.328,0-1.695,1.199-1.699,1.21"/>
</g>
<g>
	<path fill="#F7D9B5" d="M118.85,144.79c-0.004-0.012-0.007-0.022-0.009-0.034c-0.046-0.239-0.041-0.813-0.04-0.916
		c0-0.008-0.007-0.015-0.016-0.015h-0.055h-1.136h-0.055c-0.008,0-0.016,0.007-0.016,0.015c0,0.102,0.005,0.664-0.04,0.916
		c-0.002,0.012-0.005,0.023-0.009,0.034c0.219,0.058,0.449,0.248,0.688,0.248C118.399,145.038,118.63,144.848,118.85,144.79z"/>
	<g>
		<g>
			<path fill="#EFBC8B" d="M118.815,144.54c-0.005-0.269-0.015-0.52-0.015-0.588c0-0.009-0.007-0.017-0.016-0.017h-1.246
				c-0.008,0-0.016,0.008-0.016,0.017c0,0.068-0.01,0.321-0.016,0.589c0.088,0.094,0.418,0.225,0.639,0.227
				C118.378,144.769,118.719,144.612,118.815,144.54z"/>
		</g>
		<g>
			<path fill="#F7D9B5" d="M116.987,142.609c0.087,0.236,0.038,0.605-0.112,0.676c-0.149,0.072-0.341-0.182-0.429-0.418
				c-0.087-0.235-0.038-0.485,0.112-0.556C116.707,142.239,116.898,142.373,116.987,142.609z"/>
			<path fill="#F7D9B5" d="M119.337,142.609c-0.088,0.236-0.038,0.605,0.111,0.676c0.149,0.072,0.342-0.182,0.43-0.418
				c0.087-0.235,0.038-0.485-0.112-0.556C119.617,142.239,119.424,142.373,119.337,142.609z"/>
		</g>
		<path fill="#F7D9B5" d="M118.148,140.515c-1.482-0.049-1.503,1.369-1.48,1.837c0.016,0.341,0.096,0.835,0.169,1.081
			c0.041,0.142,0.116,0.377,0.224,0.479c0.289,0.276,0.647,0.521,0.87,0.604c0.04,0.016,0.127,0.022,0.217,0.021
			c0.091,0.001,0.178-0.006,0.218-0.021c0.222-0.084,0.581-0.328,0.87-0.604c0.108-0.103,0.183-0.338,0.225-0.479
			c0.072-0.246,0.152-0.74,0.168-1.081C119.651,141.884,119.629,140.466,118.148,140.515z"/>
		<g>
			<g>
				<path fill="#FFFFFF" d="M117.78,143.513c0.066,0.146,0.212,0.247,0.382,0.247c0.169,0,0.316-0.102,0.382-0.247H117.78z"/>
			</g>
		</g>
		<g>
			<path fill="#5B77AA" d="M120.668,145.528c-0.113-0.08-0.243-0.139-0.381-0.178l-0.145-0.038c0-0.001,0.001-0.001,0.003-0.001
				L119,144.939c-0.08-0.021-0.127-0.08-0.15-0.149c-0.219,0.058-0.45,0.248-0.688,0.248c-0.238,0-0.469-0.19-0.688-0.248
				c-0.022,0.069-0.072,0.129-0.15,0.149l-1.145,0.372c0.001,0,0.002,0,0.003,0.001l-0.149,0.04
				c-0.119,0.033-0.233,0.08-0.333,0.145c-0.523,0.343-0.539,0.903-0.56,1.007c-0.002,0.01,0.006,0.018,0.016,0.018h3.006h3.005
				c0.01,0,0.018-0.008,0.016-0.018C121.162,146.403,121.155,145.872,120.668,145.528z"/>
		</g>
		<g>
			<path fill="#332113" d="M117.413,142.274c0.115,0,0.208,0.088,0.208,0.196s-0.093,0.195-0.208,0.195
				c-0.115,0-0.208-0.137-0.208-0.245S117.298,142.274,117.413,142.274z"/>
			<path fill="#332113" d="M118.907,142.274c0.115,0,0.208,0.038,0.208,0.146s-0.093,0.246-0.208,0.246
				c-0.115,0-0.208-0.088-0.208-0.196S118.792,142.274,118.907,142.274z"/>
		</g>
	</g>
	<g>
		<g>
			<g>
				<path fill="#3B4443" d="M116.842,142.034c0.063-0.317,0.166-0.623,0.306-0.907c-0.044-0.071-0.179-0.091-0.255-0.07
					c-0.49,0.688-0.188,1.634-0.135,1.813C116.803,142.594,116.787,142.312,116.842,142.034z"/>
			</g>
		</g>
	</g>
	<g>
		<g>
			<g>
				<path fill="#3B4443" d="M119.436,142.034c-0.063-0.317-0.166-0.623-0.306-0.907c0.044-0.071,0.179-0.091,0.255-0.07
					c0.491,0.688,0.189,1.634,0.135,1.813C119.476,142.594,119.491,142.312,119.436,142.034z"/>
			</g>
		</g>
	</g>
	
		<linearGradient id="SVGID_3_" gradientUnits="userSpaceOnUse" x1="159.7744" y1="544.3809" x2="159.7744" y2="543.5419" gradientTransform="matrix(1 0 0 1 -42 -403)">
		<stop  offset="0.1457" style="stop-color:#423A40"/>
		<stop  offset="1" style="stop-color:#665F72"/>
	</linearGradient>
	<path fill="url(#SVGID_3_)" d="M118.325,141.363c-0.292,0.064-0.595,0.037-0.893,0.067c-0.297,0.03-0.612,0.137-0.775,0.388
		c-0.123-0.659,0.271-1.208,0.854-1.443c0.389-0.156,1.083-0.143,1.327,0.243C119.086,141.009,118.69,141.284,118.325,141.363z"/>
	
		<linearGradient id="SVGID_4_" gradientUnits="userSpaceOnUse" x1="160.8086" y1="544.3809" x2="160.8086" y2="543.5421" gradientTransform="matrix(1 0 0 1 -42 -403)">
		<stop  offset="0.1457" style="stop-color:#423A40"/>
		<stop  offset="1" style="stop-color:#665F72"/>
	</linearGradient>
	<path fill="url(#SVGID_4_)" d="M118.36,141.198c0.217,0.092,0.456,0.123,0.682,0.193c0.226,0.069,0.454,0.195,0.543,0.399
		c0.194-0.444-0.112-0.914-0.529-1.174c-0.278-0.174-0.736-0.262-0.983-0.029C117.824,140.823,118.09,141.082,118.36,141.198z"/>
	<g>
		<path fill="#9DADCC" d="M117.465,144.697l-0.235,0.161l0.504,0.757l0.469-0.578C118.203,145.037,117.5,144.858,117.465,144.697z"
			/>
		<path fill="#9DADCC" d="M118.858,144.697l0.235,0.161l-0.504,0.757l-0.468-0.578C118.121,145.037,118.823,144.858,118.858,144.697
			z"/>
	</g>
</g>
<circle fill="#C52431" cx="120.468" cy="85.115" r="0.698"/>
<line fill="#FFFFFF" stroke="#FFFFFF" stroke-width="0.1" stroke-linecap="round" stroke-miterlimit="10" x1="120.463" y1="84.734" x2="120.459" y2="85.5"/>
<path fill="#D1FFD8" d="M209.83,134.46c0,2.14-0.25,3.875-1.793,3.875h-11.916c-1.541,0-1.791-1.735-1.791-3.875l0,0
	c0-2.14,0.25-3.875,1.791-3.875h11.916C209.58,130.585,209.83,132.32,209.83,134.46L209.83,134.46z"/>
</svg>
