<?xml version="1.0" encoding="utf-8"?>
<!-- Generator: Adobe Illustrator 16.0.0, SVG Export Plug-In . SVG Version: 6.00 Build 0)  -->
<!DOCTYPE svg PUBLIC "-//W3C//DTD SVG 1.1//EN" "http://www.w3.org/Graphics/SVG/1.1/DTD/svg11.dtd">
<svg version="1.1" id="Layer_1" xmlns="http://www.w3.org/2000/svg" xmlns:xlink="http://www.w3.org/1999/xlink" x="0px" y="0px"
	 width="250px" height="186px" viewBox="0 0 250 186" enable-background="new 0 0 250 186" xml:space="preserve">
<g>
	<g>
		<g>
			<g>
				<g>
					<g>
						<path fill="#415168" d="M215.969,68.575c-5.193,0-74.386,0-74.386,0s-69.194,0-74.387,0c-5.194,0-4.617,4.499-4.617,4.499
							v90.81h158.006v-90.81C220.585,73.074,221.162,68.575,215.969,68.575z"/>
						<path fill="#FFFFFF" d="M214.039,160.167H69.231c-0.776,0-1.406-0.63-1.406-1.406V75.062c0-0.777,0.63-1.407,1.406-1.407
							h144.808c0.773,0,1.404,0.63,1.404,1.407v83.699C215.443,159.537,214.812,160.167,214.039,160.167z"/>
					</g>
					<g>
						<rect x="43.746" y="163.225" fill="#E2E5DA" width="195.464" height="3.776"/>
						<rect x="229.766" y="163.225" fill="#F4F4F4" width="9.444" height="3.776"/>
						<rect x="43.746" y="163.225" fill="#F4F4F4" width="9.443" height="3.776"/>
						<path fill="#828485" d="M141.398,167.001H43.746c0,0,2.348,2.16,6.63,2.16c4.282,0,91.022,0,91.022,0s86.74,0,91.022,0
							c4.281,0,6.63-2.16,6.63-2.16H141.398z"/>
					</g>
				</g>
				<rect x="67.825" y="73.654" fill="none" width="147.575" height="7.855"/>
				<path fill="#FFFFFF" d="M172.997,76.474H75.423v3.148h97.574c0.864,0,1.573-0.709,1.573-1.575
					C174.57,77.182,173.861,76.474,172.997,76.474z"/>
				<rect x="68.499" y="76.474" fill="#EDEDED" width="2.99" height="3.148"/>
				<rect x="71.803" y="76.474" fill="#EDEDED" width="2.991" height="3.148"/>
				<path fill="#FFFFFF" d="M211.145,79.622h-33.646c-0.657,0-1.197-0.539-1.197-1.197V77.67c0-0.657,0.54-1.196,1.197-1.196h33.646
					c0.656,0,1.195,0.539,1.195,1.196v0.755C212.34,79.083,211.801,79.622,211.145,79.622z"/>
				<g>
					<circle fill="#ED4545" cx="69.482" cy="74.796" r="0.655"/>
					<circle fill="#D3AF16" cx="71.415" cy="74.796" r="0.655"/>
					<circle fill="#47EA78" cx="73.302" cy="74.796" r="0.655"/>
				</g>
				<circle fill="#E2E2E2" cx="141.479" cy="70.913" r="1.101"/>
				<circle fill="#415168" cx="141.479" cy="70.913" r="0.737"/>
			</g>
		</g>
	</g>
</g>
<g>
	<g>
		<ellipse opacity="0.5" fill="#CA9337" enable-background="new    " cx="148.039" cy="176.239" rx="99.961" ry="8.276"/>
		<ellipse opacity="0.5" fill="#CA9337" enable-background="new    " cx="68.828" cy="178.857" rx="66.861" ry="4.186"/>
	</g>
</g>
<g>
	<g>
		<path fill="#F2AC71" d="M58.062,54.356c0,3.448-2.876,4.676-4.627,5.087c-1.751,0.412,9.875,9.645,9.875,9.129
			c0-0.515-0.824-16.792-0.824-16.792S59.91,51.987,58.062,54.356z"/>
		<path fill="#F2AC71" d="M66.01,54.356c0,3.448,2.876,4.676,4.628,5.087c1.751,0.412-9.875,9.645-9.875,9.129
			c0-0.515,0.824-16.792,0.824-16.792S64.164,51.987,66.01,54.356z"/>
		<rect x="58.062" y="38.051" fill="#F2AC71" width="7.949" height="24.361"/>
		<polygon fill="#CC8C58" points="58.062,46.812 66.01,46.812 66.01,51.531 58.062,55.515 		"/>
		<g>
			<path fill="#F2AC71" d="M42.462,27.035c1.694-0.456,3.699,1.205,4.479,3.71c0.779,2.506,0.039,4.908-1.655,5.364
				c-1.694,0.458-3.699-1.204-4.478-3.711C40.028,29.894,40.77,27.491,42.462,27.035z"/>
			<path fill="#F2AC71" d="M81.609,27.035c-1.693-0.456-3.698,1.205-4.478,3.71c-0.78,2.506-0.039,4.908,1.656,5.364
				c1.693,0.458,3.699-1.204,4.478-3.711C84.044,29.894,83.303,27.491,81.609,27.035z"/>
		</g>
		<path fill="#F2AC71" d="M62.293,51.91c-3.462,0-13.18-5.094-15.875-8.676s-3.742-16.454-3.102-22.097
			c0.641-5.641,7.052-16.154,18.719-16.154s18.078,10.514,18.719,16.154c0.642,5.643-0.406,18.515-3.101,22.097
			C74.958,46.816,65.755,51.91,62.293,51.91z"/>
		<path fill="#CC8C58" d="M80.436,33.124c-0.321-1.255-0.864-1.675-1.1,0.455c-0.366,3.293-4.391,10.122-7.562,12.196
			c-3.171,2.073-1.097-0.122-0.854-3.903c0.244-3.781-2.815-3.534-5.062-2.502c-1.438,0.662-2.848,1.026-4.01,1.074v1.47
			c2.637-0.137,3.007-0.511,5.474-1.568c2.561-1.098,3.231-0.303,2.5,2.259c-0.731,2.561-1.283,4.208-3.844,5.671
			c-2.562,1.464-2.076-0.729-3.967-0.61c-0.056,0.004-0.109,0.009-0.162,0.013v4.207c0.157,0.016,0.306,0.025,0.444,0.025
			c3.462,0,12.667-5.094,15.361-8.676C78.985,41.467,79.913,37.433,80.436,33.124z M61.849,40.444
			c-0.652,0.026-1.227-0.044-1.684-0.22c-1.442-0.551-5.004-1.792-6.748,0.067c-1.828,1.951-0.055,6.654-2.738,4.46
			c-2.684-2.195-5.739-5.93-5.739-10.075c0-3.446-1.095-3.019-1.255-1.166c0.53,4.162,1.443,8.008,2.733,9.724
			c2.588,3.438,11.648,8.271,15.43,8.65v-4.207c-1.713,0.175-1.487,1.258-3.144,0.901c-1.708-0.365-2.353,0.013-4.06-1.573
			c-1.708-1.587-0.98-3.673-0.248-6.111c1.22-1.464,4.209,1.156,7.136,1.034c0.108-0.005,0.213-0.009,0.315-0.015v-1.469H61.849z"/>
		<path fill="#CC8C58" d="M60.434,31.014c0,1.874-0.195,3.169-0.507,4.795c-0.312,1.625-1.187,3.172,0.375,3.795
			c1.562,0.626,2.342,0.626,3.383-0.249s0.884,0.062,0.156,0.625s-2.55,1.126-3.799,0.312c-1.249-0.812-1.414-0.107-0.686-4.047
			C60.083,32.308,60.277,29.7,60.434,31.014z"/>
		<path fill="#CC8C58" d="M54.87,42.036c0.854,0.109,1.082,1.185,3.871,1.402c2.789,0.215,6.237-0.272,7.375-0.959
			c1.138-0.688,1.081-1.003,2.219-1.316c1.139-0.312,1.423,0.767-0.114,0.994c-1.537,0.229-0.967,0.509-2.049,1.013
			s-6.009,1.098-7.489,0.827c-1.479-0.27-2.732-0.839-3.7-1.079C54.016,42.677,53.789,41.789,54.87,42.036z"/>
		<path fill="#CC8C58" d="M59.008,45.606c2.04,0.847,3.661,0.71,5.075,0.146c1.414-0.563,1.433-0.154-0.219,0.698
			c-1.4,0.725-2.872,0.73-4.479-0.106C57.78,45.507,58.239,45.202,59.008,45.606z"/>
		<path fill="#4E2700" d="M52.404,174.458c-1.333,0.967-5.517,3.034-6.391,3.401c-0.873,0.369-0.367,1.841,3.081,1.933
			c2.21,0.058,6.707-0.619,9.771-1.828c1.716-0.677,2.984-1.521,3.15-2.494C62.473,172.757,55.3,172.252,52.404,174.458z"/>
		<path fill="#4E2700" d="M76.433,174.458c1.334,0.967,5.517,3.034,6.391,3.401s0.368,1.841-3.081,1.933
			c-2.21,0.058-6.705-0.619-9.77-1.828c-1.717-0.677-2.984-1.521-3.149-2.494C66.364,172.757,73.537,172.252,76.433,174.458z"/>
		<path fill="#425051" d="M50.493,94.314c-0.855,6.844-1.283,20.41,0.427,33.237c1.711,12.827,2.566,32.64,2.566,37.63
			c0,4.988-0.855,8.693-0.855,8.693s0.998,0.999,4.419,0.999c3.42,0,5.131,0.144,5.131,0.144s-0.428-3.705-0.57-9.266
			c-0.142-5.561-1.283-30.076-1.141-38.628c0.143-8.554-0.396-15.313,0.696-15.242c0.613,0.041,1.389,0.041,2.001,0
			c1.087-0.071,1.021,6.688,1.761,15.242c0.74,8.552,1.312,33.067,1.558,38.628c0.246,5.561,0.077,9.266,0.077,9.266
			s1.701-0.144,5.122-0.144s4.349-0.999,4.349-0.999s-1.114-3.705-1.462-8.693c-0.349-4.99-0.877-24.803-0.063-37.63
			c0.814-12.827-0.151-26.395-1.485-33.237C72.074,94.791,51.429,94.768,50.493,94.314z"/>
		<path fill="#5F7D6C" d="M47.654,61.693c-2.39,1.55,2.846,23.053,1.234,39.938c-0.161,1.68,4.074,3.374,13.148,3.139
			c9.074,0.235,13.305-1.459,13.148-3.139c-2.72-29.152,3.624-38.388,1.233-39.938c-2.277-1.478-5.676-2.981-8.909-3.933
			c-1.07,1.245-3.12,2.09-5.473,2.09s-4.402-0.845-5.473-2.09C53.332,58.712,49.932,60.216,47.654,61.693z"/>
		<path fill="#5F7D6C" d="M47.655,61.693c-2.135,1.142-17.417,11.904-19.219,13.205c-1.803,1.302-1.528,5.608,1.36,4.501
			c2.889-1.105,14.203-6.141,17.676-8.319C50.944,68.901,49.596,60.654,47.655,61.693z"/>
		<path fill="#F2AC71" d="M23.348,66.352C22.95,64.67,21.685,62.665,20,61.746c-1.684-0.92-3.25-4.06-3.828-5.367
			c-0.577-1.309-0.259-2.384,0.118-2.22c-0.859-1.31-0.008-2.637,0.833-1.846c-0.11-1.193,0.812-2.253,1.537-0.562
			c0.658-1.737,1.732,0.463,1.972,1.203c0.48,1.478,2.049,4.883,2.945,4.786c1.936-0.209,0.088-3.429,0.951-3.764
			c0.862-0.336,1.42,1.282,1.789,2.628c0.369,1.347,0.96,2.517,0.232,3.774s-1.797,2.751-1.141,4.891
			C26.065,67.409,23.727,68.042,23.348,66.352z"/>
		<path fill="#5F7D6C" d="M31.055,75.086c-1.337-2.55-4.83-11.179-4.83-11.179l-4.116,1.823c0,0,3.121,8.812,4.039,11.248
			C28.181,82.358,32.779,78.37,31.055,75.086z"/>
		<path fill="#CC8C58" d="M16.099,54.184c0.059-0.043,0.124-0.054,0.191-0.024c-0.062-0.095-0.115-0.188-0.159-0.282
			c1.39,1.882,2.279,4.213,2.468,4.503c0.199,0.306,0.812-0.147,0.596-0.576c-0.217-0.427-1.43-3.313-1.961-4.561
			c-0.194-0.456-0.334-0.812-0.452-1.141c0.111,0.034,0.227,0.104,0.342,0.211l-0.005-0.081l0.007,0.022
			c0.534,1.756,2.019,4.817,2.36,5.481c0.341,0.665,0.896,0.32,1.118-0.036c0.224-0.358-0.131-0.945-0.579-2.034
			c-0.448-1.09-1.148-3.16-1.399-3.889c-0.058-0.167-0.116-0.307-0.172-0.432c0.07,0.111,0.14,0.246,0.208,0.406
			c0.021-0.06,0.045-0.114,0.068-0.163l0.022,0.061c0.322,0.907,1.953,5.091,2.278,5.578c0.326,0.488,1.392,0.337,1.801,0.055
			l0.007-0.006c0.27,0.308,0.524,0.488,0.741,0.465c0.677-0.073,0.891-0.516,0.921-1.071c0.022,1.824,1.011,3.063,0.784,2.788
			c-1.652-2.001-3.858-1.427-4.587-1.253c-0.975,0.23-1.822,0.618-2.665,0.92c-0.843,0.305,0.395-0.335,0.356-0.652
			c-0.039-0.318-0.354-0.829-0.785-1.827C17.209,55.731,16.747,55.03,16.099,54.184z"/>
		<path fill="#5F7D6C" d="M76.705,62.086c1.417,1.768,4.874,24.314,5.564,26.428c0.69,2.114-2.068,5.431-3.75,2.837
			c-1.683-2.597-4.509-15.416-6.032-19.224C70.962,68.321,75.327,60.369,76.705,62.086z"/>
		<path fill="#F2AC71" d="M81.139,104.502c-0.183,1.721,0.348,4.032,1.633,5.457s1.723,4.904,1.834,6.332
			c0.112,1.426-0.544,2.333-0.847,2.055c0.377,1.521-0.865,2.489-1.398,1.467c-0.29,1.162-1.512,1.854-1.636,0.021
			c-1.196,1.421-1.482-1.01-1.462-1.789c0.037-1.554-0.393-5.51-1.24-5.817c-0.962-0.35,0.183,3.812-0.743,3.844
			c-0.924,0.031-1.242-1.961-1.144-3.354c0.098-1.392-0.072-2.691,1.031-3.637c1.103-0.946,1.58-2,1.669-4.236
			C78.926,102.605,81.342,102.783,81.139,104.502z"/>
		<polygon fill="#425051" points="68.206,107.136 74.741,112.941 69.55,119.234 64.967,114.286 		"/>
		<path fill="#5F7D6C" d="M82.188,89.783c0.056,2.879-0.324,16.674-0.324,16.674l-4.567-0.145c0,0,0.615-14.838,0.258-16.634
			C76.433,84.037,82.119,86.22,82.188,89.783z"/>
		<path fill="#4E2700" d="M46.673,17.82c2.204-1.499,10.798-0.983,12.774,0.259c1.976,1.242,3.073,1.243,4.83,0.178
			c1.756-1.063,8.343-1.597,11.636-0.709c3.293,0.885,3.755,7.957,3.536,11.862c-0.22,3.903-0.838,6.159,0.379,8.178
			c0.679,1.128,1.498-8.228,1.716-11.953c0.22-3.726,3.513-7.808,1.756-12.953c-1.757-5.145-5.269-7.452-4.391-5.501
			c0.877,1.953-2.854,2.84-7.245-0.71c-4.39-3.549-10.318-5.146-16.904-4.969c-6.587,0.178-5.928,1.065-1.757,1.243
			c4.171,0.177,1.756,1.241-4.171,1.597c-5.928,0.355-7.904,1.063-11.417,3.017c-3.512,1.951-2.854,2.661,0.659,1.242
			c3.513-1.42,4.793-0.523,1.976,0.533c-2.412,0.902-5.704,5.7-3.069,3.748c2.635-1.951,2.996,1.186,3.712,3.688
			c0.521,1.819,2.431,2.501,2.431,6.76c0,4.258-0.069,14.622,1.317,13.485C46.017,35.522,43.551,19.948,46.673,17.82z"/>
		<path fill="#222A2B" d="M69.189,34.271c0.949,0,1.722-1.104,1.722-2.46s-0.773-2.46-1.722-2.46c-0.948,0-1.722,1.104-1.722,2.46
			S68.241,34.271,69.189,34.271z"/>
		<ellipse fill="#FFFFFF" cx="69.72" cy="30.909" rx="0.736" ry="1.052"/>
		<path fill="#4E2700" d="M66.869,28.504c1.476-0.134,3.343-0.557,4.913-0.254c1.57,0.304,2.011-0.163,0.153-0.86
			c-1.622-0.607-3.246-0.792-5.015-0.659C65.351,26.85,65.557,28.623,66.869,28.504z"/>
		<path fill="#222A2B" d="M54.747,34.271c0.949,0,1.722-1.104,1.722-2.46s-0.773-2.46-1.722-2.46c-0.948,0-1.722,1.104-1.722,2.46
			S53.799,34.271,54.747,34.271z"/>
		<ellipse fill="#FFFFFF" cx="55.258" cy="30.909" rx="0.736" ry="1.052"/>
		<path fill="#4E2700" d="M57.067,28.504c-1.477-0.134-3.343-0.557-4.913-0.254c-1.569,0.304-2.011-0.163-0.151-0.86
			c1.62-0.607,3.246-0.792,5.015-0.659C58.585,26.85,58.379,28.623,57.067,28.504z"/>
		<g>
			<path fill="#333333" d="M53.179,28.724h4.94c0.601,0,1.147,0.245,1.542,0.641c0.396,0.396,0.642,0.942,0.642,1.542v3.78
				c0,0.601-0.246,1.146-0.642,1.542c-0.395,0.396-0.941,0.642-1.542,0.642h-4.94v-1.05h4.94c0.311,0,0.594-0.129,0.8-0.334
				c0.205-0.206,0.333-0.487,0.333-0.8v-3.78c0-0.311-0.128-0.594-0.333-0.8c-0.206-0.205-0.489-0.332-0.8-0.332h-4.94V28.724z
				 M48.238,28.724h4.94v1.051h-4.94c-0.311,0-0.594,0.127-0.799,0.332c-0.206,0.206-0.333,0.489-0.333,0.8v3.78
				c0,0.312,0.128,0.594,0.333,0.8c0.205,0.205,0.488,0.334,0.799,0.334h4.94v1.05h-4.94c-0.601,0-1.146-0.246-1.542-0.642
				c-0.395-0.396-0.64-0.941-0.64-1.542v-3.78c0-0.6,0.246-1.146,0.64-1.542C47.092,28.969,47.638,28.724,48.238,28.724z"/>
			<rect x="59.777" y="30.446" fill="#333333" width="4.443" height="1.053"/>
			<path fill="#333333" d="M45.403,28.732h3.76l-2.274,1.491h-1.486c-0.191,0-0.348-0.156-0.348-0.349v-0.793
				C45.055,28.89,45.212,28.732,45.403,28.732z"/>
			<path fill="#333333" d="M75.834,29.774h-4.94v-1.051h4.94c0.6,0,1.146,0.245,1.542,0.641c0.396,0.396,0.642,0.942,0.642,1.542
				v3.78c0,0.601-0.246,1.146-0.642,1.542c-0.395,0.396-0.941,0.642-1.542,0.642h-4.94v-1.05h4.94c0.311,0,0.594-0.129,0.8-0.334
				c0.205-0.206,0.332-0.487,0.332-0.8v-3.78c0-0.312-0.127-0.594-0.332-0.8C76.429,29.901,76.145,29.774,75.834,29.774z
				 M70.894,29.774h-4.941c-0.311,0-0.594,0.127-0.799,0.332c-0.206,0.206-0.333,0.489-0.333,0.8v3.78
				c0,0.312,0.127,0.594,0.333,0.8c0.206,0.205,0.489,0.334,0.799,0.334h4.941v1.05h-4.941c-0.6,0-1.146-0.246-1.542-0.642
				c-0.395-0.396-0.641-0.941-0.641-1.542v-3.78c0-0.6,0.246-1.146,0.641-1.542c0.396-0.396,0.942-0.641,1.542-0.641h4.941V29.774z"
				/>
			<path fill="#333333" d="M78.669,28.732h-3.76l2.275,1.491h1.485c0.191,0,0.348-0.156,0.348-0.349v-0.793
				C79.017,28.89,78.86,28.732,78.669,28.732z"/>
		</g>
		<path fill="#486354" d="M47.572,71.674c0.839,8.144,2.318,19.872,1.354,29.957c-0.16,1.68,4.075,3.374,13.149,3.139
			c9.074,0.235,13.309-1.459,13.148-3.139c-0.618-6.477-1.049-16.254-0.47-22.7c0.083-0.922,0.269-1.897,0.369-2.748
			c-0.17-3.429-0.459-8.861,0.136-11.832c0.594-2.969-1.332,1.979-1.466,5.734c-0.134,3.758-0.728,10.691-0.594,15.389
			c0.134,4.695,0.805,13.239,0.134,15.922c-0.671,2.685-9.2,2.5-11.615,2.5s-6.306,0.269-8.587-0.672
			c-2.281-0.938-2.549-2.55-2.281-6.438c0.268-3.892-0.939-11.807-1.341-16.636C49.105,75.319,48.3,67.404,48.3,64.182
			c-0.255-1.443-0.634,1.116-0.634,3.298C47.667,68.46,47.667,70.054,47.572,71.674z"/>
		<path fill="#486354" d="M27.396,76.619c-0.374,1.651,0.364,3.561,2.399,2.78c2.889-1.105,14.203-6.141,17.676-8.319
			c0.139-0.087,0.271-0.187,0.395-0.293c0.264-3.607,0.299-6.723,0.104-5.748c-0.332,1.654-0.552,4.967-1.767,5.85
			c-1.214,0.883-7.615,3.752-10.705,5.298c-3.091,1.545-6.292,2.869-7.395,1.545C27.922,77.514,27.681,77.126,27.396,76.619z"/>
		<path fill="#486354" d="M22.14,65.818c0.325,0.917,3.143,8.867,4.008,11.16c1.409,3.726,4.047,2.958,4.963,1.041
			c-1.349,0.374-2.446,0.383-3.006-0.288c-1.104-1.324-4.415-8.83-5.96-11.92L22.14,65.818z"/>
		<path fill="#486354" d="M81.865,106.404l-0.001,0.053l-4.567-0.145c0,0,0.615-14.838,0.258-16.634
			c-0.311-1.566-0.097-2.528,0.377-3.027c0.282,0.833,0.516,1.478,0.667,1.843c0.682,1.635-0.136,4.768-0.136,7.49
			c0,2.726-0.544,9.263,0.681,9.263C80.193,105.247,80.844,106.146,81.865,106.404z"/>
		<path fill="#486354" d="M78.796,91.715c-0.095-0.105-0.188-0.227-0.277-0.364c-1.3-2.006-3.282-10.111-4.819-15.452
			c0.294-0.368,0.608-0.713,0.949-1.024c0.954,4.768,3.27,11.986,3.949,13.62C78.929,89.288,78.906,90.434,78.796,91.715z"/>
		<g>
			<path fill="#253233" d="M49.824,103.701c-0.222,6.904-0.013,15.531,1.096,23.852c1.711,12.827,2.566,32.641,2.566,37.629
				c0,4.989-0.855,8.694-0.855,8.694s0.998,0.999,4.419,0.999c0.602,0,1.15,0.005,1.647,0.012c-2.769-0.544-4.484-1.662-3.997-3.484
				c0.671-2.521-0.504-19.82-0.504-27.213c0-7.391-3.192-29.897-4.367-40.479L49.824,103.701z"/>
			<path fill="#253233" d="M60.862,112.1c0.083-0.148,0.184-0.226,0.305-0.217c0.613,0.041,1.389,0.041,2.001,0
				c1.087-0.072,1.021,6.689,1.761,15.242c0.74,8.552,1.312,33.066,1.558,38.628c0.246,5.56,0.077,9.267,0.077,9.267
				s1.701-0.145,5.122-0.145c1.656,0,2.728-0.232,3.393-0.475c-4.333,0.938-6.932-0.073-6.771-2.16
				c0.168-2.184-1.008-22.676-1.008-28.891c0-6.216-1.176-20.996-1.847-27.38c-0.672-6.383-2.184-5.038-4.704-4.534
				C60.787,111.646,60.824,111.869,60.862,112.1z"/>
		</g>
		<path fill="#301800" d="M45.729,178.077c-0.385,0.543,0.408,1.636,3.365,1.715c2.21,0.058,6.707-0.619,9.771-1.828
			c1.716-0.677,2.984-1.521,3.15-2.494c0.009-0.059,0.015-0.116,0.017-0.174C56.798,178.123,49.359,178.727,45.729,178.077z"/>
		<path fill="#301800" d="M83.187,178.077c0.386,0.543-0.408,1.636-3.365,1.715c-2.21,0.058-6.707-0.619-9.77-1.828
			c-1.717-0.677-2.985-1.521-3.15-2.494c-0.009-0.059-0.014-0.116-0.017-0.174C72.118,178.123,79.556,178.727,83.187,178.077z"/>
	</g>
</g>
<g>
	<g>
		<g>
			<polygon fill="#72D3DA" points="96.652,114.712 93.623,108.282 90.594,114.712 			"/>
		</g>
		<g>
			<polygon fill="#FFD77A" points="105.326,114.712 100.004,102.36 94.682,114.712 			"/>
		</g>
		<g>
			<polygon fill="#42505A" points="116.206,114.712 109.254,93.309 102.304,114.712 			"/>
		</g>
		<g>
			<polygon fill="#FF835E" points="126.812,114.712 119.919,97.68 113.025,114.712 			"/>
		</g>
	</g>
	<g>
		<g>
			<g>
				<g>
					<path fill="#EBA538" d="M108.026,126.221c2.086,0,3.785,1.697,3.785,3.784c0,2.086-1.698,3.784-3.785,3.784
						c-2.087,0-3.784-1.698-3.784-3.784C104.242,127.918,105.939,126.221,108.026,126.221 M108.026,123.246
						c-3.732,0-6.757,3.026-6.757,6.759c0,3.731,3.025,6.757,6.757,6.757s6.757-3.025,6.757-6.757
						C114.783,126.272,111.758,123.246,108.026,123.246L108.026,123.246z"/>
				</g>
			</g>
		</g>
		<path fill="#CE8424" d="M104.242,130.005c0-2.001,1.562-3.64,3.529-3.771v-2.979c-3.614,0.134-6.502,3.104-6.502,6.751
			c0,3.646,2.888,6.616,6.502,6.751v-2.98C105.803,133.643,104.242,132.004,104.242,130.005z"/>
	</g>
	<g>
		<path fill="#F0574B" d="M127.947,126.58c2.086,0,3.784,1.697,3.784,3.784s-1.698,3.784-3.784,3.784
			c-2.087,0-3.785-1.697-3.785-3.784S125.86,126.58,127.947,126.58 M127.947,123.607c-3.732,0-6.758,3.025-6.758,6.757
			c0,3.732,3.025,6.758,6.758,6.758s6.758-3.025,6.758-6.758C134.705,126.633,131.68,123.607,127.947,123.607L127.947,123.607z"/>
		<g>
			<path fill="#BC3B31" d="M124.223,131.011h-3.002c0.324,3.409,3.18,6.079,6.665,6.109l-0.063-2.978
				C126.014,134.083,124.523,132.75,124.223,131.011z"/>
			<path fill="#BC3B31" d="M127.947,126.58c2.086,0,3.784,1.697,3.784,3.784c0,0.221-0.022,0.437-0.06,0.646h3.001
				c0.021-0.212,0.032-0.429,0.032-0.646c0-3.731-3.025-6.757-6.758-6.757c-0.117,0-0.232,0.003-0.347,0.008l0.063,2.979
				C127.758,126.588,127.852,126.58,127.947,126.58z"/>
			<path fill="#BC3B31" d="M124.162,130.364c0-1.991,1.547-3.624,3.502-3.77l-0.063-2.979c-3.571,0.181-6.411,3.133-6.411,6.749
				c0,0.218,0.012,0.435,0.031,0.646h3.002C124.186,130.801,124.162,130.585,124.162,130.364z"/>
		</g>
	</g>
	<g>
		<path fill="#414F59" d="M88.623,126.574c2.087,0,3.785,1.697,3.785,3.784s-1.698,3.784-3.785,3.784
			c-2.086,0-3.784-1.697-3.784-3.784S86.536,126.574,88.623,126.574 M88.623,123.601c-3.732,0-6.757,3.025-6.757,6.758
			c0,3.731,3.025,6.757,6.757,6.757c3.732,0,6.758-3.025,6.758-6.757C95.38,126.626,92.355,123.601,88.623,123.601L88.623,123.601z"
			/>
		<path fill="#1D2C39" d="M84.898,131.004h-3.001c0.325,3.426,3.206,6.106,6.715,6.111v-2.973
			C86.751,134.137,85.206,132.781,84.898,131.004z"/>
	</g>
	<rect x="81.885" y="143.691" fill="#FF835E" width="53" height="3"/>
	<rect x="81.885" y="150.691" fill="#72D3DA" width="53" height="3"/>
</g>
<path fill="#6BD4DA" d="M144.751,97.579c-5.533,0-10.047,2.908-10.047,6.473c0,2.705,2.598,5.027,6.265,5.994
	c0.603,1.66,1.578,3.109,3.046,4.766c-0.64-1.35-0.976-2.914-1.051-4.391c0.58,0.066,1.177,0.104,1.787,0.104
	c5.534,0,10.049-2.906,10.049-6.473C154.8,100.487,150.285,97.579,144.751,97.579z"/>
<g>
	<path id="MobileMe_13_" fill="#FFD57B" d="M214.783,107.492c0,3.974-3.197,7.193-7.14,7.193h-22.092
		c-3.942,0-7.139-3.22-7.139-7.193c0-3.588,2.606-6.561,6.017-7.104c-0.043-0.252-0.067-0.511-0.067-0.777
		c0-2.518,2.026-4.559,4.525-4.559c1.114,0,2.135,0.407,2.924,1.082c1.404-3.189,3.205-6.099,8.257-6.099
		c6.127,0,9.03,4.761,9.03,9.785c0,0.21-0.009,0.417-0.023,0.624C212.332,101.112,214.783,104.015,214.783,107.492z"/>
	<g>
		<g>
			<path fill="#103754" d="M204.587,101.885h-3.969v5.12c0,0.745-0.606,1.353-1.353,1.353h-6.108v1.713
				c0,0.427,0.346,0.772,0.772,0.772h6.001l2.509,2.096c0.327,0.272,0.504,0.161,0.394-0.25l-0.49-1.832
				c-0.001-0.004-0.003-0.009-0.005-0.014h2.249c0.426,0,0.771-0.346,0.771-0.772v-7.413
				C205.358,102.23,205.013,101.885,204.587,101.885z"/>
			<path fill="#103754" d="M188.61,107.777h1.181c-0.002,0.004-0.004,0.008-0.005,0.012l-0.49,1.831
				c-0.069,0.261-0.025,0.4,0.099,0.4c0.073,0,0.174-0.048,0.294-0.149l2.508-2.094h0.961h6.108c0.428,0,0.773-0.346,0.773-0.772
				v-5.12v-2.294c0-0.425-0.346-0.772-0.773-0.772H188.61c-0.427,0-0.772,0.348-0.772,0.772v7.414
				C187.838,107.432,188.184,107.777,188.61,107.777z"/>
		</g>
	</g>
</g>
<rect x="87.304" y="76.703" fill="none" width="60.735" height="9.612"/>
<text transform="matrix(1 0 0 1 87.3037 85.2227)" fill="#415168" font-family="'MyriadPro-Regular'" font-size="12">My Chats</text>
<rect x="156.38" y="76.703" fill="none" width="60.735" height="9.612"/>
<text transform="matrix(1 0 0 1 156.3799 85.2227)" fill="#415168" font-family="'MyriadPro-Regular'" font-size="12">All Chats</text>
<g>
	<rect x="204.664" y="137.817" fill="#FEFDFD" width="9.412" height="16.61"/>
	<rect x="195.253" y="148.337" fill="#FC611F" width="9.411" height="6.091"/>
	<rect x="185.839" y="137.264" fill="#FFD77A" width="9.414" height="17.164"/>
	<rect x="176.428" y="120.101" fill="#464F5A" width="9.411" height="34.327"/>
	<rect x="167.016" y="107.919" fill="#1C2B38" width="9.412" height="46.509"/>
	<rect x="157.604" y="134.495" fill="#FFD77A" width="9.412" height="19.933"/>
	<rect x="148.189" y="146.122" fill="#FC611F" width="9.414" height="8.306"/>
</g>
</svg>
